<svg width="274" height="204" viewBox="0 0 274 204" fill="none" xmlns="http://www.w3.org/2000/svg">
<path d="M246.545 188.372H228.395V188.509H246.545V188.372Z" fill="#EBEBEB"/>
<path d="M181.509 189.862H176.746V189.999H181.509V189.862Z" fill="#EBEBEB"/>
<path d="M227.847 183.287H217.331V183.424H227.847V183.287Z" fill="#EBEBEB"/>
<path d="M52.4162 184.207H28.7481V184.344H52.4162V184.207Z" fill="#EBEBEB"/>
<path d="M60.7677 184.207H57.2989V184.344H60.7677V184.207Z" fill="#EBEBEB"/>
<path d="M123.382 186.52H72.0456V186.657H123.382V186.52Z" fill="#EBEBEB"/>
<path d="M130.643 155.114H24.8244C23.9945 155.114 23.1986 154.784 22.6118 154.198C22.025 153.611 21.6953 152.815 21.6953 151.985V3.24133C21.7025 2.4162 22.0354 1.62733 22.6214 1.04643C23.2075 0.465523 23.9992 0.139617 24.8244 0.139648H130.643C131.054 0.139648 131.461 0.220584 131.841 0.377835C132.22 0.535086 132.565 0.765573 132.856 1.05613C133.146 1.3467 133.377 1.69165 133.534 2.07128C133.691 2.45092 133.772 2.85781 133.772 3.26873V151.985C133.772 152.396 133.691 152.803 133.534 153.182C133.377 153.562 133.146 153.907 132.856 154.198C132.565 154.488 132.22 154.719 131.841 154.876C131.461 155.033 131.054 155.114 130.643 155.114ZM24.8244 0.249249C24.0313 0.250697 23.2711 0.566398 22.7103 1.12721C22.1495 1.68802 21.8338 2.44822 21.8323 3.24133V151.985C21.8338 152.778 22.1495 153.538 22.7103 154.099C23.2711 154.66 24.0313 154.976 24.8244 154.977H130.643C131.436 154.976 132.197 154.66 132.757 154.099C133.318 153.538 133.634 152.778 133.635 151.985V3.24133C133.634 2.44822 133.318 1.68802 132.757 1.12721C132.197 0.566398 131.436 0.250697 130.643 0.249249H24.8244Z" fill="#EBEBEB"/>
<path d="M249.176 155.114H143.357C142.527 155.114 141.731 154.784 141.144 154.198C140.557 153.611 140.228 152.815 140.228 151.985V3.24133C140.235 2.4162 140.568 1.62733 141.154 1.04643C141.74 0.465523 142.532 0.139617 143.357 0.139648H249.176C250.006 0.139648 250.801 0.469319 251.388 1.05613C251.975 1.64295 252.305 2.43884 252.305 3.26873V151.985C252.305 152.815 251.975 153.611 251.388 154.198C250.801 154.784 250.006 155.114 249.176 155.114ZM143.357 0.249249C142.564 0.250697 141.803 0.566398 141.243 1.12721C140.682 1.68802 140.366 2.44822 140.365 3.24133V151.985C140.366 152.778 140.682 153.538 141.243 154.099C141.803 154.66 142.564 154.976 143.357 154.977H249.176C249.969 154.976 250.729 154.66 251.29 154.099C251.851 153.538 252.166 152.778 252.168 151.985V3.24133C252.166 2.44822 251.851 1.68802 251.29 1.12721C250.729 0.566398 249.969 0.250697 249.176 0.249249H143.357Z" fill="#EBEBEB"/>
<path d="M274 179.555H0V179.692H274V179.555Z" fill="#EBEBEB"/>
<path d="M65.3928 142.483C64.9325 137.189 59.5292 135.211 53.1231 135.77C46.717 136.329 41.7466 139.217 42.196 144.511L65.3928 142.483Z" fill="#F0F0F0"/>
<path d="M52.9149 133.353C55.885 133.09 56.8331 130.58 56.5755 127.61C56.318 124.639 54.9315 122.332 51.9723 122.59C49.0131 122.848 48.0541 125.363 48.3117 128.333C48.5692 131.303 49.9447 133.61 52.9149 133.353Z" fill="#F0F0F0"/>
<path d="M186.375 29.732C186.427 30.3195 186.303 30.9092 186.02 31.4266C185.737 31.9439 185.306 32.3656 184.783 32.6382C184.26 32.9109 183.668 33.0223 183.082 32.9583C182.496 32.8944 181.941 32.6579 181.49 32.2789C181.038 31.8999 180.708 31.3953 180.543 30.8291C180.378 30.2629 180.385 29.6604 180.562 29.0979C180.74 28.5354 181.08 28.0382 181.54 27.6692C182 27.3002 182.559 27.076 183.147 27.0249C183.934 26.9565 184.716 27.2031 185.321 27.7107C185.926 28.2183 186.305 28.9452 186.375 29.732Z" fill="#F5F5F5"/>
<path d="M202.853 28.2735C202.904 28.8598 202.78 29.4481 202.497 29.9638C202.213 30.4796 201.783 30.8998 201.261 31.1712C200.739 31.4426 200.148 31.553 199.563 31.4886C198.978 31.4242 198.425 31.1877 197.975 30.8092C197.524 30.4306 197.196 29.9269 197.031 29.3618C196.867 28.7967 196.874 28.1956 197.051 27.6344C197.229 27.0733 197.568 26.5773 198.027 26.2092C198.487 25.8411 199.045 25.6174 199.631 25.5664C200.417 25.4995 201.197 25.7469 201.801 26.2543C202.405 26.7617 202.784 27.4878 202.853 28.2735Z" fill="#F5F5F5"/>
<path d="M219.337 26.8326C219.389 27.4201 219.266 28.0098 218.982 28.5272C218.699 29.0445 218.269 29.4662 217.746 29.7388C217.223 30.0115 216.631 30.1229 216.044 30.0589C215.458 29.995 214.904 29.7585 214.452 29.3795C214 29.0005 213.671 28.4959 213.505 27.9297C213.34 27.3635 213.347 26.761 213.524 26.1985C213.702 25.636 214.042 25.1388 214.502 24.7698C214.962 24.4008 215.522 24.1766 216.109 24.1255C216.896 24.0571 217.678 24.3037 218.283 24.8113C218.888 25.3188 219.267 26.0458 219.337 26.8326Z" fill="#F5F5F5"/>
<path d="M187.843 46.5113C187.895 47.0988 187.772 47.6885 187.489 48.2059C187.205 48.7232 186.775 49.1449 186.252 49.4175C185.729 49.6902 185.137 49.8016 184.551 49.7376C183.964 49.6737 183.41 49.4372 182.958 49.0582C182.506 48.6792 182.177 48.1746 182.012 47.6084C181.847 47.0422 181.853 46.4397 182.031 45.8772C182.208 45.3147 182.549 44.8175 183.009 44.4485C183.469 44.0795 184.028 43.8553 184.616 43.8042C185.403 43.7358 186.184 43.9824 186.79 44.49C187.395 44.9976 187.774 45.7245 187.843 46.5113Z" fill="#F5F5F5"/>
<path d="M204.322 45.0757C204.373 45.662 204.249 46.2503 203.965 46.766C203.682 47.2818 203.252 47.702 202.73 47.9734C202.207 48.2448 201.616 48.3552 201.032 48.2908C200.447 48.2264 199.894 47.9899 199.443 47.6114C198.993 47.2328 198.664 46.7291 198.5 46.164C198.336 45.5989 198.343 44.9978 198.52 44.4366C198.697 43.8755 199.037 43.3795 199.496 43.0114C199.955 42.6433 200.513 42.4196 201.1 42.3686C201.489 42.3348 201.881 42.3779 202.254 42.4957C202.626 42.6134 202.972 42.8034 203.271 43.0548C203.571 43.3061 203.817 43.614 203.998 43.9608C204.178 44.3075 204.288 44.6864 204.322 45.0757Z" fill="#F5F5F5"/>
<path d="M220.806 43.6285C220.858 44.216 220.734 44.8057 220.451 45.3231C220.168 45.8404 219.737 46.2621 219.214 46.5347C218.691 46.8074 218.099 46.9188 217.513 46.8548C216.927 46.7909 216.372 46.5544 215.92 46.1754C215.469 45.7964 215.139 45.2918 214.974 44.7256C214.809 44.1594 214.816 43.5569 214.993 42.9944C215.171 42.4319 215.511 41.9347 215.971 41.5657C216.431 41.1967 216.99 40.9725 217.578 40.9214C218.365 40.853 219.147 41.0996 219.752 41.6072C220.357 42.1147 220.736 42.8417 220.806 43.6285Z" fill="#F5F5F5"/>
<path d="M189.312 63.3135C189.363 63.8998 189.239 64.488 188.955 65.0038C188.672 65.5196 188.242 65.9397 187.72 66.2111C187.198 66.4825 186.607 66.593 186.022 66.5286C185.437 66.4641 184.884 66.2277 184.433 65.8491C183.983 65.4706 183.655 64.9669 183.49 64.4018C183.326 63.8367 183.333 63.2356 183.51 62.6744C183.687 62.1132 184.027 61.6172 184.486 61.2491C184.946 60.881 185.504 60.6573 186.09 60.6064C186.479 60.5718 186.872 60.6144 187.245 60.7319C187.618 60.8493 187.964 61.0393 188.263 61.2908C188.562 61.5423 188.809 61.8504 188.989 62.1975C189.169 62.5447 189.279 62.9239 189.312 63.3135Z" fill="#F5F5F5"/>
<path d="M205.796 61.8668C205.848 62.4543 205.724 63.044 205.441 63.5613C205.158 64.0787 204.728 64.5003 204.205 64.773C203.682 65.0457 203.089 65.1571 202.503 65.0931C201.917 65.0291 201.363 64.7927 200.911 64.4137C200.459 64.0347 200.129 63.5301 199.964 62.9639C199.799 62.3976 199.806 61.7952 199.983 61.2327C200.161 60.6702 200.501 60.173 200.961 59.804C201.421 59.435 201.981 59.2107 202.568 59.1596C203.355 59.0912 204.137 59.3379 204.742 59.8455C205.347 60.353 205.726 61.08 205.796 61.8668Z" fill="#F5F5F5"/>
<path d="M222.274 60.4195C222.326 61.007 222.203 61.5967 221.92 62.1141C221.636 62.6314 221.206 63.0531 220.683 63.3257C220.16 63.5984 219.568 63.7098 218.981 63.6458C218.395 63.5819 217.841 63.3454 217.389 62.9664C216.937 62.5874 216.608 62.0828 216.443 61.5166C216.278 60.9504 216.284 60.3479 216.462 59.7854C216.639 59.2229 216.98 58.7257 217.44 58.3567C217.9 57.9877 218.459 57.7635 219.047 57.7124C219.833 57.644 220.615 57.8906 221.22 58.3982C221.826 58.9058 222.205 59.6327 222.274 60.4195Z" fill="#F5F5F5"/>
<path d="M218.712 61.3951L184.857 64.3543L214.876 27.8794L184.128 30.5701C184.042 30.5783 183.956 30.5693 183.873 30.5436C183.791 30.5179 183.715 30.476 183.649 30.4203C183.583 30.3647 183.529 30.2964 183.49 30.2195C183.451 30.1427 183.427 30.0588 183.421 29.9728C183.406 29.8005 183.46 29.6293 183.571 29.4968C183.682 29.3642 183.841 29.2812 184.013 29.2658L217.874 26.3066L187.849 62.7815L218.608 60.0908C218.782 60.0771 218.953 60.132 219.087 60.2437C219.22 60.3555 219.304 60.5151 219.321 60.6882C219.327 60.7746 219.317 60.8615 219.29 60.9438C219.263 61.0262 219.22 61.1024 219.163 61.1681C219.107 61.2338 219.038 61.2877 218.961 61.3266C218.883 61.3656 218.799 61.3888 218.712 61.3951Z" fill="#E6E6E6"/>
<path d="M219.233 126.514C219.181 126.355 219.083 126.214 218.951 126.11C218.82 126.005 218.66 125.942 218.493 125.928C217.021 125.86 215.627 125.244 214.586 124.202C213.232 122.837 212.438 120.771 212.306 118.316C212.294 118.095 212.197 117.886 212.036 117.734C211.875 117.581 211.662 117.495 211.44 117.494C211.32 117.495 211.202 117.52 211.092 117.567C210.982 117.615 210.883 117.684 210.8 117.771C210.718 117.859 210.654 117.961 210.612 118.074C210.571 118.186 210.552 118.306 210.558 118.426C210.711 121.308 211.687 123.774 213.347 125.435C214.648 126.737 216.373 127.529 218.208 127.665H218.334C218.478 127.676 218.623 127.651 218.755 127.593C218.887 127.534 219.003 127.444 219.092 127.33C219.181 127.217 219.24 127.082 219.265 126.94C219.289 126.798 219.278 126.651 219.233 126.514Z" fill="#F0F0F0"/>
<path d="M217.479 137.03C210.218 136.394 204.979 131.446 203.324 123.719C203.298 123.603 203.295 123.483 203.317 123.366C203.338 123.249 203.383 123.137 203.448 123.038C203.514 122.938 203.599 122.853 203.698 122.788C203.797 122.722 203.909 122.677 204.026 122.656C204.248 122.616 204.476 122.664 204.664 122.788C204.852 122.913 204.984 123.105 205.034 123.324C206.519 130.267 211.177 134.717 217.638 135.282C224.718 135.901 232.319 131.243 233.684 119.505C233.707 119.276 233.82 119.065 233.997 118.919C234.175 118.772 234.402 118.701 234.632 118.721C234.748 118.731 234.861 118.763 234.964 118.817C235.067 118.871 235.159 118.945 235.233 119.035C235.307 119.125 235.362 119.229 235.395 119.341C235.429 119.453 235.439 119.57 235.426 119.686C234.117 130.755 226.839 137.846 217.479 137.03Z" fill="#F0F0F0"/>
<path d="M203.779 116.02C203.663 116.01 203.55 115.977 203.447 115.923C203.344 115.869 203.252 115.795 203.178 115.705C203.104 115.615 203.049 115.512 203.016 115.4C202.982 115.288 202.972 115.171 202.985 115.055C204.289 103.986 211.566 96.889 220.921 97.711C229.141 98.4289 234.648 104.567 235.508 113.811C235.517 113.927 235.503 114.044 235.467 114.155C235.43 114.265 235.372 114.367 235.295 114.455C235.219 114.543 235.125 114.614 235.021 114.666C234.916 114.717 234.803 114.747 234.686 114.754C234.458 114.765 234.234 114.686 234.062 114.535C233.89 114.383 233.784 114.171 233.766 113.943C232.971 105.613 228.056 100.095 220.773 99.4592C213.72 98.8399 206.086 103.492 204.727 115.22C204.718 115.334 204.685 115.446 204.633 115.549C204.58 115.651 204.507 115.742 204.419 115.816C204.331 115.89 204.229 115.947 204.119 115.982C204.01 116.017 203.894 116.029 203.779 116.02Z" fill="#F0F0F0"/>
<path d="M217.836 132.334C216.534 132.23 215.258 131.911 214.06 131.391C213.948 131.342 213.848 131.271 213.765 131.181C213.682 131.091 213.619 130.986 213.58 130.87C213.54 130.755 213.525 130.633 213.535 130.511C213.545 130.389 213.58 130.271 213.638 130.164C213.741 129.976 213.909 129.832 214.112 129.761C214.314 129.69 214.536 129.697 214.734 129.78C215.876 130.271 217.098 130.553 218.34 130.613C223.705 130.92 229.371 127.117 229.93 117.933C230.27 112.272 228.33 107.701 224.713 105.515C224.526 105.402 224.388 105.222 224.326 105.013C224.264 104.803 224.283 104.577 224.379 104.381C224.433 104.272 224.509 104.175 224.603 104.097C224.696 104.019 224.804 103.961 224.921 103.927C225.038 103.893 225.16 103.882 225.281 103.897C225.401 103.912 225.518 103.952 225.623 104.013C229.815 106.545 232.062 111.685 231.678 118.037C231.13 126.892 225.617 132.789 218.236 132.367L217.836 132.334Z" fill="#F0F0F0"/>
<path d="M210.032 126.87C209.931 126.939 209.817 126.985 209.697 127.008C209.578 127.03 209.455 127.028 209.336 127C209.217 126.973 209.105 126.922 209.007 126.849C208.909 126.777 208.827 126.685 208.766 126.58C207.142 123.56 206.428 120.133 206.711 116.716C207.226 108.238 212.306 102.468 219.205 102.369C219.327 102.367 219.448 102.39 219.56 102.436C219.672 102.482 219.774 102.551 219.858 102.639C219.943 102.726 220.008 102.83 220.05 102.944C220.093 103.058 220.111 103.18 220.104 103.301C220.091 103.52 219.995 103.726 219.837 103.878C219.679 104.031 219.469 104.118 219.249 104.123C214.131 104.222 208.991 108.09 208.465 116.82C208.199 119.905 208.835 123 210.295 125.731C210.405 125.92 210.439 126.144 210.39 126.358C210.341 126.571 210.213 126.758 210.032 126.881V126.87Z" fill="#F0F0F0"/>
<path d="M222.011 126.18C221.928 125.985 221.919 125.766 221.984 125.565C222.049 125.363 222.186 125.192 222.367 125.083C224.675 123.697 226.088 120.787 226.11 117.274C226.11 114.463 225.316 112.085 223.814 110.578C223.231 110 222.536 109.548 221.772 109.248C221.008 108.948 220.19 108.808 219.37 108.835C216.668 108.835 214.476 110.32 213.265 112.929C213.172 113.127 213.007 113.283 212.804 113.365C212.601 113.447 212.374 113.45 212.169 113.373C212.055 113.33 211.951 113.265 211.863 113.18C211.775 113.095 211.706 112.994 211.66 112.881C211.613 112.768 211.591 112.647 211.594 112.525C211.596 112.403 211.624 112.283 211.676 112.173C213.177 108.978 215.989 107.087 219.348 107.082C220.4 107.055 221.447 107.241 222.426 107.629C223.404 108.017 224.294 108.599 225.042 109.339C226.877 111.181 227.875 114.003 227.853 117.291C227.82 121.428 226.077 124.903 223.239 126.607C223.131 126.666 223.013 126.701 222.891 126.711C222.769 126.721 222.646 126.706 222.53 126.665C222.415 126.625 222.309 126.561 222.219 126.477C222.13 126.394 222.059 126.292 222.011 126.18Z" fill="#F0F0F0"/>
<path d="M215.698 119.708C215.581 119.756 215.455 119.778 215.329 119.772C215.203 119.767 215.079 119.734 214.967 119.676C214.854 119.618 214.756 119.537 214.678 119.437C214.6 119.338 214.544 119.223 214.515 119.1C214.454 118.864 214.41 118.618 214.372 118.366C213.873 115.078 215.638 112.233 218.471 111.724C219.131 111.58 219.815 111.593 220.469 111.762C221.122 111.93 221.728 112.249 222.236 112.694C222.331 112.779 222.406 112.884 222.455 113.001C222.504 113.119 222.526 113.247 222.52 113.374C222.513 113.501 222.477 113.626 222.416 113.737C222.354 113.849 222.269 113.946 222.165 114.02L222.11 114.058C221.946 114.173 221.747 114.227 221.547 114.212C221.348 114.197 221.159 114.114 221.014 113.976C220.707 113.717 220.343 113.532 219.952 113.437C219.561 113.342 219.154 113.339 218.762 113.428C216.602 113.817 215.78 116.064 216.087 118.081C216.12 118.278 216.153 118.47 216.202 118.629C216.255 118.835 216.232 119.054 216.136 119.244C216.04 119.434 215.879 119.584 215.682 119.664L215.698 119.708Z" fill="#F0F0F0"/>
<path d="M218.597 123.084C218.459 123.07 218.327 123.021 218.212 122.942C218.098 122.863 218.006 122.757 217.944 122.632C217.883 122.508 217.854 122.369 217.861 122.231C217.868 122.092 217.91 121.957 217.983 121.84L218.06 121.719C218.139 121.593 218.25 121.492 218.383 121.425C218.515 121.358 218.663 121.329 218.811 121.341C219.086 121.357 219.362 121.34 219.633 121.292C221.518 120.952 222.373 119.198 222.373 117.412C222.368 117.197 222.44 116.988 222.577 116.823C222.714 116.657 222.906 116.547 223.118 116.513C223.24 116.494 223.364 116.502 223.483 116.534C223.601 116.567 223.712 116.624 223.807 116.702C223.902 116.78 223.98 116.877 224.035 116.987C224.09 117.097 224.121 117.218 224.127 117.34C224.176 120.201 222.483 122.563 219.945 123.018C219.501 123.1 219.047 123.122 218.597 123.084Z" fill="#F0F0F0"/>
<path d="M218.986 119.845C218.544 119.808 218.124 119.633 217.786 119.345C217.448 119.057 217.208 118.67 217.101 118.239C217.07 118.118 217.069 117.99 217.097 117.868C217.125 117.746 217.182 117.632 217.263 117.536C217.344 117.44 217.446 117.365 217.562 117.317C217.678 117.268 217.804 117.248 217.929 117.258H218.131C218.285 117.274 218.43 117.335 218.55 117.432C218.67 117.529 218.758 117.659 218.805 117.806C218.825 117.883 218.867 117.951 218.927 118.002C218.987 118.053 219.061 118.084 219.14 118.091C219.562 118.13 219.633 117.543 219.644 117.401C219.669 117.187 219.629 116.971 219.529 116.782C219.378 116.599 219.3 116.366 219.31 116.129C219.323 115.955 219.389 115.789 219.498 115.653C219.607 115.516 219.754 115.415 219.921 115.363C220.087 115.31 220.266 115.309 220.433 115.359C220.601 115.408 220.749 115.507 220.86 115.642C221.288 116.182 221.485 116.869 221.408 117.554C221.266 118.995 220.252 119.954 218.986 119.845Z" fill="#F0F0F0"/>
<path d="M202.502 100.231C202.388 100.222 202.276 100.19 202.174 100.137C202.072 100.084 201.982 100.011 201.908 99.9229C201.834 99.8347 201.778 99.7329 201.744 99.6231C201.71 99.5133 201.697 99.3979 201.708 99.2834L202.371 91.6826L209.972 92.3512C210.086 92.3608 210.198 92.393 210.3 92.446C210.402 92.499 210.493 92.5716 210.566 92.6597C210.64 92.7479 210.696 92.8497 210.73 92.9595C210.765 93.0692 210.777 93.1847 210.766 93.2992C210.757 93.414 210.724 93.5258 210.672 93.6281C210.619 93.7305 210.546 93.8214 210.458 93.8957C210.37 93.97 210.268 94.0262 210.158 94.0612C210.049 94.0961 209.933 94.1091 209.818 94.0993L203.966 93.5842L203.456 99.4368C203.446 99.5516 203.413 99.6633 203.359 99.7654C203.306 99.8675 203.233 99.9581 203.144 100.032C203.055 100.106 202.953 100.161 202.843 100.196C202.733 100.23 202.617 100.242 202.502 100.231Z" fill="#F0F0F0"/>
<path d="M238.632 103.394C238.517 103.384 238.406 103.352 238.304 103.299C238.202 103.246 238.111 103.174 238.037 103.086C237.963 102.997 237.908 102.896 237.873 102.786C237.839 102.676 237.827 102.561 237.837 102.446L238.347 96.5934L232.494 96.0838C232.38 96.0735 232.268 96.0406 232.166 95.9871C232.064 95.9336 231.973 95.8604 231.899 95.7719C231.826 95.6833 231.77 95.581 231.736 95.4709C231.702 95.3609 231.689 95.2451 231.7 95.1303C231.71 95.0157 231.742 94.9042 231.795 94.8021C231.848 94.7 231.92 94.6094 232.008 94.5356C232.097 94.4617 232.198 94.406 232.308 94.3717C232.418 94.3374 232.533 94.3252 232.648 94.3357L240.249 94.9988L239.586 102.616C239.561 102.845 239.447 103.055 239.268 103.2C239.09 103.346 238.861 103.416 238.632 103.394Z" fill="#F0F0F0"/>
<path d="M235.941 144.263L228.341 143.6C228.226 143.59 228.114 143.557 228.012 143.504C227.91 143.45 227.819 143.377 227.746 143.288C227.672 143.2 227.616 143.098 227.582 142.987C227.548 142.877 227.536 142.762 227.546 142.647C227.556 142.532 227.588 142.421 227.641 142.319C227.694 142.216 227.766 142.126 227.855 142.052C227.943 141.978 228.045 141.922 228.154 141.888C228.264 141.854 228.38 141.842 228.494 141.852L234.347 142.362L234.856 136.515C234.866 136.399 234.898 136.287 234.952 136.184C235.005 136.082 235.078 135.99 235.167 135.916C235.255 135.842 235.358 135.786 235.468 135.751C235.578 135.716 235.695 135.704 235.81 135.715C235.924 135.724 236.036 135.756 236.138 135.809C236.24 135.862 236.331 135.935 236.405 136.023C236.478 136.111 236.534 136.213 236.568 136.323C236.603 136.433 236.615 136.548 236.604 136.663L235.941 144.263Z" fill="#F0F0F0"/>
<path d="M205.664 141.601L198.064 140.932L198.727 133.337C198.749 133.105 198.861 132.892 199.04 132.742C199.218 132.592 199.448 132.519 199.68 132.537C199.795 132.547 199.907 132.58 200.009 132.634C200.111 132.687 200.202 132.76 200.275 132.849C200.349 132.937 200.405 133.04 200.439 133.15C200.473 133.26 200.485 133.376 200.475 133.49L199.965 139.332L205.812 139.847C205.927 139.857 206.039 139.889 206.141 139.942C206.244 139.995 206.335 140.067 206.409 140.155C206.483 140.244 206.539 140.345 206.574 140.455C206.609 140.565 206.622 140.681 206.612 140.795C206.593 141.028 206.482 141.243 206.305 141.394C206.127 141.545 205.897 141.619 205.664 141.601Z" fill="#F0F0F0"/>
<path d="M40.952 125.155C40.8092 125.165 40.6679 125.12 40.5583 125.028C40.4488 124.936 40.3796 124.804 40.3657 124.662L39.9602 119.993L44.6291 119.582C44.7719 119.571 44.9132 119.617 45.0228 119.709C45.1324 119.801 45.2016 119.932 45.2155 120.075C45.2247 120.217 45.1784 120.357 45.0864 120.465C44.9943 120.573 44.8638 120.642 44.7223 120.656L41.1274 120.974L41.4398 124.568C41.4505 124.71 41.4057 124.851 41.3146 124.96C41.2236 125.07 41.0936 125.14 40.952 125.155Z" fill="#E0E0E0"/>
<path d="M63.168 123.209C63.026 123.22 62.8855 123.175 62.776 123.084C62.6666 122.993 62.5968 122.863 62.5816 122.722L62.2692 119.121L58.6689 119.439C58.5261 119.45 58.3848 119.404 58.2752 119.312C58.1656 119.22 58.0964 119.089 58.0825 118.946C58.0718 118.803 58.1174 118.662 58.2096 118.552C58.3018 118.443 58.4332 118.374 58.5757 118.36L63.2447 117.954L63.6557 122.623C63.6665 122.765 63.6216 122.906 63.5306 123.015C63.4395 123.124 63.3095 123.194 63.168 123.209Z" fill="#E0E0E0"/>
<path d="M65.4696 143.327L60.7951 143.738C60.6523 143.749 60.511 143.703 60.4014 143.611C60.2918 143.519 60.2227 143.387 60.2088 143.245C60.1981 143.102 60.2437 142.961 60.3359 142.851C60.428 142.741 60.5594 142.672 60.702 142.658L64.2968 142.346L63.9845 138.751C63.9737 138.609 64.0186 138.469 64.1096 138.359C64.2006 138.25 64.3307 138.18 64.4722 138.165C64.6141 138.154 64.7547 138.199 64.8641 138.29C64.9736 138.381 65.0433 138.511 65.0586 138.652L65.4696 143.327Z" fill="#E0E0E0"/>
<path d="M46.8485 144.955L42.196 145.36L41.785 140.686C41.7758 140.544 41.8221 140.404 41.9141 140.295C42.0061 140.187 42.1367 140.119 42.2782 140.105C42.4192 140.095 42.5584 140.141 42.6666 140.232C42.7749 140.323 42.8438 140.452 42.8591 140.592L43.1769 144.193L46.7718 143.875C46.9146 143.864 47.0559 143.91 47.1655 144.002C47.2751 144.094 47.3442 144.226 47.3582 144.368C47.3634 144.44 47.3543 144.512 47.3315 144.581C47.3087 144.649 47.2726 144.713 47.2252 144.767C47.1778 144.822 47.1202 144.866 47.0555 144.898C46.9909 144.931 46.9205 144.95 46.8485 144.955Z" fill="#E0E0E0"/>
<path d="M62.7898 47.2681L44.936 48.8025L44.5688 44.6213C44.542 42.6257 45.2707 40.6938 46.6088 39.2131C47.9469 37.7324 49.7953 36.8124 51.7834 36.6377C53.7714 36.4629 55.7521 37.0464 57.3279 38.2709C58.9038 39.4955 59.9583 41.2707 60.28 43.2403L60.4882 45.6734L63.0693 45.4487L62.8556 43.0156C62.7354 41.6433 62.3461 40.308 61.7099 39.0861C61.0737 37.8642 60.203 36.7796 59.1476 35.8942C58.0923 35.0087 56.8728 34.3398 55.5589 33.9257C54.245 33.5115 52.8624 33.3602 51.4901 33.4804C48.7185 33.7231 46.1568 35.0569 44.3686 37.1884C43.4832 38.2438 42.8143 39.4632 42.4002 40.7771C41.986 42.091 41.8347 43.4736 41.9549 44.8459L42.322 49.0546C41.3054 49.2536 40.3983 49.8214 39.7751 50.649C39.1519 51.4765 38.8567 52.5052 38.9464 53.5372L40.2232 68.1359C40.2687 68.6869 40.4227 69.2235 40.6762 69.7148C40.9297 70.2062 41.2777 70.6426 41.7004 70.999C42.123 71.3554 42.6119 71.6249 43.1389 71.7919C43.666 71.9588 44.2208 72.02 44.7716 71.972L64.79 70.2238C65.341 70.1783 65.8776 70.0243 66.3689 69.7709C66.8603 69.5174 67.2967 69.1693 67.6531 68.7467C68.0095 68.324 68.279 67.8352 68.4459 67.3081C68.6129 66.7811 68.6741 66.2262 68.626 65.6754L67.3492 51.0767C67.3003 50.5271 67.1435 49.9925 66.8878 49.5036C66.6322 49.0146 66.2826 48.5809 65.8591 48.2271C65.4357 47.8734 64.9466 47.6066 64.42 47.4421C63.8933 47.2775 63.3394 47.2184 62.7898 47.2681ZM55.1946 58.5185L55.633 63.5437C55.6625 63.746 55.6504 63.9521 55.5974 64.1495C55.5445 64.3469 55.4518 64.5314 55.325 64.6918C55.1982 64.8521 55.04 64.9848 54.8602 65.0819C54.6803 65.1789 54.4825 65.2383 54.2789 65.2562C54.0753 65.2741 53.8702 65.2503 53.6761 65.1862C53.482 65.1221 53.3031 65.019 53.1503 64.8833C52.9974 64.7476 52.8739 64.5821 52.7873 64.397C52.7006 64.2119 52.6527 64.011 52.6464 63.8067L52.208 58.7761C51.7559 58.4985 51.4029 58.0853 51.1993 57.5954C50.9957 57.1055 50.9519 56.5638 51.0741 56.0476C51.1962 55.5313 51.4782 55.0667 51.8797 54.72C52.2813 54.3733 52.782 54.1621 53.3105 54.1165C53.8391 54.071 54.3686 54.1933 54.8236 54.4662C55.2785 54.739 55.6358 55.1484 55.8446 55.6362C56.0533 56.1239 56.1029 56.6651 55.9862 57.1826C55.8695 57.7001 55.5924 58.1676 55.1946 58.5185Z" fill="#EBEBEB"/>
<path d="M93.4011 55.7015L91.5982 52.7478C90.6894 52.8772 89.7669 52.8772 88.8582 52.7478L87.0498 55.6905L86.7046 55.5974C85.5327 55.2886 84.4081 54.8222 83.3618 54.2109L83.0549 54.0356L83.8166 50.8352C83.8314 50.7732 83.8583 50.7146 83.8959 50.663C83.9334 50.6114 83.9808 50.5678 84.0354 50.5347C84.0899 50.5015 84.1505 50.4796 84.2136 50.47C84.2767 50.4605 84.3411 50.4635 84.403 50.479C84.5272 50.5089 84.6344 50.5869 84.7012 50.6958C84.768 50.8047 84.7888 50.9357 84.7592 51.0599L84.1564 53.5533C84.9351 53.9776 85.7561 54.3192 86.6059 54.5726L88.3705 51.6901L88.6938 51.7449C89.7175 51.9094 90.7608 51.9094 91.7845 51.7449L92.1024 51.6901L93.8669 54.5726C94.7174 54.3212 95.5386 53.9795 96.3165 53.5533L95.5328 50.2653L95.7959 50.0735C96.5097 49.5587 97.1495 48.9484 97.6974 48.2596C97.7736 48.1604 97.8853 48.0947 98.009 48.0763C98.1327 48.0579 98.2588 48.0883 98.3605 48.161C98.4138 48.198 98.459 48.2454 98.4933 48.3005C98.5276 48.3555 98.5504 48.417 98.5601 48.4811C98.5698 48.5452 98.5664 48.6106 98.55 48.6734C98.5336 48.7361 98.5045 48.7949 98.4646 48.846C97.9261 49.5261 97.3059 50.1371 96.6179 50.6654L97.4234 54.0246L97.1111 54.2C96.0661 54.8103 94.9435 55.2766 93.7738 55.5864L93.4011 55.7015ZM82.3206 49.268C82.1726 49.0981 82.0246 48.9172 81.8822 48.72L78.5229 49.5255L78.3421 49.2186C77.7353 48.17 77.2691 47.0461 76.9556 45.8759L76.868 45.5306L79.8107 43.7222C79.6813 42.8135 79.6813 41.891 79.8107 40.9822L76.868 39.1793L76.9556 38.8286C77.2692 37.6601 77.7353 36.538 78.3421 35.4913L78.5229 35.1789L81.8822 35.9845C82.443 35.2505 83.0991 34.5944 83.833 34.0336L83.2248 31.4908C83.1951 31.3666 83.2159 31.2356 83.2827 31.1267C83.3495 31.0178 83.4568 30.9399 83.581 30.91C83.6421 30.8953 83.7056 30.893 83.7677 30.903C83.8298 30.913 83.8893 30.9352 83.9428 30.9683C83.9963 31.0014 84.0427 31.0448 84.0794 31.0959C84.116 31.147 84.1422 31.2049 84.1564 31.2662L84.9181 34.4336L84.655 34.6199C83.8108 35.2274 83.0705 35.9677 82.463 36.8119L82.2712 37.075L78.9832 36.2913C78.5571 37.0692 78.2154 37.8904 77.964 38.7409L80.841 40.5055L80.7916 40.8233C80.6086 41.8454 80.6086 42.8919 80.7916 43.914L80.841 44.2373L77.964 46.0019C78.2164 46.8503 78.558 47.6696 78.9832 48.446L82.2712 47.6623L82.463 47.9254C82.6334 48.1738 82.8163 48.4134 83.011 48.6432C83.0955 48.7319 83.1426 48.8496 83.1426 48.972C83.1426 49.0945 83.0955 49.2122 83.011 49.3009C82.9643 49.3456 82.909 49.3803 82.8484 49.4029C82.7879 49.4256 82.7233 49.4357 82.6587 49.4326C82.5942 49.4295 82.5309 49.4134 82.4727 49.385C82.4146 49.3567 82.3628 49.3169 82.3206 49.268ZM101.906 49.5365L100.668 49.2406C100.543 49.2107 100.436 49.1327 100.369 49.0238C100.303 48.9149 100.282 48.7839 100.311 48.6597C100.341 48.5355 100.419 48.4282 100.528 48.3614C100.637 48.2947 100.768 48.2738 100.892 48.3035L101.44 48.4295C101.864 47.653 102.204 46.8337 102.454 45.9855L99.5771 44.2209L99.6319 43.8976C99.8149 42.8755 99.8149 41.829 99.6319 40.8069L99.5771 40.489L102.454 38.7245C102.205 37.8741 101.865 37.0529 101.44 36.2749L98.1523 37.0585L97.966 36.7955C97.357 35.9525 96.617 35.2124 95.774 34.6035L95.5109 34.4172L96.2946 31.1292C95.5166 30.7048 94.6954 30.3649 93.845 30.1154L92.064 33.0198L91.7462 32.965C90.7225 32.8005 89.6791 32.8005 88.6554 32.965L88.3321 33.0198L86.584 30.1263L86.2552 30.225C86.1382 30.2635 86.0107 30.2547 85.9 30.2005C85.7894 30.1462 85.7045 30.0507 85.6634 29.9345C85.6407 29.8745 85.6303 29.8105 85.6327 29.7464C85.6351 29.6823 85.6503 29.6193 85.6773 29.5611C85.7044 29.503 85.7428 29.4508 85.7902 29.4076C85.8377 29.3645 85.8933 29.3312 85.9538 29.3098C86.1949 29.2331 86.4415 29.1618 86.6826 29.0961L87.0279 29.0029L88.8363 31.9512C89.7446 31.8161 90.6679 31.8161 91.5763 31.9512L93.3792 29.0029L93.7299 29.0961C94.8989 29.4082 96.0212 29.8745 97.0672 30.4825L97.3796 30.6634L96.574 34.0226C97.3091 34.5822 97.9653 35.2385 98.5249 35.9735L101.884 35.1679L102.065 35.4803C102.674 36.5259 103.14 37.6483 103.451 38.8176L103.545 39.1683L100.596 40.9712C100.733 41.8795 100.733 42.803 100.596 43.7112L103.545 45.5196L103.451 45.8649C103.14 47.036 102.674 48.1602 102.065 49.2077L101.906 49.5365ZM90.0802 47.0486C88.8862 47.0013 87.7537 46.5057 86.9087 45.6607C86.0637 44.8157 85.5682 43.6833 85.5209 42.4892C85.4883 41.3147 85.8966 40.1706 86.6654 39.2821C87.4342 38.3937 88.5077 37.8252 89.6747 37.6887C89.7432 37.6802 89.8127 37.6863 89.8786 37.7066C89.9445 37.7269 90.0054 37.761 90.0572 37.8066C90.109 37.8521 90.1505 37.9082 90.1791 37.971C90.2076 38.0338 90.2225 38.102 90.2227 38.171C90.2221 38.2875 90.1789 38.3998 90.1012 38.4867C90.0234 38.5735 89.9165 38.6289 89.8008 38.6423C88.9887 38.7349 88.2295 39.0915 87.6398 39.6574C87.05 40.2233 86.6624 40.9671 86.5364 41.7747C86.4103 42.5822 86.5529 43.4088 86.9422 44.1275C87.3314 44.8461 87.9458 45.4171 88.6911 45.7528C89.4363 46.0884 90.2711 46.1701 91.0673 45.9854C91.8634 45.8006 92.5769 45.3596 93.0981 44.73C93.6194 44.1005 93.9195 43.3172 93.9525 42.5006C93.9854 41.6839 93.7494 40.879 93.2806 40.2095C93.2129 40.1147 93.1832 39.9979 93.1974 39.8822C93.2116 39.7666 93.2687 39.6605 93.3573 39.5848C93.4084 39.5394 93.4686 39.5054 93.5339 39.485C93.5992 39.4646 93.6681 39.4584 93.736 39.4667C93.8039 39.475 93.8692 39.4976 93.9277 39.5331C93.9862 39.5686 94.0365 39.6161 94.0752 39.6725C94.5736 40.3857 94.864 41.2234 94.9136 42.0921C94.9633 42.9608 94.7704 43.8262 94.3565 44.5915C93.9425 45.3569 93.3239 45.992 92.5697 46.4259C91.8154 46.8598 90.9554 47.0754 90.0857 47.0486H90.0802Z" fill="#F0F0F0"/>
<path d="M59.3539 95.8145L58.1866 93.913C57.5962 94.0007 56.9961 94.0007 56.4056 93.913L55.2384 95.8145L55.0137 95.7542C54.2572 95.5546 53.531 95.2542 52.8546 94.861L52.6573 94.7459L53.1505 92.6745C53.17 92.5949 53.22 92.5262 53.2897 92.4831C53.3594 92.4401 53.4433 92.4261 53.5232 92.4443C53.5631 92.454 53.6008 92.4714 53.6341 92.4956C53.6673 92.5199 53.6954 92.5504 53.7168 92.5856C53.7382 92.6207 53.7524 92.6597 53.7587 92.7004C53.7649 92.741 53.7631 92.7825 53.7533 92.8224L53.3697 94.4336C53.8725 94.709 54.4035 94.9294 54.9534 95.0912L56.0933 93.2334L56.296 93.2663C56.9583 93.3759 57.634 93.3759 58.2962 93.2663L58.499 93.2334L59.6443 95.0912C60.1913 94.926 60.7201 94.7057 61.2226 94.4336L60.7184 92.3183L60.8883 92.1922C61.349 91.8612 61.762 91.4685 62.1158 91.025C62.1639 90.9598 62.2359 90.9163 62.316 90.904C62.396 90.8917 62.4777 90.9116 62.5432 90.9592C62.5769 90.9832 62.6054 91.0136 62.6273 91.0487C62.6491 91.0837 62.6637 91.1228 62.6704 91.1636C62.677 91.2043 62.6755 91.246 62.6659 91.2862C62.6563 91.3264 62.6388 91.3643 62.6145 91.3976C62.2654 91.8372 61.8642 92.2328 61.4198 92.5758L61.9678 94.7678L61.7651 94.8829C61.0891 95.277 60.3628 95.5775 59.606 95.7762L59.3539 95.8145ZM52.197 91.6552L51.912 91.31L49.72 91.8251L49.605 91.6278C49.2189 90.9485 48.9258 90.2205 48.7336 89.4632L48.6734 89.2385L50.5749 88.0713C50.4872 87.4809 50.4872 86.8807 50.5749 86.2903L48.6734 85.123L48.7336 84.8984C48.9323 84.1415 49.2328 83.4152 49.6269 82.7392L49.742 82.5365L51.934 83.0845C52.2864 82.6047 52.6969 82.1703 53.156 81.7912L52.7669 80.1472C52.7572 80.1076 52.7554 80.0665 52.7617 80.0262C52.7681 79.9859 52.7824 79.9473 52.8038 79.9126C52.8252 79.8779 52.8534 79.8478 52.8866 79.8241C52.9197 79.8004 52.9573 79.7836 52.9971 79.7746C53.077 79.7564 53.1608 79.7703 53.2305 79.8134C53.3002 79.8564 53.3502 79.9252 53.3697 80.0047L53.8629 82.0488L53.6876 82.1748C53.1445 82.5644 52.6688 83.0401 52.2792 83.5832L52.1532 83.753L50.0379 83.2489C49.7657 83.7513 49.5454 84.2801 49.3803 84.8271L51.238 85.967L51.2051 86.1752C51.1486 86.5047 51.1193 86.8383 51.1174 87.1726C51.1193 87.5087 51.1486 87.8441 51.2051 88.1754L51.238 88.3782L49.3803 89.518C49.5444 90.0671 49.7647 90.5979 50.0379 91.1017L52.1532 90.5921L52.2792 90.762C52.3924 90.9242 52.515 91.0798 52.6464 91.2278C52.7003 91.2847 52.7304 91.3602 52.7304 91.4387C52.7304 91.5172 52.7003 91.5927 52.6464 91.6497C52.618 91.6809 52.5835 91.706 52.5451 91.7233C52.5066 91.7406 52.465 91.7498 52.4229 91.7503C52.3807 91.7508 52.3389 91.7426 52.3 91.7263C52.2612 91.7099 52.2261 91.6857 52.197 91.6552ZM64.8503 91.8251L64.0502 91.6388C64.0103 91.6291 63.9726 91.6117 63.9393 91.5874C63.9061 91.5632 63.878 91.5326 63.8566 91.4975C63.8352 91.4624 63.821 91.4234 63.8147 91.3827C63.8085 91.3421 63.8103 91.3006 63.8201 91.2606C63.8291 91.2209 63.8459 91.1833 63.8696 91.1501C63.8933 91.1169 63.9234 91.0888 63.9581 91.0674C63.9928 91.0459 64.0314 91.0316 64.0717 91.0253C64.112 91.019 64.1531 91.0207 64.1927 91.0305L64.538 91.1127C64.8134 90.6099 65.0339 90.0789 65.1956 89.529L63.3378 88.3891L63.3707 88.1864C63.4273 87.855 63.4566 87.5196 63.4584 87.1835C63.4566 86.8492 63.4272 86.5156 63.3707 86.1862L63.3378 85.9779L65.1956 84.8381C65.0328 84.2902 64.8124 83.7612 64.538 83.2598L62.4227 83.764L62.2966 83.5941C61.9071 83.051 61.4313 82.5753 60.8883 82.1858L60.7184 82.0597L61.2226 79.9444C60.7212 79.67 60.1922 79.4496 59.6443 79.2868L58.499 81.1446L58.2962 81.1117C57.634 81.0021 56.9583 81.0021 56.296 81.1117L56.0933 81.1446L54.9534 79.2868L54.7397 79.3526C54.6634 79.377 54.5805 79.3707 54.5089 79.3348C54.4372 79.299 54.3824 79.2365 54.3561 79.1608C54.3414 79.1224 54.3345 79.0813 54.3359 79.0402C54.3374 78.999 54.347 78.9586 54.3644 78.9213C54.3818 78.8839 54.4065 78.8505 54.4371 78.8229C54.4677 78.7953 54.5035 78.7742 54.5424 78.7608L55.0137 78.6183L55.2384 78.5635L56.4056 80.465C56.9961 80.3773 57.5962 80.3773 58.1866 80.465L59.3539 78.5635L59.5786 78.6183C60.3348 78.8212 61.0608 79.1234 61.7377 79.517L61.9404 79.6321L61.3924 81.8241C61.8643 82.1891 62.2878 82.6126 62.6528 83.0845L64.8448 82.5365L64.9599 82.7392C65.354 83.4152 65.6545 84.1415 65.8532 84.8984L65.9134 85.123L64.0119 86.2903C64.0996 86.8807 64.0996 87.4809 64.0119 88.0713L65.9134 89.2385L65.8532 89.4632C65.6536 90.2197 65.3531 90.9459 64.9599 91.6223L64.8503 91.8251ZM57.2112 90.2194C56.4666 90.1684 55.7669 89.8448 55.2457 89.3105C54.7245 88.7762 54.4184 88.0686 54.3859 87.323C54.3534 86.5773 54.5967 85.8458 55.0693 85.2681C55.5419 84.6905 56.2108 84.3072 56.9482 84.1914C56.9921 84.1869 57.0365 84.1915 57.0786 84.2051C57.1207 84.2186 57.1594 84.2408 57.1925 84.2702C57.2255 84.2996 57.252 84.3356 57.2703 84.3758C57.2886 84.416 57.2984 84.4596 57.2989 84.5038C57.2993 84.5798 57.2715 84.6533 57.2209 84.7099C57.1703 84.7666 57.1004 84.8025 57.0249 84.8107C56.5627 84.8635 56.1256 85.049 55.7664 85.3447C55.4072 85.6404 55.1412 86.0337 55.0006 86.4771C54.8599 86.9206 54.8505 87.3953 54.9735 87.8439C55.0966 88.2926 55.3468 88.6961 55.694 89.0058C56.0412 89.3154 56.4706 89.518 56.9304 89.5891C57.3902 89.6602 57.8607 89.5968 58.2852 89.4065C58.7097 89.2162 59.0702 88.9071 59.323 88.5166C59.5758 88.126 59.7102 87.6707 59.7101 87.2054C59.7111 86.7107 59.5579 86.228 59.2717 85.8245C59.2298 85.7622 59.2118 85.687 59.2209 85.6125C59.2299 85.5381 59.2655 85.4694 59.321 85.419C59.354 85.3893 59.393 85.367 59.4352 85.3536C59.4775 85.3401 59.5222 85.3359 59.5663 85.3411C59.6104 85.3462 59.6528 85.3608 59.6908 85.3836C59.7289 85.4065 59.7616 85.4372 59.7868 85.4738C60.1073 85.9348 60.2937 86.4758 60.3251 87.0364C60.3566 87.5971 60.2319 88.1555 59.965 88.6496C59.6981 89.1436 59.2994 89.554 58.8133 89.835C58.3271 90.116 57.7725 90.2567 57.2112 90.2414V90.2194Z" fill="#E6E6E6"/>
<path d="M137 204.001C195.681 204.001 243.252 201.224 243.252 197.798C243.252 194.372 195.681 191.595 137 191.595C78.3188 191.595 30.7483 194.372 30.7483 197.798C30.7483 201.224 78.3188 204.001 137 204.001Z" fill="#F5F5F5"/>
<path d="M199.171 49.9146H181.328L168.724 194.176H186.567C189.071 194.127 191.471 193.164 193.314 191.468C195.158 189.772 196.317 187.461 196.573 184.969L207.582 59.1155C207.71 57.9429 207.587 56.7565 207.22 55.6353C206.854 54.5142 206.252 53.484 205.457 52.6134C204.661 51.7428 203.688 51.0518 202.604 50.5865C201.521 50.1211 200.35 49.8921 199.171 49.9146Z" fill="#407BFF"/>
<path d="M195.532 49.9149H135.142C132.638 49.9618 130.237 50.9234 128.393 52.6183C126.549 54.3132 125.388 56.6243 125.13 59.1158L114.121 184.97C113.994 186.141 114.118 187.327 114.484 188.447C114.85 189.567 115.451 190.597 116.245 191.467C117.04 192.338 118.01 193.03 119.092 193.497C120.174 193.964 121.343 194.195 122.522 194.176H182.906C185.407 194.122 187.802 193.157 189.642 191.462C191.482 189.767 192.639 187.458 192.896 184.97L203.905 59.1158C204.033 57.9465 203.91 56.7634 203.546 55.645C203.182 54.5265 202.584 53.4983 201.792 52.6283C201 51.7584 200.033 51.0666 198.954 50.5988C197.874 50.131 196.708 49.8979 195.532 49.9149Z" fill="#407BFF"/>
<path opacity="0.3" d="M195.532 49.9149H135.142C132.638 49.9618 130.237 50.9234 128.393 52.6183C126.549 54.3132 125.388 56.6243 125.13 59.1158L114.121 184.97C113.994 186.141 114.118 187.327 114.484 188.447C114.85 189.567 115.451 190.597 116.245 191.467C117.04 192.338 118.01 193.03 119.092 193.497C120.174 193.964 121.343 194.195 122.522 194.176H182.906C185.407 194.122 187.802 193.157 189.642 191.462C191.482 189.767 192.639 187.458 192.896 184.97L203.905 59.1158C204.033 57.9465 203.91 56.7634 203.546 55.645C203.182 54.5265 202.584 53.4983 201.792 52.6283C201 51.7584 200.033 51.0666 198.954 50.5988C197.874 50.131 196.708 49.8979 195.532 49.9149Z" fill="white"/>
<path opacity="0.4" d="M195.274 52.8632H179.349C178.875 52.8671 178.412 53.0133 178.021 53.2829C177.63 53.5526 177.33 53.9332 177.157 54.3757C176.529 56.001 175.431 57.4023 174.003 58.4008C172.575 59.3993 170.882 59.9497 169.14 59.9817H159.747C158.107 60.0148 156.506 59.4747 155.22 58.4544C153.935 57.4341 153.046 55.9976 152.706 54.3921C152.615 53.9578 152.375 53.5688 152.028 53.2926C151.681 53.0164 151.248 52.8703 150.804 52.8797H134.885C133.183 52.9097 131.551 53.5627 130.297 54.7149C129.044 55.8671 128.257 57.4387 128.084 59.1323L117.069 184.986C116.981 185.783 117.064 186.589 117.312 187.352C117.56 188.114 117.968 188.815 118.508 189.407C119.049 189.999 119.709 190.469 120.446 190.786C121.182 191.103 121.978 191.259 122.779 191.244H183.169C184.872 191.213 186.504 190.559 187.757 189.406C189.01 188.252 189.797 186.68 189.97 184.986L200.979 59.1323C201.069 58.3351 200.987 57.5278 200.74 56.7645C200.493 56.0012 200.086 55.2995 199.546 54.7061C199.006 54.1127 198.346 53.6414 197.609 53.3236C196.872 53.0058 196.076 52.8488 195.274 52.8632Z" fill="white"/>
<path d="M180.226 121.248H137.964C137.674 121.253 137.386 121.196 137.119 121.081C136.852 120.966 136.613 120.795 136.417 120.581C136.221 120.366 136.073 120.112 135.983 119.836C135.893 119.56 135.862 119.268 135.893 118.979L136.107 116.557C136.17 115.943 136.455 115.373 136.909 114.955C137.364 114.537 137.956 114.3 138.573 114.288H180.84C181.13 114.284 181.419 114.341 181.685 114.456C181.952 114.571 182.191 114.741 182.387 114.956C182.583 115.17 182.731 115.424 182.822 115.7C182.912 115.976 182.943 116.268 182.911 116.557L182.703 118.979C182.639 119.595 182.352 120.166 181.895 120.584C181.439 121.002 180.845 121.238 180.226 121.248Z" fill="white"/>
<path d="M179.317 131.66H137.049C136.759 131.665 136.471 131.608 136.205 131.493C135.938 131.378 135.699 131.207 135.504 130.993C135.308 130.778 135.161 130.524 135.071 130.248C134.981 129.972 134.951 129.68 134.983 129.391L135.192 126.969C135.256 126.355 135.541 125.786 135.996 125.368C136.45 124.951 137.041 124.713 137.658 124.7H179.925C180.215 124.696 180.503 124.753 180.77 124.868C181.037 124.983 181.276 125.153 181.472 125.368C181.668 125.582 181.816 125.836 181.906 126.112C181.997 126.388 182.027 126.68 181.996 126.969L181.783 129.391C181.719 130.005 181.433 130.574 180.979 130.992C180.524 131.41 179.933 131.647 179.317 131.66Z" fill="white"/>
<path opacity="0.1" d="M167.387 55.2188C167.317 55.9008 167 56.5335 166.495 56.9971C165.99 57.4607 165.332 57.7229 164.647 57.7341C164.324 57.7399 164.005 57.6771 163.709 57.5497C163.413 57.4223 163.147 57.2333 162.93 56.9953C162.713 56.7574 162.549 56.4759 162.449 56.1695C162.349 55.8632 162.315 55.5391 162.35 55.2188C162.42 54.5368 162.738 53.9041 163.243 53.4405C163.748 52.9769 164.405 52.7147 165.09 52.7035C165.413 52.6977 165.732 52.7606 166.028 52.888C166.324 53.0154 166.59 53.2043 166.807 53.4423C167.024 53.6803 167.188 53.9618 167.288 54.2681C167.388 54.5744 167.422 54.8985 167.387 55.2188Z" fill="black"/>
<path opacity="0.1" d="M166.247 55.2194C166.208 55.5916 166.035 55.937 165.759 56.1903C165.484 56.4436 165.125 56.5875 164.751 56.5948C164.575 56.5983 164.4 56.564 164.238 56.4944C164.076 56.4249 163.931 56.3215 163.812 56.1913C163.693 56.0611 163.603 55.9071 163.549 55.7394C163.494 55.5718 163.476 55.3945 163.496 55.2194C163.533 54.8466 163.706 54.5006 163.982 54.2471C164.258 53.9935 164.617 53.85 164.992 53.8439C165.168 53.8413 165.342 53.8762 165.504 53.9461C165.665 54.0159 165.81 54.1193 165.929 54.2493C166.047 54.3793 166.137 54.533 166.192 54.7002C166.247 54.8674 166.265 55.0444 166.247 55.2194Z" fill="black"/>
<g opacity="0.8">
<path d="M187.838 59.417C187.743 59.4183 187.65 59.3995 187.563 59.3619C187.476 59.3243 187.398 59.2687 187.334 59.1988C187.271 59.1288 187.223 59.0462 187.193 58.9563C187.164 58.8664 187.154 58.7712 187.164 58.6772L187.284 57.3291C187.305 57.1299 187.397 56.945 187.545 56.8096C187.692 56.6743 187.884 56.5978 188.085 56.5948C188.179 56.5936 188.272 56.6122 188.358 56.6495C188.445 56.6868 188.522 56.7419 188.586 56.8112C188.649 56.8805 188.698 56.9625 188.727 57.0517C188.757 57.141 188.768 57.2355 188.759 57.3291L188.638 58.6772C188.618 58.8769 188.526 59.0624 188.378 59.1987C188.231 59.335 188.039 59.4126 187.838 59.417Z" fill="white"/>
<path d="M193.734 59.4174C193.64 59.4187 193.546 59.3999 193.459 59.3623C193.372 59.3247 193.295 59.2691 193.231 59.1992C193.167 59.1292 193.119 59.0466 193.09 58.9567C193.06 58.8668 193.05 58.7716 193.06 58.6776L193.34 55.5156C193.36 55.3164 193.453 55.1316 193.6 54.9962C193.748 54.8608 193.94 54.7843 194.14 54.7813C194.234 54.7801 194.327 54.7987 194.414 54.836C194.5 54.8733 194.578 54.9284 194.641 54.9977C194.705 55.067 194.753 55.149 194.783 55.2382C194.813 55.3275 194.823 55.422 194.814 55.5156L194.535 58.6776C194.514 58.8773 194.422 59.0628 194.275 59.1991C194.127 59.3354 193.935 59.413 193.734 59.4174Z" fill="white"/>
<path d="M190.786 59.4175C190.692 59.4188 190.598 59.4 190.511 59.3624C190.424 59.3248 190.346 59.2692 190.283 59.1993C190.219 59.1293 190.171 59.0467 190.141 58.9568C190.112 58.8669 190.102 58.7718 190.112 58.6777L190.309 56.4254C190.33 56.2248 190.423 56.0385 190.571 55.9021C190.72 55.7657 190.913 55.6886 191.115 55.6856C191.209 55.6842 191.303 55.703 191.39 55.7406C191.476 55.7783 191.554 55.834 191.617 55.904C191.68 55.9741 191.728 56.0568 191.757 56.1467C191.785 56.2366 191.794 56.3317 191.784 56.4254L191.586 58.6777C191.566 58.8774 191.474 59.0629 191.326 59.1992C191.179 59.3355 190.987 59.4131 190.786 59.4175Z" fill="white"/>
</g>
<g opacity="0.8">
<path d="M137.351 59.417H133.646C133.593 59.4182 133.54 59.4079 133.491 59.3868C133.442 59.3657 133.398 59.3344 133.362 59.2949C133.326 59.2555 133.299 59.2088 133.283 59.158C133.267 59.1072 133.262 59.0535 133.268 59.0005L133.438 57.0113C133.45 56.8984 133.503 56.7937 133.587 56.717C133.67 56.6403 133.779 56.5968 133.893 56.5948H137.597C137.651 56.5937 137.704 56.604 137.753 56.625C137.802 56.6461 137.845 56.6774 137.881 56.7169C137.917 56.7564 137.944 56.8031 137.96 56.8539C137.977 56.9047 137.982 56.9583 137.975 57.0113L137.8 59.0005C137.791 59.1135 137.739 59.2187 137.656 59.2958C137.573 59.3728 137.464 59.416 137.351 59.417Z" fill="white"/>
<path d="M139.066 58.8746C139.012 58.8756 138.959 58.8653 138.91 58.8443C138.861 58.8233 138.817 58.7921 138.78 58.7527C138.744 58.7133 138.717 58.6667 138.7 58.6159C138.683 58.5651 138.677 58.5113 138.682 58.4581L138.765 57.5484C138.775 57.435 138.828 57.3297 138.912 57.2527C138.996 57.1758 139.105 57.1328 139.219 57.1319C139.273 57.1308 139.326 57.1411 139.375 57.1621C139.424 57.1832 139.468 57.2145 139.503 57.254C139.539 57.2935 139.566 57.3402 139.582 57.391C139.599 57.4418 139.604 57.4954 139.598 57.5484L139.521 58.4581C139.509 58.571 139.456 58.6757 139.372 58.7524C139.288 58.8291 139.18 58.8725 139.066 58.8746Z" fill="white"/>
</g>
<path d="M173.263 105.318C180.637 98.2584 181.372 87.0593 174.905 80.3038C168.438 73.5483 157.218 73.7945 149.843 80.8538C142.469 87.9131 141.734 99.1122 148.201 105.868C154.668 112.623 165.888 112.377 173.263 105.318Z" fill="white"/>
<path d="M161.616 92.4121C156.969 92.4121 153.04 94.1821 152.706 98.0236L152.333 102.293H169.173L169.546 98.0236C169.88 94.1821 166.269 92.4121 161.616 92.4121Z" fill="#407BFF"/>
<path d="M161.77 90.6533C163.929 90.6533 164.926 88.9052 165.112 86.7461C165.299 84.587 164.614 82.8389 162.455 82.8389C160.295 82.8389 159.304 84.5925 159.112 86.7461C158.92 88.8997 159.61 90.6533 161.77 90.6533Z" fill="#407BFF"/>
<path d="M178.297 117.62C177.152 117.62 176.182 118.059 176.105 119.007L176.012 120.064H180.171L180.265 119.007C180.341 118.059 179.448 117.62 178.297 117.62Z" fill="#407BFF"/>
<path d="M178.336 117.187C178.884 117.187 179.114 116.754 179.163 116.222C179.212 115.691 179.037 115.258 178.506 115.258C177.974 115.258 177.727 115.691 177.678 116.222C177.629 116.754 177.804 117.187 178.336 117.187Z" fill="#407BFF"/>
<path d="M165.496 142.071H149.056C148.61 142.079 148.168 141.992 147.758 141.816C147.349 141.64 146.981 141.379 146.681 141.049C146.38 140.72 146.153 140.331 146.014 139.907C145.876 139.483 145.829 139.035 145.878 138.592C145.975 137.649 146.414 136.775 147.112 136.134C147.809 135.493 148.717 135.129 149.664 135.112H166.104C166.55 135.105 166.992 135.192 167.401 135.369C167.81 135.545 168.177 135.806 168.478 136.135C168.778 136.464 169.005 136.854 169.144 137.277C169.283 137.7 169.33 138.148 169.283 138.592C169.186 139.534 168.748 140.409 168.05 141.05C167.352 141.692 166.444 142.055 165.496 142.071Z" fill="#407BFF"/>
<path d="M163.507 180.881H145.91C145.438 180.894 144.969 180.805 144.535 180.62C144.1 180.435 143.71 180.159 143.392 179.81C143.074 179.461 142.835 179.048 142.69 178.598C142.546 178.148 142.501 177.673 142.557 177.204L143.68 164.37C143.781 163.374 144.243 162.45 144.979 161.772C145.715 161.095 146.675 160.711 147.675 160.693H165.277C165.748 160.685 166.215 160.777 166.647 160.963C167.08 161.149 167.467 161.426 167.785 161.774C168.102 162.121 168.341 162.533 168.487 162.981C168.633 163.428 168.682 163.902 168.631 164.37L167.507 177.204C167.404 178.2 166.941 179.123 166.204 179.801C165.467 180.478 164.508 180.862 163.507 180.881Z" fill="#407BFF"/>
<g opacity="0.6">
<path d="M158.082 167.608C158.11 167.328 158.079 167.045 157.991 166.778C157.902 166.511 157.757 166.266 157.567 166.058C157.376 165.851 157.144 165.687 156.885 165.576C156.626 165.465 156.346 165.411 156.065 165.416C155.465 165.425 154.89 165.653 154.447 166.056C154.003 166.46 153.723 167.012 153.659 167.608C153.624 167.942 153.674 168.279 153.803 168.588C153.932 168.897 154.137 169.169 154.399 169.378L154.015 173.801C153.997 173.968 154.014 174.138 154.066 174.298C154.118 174.459 154.204 174.606 154.317 174.73C154.431 174.855 154.57 174.954 154.725 175.02C154.88 175.087 155.047 175.119 155.216 175.116C155.573 175.108 155.915 174.971 156.177 174.728C156.44 174.486 156.604 174.156 156.64 173.801L157.029 169.378C157.323 169.178 157.569 168.915 157.751 168.61C157.933 168.304 158.046 167.962 158.082 167.608Z" fill="white"/>
</g>
<path d="M165.43 163.367H163.162L163.71 157.015C163.805 156.134 163.712 155.242 163.437 154.399C163.162 153.556 162.71 152.782 162.113 152.127C161.515 151.472 160.785 150.951 159.971 150.6C159.157 150.248 158.278 150.074 157.391 150.089C155.507 150.126 153.701 150.85 152.314 152.126C150.928 153.402 150.055 155.141 149.862 157.015L149.314 163.367H147.045L147.593 157.015C147.848 154.528 149.005 152.22 150.846 150.526C152.686 148.833 155.083 147.873 157.583 147.825C158.76 147.805 159.927 148.036 161.008 148.502C162.089 148.967 163.058 149.658 163.852 150.527C164.645 151.396 165.245 152.424 165.61 153.543C165.976 154.662 166.1 155.845 165.973 157.015L165.43 163.367Z" fill="#407BFF"/>
<path d="M178.577 127.347L178.648 126.728C178.663 126.584 178.647 126.439 178.602 126.302C178.556 126.165 178.483 126.039 178.385 125.933C178.288 125.826 178.17 125.741 178.037 125.684C177.905 125.626 177.762 125.597 177.618 125.599C177.311 125.605 177.017 125.723 176.791 125.931C176.565 126.139 176.422 126.422 176.39 126.728L176.335 127.336C176.213 127.339 176.095 127.387 176.006 127.471C175.916 127.555 175.86 127.668 175.848 127.791L175.705 129.435C175.698 129.492 175.703 129.55 175.721 129.606C175.739 129.661 175.768 129.712 175.807 129.754C175.846 129.797 175.894 129.831 175.947 129.853C176.001 129.876 176.058 129.886 176.116 129.884H178.374C178.496 129.882 178.613 129.835 178.703 129.752C178.793 129.669 178.85 129.556 178.862 129.435L179.004 127.791C179.009 127.733 179.001 127.674 178.982 127.619C178.962 127.564 178.931 127.514 178.891 127.472C178.85 127.43 178.801 127.397 178.747 127.376C178.693 127.354 178.635 127.344 178.577 127.347ZM177.552 125.889C177.661 125.888 177.769 125.909 177.868 125.953C177.968 125.996 178.058 126.06 178.131 126.14C178.204 126.22 178.26 126.315 178.295 126.418C178.329 126.521 178.341 126.63 178.33 126.739L178.275 127.347H176.577L176.631 126.739C176.655 126.509 176.762 126.296 176.931 126.14C177.101 125.984 177.322 125.895 177.552 125.889Z" fill="#407BFF"/>
<path d="M144.59 127.999L143.801 127.835C143.779 127.83 143.758 127.821 143.74 127.807C143.722 127.794 143.708 127.776 143.698 127.756C143.688 127.736 143.683 127.714 143.682 127.692C143.682 127.669 143.687 127.647 143.697 127.627L144.025 126.848C144.039 126.815 144.04 126.777 144.029 126.743C144.018 126.709 143.995 126.679 143.964 126.66C143.933 126.641 143.896 126.634 143.86 126.639C143.825 126.644 143.792 126.662 143.768 126.69L143.17 127.303C143.156 127.322 143.138 127.336 143.117 127.346C143.096 127.357 143.073 127.362 143.05 127.362C143.027 127.362 143.004 127.357 142.983 127.346C142.962 127.336 142.944 127.322 142.929 127.303L142.442 126.69C142.338 126.558 142.113 126.69 142.151 126.848L142.343 127.627C142.349 127.649 142.349 127.673 142.345 127.696C142.342 127.719 142.333 127.741 142.32 127.761C142.307 127.78 142.29 127.797 142.271 127.81C142.251 127.822 142.229 127.831 142.206 127.835L141.389 127.999C141.214 128.032 141.192 128.279 141.362 128.312L142.151 128.476C142.173 128.48 142.194 128.49 142.212 128.503C142.23 128.517 142.244 128.535 142.254 128.555C142.263 128.575 142.268 128.598 142.267 128.62C142.267 128.643 142.261 128.665 142.25 128.684L141.932 129.468C141.918 129.502 141.917 129.539 141.928 129.573C141.94 129.608 141.963 129.637 141.994 129.656C142.024 129.675 142.061 129.683 142.097 129.677C142.133 129.672 142.166 129.654 142.19 129.627L142.787 129.013C142.802 128.996 142.821 128.983 142.842 128.974C142.862 128.965 142.885 128.96 142.907 128.96C142.93 128.96 142.952 128.965 142.973 128.974C142.994 128.983 143.013 128.996 143.028 129.013L143.516 129.627C143.62 129.758 143.845 129.627 143.801 129.468L143.609 128.69C143.601 128.643 143.611 128.596 143.638 128.557C143.664 128.518 143.705 128.491 143.751 128.482L144.568 128.317C144.738 128.279 144.76 128.032 144.59 127.999Z" fill="#263238"/>
<path d="M149.774 127.999L148.985 127.835C148.963 127.83 148.942 127.821 148.924 127.807C148.907 127.794 148.892 127.776 148.882 127.756C148.872 127.736 148.867 127.714 148.866 127.692C148.866 127.669 148.871 127.647 148.881 127.627L149.209 126.848C149.223 126.815 149.224 126.777 149.213 126.743C149.202 126.709 149.179 126.679 149.148 126.66C149.117 126.641 149.08 126.634 149.044 126.639C149.009 126.644 148.976 126.662 148.952 126.69L148.355 127.303C148.34 127.322 148.322 127.336 148.301 127.346C148.28 127.357 148.257 127.362 148.234 127.362C148.211 127.362 148.188 127.357 148.167 127.346C148.146 127.336 148.128 127.322 148.113 127.303L147.626 126.69C147.522 126.558 147.297 126.69 147.341 126.848L147.533 127.627C147.537 127.65 147.537 127.673 147.533 127.697C147.528 127.72 147.519 127.742 147.506 127.761C147.492 127.78 147.475 127.797 147.455 127.81C147.435 127.822 147.413 127.831 147.39 127.835L146.574 127.999C146.398 128.032 146.376 128.279 146.546 128.312L147.335 128.476C147.357 128.481 147.378 128.49 147.396 128.504C147.414 128.517 147.428 128.535 147.438 128.555C147.448 128.575 147.453 128.597 147.454 128.619C147.454 128.642 147.449 128.664 147.439 128.684L147.111 129.462C147.097 129.496 147.096 129.533 147.107 129.568C147.118 129.602 147.141 129.632 147.172 129.651C147.203 129.67 147.24 129.677 147.276 129.672C147.311 129.667 147.344 129.649 147.368 129.621L147.965 129.008C147.981 128.991 148 128.978 148.02 128.969C148.041 128.96 148.063 128.955 148.086 128.955C148.109 128.955 148.131 128.96 148.152 128.969C148.173 128.978 148.191 128.991 148.207 129.008L148.694 129.621C148.798 129.753 149.023 129.621 148.985 129.462L148.793 128.684C148.788 128.662 148.788 128.638 148.792 128.615C148.796 128.593 148.805 128.571 148.818 128.552C148.831 128.532 148.847 128.516 148.866 128.503C148.886 128.49 148.907 128.481 148.93 128.476L149.746 128.312C149.922 128.279 149.944 128.032 149.774 127.999Z" fill="#263238"/>
<path d="M154.958 127.999L154.174 127.835C154.152 127.831 154.13 127.823 154.112 127.809C154.093 127.796 154.079 127.778 154.068 127.758C154.058 127.737 154.053 127.715 154.053 127.692C154.054 127.669 154.059 127.647 154.07 127.627L154.399 126.848C154.42 126.813 154.426 126.772 154.417 126.732C154.407 126.693 154.382 126.658 154.347 126.637C154.312 126.616 154.27 126.61 154.231 126.62C154.191 126.629 154.157 126.655 154.136 126.689L153.544 127.303C153.529 127.322 153.51 127.336 153.489 127.346C153.468 127.357 153.444 127.362 153.421 127.362C153.397 127.362 153.374 127.357 153.353 127.346C153.331 127.336 153.312 127.322 153.298 127.303L152.81 126.689C152.706 126.558 152.481 126.689 152.525 126.848L152.717 127.627C152.721 127.649 152.722 127.673 152.717 127.695C152.713 127.718 152.704 127.74 152.692 127.759C152.679 127.779 152.662 127.795 152.643 127.808C152.624 127.821 152.602 127.83 152.58 127.835L151.763 127.999C151.588 128.032 151.566 128.279 151.736 128.312L152.519 128.476C152.541 128.48 152.562 128.49 152.58 128.503C152.598 128.517 152.612 128.535 152.622 128.555C152.632 128.575 152.637 128.597 152.638 128.619C152.638 128.642 152.633 128.664 152.623 128.684L152.295 129.462C152.274 129.497 152.267 129.539 152.277 129.579C152.287 129.618 152.312 129.652 152.347 129.673C152.382 129.694 152.423 129.701 152.463 129.691C152.503 129.681 152.537 129.656 152.558 129.621L153.15 129.007C153.165 128.991 153.184 128.978 153.204 128.969C153.225 128.96 153.247 128.955 153.27 128.955C153.293 128.955 153.315 128.96 153.336 128.969C153.357 128.978 153.375 128.991 153.391 129.007L153.884 129.621C153.988 129.753 154.213 129.621 154.169 129.462L153.977 128.684C153.969 128.639 153.978 128.591 154.004 128.553C154.029 128.514 154.069 128.486 154.114 128.476L154.931 128.312C155.084 128.279 155.128 128.032 154.958 127.999Z" fill="#263238"/>
<path d="M160.148 127.999L159.358 127.835C159.336 127.83 159.316 127.821 159.298 127.807C159.28 127.794 159.266 127.776 159.256 127.756C159.246 127.736 159.24 127.714 159.24 127.692C159.24 127.669 159.245 127.647 159.254 127.627L159.583 126.848C159.597 126.815 159.598 126.777 159.587 126.743C159.576 126.709 159.552 126.679 159.522 126.66C159.491 126.641 159.454 126.634 159.418 126.639C159.382 126.644 159.349 126.662 159.326 126.69L158.728 127.303C158.714 127.322 158.696 127.336 158.675 127.346C158.654 127.357 158.631 127.362 158.608 127.362C158.584 127.362 158.562 127.357 158.541 127.346C158.52 127.336 158.501 127.322 158.487 127.303L157.999 126.69C157.895 126.558 157.671 126.69 157.709 126.848L157.901 127.627C157.906 127.649 157.907 127.673 157.903 127.696C157.899 127.719 157.891 127.741 157.878 127.761C157.865 127.78 157.848 127.797 157.828 127.81C157.809 127.822 157.787 127.831 157.764 127.835L156.947 127.999C156.772 128.032 156.75 128.279 156.947 128.312L157.736 128.476C157.758 128.48 157.779 128.49 157.797 128.503C157.815 128.517 157.829 128.535 157.839 128.555C157.848 128.575 157.853 128.598 157.852 128.62C157.852 128.643 157.846 128.665 157.835 128.684L157.512 129.462C157.498 129.496 157.497 129.533 157.508 129.568C157.519 129.602 157.542 129.632 157.573 129.651C157.604 129.67 157.641 129.677 157.677 129.672C157.712 129.667 157.745 129.649 157.769 129.621L158.367 129.008C158.382 128.991 158.401 128.978 158.421 128.969C158.442 128.96 158.464 128.955 158.487 128.955C158.51 128.955 158.532 128.96 158.553 128.969C158.574 128.978 158.592 128.991 158.608 129.008L159.095 129.621C159.199 129.753 159.424 129.621 159.38 129.462L159.189 128.684C159.18 128.638 159.191 128.59 159.217 128.551C159.244 128.512 159.285 128.485 159.331 128.476L160.148 128.312C160.295 128.279 160.317 128.032 160.148 127.999Z" fill="#263238"/>
<path d="M165.332 127.999L164.542 127.835C164.521 127.83 164.5 127.821 164.482 127.807C164.464 127.794 164.45 127.776 164.44 127.756C164.43 127.736 164.424 127.714 164.424 127.692C164.424 127.669 164.429 127.647 164.438 127.627L164.767 126.848C164.781 126.815 164.782 126.777 164.771 126.743C164.76 126.709 164.736 126.679 164.706 126.66C164.675 126.641 164.638 126.634 164.602 126.639C164.566 126.644 164.534 126.662 164.51 126.69L163.912 127.303C163.898 127.322 163.88 127.336 163.859 127.346C163.838 127.357 163.815 127.362 163.792 127.362C163.769 127.362 163.746 127.357 163.725 127.346C163.704 127.336 163.686 127.322 163.671 127.303L163.183 126.69C163.079 126.558 162.855 126.69 162.898 126.848L163.09 127.627C163.095 127.65 163.095 127.673 163.09 127.697C163.086 127.72 163.077 127.742 163.063 127.761C163.05 127.78 163.033 127.797 163.013 127.81C162.993 127.822 162.971 127.831 162.948 127.835L162.131 127.999C161.956 128.032 161.934 128.279 162.104 128.312L162.893 128.476C162.915 128.481 162.936 128.49 162.953 128.504C162.971 128.517 162.986 128.535 162.996 128.555C163.006 128.575 163.011 128.597 163.011 128.619C163.012 128.642 163.007 128.664 162.997 128.684L162.668 129.462C162.655 129.496 162.653 129.533 162.665 129.568C162.676 129.602 162.699 129.632 162.73 129.651C162.761 129.67 162.797 129.677 162.833 129.672C162.869 129.667 162.902 129.649 162.926 129.621L163.523 129.008C163.539 128.991 163.557 128.978 163.578 128.969C163.599 128.96 163.621 128.955 163.644 128.955C163.666 128.955 163.689 128.96 163.71 128.969C163.73 128.978 163.749 128.991 163.764 129.008L164.252 129.621C164.356 129.753 164.581 129.621 164.542 129.462L164.351 128.684C164.346 128.662 164.346 128.638 164.35 128.615C164.354 128.593 164.363 128.571 164.376 128.552C164.388 128.532 164.405 128.516 164.424 128.503C164.443 128.49 164.465 128.481 164.488 128.476L165.304 128.312C165.496 128.279 165.496 128.032 165.332 127.999Z" fill="#263238"/>
<path d="M170.516 127.999L169.727 127.835C169.704 127.831 169.684 127.821 169.666 127.808C169.648 127.794 169.634 127.776 169.624 127.756C169.615 127.735 169.61 127.713 169.611 127.691C169.611 127.668 169.617 127.646 169.628 127.627L169.957 126.848C169.967 126.831 169.974 126.812 169.977 126.792C169.98 126.772 169.979 126.752 169.974 126.732C169.97 126.712 169.961 126.694 169.949 126.678C169.937 126.662 169.922 126.648 169.905 126.637C169.887 126.627 169.868 126.62 169.848 126.617C169.828 126.614 169.808 126.615 169.788 126.62C169.769 126.625 169.75 126.633 169.734 126.645C169.718 126.657 169.704 126.672 169.694 126.689L169.102 127.303C169.087 127.322 169.068 127.336 169.047 127.346C169.025 127.357 169.002 127.362 168.979 127.362C168.955 127.362 168.932 127.357 168.91 127.346C168.889 127.336 168.87 127.322 168.855 127.303L168.368 126.689C168.263 126.558 168.039 126.689 168.083 126.848L168.274 127.627C168.279 127.649 168.279 127.673 168.275 127.695C168.271 127.718 168.262 127.74 168.249 127.759C168.237 127.779 168.22 127.795 168.201 127.808C168.182 127.821 168.16 127.83 168.137 127.835L167.321 127.999C167.145 128.032 167.124 128.279 167.293 128.312L168.077 128.476C168.099 128.48 168.12 128.49 168.138 128.503C168.155 128.517 168.17 128.535 168.18 128.555C168.19 128.575 168.195 128.597 168.195 128.619C168.196 128.642 168.191 128.664 168.181 128.684L167.852 129.462C167.831 129.497 167.825 129.539 167.835 129.579C167.844 129.618 167.87 129.652 167.904 129.673C167.939 129.694 167.981 129.701 168.021 129.691C168.06 129.681 168.094 129.656 168.115 129.621L168.707 129.007C168.723 128.991 168.741 128.978 168.762 128.969C168.783 128.96 168.805 128.955 168.828 128.955C168.85 128.955 168.873 128.96 168.894 128.969C168.914 128.978 168.933 128.991 168.948 129.007L169.436 129.621C169.462 129.65 169.496 129.669 169.534 129.676C169.572 129.682 169.611 129.676 169.645 129.657C169.678 129.639 169.705 129.61 169.72 129.574C169.735 129.539 169.737 129.499 169.727 129.462L169.535 128.684C169.527 128.638 169.536 128.591 169.562 128.553C169.587 128.514 169.627 128.486 169.672 128.476L170.488 128.312C170.664 128.279 170.686 128.032 170.516 127.999Z" fill="#263238"/>
<path d="M158.016 116.65H148.283C147.985 116.655 147.698 116.769 147.478 116.971C147.258 117.173 147.119 117.448 147.089 117.746C147.073 117.885 147.087 118.027 147.131 118.161C147.175 118.295 147.246 118.417 147.341 118.521C147.436 118.625 147.552 118.707 147.682 118.763C147.811 118.818 147.951 118.845 148.092 118.842H157.824C158.123 118.836 158.409 118.722 158.629 118.52C158.849 118.318 158.988 118.043 159.019 117.746C159.033 117.606 159.018 117.465 158.974 117.331C158.931 117.198 158.859 117.075 158.764 116.972C158.669 116.868 158.553 116.786 158.425 116.73C158.296 116.675 158.156 116.647 158.016 116.65Z" fill="#263238"/>
<path d="M167.902 116.65H162.252C161.954 116.656 161.668 116.77 161.449 116.972C161.23 117.174 161.092 117.45 161.063 117.746C161.047 117.886 161.061 118.027 161.105 118.16C161.148 118.294 161.219 118.416 161.313 118.52C161.408 118.624 161.523 118.706 161.652 118.762C161.781 118.817 161.92 118.845 162.06 118.842H167.688C167.986 118.837 168.272 118.723 168.491 118.521C168.71 118.319 168.848 118.043 168.877 117.746C168.893 117.609 168.879 117.47 168.837 117.338C168.795 117.206 168.726 117.084 168.634 116.981C168.542 116.878 168.429 116.795 168.303 116.738C168.177 116.681 168.04 116.651 167.902 116.65Z" fill="#263238"/>
<path d="M175.36 166.326C171.92 167.636 168.815 169.695 166.269 172.354C164.723 171.154 162.88 170.396 160.937 170.162L160.679 170.124L160.569 171.417L160.712 171.472C162.843 172.256 164.645 173.74 165.825 175.68L166.011 175.987L166.214 175.658C168.483 172.036 171.686 169.09 175.486 167.132L175.612 167.066L175.683 166.211L175.36 166.326Z" fill="#263238"/>
<path opacity="0.2" d="M126.391 58.4307C125.692 59.6501 125.263 61.0047 125.13 62.4037L116.971 155.684H142.222L147.297 136.236L145.626 116.782L150.7 97.3332L149.056 77.8847L154.13 58.4307H126.391Z" fill="black"/>
<path d="M146.837 72.4052L151.911 52.9512H88.0526L82.9836 72.4052L84.6496 91.8537L79.5806 111.302L81.2465 130.756L76.1775 150.205H140.03L145.105 130.756L143.434 111.302L148.508 91.8537L146.837 72.4052Z" fill="#407BFF"/>
<path opacity="0.7" d="M146.837 72.4052L151.911 52.9512H88.0526L82.9836 72.4052L84.6496 91.8537L79.5806 111.302L81.2465 130.756L76.1775 150.205H140.03L145.105 130.756L143.434 111.302L148.508 91.8537L146.837 72.4052Z" fill="white"/>
<path opacity="0.5" d="M146.837 72.4052H82.9836L88.0526 52.9512H151.911L146.837 72.4052Z" fill="white"/>
<path opacity="0.5" d="M143.434 111.302H79.5806L84.6496 91.8535H148.508L143.434 111.302Z" fill="white"/>
<path opacity="0.5" d="M140.03 150.204H76.172L81.2465 130.756H145.105L140.03 150.204Z" fill="white"/>
<path opacity="0.2" d="M138.293 80.5321C137.638 80.7214 136.959 80.8138 136.277 80.8061C135.352 80.847 134.431 80.6588 133.597 80.2581C133.446 80.1686 133.274 80.1213 133.098 80.1211C132.937 80.1233 132.779 80.1647 132.638 80.2417H132.605C132.36 80.3791 132.099 80.4841 131.827 80.554C131.214 80.7159 130.581 80.7951 129.947 80.7897C129.755 80.7897 129.569 80.7897 129.399 80.7897C128.907 80.7581 128.42 80.6717 127.947 80.5321C127.877 80.5114 127.806 80.4985 127.733 80.4937C127.613 80.4839 127.492 80.4991 127.377 80.5384C127.263 80.5777 127.158 80.6402 127.069 80.7221C126.98 80.8039 126.909 80.9033 126.86 81.0139C126.811 81.1246 126.786 81.2441 126.785 81.3651V81.9569H101.928C101.471 81.9569 101.019 82.0469 100.597 82.2219C100.175 82.3968 99.792 82.6532 99.4693 82.9764C99.1467 83.2996 98.8908 83.6833 98.7166 84.1054C98.5423 84.5276 98.453 84.98 98.4537 85.4367V88.9384C98.4522 89.3956 98.541 89.8486 98.715 90.2713C98.889 90.6941 99.1446 91.0784 99.4674 91.4022C99.7902 91.726 100.174 91.9829 100.596 92.1582C101.018 92.3335 101.471 92.4237 101.928 92.4237H130.166H130.353C130.654 92.6758 130.972 92.9279 131.312 93.1854C131.652 93.443 132.134 93.7992 132.578 94.117C132.729 94.2267 132.911 94.2857 133.098 94.2857C133.285 94.2857 133.467 94.2267 133.619 94.117C137.17 91.5414 139.45 89.7659 139.45 84.8887V81.3815C139.451 81.2412 139.42 81.1026 139.357 80.9771C139.294 80.8515 139.203 80.7427 139.09 80.6597C138.977 80.5766 138.845 80.5217 138.707 80.4996C138.568 80.4774 138.427 80.4885 138.293 80.5321Z" fill="black"/>
<path d="M129.624 80.0332H101.391C99.4691 80.0332 97.9112 81.5912 97.9112 83.513V87.0147C97.9112 88.9366 99.4691 90.4945 101.391 90.4945H129.624C131.546 90.4945 133.104 88.9366 133.104 87.0147V83.513C133.104 81.5912 131.546 80.0332 129.624 80.0332Z" fill="#407BFF"/>
<path d="M135.734 78.8768C134.809 78.9164 133.889 78.7282 133.054 78.3288C132.906 78.2377 132.735 78.1895 132.561 78.1895C132.387 78.1895 132.216 78.2377 132.068 78.3288C131.231 78.7288 130.309 78.917 129.383 78.8768C128.701 78.8841 128.021 78.7917 127.366 78.6028C127.234 78.5584 127.093 78.5461 126.956 78.5669C126.818 78.5877 126.687 78.641 126.574 78.7224C126.461 78.8038 126.369 78.911 126.306 79.0351C126.242 79.1591 126.21 79.2965 126.21 79.4357V82.943C126.21 87.8256 128.49 89.6011 132.041 92.1767C132.192 92.2864 132.374 92.3454 132.561 92.3454C132.748 92.3454 132.93 92.2864 133.082 92.1767C136.633 89.6011 138.913 87.8256 138.913 82.943V79.4357C138.912 79.2962 138.878 79.1589 138.814 79.0349C138.75 78.9109 138.658 78.8039 138.544 78.7226C138.431 78.6413 138.3 78.5881 138.162 78.5672C138.024 78.5464 137.883 78.5586 137.751 78.6028C137.096 78.7921 136.416 78.8844 135.734 78.8768Z" fill="#407BFF"/>
<path opacity="0.3" d="M135.734 78.8768C134.809 78.9164 133.889 78.7282 133.054 78.3288C132.906 78.2377 132.735 78.1895 132.561 78.1895C132.387 78.1895 132.216 78.2377 132.068 78.3288C131.231 78.7288 130.309 78.917 129.383 78.8768C128.701 78.8841 128.021 78.7917 127.366 78.6028C127.234 78.5584 127.093 78.5461 126.956 78.5669C126.818 78.5877 126.687 78.641 126.574 78.7224C126.461 78.8038 126.369 78.911 126.306 79.0351C126.242 79.1591 126.21 79.2965 126.21 79.4357V82.943C126.21 87.8256 128.49 89.6011 132.041 92.1767C132.192 92.2864 132.374 92.3454 132.561 92.3454C132.748 92.3454 132.93 92.2864 133.082 92.1767C136.633 89.6011 138.913 87.8256 138.913 82.943V79.4357C138.912 79.2962 138.878 79.1589 138.814 79.0349C138.75 78.9109 138.658 78.8039 138.544 78.7226C138.431 78.6413 138.3 78.5881 138.162 78.5672C138.024 78.5464 137.883 78.5586 137.751 78.6028C137.096 78.7921 136.416 78.8844 135.734 78.8768Z" fill="white"/>
<path opacity="0.2" d="M132.068 78.3185C131.231 78.7185 130.309 78.9067 129.383 78.8665C128.701 78.8733 128.022 78.781 127.366 78.5925C127.234 78.5481 127.093 78.5358 126.956 78.5566C126.818 78.5774 126.687 78.6307 126.574 78.7121C126.461 78.7935 126.369 78.9007 126.306 79.0247C126.242 79.1488 126.21 79.2861 126.21 79.4254V82.9326C126.21 87.8153 128.49 89.5908 132.041 92.1664C132.2 92.2818 132.392 92.3415 132.589 92.3363V78.176C132.405 78.1723 132.224 78.2218 132.068 78.3185Z" fill="white"/>
<path d="M137.652 81.9895C135.516 82.8264 133.613 84.1669 132.106 85.8968C131.055 85.122 129.823 84.6296 128.528 84.4665H128.358V85.3049L128.451 85.3378C129.892 85.8578 131.134 86.816 132.002 88.0778L132.139 88.2751L132.254 88.0614C133.514 85.7201 135.433 83.7997 137.773 82.5375L137.855 82.4992V81.9512L137.652 81.9895Z" fill="#263238"/>
<path d="M150.782 58.4256H148.36C148.048 58.4314 147.739 58.3707 147.453 58.2475C147.167 58.1243 146.91 57.9415 146.7 57.7112C146.49 57.4809 146.331 57.2085 146.235 56.9122C146.138 56.6158 146.106 56.3023 146.141 55.9925L146.354 53.5703C146.42 52.9116 146.725 52.2999 147.212 51.8514C147.699 51.4028 148.334 51.1487 148.996 51.1372H151.418C151.73 51.1306 152.04 51.1908 152.327 51.3136C152.614 51.4364 152.871 51.6192 153.082 51.8495C153.292 52.0799 153.451 52.3525 153.548 52.6493C153.645 52.9461 153.677 53.2601 153.643 53.5703L153.429 55.9925C153.355 56.649 153.047 57.2568 152.56 57.7039C152.074 58.151 151.443 58.4073 150.782 58.4256Z" fill="#407BFF"/>
<path d="M151.791 53.5653L151.264 52.9844L149.938 54.2009L148.831 52.9844L148.201 53.5653L149.314 54.7818L147.993 55.9984L148.519 56.5738L149.84 55.3572L150.952 56.5738L151.577 55.9984L150.464 54.7818L151.791 53.5653Z" fill="white"/>
<path d="M96.6508 79.3203C98.0536 80.8492 99.3908 82.433 100.722 84.0276C102.054 85.6223 103.342 87.2499 104.624 88.8829C104.679 88.9542 104.657 88.9267 104.668 88.9487C104.679 88.9706 104.668 88.9761 104.668 88.9815C104.678 89.0019 104.691 89.0204 104.706 89.0363C104.753 89.1027 104.812 89.1592 104.881 89.2025C104.95 89.2457 105.026 89.2749 105.106 89.2884C105.168 89.2968 105.231 89.2968 105.293 89.2884C105.326 89.291 105.359 89.291 105.391 89.2884H105.441C105.468 89.2884 105.441 89.2884 105.528 89.2555L106.898 88.5103C108.74 87.5348 110.597 86.5813 112.515 85.7264L114.121 87.7157C112.576 89.135 110.965 90.916 109.337 92.2202L108.109 93.1847C108.033 93.247 107.953 93.3037 107.868 93.3546C107.775 93.4207 107.678 93.4811 107.578 93.5354C107.38 93.6497 107.175 93.7522 106.964 93.8423C106.54 94.0207 106.094 94.1441 105.638 94.2095C104.716 94.3448 103.775 94.2507 102.898 93.9355C102.452 93.7771 102.028 93.5616 101.638 93.2943C101.44 93.1628 101.254 93.0093 101.09 92.8614C100.996 92.7847 100.92 92.697 100.832 92.6148L100.613 92.3956C99.1606 90.905 97.7303 89.4035 96.3274 87.8746C94.9246 86.3457 93.5381 84.8058 92.212 83.2056L96.6508 79.3203Z" fill="#B55B52"/>
<path d="M111.792 86.9317L113.069 82.8271L116.434 84.504C116.434 84.504 115.94 87.4961 113.496 88.0167L111.792 86.9317Z" fill="#B55B52"/>
<path d="M114.411 81.6934L117.447 82.5263L116.428 84.5046L113.063 82.8277L114.411 81.6934Z" fill="#B55B52"/>
<path d="M78.9613 80.4386C78.5996 82.1813 78.1503 83.9075 77.6845 85.6282C77.2187 87.3489 76.709 89.0532 76.1775 90.7575L75.9802 91.3986L75.8816 91.7165C75.8683 91.7622 75.8499 91.8064 75.8268 91.848C75.7643 92.0243 75.7291 92.2091 75.7226 92.396C75.7111 92.7942 75.822 93.1863 76.0405 93.5194C76.1483 93.6655 76.2674 93.8029 76.3967 93.9304L76.8515 94.4291L77.7502 95.4319C78.3366 96.1114 78.9284 96.7909 79.4874 97.5033L77.5749 99.6953C76.7858 99.246 76.0295 98.7583 75.2733 98.276L74.1499 97.5308L73.6019 97.1526C73.4156 97.0211 73.2621 96.9334 72.9607 96.6868C71.8885 95.7731 71.1487 94.5303 70.8564 93.1522C70.7093 92.4498 70.6742 91.7285 70.7523 91.015C70.7523 90.8397 70.8071 90.6424 70.8345 90.467L70.8948 90.1382L71.0098 89.4806C71.3167 87.7215 71.6455 85.968 72.0127 84.2253C72.3798 82.4827 72.7744 80.7455 73.2402 79.0303L78.9613 80.4386Z" fill="#B55B52"/>
<path d="M77.6132 97.3272L79.871 96.1709L80.8684 100.007C80.8684 100.007 79.0545 100.703 77.6516 99.8096L77.6132 97.3272Z" fill="#B55B52"/>
<path d="M82.9946 94.9385L83.0987 98.4676L80.5724 100.117L79.6956 96.2427L82.9946 94.9385Z" fill="#B55B52"/>
<path d="M90.3871 62.3211C90.4419 62.5896 90.6337 62.7814 90.8091 62.7486C90.9844 62.7157 91.0886 62.4636 91.0338 62.2006C90.979 61.9375 90.7872 61.7402 90.6118 61.7731C90.4364 61.806 90.3323 62.0636 90.3871 62.3211Z" fill="#263238"/>
<path d="M90.6063 62.7871C91.0997 63.5514 91.6952 64.2446 92.3764 64.8476C92.2178 65.0184 92.0238 65.1525 91.808 65.2405C91.5922 65.3286 91.3597 65.3684 91.1269 65.3572L90.6063 62.7871Z" fill="#A02724"/>
<path d="M89.0884 61.0168C89.0568 61.0164 89.026 61.007 88.9997 60.9895C88.9733 60.9721 88.9526 60.9475 88.9398 60.9186C88.9271 60.8897 88.923 60.8578 88.928 60.8266C88.9329 60.7954 88.9468 60.7663 88.9678 60.7428C89.1394 60.5487 89.3544 60.3978 89.5953 60.3026C89.8363 60.2074 90.0963 60.1704 90.3542 60.1948C90.3755 60.1987 90.3957 60.2068 90.4138 60.2186C90.4319 60.2304 90.4475 60.2456 90.4597 60.2634C90.4719 60.2812 90.4805 60.3013 90.485 60.3224C90.4895 60.3436 90.4897 60.3654 90.4858 60.3866C90.4825 60.4076 90.475 60.4277 90.4637 60.4458C90.4525 60.4639 90.4378 60.4795 90.4204 60.4917C90.403 60.504 90.3834 60.5127 90.3626 60.5172C90.3418 60.5217 90.3203 60.522 90.2994 60.5181C90.095 60.4985 89.8889 60.5281 89.6982 60.6043C89.5076 60.6806 89.3379 60.8013 89.2034 60.9565C89.1742 60.9906 89.133 61.0122 89.0884 61.0168Z" fill="#263238"/>
<path d="M82.485 66.1406C83.0878 68.6559 83.696 73.2646 81.5369 74.936C81.5369 74.936 82.3808 77.4897 88.1129 77.4897C94.4149 77.4897 91.1269 75.8457 91.1269 75.8457C87.6855 75.1771 87.7732 72.1905 88.3869 70.2342L82.485 66.1406Z" fill="#B55B52"/>
<path d="M80.8629 75.4019C80.4902 74.7059 80.0738 73.9058 80.9286 73.6538C81.8712 73.3798 87.9156 72.8701 89.6966 73.3852C89.1486 74.3552 90.0748 75.5772 90.0748 75.5772L80.8629 75.4019Z" fill="#263238"/>
<path d="M85.8716 192.992H89.8227L90.2172 185.035H86.2607L85.8716 192.992Z" fill="#B55B52"/>
<path d="M60.7787 191.896L64.7846 192.109L67.2177 184.267L63.2118 184.054L60.7787 191.896Z" fill="#B55B52"/>
<path d="M64.664 191.792L60.8883 190.975C60.8222 190.96 60.7529 190.968 60.692 190.998C60.6312 191.028 60.5824 191.078 60.554 191.14L59.2443 193.984C59.212 194.053 59.196 194.128 59.1975 194.204C59.199 194.281 59.218 194.355 59.2529 194.423C59.2878 194.491 59.3378 194.55 59.399 194.595C59.4602 194.641 59.531 194.671 59.606 194.685C60.9266 194.948 61.5842 195.008 63.2447 195.37C64.264 195.589 66.571 196.154 67.9794 196.466C69.3878 196.778 69.8755 195.419 69.3275 195.167C66.8615 194.044 65.8312 193.052 65.1627 192.126C65.0427 191.958 64.8654 191.839 64.664 191.792Z" fill="#263238"/>
<path d="M89.6144 192.592H85.8606C85.7928 192.593 85.7272 192.616 85.6744 192.659C85.6217 192.702 85.585 192.761 85.5702 192.827L84.8907 195.88C84.8731 195.954 84.8727 196.031 84.8894 196.105C84.9062 196.179 84.9396 196.248 84.9872 196.307C85.0347 196.367 85.0952 196.414 85.164 196.446C85.2327 196.479 85.3079 196.495 85.3839 196.494C86.7374 196.494 88.6719 196.389 90.3981 196.389C92.3873 196.389 94.1026 196.499 96.4261 196.499C97.8344 196.499 98.229 195.074 97.6372 194.943C94.9465 194.356 92.7545 194.291 90.431 192.86C90.1881 192.699 89.9059 192.606 89.6144 192.592Z" fill="#263238"/>
<path d="M74.3746 76.0977C71.3934 77.517 70.5824 86.1206 70.5824 86.1206L77.964 89.5292C79.2117 87.4247 79.8915 85.0322 79.9368 82.586C80.0847 78.1418 77.4269 74.6674 74.3746 76.0977Z" fill="#263238"/>
<path opacity="0.4" d="M78.364 81.4023C77.0324 83.4738 77.1584 86.6741 77.6187 89.3757L77.9475 89.5292C79.1941 87.4242 79.8738 85.032 79.9203 82.586C79.9203 82.323 79.9203 82.038 79.9203 81.8024L78.364 81.4023Z" fill="black"/>
<path d="M94.9739 75.8898C94.9739 75.8898 98.6345 80.0217 95.1766 105.591H76.8022C76.6762 102.769 78.4462 89.0089 75.7062 75.7144C77.737 75.3238 79.7907 75.0638 81.8548 74.9362C84.4575 74.7882 87.0665 74.7882 89.6692 74.9362C91.4593 75.1176 93.2327 75.4363 94.9739 75.8898Z" fill="#407BFF"/>
<path opacity="0.6" d="M94.9739 75.8898C94.9739 75.8898 98.6345 80.0217 95.1766 105.591H76.8022C76.6762 102.769 78.4462 89.0089 75.7062 75.7144C77.737 75.3238 79.7907 75.0638 81.8548 74.9362C84.4575 74.7882 87.0665 74.7882 89.6692 74.9362C91.4593 75.1176 93.2327 75.4363 94.9739 75.8898Z" fill="#FAFAFA"/>
<path opacity="0.2" d="M96.5795 83.7045L96.5138 83.6442L92.8586 81.6934C92.486 87.3213 95.0013 90.8504 96.4973 92.3903C96.6848 89.4988 96.7123 86.5991 96.5795 83.7045Z" fill="black"/>
<path opacity="0.2" d="M90.2172 185.035L90.0145 189.14H86.0579L86.2607 185.035H90.2172Z" fill="black"/>
<path opacity="0.2" d="M63.2118 184.06L67.2177 184.268L65.9628 188.312L61.9569 188.098L63.2118 184.06Z" fill="black"/>
<path d="M81.2136 63.5876C82.0959 66.8756 82.4466 68.8538 84.5016 70.2238C87.5594 72.2843 91.3626 69.917 91.4831 66.4262C91.5872 63.2862 90.1296 58.4254 86.595 57.7623C85.8146 57.6079 85.0077 57.6562 84.2513 57.9025C83.4949 58.1488 82.8143 58.585 82.2745 59.1693C81.7347 59.7536 81.3537 60.4666 81.168 61.2401C80.9823 62.0136 80.998 62.8218 81.2136 63.5876Z" fill="#B55B52"/>
<path d="M88.6609 105.592C88.6609 105.592 84.7592 131.846 82.6329 141.689C80.2765 152.484 67.7054 188.104 67.7054 188.104L61.5514 186.773C61.5514 186.773 69.4371 157.729 71.4154 142.669C72.1826 136.789 73.1087 127.325 74.2814 119.418C75.4158 111.746 76.8132 105.597 76.8132 105.597L88.6609 105.592Z" fill="#263238"/>
<path d="M69.1795 186.049L68.0287 188.274L61.113 186.772L61.6938 184.695L69.1795 186.049Z" fill="#407BFF"/>
<path opacity="0.6" d="M69.1795 186.049L68.0287 188.274L61.113 186.772L61.6938 184.695L69.1795 186.049Z" fill="white"/>
<path opacity="0.6" d="M86.1949 114.945C81.6849 115.828 82.1616 132.646 82.7042 141.293C84.0084 135.178 85.91 123.418 87.2087 115.066C86.8945 114.911 86.5367 114.869 86.1949 114.945Z" fill="black"/>
<path d="M95.1766 105.591C95.1766 105.591 97.0124 131.282 96.6398 141.759C96.2507 152.659 91.0831 188.339 91.0831 188.339H85.2633C85.2633 188.339 85.0496 153.267 84.792 142.587C84.5071 130.915 83.0987 105.586 83.0987 105.586L95.1766 105.591Z" fill="#263238"/>
<path d="M92.201 186.026C92.2284 186.026 91.8722 188.443 91.8722 188.443H84.792L84.6002 186.284L92.201 186.026Z" fill="#407BFF"/>
<path opacity="0.6" d="M92.201 186.026C92.2284 186.026 91.8722 188.443 91.8722 188.443H84.792L84.6002 186.284L92.201 186.026Z" fill="white"/>
<path d="M92.8312 80.6956C92.8312 87.5895 96.4973 90.4281 96.4973 90.4281L102.476 84.6083C101.061 82.2434 99.4496 80.0015 97.6591 77.9063C94.2012 73.9443 92.8312 76.2678 92.8312 80.6956Z" fill="#263238"/>
<path opacity="0.2" d="M91.253 67.6748C91.1311 68.0203 90.9265 68.3307 90.6572 68.5791C90.3878 68.8274 90.0618 69.0061 89.7076 69.0996C89.318 69.1791 88.9643 69.3819 88.6988 69.6779C88.4333 69.974 88.2702 70.3476 88.2335 70.7436C88.9431 70.5063 89.5865 70.1046 90.1112 69.5713C90.636 69.038 91.0272 68.3881 91.253 67.6748Z" fill="black"/>
<path d="M89.7076 57.0385C90.9351 55.4877 89.0445 55.3945 89.0445 55.3945C89.5377 53.5478 87.3238 54.5397 87.3238 54.5397C85.9976 52.7093 85.2469 54.9397 85.2469 54.9397C83.8714 53.3889 83.6029 55.9206 83.6029 55.9206C82.2219 53.9533 81.5205 56.7919 81.5205 56.7919C80.2491 54.7479 79.471 57.4057 79.471 57.4057C76.846 56.4686 78.09 59.1977 78.09 59.1977C75.8542 59.2579 77.6516 60.9951 77.6516 60.9951C74.9664 60.9951 77.3338 62.535 77.3338 62.535C75.202 63.9324 77.8818 64.3105 77.8818 64.3105C76.1446 67.0505 79.1312 66.0203 79.1312 66.0203C77.9201 68.7164 80.5998 67.5273 80.5998 67.5273C80.43 70.1248 81.926 69.4179 82.6494 68.9356C82.7864 69.4836 83.0494 70.0316 83.5316 70.0755C84.4687 70.2015 84.6276 68.4315 84.6276 68.4315C84.6276 68.4315 85.4935 69.111 86.2223 68.7438C86.9512 68.3767 86.6772 67.4505 86.6772 67.4505C86.8354 67.5688 87.0276 67.6328 87.2252 67.6328C87.4227 67.6328 87.6149 67.5688 87.7732 67.4505C88.0855 67.2094 88.0855 65.4668 87.691 64.853L89.1158 64.305C89.1158 64.305 90.1734 64.1571 89.7021 62.7597C89.4177 61.9565 89.3928 61.0843 89.6309 60.2663C91.242 59.51 89.9158 58.6223 89.9158 58.6223C91.7845 57.4221 89.7076 57.0385 89.7076 57.0385Z" fill="#263238"/>
<path d="M86.8196 63.708C87.0427 64.5255 87.5302 65.2462 88.2061 65.7575C89.0993 66.4261 89.7679 65.7575 89.7021 64.7547C89.6473 63.845 89.1103 62.4037 88.1239 62.1297C87.1375 61.8557 86.584 62.738 86.8196 63.708Z" fill="#B55B52"/>
</svg>
