<svg width="24" height="24" viewBox="0 0 24 24" fill="none" xmlns="http://www.w3.org/2000/svg">
<g clip-path="url(#clip0_60_310)">
<path d="M12 9C11.7033 9 11.4133 8.91203 11.1666 8.74721C10.92 8.58238 10.7277 8.34811 10.6142 8.07403C10.5006 7.79994 10.4709 7.49834 10.5288 7.20737C10.5867 6.91639 10.7296 6.64912 10.9393 6.43934C11.1491 6.22956 11.4164 6.0867 11.7074 6.02882C11.9983 5.97094 12.2999 6.00065 12.574 6.11418C12.8481 6.22771 13.0824 6.41997 13.2472 6.66665C13.412 6.91332 13.5 7.20333 13.5 7.5C13.5 7.89783 13.342 8.27936 13.0607 8.56066C12.7794 8.84197 12.3978 9 12 9Z" fill="#333333"/>
<path d="M12 21.75C10.0716 21.75 8.18657 21.1782 6.58319 20.1068C4.97982 19.0355 3.73013 17.5127 2.99218 15.7312C2.25422 13.9496 2.06114 11.9892 2.43735 10.0979C2.81355 8.20656 3.74215 6.46928 5.10571 5.10571C6.46928 3.74215 8.20656 2.81355 10.0979 2.43735C11.9892 2.06114 13.9496 2.25422 15.7312 2.99218C17.5127 3.73013 19.0355 4.97982 20.1068 6.58319C21.1782 8.18657 21.75 10.0716 21.75 12C21.75 14.5859 20.7228 17.0658 18.8943 18.8943C17.0658 20.7228 14.5859 21.75 12 21.75ZM12 3.75C10.3683 3.75 8.77326 4.23386 7.41655 5.14038C6.05984 6.0469 5.00242 7.33538 4.378 8.84287C3.75358 10.3504 3.5902 12.0092 3.90853 13.6095C4.22685 15.2098 5.01259 16.6799 6.16637 17.8336C7.32016 18.9874 8.79017 19.7732 10.3905 20.0915C11.9909 20.4098 13.6497 20.2464 15.1571 19.622C16.6646 18.9976 17.9531 17.9402 18.8596 16.5835C19.7661 15.2268 20.25 13.6317 20.25 12C20.25 9.81197 19.3808 7.71355 17.8336 6.16637C16.2865 4.6192 14.188 3.75 12 3.75Z" fill="#333333"/>
<path d="M12 18C11.6022 18 11.2206 17.842 10.9393 17.5607C10.658 17.2794 10.5 16.8978 10.5 16.5V12C10.5 11.6022 10.658 11.2206 10.9393 10.9393C11.2206 10.658 11.6022 10.5 12 10.5C12.3978 10.5 12.7794 10.658 13.0607 10.9393C13.342 11.2206 13.5 11.6022 13.5 12V16.5C13.5 16.8978 13.342 17.2794 13.0607 17.5607C12.7794 17.842 12.3978 18 12 18Z" fill="#333333"/>
</g>
<defs>
<clipPath id="clip0_60_310">
<rect width="24" height="24" fill="white"/>
</clipPath>
</defs>
</svg>
