<svg width="16" height="16" viewBox="0 0 16 16" fill="none" xmlns="http://www.w3.org/2000/svg">
<path d="M6.00002 9.33329C6.92069 9.33329 7.75402 8.95996 8.35735 8.35663C8.96002 7.75396 9.33335 6.92063 9.33335 5.99996C9.33335 5.07929 8.96002 4.24596 8.35735 3.64329C7.75402 3.03996 6.92069 2.66663 6.00002 2.66663C5.07935 2.66663 4.24602 3.03996 3.64269 3.64329C3.04002 4.24596 2.66669 5.07929 2.66669 5.99996C2.66669 6.92063 3.04002 7.75396 3.64269 8.35663C4.24602 8.95996 5.07935 9.33329 6.00002 9.33329Z" fill="#333333"/>
<path d="M6 14C8.34533 14 10 13.3333 10 12.6667C10 11.3333 8.43067 10 6 10C3.5 10 2 11.3333 2 12.6667C2 13.3333 3.5 14 6 14Z" fill="#333333"/>
<path d="M14 8H12.6666V6.66667C12.6666 6.298 12.3686 6 12 6C11.6313 6 11.3333 6.298 11.3333 6.66667V8H9.99998C9.63131 8 9.33331 8.298 9.33331 8.66667C9.33331 9.03533 9.63131 9.33333 9.99998 9.33333H11.3333V10.6667C11.3333 11.0353 11.6313 11.3333 12 11.3333C12.3686 11.3333 12.6666 11.0353 12.6666 10.6667V9.33333H14C14.3686 9.33333 14.6666 9.03533 14.6666 8.66667C14.6666 8.298 14.3686 8 14 8Z" fill="#333333"/>
</svg>
