<svg width="37" height="39" viewBox="0 0 37 39" fill="none" xmlns="http://www.w3.org/2000/svg">
<path d="M15 35C15 36.1 15.9 37 17 37H19.6L15 32.4V35Z" fill="white"/>
<path d="M34.6 20.6L31.4 17.4C30.6 16.6 29.4 16.6 28.6 17.4L28.4 17.6C28 18 28 18.6 28.4 19L33 23.6C33.4 24 34 24 34.4 23.6L34.6 23.4C35.4 22.6 35.4 21.4 34.6 20.6Z" fill="white"/>
<path d="M27 20.4001C26.6 20.0001 26 20.0001 25.6 20.4001L16.5 29.5001C16 30.0001 16 30.6001 16.4 31.0001L21 35.6001C21.4 36.0001 22 36.0001 22.4 35.6001L31.5 26.5001C31.9 26.1001 31.9 25.5001 31.5 25.1001L27 20.4001Z" fill="white"/>
<path d="M12 1C5.9 1 1 5.9 1 12C1 18.1 5.9 23 12 23C18.1 23 23 18.1 23 12C23 5.9 18.1 1 12 1ZM17 14H14V17C14 18.1 13.1 19 12 19C10.9 19 10 18.1 10 17V14H7C5.9 14 5 13.1 5 12C5 10.9 5.9 10 7 10H10V7C10 5.9 10.9 5 12 5C13.1 5 14 5.9 14 7V10H17C18.1 10 19 10.9 19 12C19 13.1 18.1 14 17 14Z" fill="white"/>
</svg>
