<svg width="12" height="12" viewBox="0 0 12 12" fill="none" xmlns="http://www.w3.org/2000/svg">
<path d="M8.73049 5.42345L4.2303 1.67329C4.07731 1.54674 3.88042 1.48598 3.68273 1.5043C3.48504 1.52263 3.30266 1.61854 3.17554 1.77105C3.04842 1.92355 2.98692 2.12022 3.00449 2.31798C3.02207 2.51573 3.1173 2.69847 3.26932 2.82616L7.07807 5.99991L3.26932 9.17366C3.11671 9.30118 3.02096 9.48406 3.0031 9.68213C2.98523 9.8802 3.04672 10.0773 3.17406 10.23C3.30139 10.3828 3.48415 10.4788 3.6822 10.4969C3.88025 10.515 4.07738 10.4537 4.2303 10.3266L8.73049 6.57633C8.81487 6.50583 8.88274 6.41767 8.92932 6.31806C8.97589 6.21846 9.00003 6.10984 9.00003 5.99989C9.00003 5.88993 8.97589 5.78132 8.92932 5.68172C8.88274 5.58211 8.81487 5.49395 8.73049 5.42345Z" fill="#6699CC"/>
</svg>
