<svg width="8" height="14" viewBox="0 0 8 14" fill="none" xmlns="http://www.w3.org/2000/svg">
<path d="M2.56263 6.99906L7.64098 2.06148C7.84368 1.86282 7.97065 1.57853 7.99409 1.27086C8.01753 0.963199 7.93552 0.657235 7.76602 0.419974C7.59653 0.182714 7.35336 0.0334916 7.08977 0.00498582C6.82618 -0.02352 6.56366 0.0710137 6.35968 0.267885L0.359401 6.10225C0.246891 6.21192 0.15639 6.34909 0.0942886 6.50405C0.0321872 6.65901 0 6.82799 0 6.99905C0 7.17012 0.0321872 7.3391 0.0942886 7.49406C0.15639 7.64902 0.246891 7.78618 0.359401 7.89586L6.35968 13.7302C6.56356 13.928 6.82641 14.0233 7.09048 13.9952C7.35454 13.967 7.59823 13.8177 7.76801 13.58C7.93778 13.3424 8.01977 13.0358 7.99595 12.7276C7.97214 12.4195 7.84446 12.135 7.64098 11.9366L2.56263 6.99906Z" fill="#333333"/>
</svg>
