<svg width="16" height="16" viewBox="0 0 16 16" fill="none" xmlns="http://www.w3.org/2000/svg">
<path d="M14.3639 1.63507C12.8029 0.0760703 10.2639 0.0760703 8.70594 1.63507L4.17194 6.17007C3.69894 6.64307 3.43894 7.27007 3.43894 7.94007C3.43894 8.60807 3.69994 9.23507 4.17094 9.70807C4.65794 10.1941 5.29894 10.4381 5.93994 10.4381C6.57994 10.4381 7.21894 10.1961 7.70694 9.70807L9.82894 7.58707C10.2199 7.19207 10.4149 6.68307 10.4149 6.17307C10.4149 5.66107 10.2199 5.15007 9.82894 4.75907L6.29294 8.29407C6.09994 8.48907 5.78194 8.48907 5.58494 8.29207C5.45794 8.16507 5.43894 8.01707 5.43894 7.94007C5.43894 7.86207 5.45794 7.71307 5.58494 7.58607L10.1199 3.04907C10.8979 2.27007 12.1679 2.27007 12.9499 3.04907C13.7289 3.82807 13.7289 5.09807 12.9499 5.87707L8.41294 10.4141L5.87794 12.9491C5.09894 13.7281 3.82894 13.7281 3.04994 12.9491C2.26994 12.1701 2.26994 10.9001 3.04994 10.1211L3.14494 10.0251C2.69394 9.42507 2.44294 8.66607 2.44294 7.90007L1.63594 8.70707C0.0759424 10.2661 0.0759424 12.8051 1.63594 14.3631C2.41494 15.1421 3.43994 15.5331 4.46394 15.5331C5.48794 15.5331 6.51294 15.1421 7.29194 14.3631L14.3639 7.29107C15.9239 5.73207 15.9239 3.19507 14.3639 1.63507Z" fill="black"/>
</svg>
