<svg width="20" height="20" viewBox="0 0 20 20" fill="none" xmlns="http://www.w3.org/2000/svg">
<g clip-path="url(#clip0_66_488)">
<path d="M7.5 6.87506C7.49853 7.07602 7.50896 7.2769 7.53125 7.47662L1.6875 15.4454C1.51052 15.6864 1.42582 15.9829 1.44875 16.281C1.47169 16.5792 1.60074 16.8592 1.8125 17.0704L2.92969 18.1876C3.14082 18.3993 3.42087 18.5284 3.71902 18.5513C4.01716 18.5742 4.31366 18.4895 4.55469 18.3126L12.5234 12.4688C12.7232 12.4911 12.924 12.5015 13.125 12.5001C14.2732 12.5002 15.3938 12.1484 16.3359 11.4922C16.3731 11.4659 16.404 11.4317 16.4265 11.3921C16.449 11.3525 16.4626 11.3085 16.4664 11.2631C16.4701 11.2177 16.4638 11.172 16.4481 11.1293C16.4323 11.0865 16.4073 11.0478 16.375 11.0157L8.98438 3.62506C8.9523 3.59272 8.91353 3.56779 8.8708 3.55201C8.82807 3.53623 8.78241 3.52998 8.73701 3.5337C8.69161 3.53742 8.64757 3.55102 8.60798 3.57355C8.56839 3.59608 8.5342 3.62699 8.50782 3.66412C7.85161 4.60628 7.49989 5.7269 7.5 6.87506ZM8.88281 12.0079L7.32031 13.5704C7.20085 13.6859 7.04118 13.7505 6.875 13.7505C6.70883 13.7505 6.54915 13.6859 6.42969 13.5704C6.31233 13.4519 6.24649 13.2918 6.24649 13.1251C6.24649 12.9583 6.31233 12.7982 6.42969 12.6797L7.99219 11.1172C8.11363 11.0176 8.26779 10.9667 8.4247 10.9744C8.5816 10.9821 8.73004 11.0479 8.84112 11.1589C8.95221 11.27 9.018 11.4185 9.02571 11.5754C9.03341 11.7323 8.98248 11.8864 8.88281 12.0079ZM18.7422 6.56256C18.8113 7.81571 18.4593 9.05597 17.7422 10.086C17.7158 10.1231 17.6816 10.154 17.642 10.1766C17.6024 10.1991 17.5584 10.2127 17.513 10.2164C17.4676 10.2201 17.4219 10.2139 17.3792 10.1981C17.3365 10.1823 17.2977 10.1574 17.2656 10.1251L9.875 2.73444C9.84267 2.70235 9.81773 2.66359 9.80195 2.62086C9.78617 2.57813 9.77992 2.53246 9.78364 2.48706C9.78736 2.44167 9.80097 2.39763 9.8235 2.35804C9.84602 2.31845 9.87694 2.28426 9.91407 2.25787C10.7358 1.68634 11.6952 1.34442 12.6931 1.26741C13.6911 1.1904 14.6916 1.38108 15.5913 1.81977C16.4909 2.25847 17.2573 2.9293 17.8112 3.76302C18.3651 4.59674 18.6865 5.56317 18.7422 6.56256Z" fill="#333333"/>
</g>
<defs>
<clipPath id="clip0_66_488">
<rect width="20" height="20" fill="white"/>
</clipPath>
</defs>
</svg>
