<svg width="90" height="24" viewBox="0 0 90 24" fill="none" xmlns="http://www.w3.org/2000/svg">
<path d="M34.5771 2.42432C35.9836 2.42432 37.1158 3.10205 37.1158 3.94389C37.1158 3.94389 38.2037 9.2941 38.211 12.1423C38.2185 14.9904 37.1158 21.0259 37.1158 21.0259C37.0547 21.8675 35.9836 22.5455 34.5771 22.5455C33.1707 22.5455 32.0384 21.8678 32.0384 21.0259C32.0384 21.0259 30.9904 15.0591 31.0015 12.209C31.0126 9.35904 32.0384 3.94389 32.0384 3.94389C32.1439 3.10299 33.1707 2.42432 34.5771 2.42432Z" fill="#333333"/>
<path d="M54.7641 2.42432C56.1705 2.42432 57.3028 3.10205 57.3028 3.94389C57.3028 3.94389 58.3906 9.2941 58.398 12.1423C58.4055 14.9904 57.3028 21.0259 57.3028 21.0259C57.2417 21.8675 56.1705 22.5455 54.7641 22.5455C53.3576 22.5455 52.2254 21.8678 52.2254 21.0259C52.2254 21.0259 51.1773 15.0591 51.1885 12.209C51.1996 9.35904 52.2254 3.94389 52.2254 3.94389C52.3309 3.10299 53.3576 2.42432 54.7641 2.42432Z" fill="#333333"/>
<path d="M23.7627 4.12109C25.1691 4.12109 26.3014 4.81298 26.3014 5.6724C26.3014 5.6724 27.3892 9.61372 27.3966 12.5213C27.4041 15.429 26.3014 19.5395 26.3014 19.5395C26.2403 20.3986 25.1691 21.0908 23.7627 21.0908C22.3562 21.0908 21.224 20.3989 21.224 19.5395C21.224 19.5395 20.1759 15.499 20.1871 12.5895C20.1982 9.68001 21.224 5.6724 21.224 5.6724C21.3295 4.81394 22.3562 4.12109 23.7627 4.12109Z" fill="#333333"/>
<path d="M65.5785 4.12109C66.9849 4.12109 68.1172 4.81298 68.1172 5.6724C68.1172 5.6724 69.205 9.61372 69.2124 12.5213C69.2199 15.429 68.1172 19.5395 68.1172 19.5395C68.0561 20.3986 66.9849 21.0908 65.5785 21.0908C64.1721 21.0908 63.0398 20.3989 63.0398 19.5395C63.0398 19.5395 61.9917 15.499 62.0029 12.5895C62.014 9.68001 63.0398 5.6724 63.0398 5.6724C63.1453 4.81394 64.1721 4.12109 65.5785 4.12109Z" fill="#333333"/>
<path d="M13.6096 5.33325C14.9925 5.33325 16.1059 5.92613 16.1059 6.66258C16.1059 6.66258 17.1756 10.0399 17.1828 12.5315C17.1902 15.0231 16.1059 17.8182 16.1059 17.8182C16.0458 18.5543 14.9925 19.1475 13.6096 19.1475C12.2266 19.1475 11.1132 18.5546 11.1132 17.8182C11.1132 17.8182 10.0826 15.0831 10.0936 12.5899C10.1045 10.0967 11.1132 6.66258 11.1132 6.66258C11.2169 5.92696 12.2266 5.33325 13.6096 5.33325Z" fill="#333333"/>
<path d="M76.3333 5.33325C77.7163 5.33325 78.8296 5.92613 78.8296 6.66258C78.8296 6.66258 79.8993 10.0399 79.9066 12.5315C79.9139 15.0231 78.8296 17.8182 78.8296 17.8182C78.7696 18.5543 77.7163 19.1475 76.3333 19.1475C74.9503 19.1475 73.8369 18.5546 73.8369 17.8182C73.8369 17.8182 72.8063 15.0831 72.8173 12.5899C72.8282 10.0967 73.8369 6.66258 73.8369 6.66258C73.9406 5.92696 74.9503 5.33325 76.3333 5.33325Z" fill="#333333"/>
<path d="M44.6706 0C46.077 0 47.2093 0.808379 47.2093 1.81251C47.2093 1.81251 48.2971 8.19408 48.3045 11.5913C48.312 14.9885 47.2093 22.1875 47.2093 22.1875C47.1482 23.1912 46.077 24 44.6706 24C43.2642 24 42.1319 23.1916 42.1319 22.1875C42.1319 22.1875 41.0838 15.0703 41.095 11.6709C41.1061 8.27154 42.1319 1.81251 42.1319 1.81251C42.2374 0.809506 43.2642 0 44.6706 0Z" fill="#333333"/>
<path d="M3.60483 7.88281C4.98782 7.88281 6.1012 8.4757 6.1012 9.21215C6.1012 9.21215 7.08926 11.0739 7.08926 12.1114C7.08926 13.1488 6.1012 14.8526 6.1012 14.8526C6.04112 15.5887 4.98782 16.1819 3.60483 16.1819C2.22185 16.1819 1.10847 15.589 1.10847 14.8526C1.10847 14.8526 -0.00536413 13.3903 1.9453e-05 12.1698C0.00541475 10.9493 1.10847 9.21215 1.10847 9.21215C1.2122 8.47652 2.22185 7.88281 3.60483 7.88281Z" fill="#333333"/>
<path d="M86.5155 8C87.8985 8 89.0119 8.59288 89.0119 9.32933C89.0119 9.32933 90 11.1911 90 12.2286C90 13.266 89.0119 14.9698 89.0119 14.9698C88.9518 15.7059 87.8985 16.2991 86.5155 16.2991C85.1326 16.2991 84.0192 15.7062 84.0192 14.9698C84.0192 14.9698 82.9053 13.5075 82.9107 12.287C82.9161 11.0665 84.0192 9.32933 84.0192 9.32933C84.1229 8.59371 85.1326 8 86.5155 8Z" fill="#333333"/>
</svg>
