<svg width="246" height="246" viewBox="0 0 246 246" fill="none" xmlns="http://www.w3.org/2000/svg">
<path d="M117.293 168.033H22.2925C21.5479 168.032 20.8341 167.735 20.3075 167.209C19.7809 166.682 19.4845 165.968 19.4832 165.224V31.6802C19.491 30.9398 19.7902 30.2323 20.3161 29.711C20.842 29.1898 21.5521 28.8968 22.2925 28.8955H117.293C118.037 28.8968 118.75 29.1934 119.276 29.7201C119.802 30.2468 120.097 30.9606 120.097 31.7048V165.224C120.097 165.968 119.802 166.682 119.276 167.209C118.75 167.735 118.037 168.032 117.293 168.033ZM22.2925 28.9939C21.5805 28.9952 20.898 29.2786 20.3945 29.7821C19.891 30.2857 19.6075 30.9682 19.6062 31.6802V165.224C19.6075 165.936 19.891 166.618 20.3945 167.122C20.898 167.625 21.5805 167.909 22.2925 167.91H117.293C118.004 167.909 118.686 167.625 119.189 167.122C119.692 166.618 119.974 165.935 119.974 165.224V31.6802C119.974 30.9686 119.692 30.2861 119.189 29.7825C118.686 29.2788 118.004 28.9952 117.293 28.9939H22.2925Z" fill="#E6E6E6"/>
<path d="M223.712 168.033H128.707C127.963 168.032 127.25 167.735 126.724 167.209C126.198 166.682 125.903 165.968 125.903 165.224V31.6802C125.909 30.9403 126.207 30.2328 126.733 29.7114C127.258 29.19 127.967 28.8968 128.707 28.8955H223.712C224.452 28.8968 225.162 29.19 225.687 29.7114C226.212 30.2328 226.51 30.9403 226.517 31.6802V165.224C226.517 165.968 226.222 166.682 225.696 167.209C225.17 167.735 224.457 168.032 223.712 168.033ZM128.707 28.9939C127.996 28.9952 127.314 29.2788 126.811 29.7825C126.308 30.2861 126.026 30.9686 126.026 31.6802V165.224C126.026 165.935 126.308 166.618 126.811 167.122C127.314 167.625 127.996 167.909 128.707 167.91H223.712C224.425 167.909 225.108 167.626 225.612 167.122C226.117 166.619 226.401 165.936 226.404 165.224V31.6802C226.401 30.9677 226.117 30.2852 225.612 29.7818C225.108 29.2785 224.425 28.9952 223.712 28.9939H128.707Z" fill="#E6E6E6"/>
<path d="M102.213 97.1503L101.539 154.98C99.1577 174.222 65.0473 189.499 65.0473 189.499C65.0473 189.499 30.932 174.237 28.536 154.98L27.8423 97.1503L64.2995 85.1504L102.213 97.1503Z" fill="#F5F5F5"/>
<path d="M97.4554 100.812L96.8699 152.737C94.7937 169.519 65.0424 182.843 65.0424 182.843C65.0424 182.843 35.2912 169.519 33.2199 152.737L32.595 100.812L64.393 90.3467L97.4554 100.812Z" fill="#E0E0E0"/>
<path d="M95.3693 104.088L94.8183 151.758C92.8503 167.502 64.9785 179.979 64.9785 179.979C64.9785 179.979 37.087 167.487 35.1436 151.758L34.5581 104.088L64.3684 94.2773L95.3693 104.088Z" stroke="white" stroke-width="3" stroke-linecap="round" stroke-linejoin="round"/>
<path d="M216.637 77.6328H151.015V192.78H216.637V77.6328Z" fill="#F5F5F5"/>
<path d="M211.88 82.1592H155.866V192.78H211.88V82.1592Z" fill="#E0E0E0"/>
<path d="M157.44 193.273C157.342 193.273 157.245 193.253 157.155 193.214C157.066 193.179 156.985 193.125 156.919 193.057C156.847 192.989 156.792 192.907 156.756 192.815C156.721 192.726 156.702 192.631 156.702 192.535C156.702 192.426 156.726 192.319 156.773 192.22C156.82 192.122 156.887 192.035 156.972 191.966C157.056 191.896 157.154 191.847 157.26 191.82C157.366 191.794 157.476 191.791 157.583 191.812L157.72 191.851L157.848 191.92C157.888 191.948 157.926 191.98 157.962 192.013C157.996 192.047 158.026 192.085 158.05 192.127C158.079 192.166 158.102 192.209 158.119 192.255C158.139 192.299 158.154 192.345 158.163 192.392C158.168 192.44 158.168 192.488 158.163 192.535C158.164 192.632 158.143 192.727 158.104 192.815C158.069 192.906 158.015 192.988 157.947 193.057C157.812 193.191 157.63 193.268 157.44 193.273Z" fill="white"/>
<path d="M156.692 174.41C156.693 174.313 156.713 174.216 156.751 174.127C156.789 174.037 156.844 173.956 156.914 173.888C156.983 173.82 157.065 173.766 157.156 173.73C157.246 173.694 157.343 173.676 157.44 173.677C157.636 173.677 157.823 173.755 157.962 173.893C158.1 174.031 158.178 174.219 158.178 174.415C158.178 174.611 158.1 174.798 157.962 174.937C157.823 175.075 157.636 175.153 157.44 175.153C157.342 175.154 157.244 175.136 157.153 175.099C157.062 175.062 156.98 175.008 156.91 174.939C156.84 174.869 156.785 174.787 156.748 174.696C156.71 174.605 156.691 174.508 156.692 174.41ZM156.692 156.29C156.692 156.094 156.77 155.906 156.908 155.768C157.047 155.629 157.234 155.552 157.43 155.552C157.626 155.552 157.814 155.629 157.952 155.768C158.09 155.906 158.168 156.094 158.168 156.29C158.168 156.485 158.09 156.673 157.952 156.811C157.814 156.95 157.626 157.028 157.43 157.028C157.234 157.028 157.047 156.95 156.908 156.811C156.77 156.673 156.692 156.485 156.692 156.29ZM156.692 138.164C156.692 137.969 156.77 137.781 156.908 137.642C157.047 137.504 157.234 137.426 157.43 137.426C157.626 137.426 157.814 137.504 157.952 137.642C158.09 137.781 158.168 137.969 158.168 138.164C158.168 138.36 158.09 138.548 157.952 138.686C157.814 138.825 157.626 138.902 157.43 138.902C157.333 138.902 157.237 138.883 157.148 138.846C157.058 138.809 156.977 138.755 156.908 138.686C156.84 138.618 156.785 138.536 156.748 138.447C156.711 138.357 156.692 138.261 156.692 138.164ZM156.692 120.039C156.692 119.843 156.77 119.656 156.908 119.517C157.047 119.379 157.234 119.301 157.43 119.301C157.626 119.301 157.814 119.379 157.952 119.517C158.09 119.656 158.168 119.843 158.168 120.039C158.168 120.235 158.09 120.422 157.952 120.561C157.814 120.699 157.626 120.777 157.43 120.777C157.236 120.777 157.05 120.701 156.912 120.564C156.774 120.428 156.695 120.243 156.692 120.049V120.039ZM156.692 101.919C156.692 101.723 156.77 101.535 156.908 101.397C157.047 101.258 157.234 101.181 157.43 101.181C157.626 101.181 157.814 101.258 157.952 101.397C158.09 101.535 158.168 101.723 158.168 101.919C158.168 102.114 158.09 102.302 157.952 102.441C157.814 102.579 157.626 102.657 157.43 102.657C157.333 102.657 157.237 102.638 157.148 102.6C157.058 102.563 156.977 102.509 156.908 102.441C156.84 102.372 156.785 102.291 156.748 102.201C156.711 102.112 156.692 102.016 156.692 101.919Z" fill="white"/>
<path d="M157.44 84.5306C157.343 84.5311 157.247 84.5122 157.157 84.475C157.068 84.4378 156.987 84.3831 156.918 84.3142C156.882 84.281 156.851 84.2429 156.825 84.201C156.799 84.1617 156.776 84.1206 156.756 84.078C156.736 84.0327 156.723 83.9846 156.717 83.9353C156.712 83.8879 156.712 83.8401 156.717 83.7926C156.718 83.5972 156.796 83.41 156.933 83.2711C156.966 83.2362 157.002 83.2049 157.041 83.1776C157.082 83.1515 157.124 83.13 157.169 83.1137C157.214 83.0945 157.26 83.0797 157.307 83.0694C157.403 83.0498 157.502 83.0498 157.597 83.0694C157.645 83.0797 157.691 83.0945 157.735 83.1137C157.78 83.13 157.823 83.1515 157.863 83.1776C157.903 83.2061 157.941 83.2373 157.976 83.2711C158.114 83.41 158.192 83.5972 158.193 83.7926C158.198 83.8401 158.198 83.8879 158.193 83.9353C158.183 83.9842 158.168 84.0319 158.148 84.078C158.13 84.1215 158.107 84.1628 158.08 84.201C158.056 84.2429 158.026 84.281 157.991 84.3142C157.919 84.3858 157.833 84.442 157.738 84.4793C157.643 84.5165 157.542 84.534 157.44 84.5306Z" fill="white"/>
<path d="M191.821 83.7927C191.821 83.597 191.899 83.4092 192.037 83.2708C192.176 83.1324 192.363 83.0547 192.559 83.0547C192.755 83.0547 192.942 83.1324 193.081 83.2708C193.219 83.4092 193.297 83.597 193.297 83.7927C193.297 83.9884 193.219 84.1761 193.081 84.3145C192.942 84.4529 192.755 84.5307 192.559 84.5307C192.363 84.5307 192.176 84.4529 192.037 84.3145C191.899 84.1761 191.821 83.9884 191.821 83.7927ZM174.257 83.7927C174.257 83.597 174.334 83.4092 174.473 83.2708C174.611 83.1324 174.799 83.0547 174.995 83.0547C175.19 83.0547 175.378 83.1324 175.516 83.2708C175.655 83.4092 175.733 83.597 175.733 83.7927C175.733 83.9884 175.655 84.1761 175.516 84.3145C175.378 84.4529 175.19 84.5307 174.995 84.5307C174.799 84.5307 174.611 84.4529 174.473 84.3145C174.334 84.1761 174.257 83.9884 174.257 83.7927Z" fill="white"/>
<path d="M210.123 84.5305C210.076 84.5354 210.028 84.5354 209.981 84.5305L209.843 84.4912L209.715 84.4223C209.675 84.3938 209.637 84.3626 209.602 84.3288C209.463 84.1905 209.386 84.003 209.385 83.8073C209.387 83.6118 209.464 83.4246 209.602 83.2858C209.636 83.2521 209.674 83.2224 209.715 83.1972C209.754 83.1677 209.797 83.1444 209.843 83.1283C209.887 83.1085 209.933 83.0936 209.981 83.084C210.076 83.0644 210.175 83.0644 210.271 83.084L210.409 83.1283C210.453 83.1445 210.495 83.1678 210.532 83.1972C210.574 83.221 210.612 83.2509 210.645 83.2858C210.782 83.4246 210.86 83.6118 210.861 83.8073C210.861 84.003 210.783 84.1905 210.645 84.3288C210.611 84.3638 210.573 84.3951 210.532 84.4223C210.492 84.4482 210.451 84.4712 210.409 84.4912L210.271 84.5305C210.222 84.5354 210.172 84.5354 210.123 84.5305Z" fill="white"/>
<path d="M209.385 174.41C209.385 174.214 209.463 174.027 209.602 173.888C209.74 173.75 209.928 173.672 210.123 173.672C210.319 173.672 210.507 173.75 210.645 173.888C210.784 174.027 210.861 174.214 210.861 174.41C210.861 174.606 210.784 174.793 210.645 174.932C210.507 175.07 210.319 175.148 210.123 175.148C209.928 175.148 209.74 175.07 209.602 174.932C209.463 174.793 209.385 174.606 209.385 174.41ZM209.385 156.29C209.385 156.094 209.463 155.906 209.602 155.768C209.74 155.629 209.928 155.552 210.123 155.552C210.319 155.552 210.507 155.629 210.645 155.768C210.784 155.906 210.861 156.094 210.861 156.29C210.861 156.485 210.784 156.673 210.645 156.811C210.507 156.95 210.319 157.028 210.123 157.028C209.928 157.028 209.74 156.95 209.602 156.811C209.463 156.673 209.385 156.485 209.385 156.29ZM209.385 138.164C209.385 137.969 209.463 137.781 209.602 137.642C209.74 137.504 209.928 137.426 210.123 137.426C210.319 137.426 210.507 137.504 210.645 137.642C210.784 137.781 210.861 137.969 210.861 138.164C210.861 138.36 210.784 138.548 210.645 138.686C210.507 138.825 210.319 138.902 210.123 138.902C210.026 138.902 209.931 138.883 209.841 138.846C209.751 138.809 209.67 138.755 209.602 138.686C209.533 138.618 209.479 138.536 209.442 138.447C209.404 138.357 209.385 138.261 209.385 138.164ZM209.385 120.039C209.385 119.843 209.463 119.656 209.602 119.517C209.74 119.379 209.928 119.301 210.123 119.301C210.319 119.301 210.507 119.379 210.645 119.517C210.784 119.656 210.861 119.843 210.861 120.039C210.861 120.235 210.784 120.422 210.645 120.561C210.507 120.699 210.319 120.777 210.123 120.777C209.929 120.777 209.743 120.701 209.605 120.564C209.467 120.428 209.388 120.243 209.385 120.049V120.039ZM209.385 101.919C209.385 101.723 209.463 101.535 209.602 101.397C209.74 101.258 209.928 101.181 210.123 101.181C210.319 101.181 210.507 101.258 210.645 101.397C210.784 101.535 210.861 101.723 210.861 101.919C210.861 102.114 210.784 102.302 210.645 102.441C210.507 102.579 210.319 102.657 210.123 102.657C210.026 102.657 209.931 102.638 209.841 102.6C209.751 102.563 209.67 102.509 209.602 102.441C209.533 102.372 209.479 102.291 209.442 102.201C209.404 102.112 209.385 102.016 209.385 101.919Z" fill="white"/>
<path d="M210.123 193.273C209.977 193.273 209.835 193.229 209.714 193.148C209.592 193.067 209.498 192.952 209.442 192.817C209.386 192.682 209.372 192.534 209.4 192.391C209.429 192.248 209.499 192.117 209.602 192.013C209.637 191.98 209.675 191.948 209.715 191.92L209.843 191.851L209.981 191.812C210.076 191.792 210.175 191.792 210.271 191.812L210.409 191.851C210.451 191.871 210.492 191.894 210.532 191.92C210.573 191.947 210.61 191.978 210.645 192.013C210.783 192.152 210.861 192.339 210.861 192.535C210.862 192.632 210.844 192.728 210.806 192.818C210.769 192.907 210.714 192.989 210.645 193.056C210.507 193.195 210.319 193.273 210.123 193.273Z" fill="white"/>
<path d="M46.74 192.968H26.4647V193.091H46.74V192.968Z" fill="#E0E0E0"/>
<path d="M88.068 191.983H67.7336V192.106H88.068V191.983Z" fill="#E0E0E0"/>
<path d="M114.528 191.983H109.608V192.106H114.528V191.983Z" fill="#E0E0E0"/>
<path d="M65.3524 196.186H42.5974V196.309H65.3524V196.186Z" fill="#E0E0E0"/>
<path d="M144.058 192.903H133.43V193.026H144.058V192.903Z" fill="#E0E0E0"/>
<path d="M162.178 192.903H148.436V193.026H162.178V192.903Z" fill="#E0E0E0"/>
<path d="M228.45 194.985H197.73V195.108H228.45V194.985Z" fill="#E0E0E0"/>
<path d="M114.838 43.1243H92.1713L93.4111 28.999H116.073L114.838 43.1243Z" fill="#EBEBEB"/>
<path d="M115.295 27.0801L114.675 34.4552L114.055 43.321H92.2599L93.4997 27.0801H115.295Z" fill="#FAFAFA"/>
<path d="M113.214 28.9992L114.449 43.1246H91.7876L90.5477 28.9992H92.4764L93.1455 27.9365H99.2512L100.127 28.9992H113.214Z" fill="#E0E0E0"/>
<path d="M149.967 46.2783H125.849V70.3962H149.967V46.2783Z" fill="#EBEBEB"/>
<path d="M150.582 46.2783H149.967V70.3962H150.582V46.2783Z" fill="#E0E0E0"/>
<path d="M147.733 48.5117H128.073V68.172H147.733V48.5117Z" fill="#F5F5F5"/>
<path d="M128.259 48.5117H128.077V68.172H128.259V48.5117Z" fill="#E0E0E0"/>
<path d="M138.09 61.1802C140.206 61.1802 141.922 58.9951 141.922 56.2996C141.922 53.6041 140.206 51.4189 138.09 51.4189C135.973 51.4189 134.257 53.6041 134.257 56.2996C134.257 58.9951 135.973 61.1802 138.09 61.1802Z" fill="#E0E0E0"/>
<path d="M136.087 63.6504H140.127V59.6111H136.087V63.6504Z" fill="#E0E0E0"/>
<path d="M145.371 68.1719H130.572V66.7943C130.572 65.5364 131.072 64.33 131.961 63.4406C132.851 62.5511 134.057 62.0514 135.315 62.0514H140.648C141.906 62.0514 143.112 62.5511 144.002 63.4406C144.891 64.33 145.391 65.5364 145.391 66.7943V68.1719H145.371Z" fill="#E0E0E0"/>
<path d="M130.203 59.9657C130.203 60.7676 131.679 61.4417 131.679 61.4417C131.679 61.4417 133.155 60.7873 133.155 59.9657C133.155 59.5819 132.624 59.3654 132.274 59.4737C132.14 59.5203 132.017 59.593 131.912 59.6876C131.806 59.7822 131.72 59.8968 131.659 60.0247C131.471 59.7709 131.222 59.568 130.936 59.4343C130.852 59.4049 130.762 59.3962 130.674 59.4091C130.586 59.422 130.502 59.456 130.43 59.5082C130.358 59.5604 130.3 59.6293 130.26 59.709C130.221 59.7886 130.201 59.8767 130.203 59.9657Z" fill="#E0E0E0"/>
<path d="M143.3 56.3788C143.3 57.4366 145.214 58.2927 145.214 58.2927C145.214 58.2927 147.128 57.4366 147.128 56.3788C147.128 55.8868 146.419 55.5965 145.972 55.7245C145.634 55.8594 145.362 56.1206 145.214 56.4526C144.964 56.1211 144.639 55.8545 144.264 55.6753C144.153 55.636 144.035 55.6244 143.918 55.6414C143.802 55.6584 143.692 55.7035 143.597 55.7728C143.502 55.8421 143.425 55.9335 143.373 56.0391C143.322 56.1447 143.296 56.2613 143.3 56.3788Z" fill="#E0E0E0"/>
<path d="M101.209 176.786C101.436 178.208 102.464 179.433 102.543 180.87C102.607 181.996 102.08 183.054 101.819 184.151C101.559 185.249 101.687 186.611 102.646 187.192C102.995 187.369 103.385 187.451 103.776 187.427C104.167 187.404 104.544 187.277 104.87 187.059C105.512 186.614 106.043 186.027 106.42 185.342C107.929 182.903 108.753 180.102 108.806 177.234C108.806 176.029 108.683 174.749 107.974 173.79C105.78 170.725 100.648 173.244 101.209 176.786Z" fill="#F5F5F5"/>
<path d="M99.384 173.022C99.5957 173.253 99.8715 173.416 100.176 173.489C100.36 173.549 100.557 173.561 100.747 173.524C100.937 173.487 101.115 173.402 101.263 173.278C101.376 173.132 101.457 172.964 101.499 172.785C101.542 172.606 101.545 172.42 101.509 172.239C101.479 171.786 101.324 171.35 101.062 170.98C100.93 170.797 100.755 170.65 100.552 170.551C100.35 170.453 100.126 170.405 99.9006 170.414C99.6759 170.433 99.4643 170.528 99.3013 170.684C99.1383 170.839 99.0337 171.046 99.0052 171.27C98.9505 171.879 99.0826 172.49 99.384 173.022Z" fill="#F5F5F5"/>
<path d="M103.473 170.065C103.372 169.909 103.228 169.787 103.058 169.712C102.888 169.638 102.701 169.615 102.518 169.647C102.337 169.687 102.173 169.781 102.047 169.916C101.92 170.051 101.838 170.221 101.81 170.404C101.802 170.524 101.802 170.644 101.81 170.763C101.811 170.957 101.833 171.15 101.874 171.339C101.915 171.522 102.001 171.691 102.124 171.831C102.293 171.995 102.508 172.105 102.739 172.146C102.883 172.18 103.033 172.179 103.176 172.143C103.319 172.108 103.451 172.037 103.561 171.939C103.659 171.82 103.732 171.683 103.776 171.535C103.82 171.387 103.834 171.232 103.817 171.078C103.806 170.714 103.686 170.361 103.473 170.065Z" fill="#F5F5F5"/>
<path d="M105.751 169.942C105.67 169.794 105.539 169.679 105.38 169.619C105.222 169.56 105.048 169.559 104.89 169.617C104.735 169.682 104.598 169.783 104.492 169.913C104.385 170.042 104.312 170.196 104.279 170.36C104.279 170.469 104.25 170.577 104.245 170.685C104.242 170.864 104.262 171.043 104.304 171.216C104.339 171.388 104.429 171.543 104.56 171.659C104.699 171.776 104.871 171.848 105.052 171.866C105.17 171.88 105.289 171.869 105.402 171.832C105.515 171.796 105.619 171.735 105.706 171.654C105.897 171.437 106.002 171.157 106.001 170.867C106.023 170.539 105.935 170.214 105.751 169.942Z" fill="#F5F5F5"/>
<path d="M107.782 170.415C107.541 170.055 107.29 170.031 107.015 170.183C106.77 170.362 106.596 170.622 106.523 170.916C106.495 171.011 106.476 171.108 106.464 171.207C106.437 171.37 106.437 171.536 106.464 171.699C106.496 171.856 106.588 171.996 106.72 172.087C106.842 172.163 106.985 172.198 107.128 172.186C107.314 172.169 107.488 172.087 107.62 171.955C107.801 171.76 107.916 171.514 107.95 171.251C108 170.961 107.94 170.663 107.782 170.415Z" fill="#F5F5F5"/>
<path d="M108.181 172.407C108.154 172.523 108.154 172.645 108.181 172.761C108.191 172.821 108.215 172.877 108.252 172.925C108.289 172.973 108.337 173.012 108.393 173.037C108.493 173.06 108.598 173.052 108.694 173.015C108.791 172.979 108.874 172.914 108.934 172.83C109.079 172.681 109.186 172.499 109.244 172.299C109.272 172.199 109.281 172.094 109.268 171.991C109.255 171.888 109.222 171.788 109.17 171.698C108.732 170.985 108.24 172.053 108.181 172.407Z" fill="#F5F5F5"/>
<path d="M108.579 209.647C108.909 208.485 109.101 207.211 108.663 206.085C107.31 202.577 101.721 203.693 101.352 207.265L108.579 209.647Z" fill="#F5F5F5"/>
<path d="M100.575 203.162C100.721 203.44 100.947 203.668 101.224 203.816C101.386 203.921 101.573 203.983 101.766 203.996C101.958 204.009 102.151 203.973 102.326 203.89C102.47 203.777 102.588 203.635 102.673 203.473C102.758 203.311 102.807 203.133 102.818 202.951C102.905 202.506 102.868 202.047 102.71 201.622C102.628 201.41 102.496 201.222 102.324 201.074C102.153 200.925 101.947 200.821 101.726 200.771C101.505 200.732 101.277 200.769 101.08 200.878C100.883 200.986 100.729 201.158 100.644 201.366C100.44 201.944 100.416 202.57 100.575 203.162Z" fill="#F5F5F5"/>
<path d="M105.288 201.346C105.23 201.17 105.121 201.015 104.976 200.9C104.831 200.785 104.656 200.714 104.471 200.697C104.286 200.691 104.104 200.74 103.947 200.838C103.79 200.936 103.666 201.079 103.591 201.248C103.547 201.36 103.511 201.475 103.482 201.592C103.433 201.779 103.403 201.97 103.394 202.163C103.381 202.355 103.421 202.547 103.507 202.719C103.624 202.916 103.794 203.074 103.999 203.176C104.129 203.245 104.273 203.281 104.42 203.281C104.566 203.281 104.711 203.245 104.84 203.176C104.969 203.089 105.079 202.976 105.164 202.845C105.248 202.714 105.306 202.568 105.332 202.414C105.421 202.061 105.405 201.69 105.288 201.346Z" fill="#F5F5F5"/>
<path d="M107.502 201.813C107.462 201.651 107.366 201.509 107.231 201.411C107.096 201.313 106.93 201.265 106.764 201.277C106.598 201.301 106.439 201.365 106.303 201.464C106.167 201.562 106.057 201.692 105.982 201.843C105.937 201.941 105.898 202.041 105.864 202.143C105.808 202.31 105.775 202.484 105.765 202.66C105.755 202.833 105.8 203.005 105.893 203.152C106.002 203.306 106.157 203.421 106.336 203.481C106.447 203.526 106.566 203.546 106.685 203.539C106.804 203.532 106.92 203.499 107.025 203.442C107.266 203.283 107.441 203.042 107.517 202.763C107.617 202.454 107.611 202.12 107.502 201.813Z" fill="#F5F5F5"/>
<path d="M109.342 202.793C109.204 202.38 108.944 202.301 108.663 202.37C108.377 202.476 108.136 202.68 107.984 202.945C107.935 203.031 107.891 203.12 107.851 203.211C107.791 203.359 107.755 203.515 107.743 203.674C107.734 203.832 107.785 203.989 107.886 204.111C107.983 204.217 108.113 204.288 108.255 204.313C108.439 204.349 108.63 204.316 108.791 204.22C109.013 204.077 109.185 203.869 109.283 203.624C109.403 203.364 109.424 203.068 109.342 202.793Z" fill="#F5F5F5"/>
<path d="M109.224 204.82C109.164 204.924 109.128 205.04 109.121 205.16C109.116 205.22 109.125 205.28 109.148 205.336C109.172 205.391 109.208 205.441 109.254 205.48C109.345 205.528 109.448 205.548 109.55 205.537C109.653 205.527 109.75 205.486 109.829 205.42C110.007 205.313 110.157 205.164 110.267 204.988C110.32 204.898 110.355 204.799 110.369 204.696C110.384 204.593 110.377 204.488 110.351 204.387C110.095 203.585 109.381 204.5 109.224 204.82Z" fill="#F5F5F5"/>
<path d="M89.1848 188.761C89.3669 190.193 88.6928 191.654 89.0372 193.056C89.2882 194.153 90.0901 195.024 90.6412 196.008C91.1922 196.992 91.453 198.33 90.6854 199.157C90.4005 199.425 90.049 199.612 89.6676 199.698C89.2861 199.785 88.8884 199.768 88.5157 199.649C87.7753 199.395 87.1023 198.976 86.5477 198.424C84.4228 196.498 82.8558 194.035 82.0115 191.295C81.6572 190.139 81.4408 188.874 81.854 187.738C83.148 184.2 88.747 185.204 89.1848 188.761Z" fill="#F5F5F5"/>
<path d="M89.8786 184.648C89.7403 184.928 89.5208 185.159 89.2488 185.312C89.0891 185.422 88.9037 185.489 88.7107 185.506C88.5176 185.523 88.3234 185.49 88.1467 185.41C87.9969 185.303 87.8722 185.164 87.7813 185.003C87.6904 184.843 87.6355 184.664 87.6203 184.481C87.5253 184.037 87.5525 183.576 87.699 183.147C87.7786 182.933 87.9101 182.741 88.0819 182.59C88.2536 182.439 88.4601 182.333 88.683 182.281C88.9036 182.237 89.1328 182.269 89.3324 182.373C89.5321 182.477 89.6901 182.646 89.7802 182.852C89.9179 183.31 90.0901 184.2 89.8786 184.648Z" fill="#F5F5F5"/>
<path d="M85.1504 182.931C85.2046 182.754 85.3093 182.596 85.4518 182.477C85.5942 182.358 85.7682 182.284 85.9524 182.262C86.1373 182.252 86.3209 182.298 86.4796 182.394C86.6382 182.49 86.7648 182.63 86.8429 182.798C86.8905 182.908 86.93 183.022 86.961 183.138C87.0141 183.322 87.047 183.512 87.0594 183.704C87.0772 183.896 87.0415 184.09 86.9561 184.264C86.8467 184.475 86.6749 184.647 86.4641 184.756C86.3374 184.831 86.1944 184.873 86.0477 184.879C85.901 184.885 85.7551 184.855 85.6227 184.791C85.4943 184.704 85.3845 184.592 85.3 184.462C85.2155 184.332 85.158 184.186 85.1307 184.033C85.0239 183.672 85.0308 183.288 85.1504 182.931Z" fill="#F5F5F5"/>
<path d="M82.9266 183.443C82.9628 183.277 83.0574 183.131 83.1929 183.029C83.3285 182.928 83.4959 182.879 83.6646 182.891C83.8309 182.912 83.9898 182.972 84.1278 183.067C84.2657 183.162 84.3786 183.289 84.4567 183.438C84.504 183.535 84.5451 183.635 84.5797 183.738C84.64 183.904 84.678 184.078 84.6929 184.254C84.7028 184.427 84.6599 184.599 84.5699 184.746C84.465 184.902 84.3135 185.021 84.1369 185.086C84.0275 185.133 83.9089 185.156 83.7898 185.151C83.6706 185.147 83.5539 185.116 83.4481 185.061C83.2076 184.906 83.0325 184.668 82.9561 184.392C82.8419 184.087 82.8315 183.754 82.9266 183.443Z" fill="#F5F5F5"/>
<path d="M81.1062 184.461C81.2391 184.048 81.4949 183.969 81.7803 184.023C82.069 184.125 82.3127 184.325 82.4691 184.589C82.5206 184.673 82.5666 184.76 82.6068 184.85C82.673 184.994 82.713 185.149 82.7249 185.307C82.7404 185.466 82.6927 185.625 82.5921 185.75C82.4968 185.857 82.3688 185.93 82.228 185.957C82.044 185.997 81.8515 185.969 81.6868 185.878C81.4584 185.74 81.278 185.536 81.1702 185.292C81.0489 185.032 81.0262 184.737 81.1062 184.461Z" fill="#F5F5F5"/>
<path d="M81.2735 186.469C81.3344 186.573 81.373 186.688 81.3866 186.808C81.3921 186.868 81.3834 186.929 81.3612 186.986C81.339 187.042 81.3039 187.092 81.2587 187.133C81.1675 187.181 81.0642 187.203 80.9612 187.194C80.8582 187.185 80.7599 187.147 80.6782 187.084C80.498 186.981 80.3459 186.836 80.2354 186.66C80.1795 186.572 80.1424 186.473 80.1263 186.37C80.1102 186.267 80.1155 186.161 80.1419 186.06C80.3731 185.268 81.1062 186.168 81.2735 186.469Z" fill="#F5F5F5"/>
<path d="M77.1112 70.6463C75.9789 70.8055 74.8249 70.6253 73.795 70.1286C72.7651 69.6319 71.9057 68.8409 71.3254 67.8558C70.745 66.8706 70.4699 65.7354 70.5347 64.5939C70.5995 63.4523 71.0014 62.3556 71.6895 61.4425C72.3777 60.5293 73.3211 59.8407 74.4006 59.4638C75.4801 59.0869 76.6471 59.0385 77.7541 59.3248C78.8611 59.6112 79.8583 60.2193 80.6196 61.0724C81.3809 61.9255 81.8721 62.9852 82.0312 64.1175C82.2418 65.6353 81.8422 67.1746 80.92 68.3983C79.9978 69.6221 78.6282 70.4304 77.1112 70.6463ZM75.9402 62.2331C75.409 62.3064 74.9114 62.5355 74.5104 62.8916C74.1094 63.2477 73.823 63.7148 73.6875 64.2337C73.552 64.7526 73.5734 65.3 73.7491 65.8067C73.9248 66.3134 74.2468 66.7566 74.6744 67.0803C75.1021 67.4039 75.6161 67.5935 76.1514 67.6249C76.6868 67.6564 77.2195 67.5283 77.6821 67.257C78.1447 66.9856 78.5164 66.5832 78.7502 66.1005C78.984 65.6179 79.0694 65.0767 78.9956 64.5455C78.8954 63.8345 78.5178 63.192 77.9452 62.7587C77.3726 62.3253 76.6518 62.1364 75.9402 62.2331Z" fill="#E0E0E0"/>
<path d="M74.944 47.677L72.7708 47.9805L74.7231 61.9603L76.8963 61.6568L74.944 47.677Z" fill="#E0E0E0"/>
<path d="M76.7824 45.7311L72.7055 46.3076L73.0127 48.48L77.0896 47.9035L76.7824 45.7311Z" fill="#E0E0E0"/>
<path d="M77.1175 48.6868L73.2826 49.2217L73.5857 51.395L77.4206 50.8601L77.1175 48.6868Z" fill="#E0E0E0"/>
<path d="M77.6764 52.6259L74.3288 53.0928L74.6319 55.2661L77.9795 54.7992L77.6764 52.6259Z" fill="#E0E0E0"/>
<path d="M123 217.754C175.685 217.754 218.394 215.261 218.394 212.185C218.394 209.109 175.685 206.615 123 206.615C70.3154 206.615 27.6061 209.109 27.6061 212.185C27.6061 215.261 70.3154 217.754 123 217.754Z" fill="#F5F5F5"/>
<path d="M72.5553 119.692C77.0913 114.954 76.5772 107.101 71.407 102.151C66.2369 97.202 58.3686 97.0309 53.8327 101.769C49.2968 106.507 49.8109 114.361 54.981 119.31C60.1511 124.259 68.0194 124.431 72.5553 119.692Z" fill="#407BFF"/>
<g opacity="0.8">
<path d="M72.5553 119.692C77.0913 114.954 76.5772 107.101 71.407 102.151C66.2369 97.202 58.3686 97.0309 53.8327 101.769C49.2968 106.507 49.8109 114.361 54.981 119.31C60.1511 124.259 68.0194 124.431 72.5553 119.692Z" fill="white"/>
</g>
<path d="M57.4114 102.947C57.3082 102.947 57.2075 102.914 57.1238 102.854C57.04 102.793 56.9773 102.708 56.9447 102.61C56.912 102.512 56.911 102.406 56.9418 102.308C56.9726 102.209 57.0336 102.123 57.1162 102.061C58.7729 100.872 60.7698 100.251 62.8087 100.29C62.9392 100.29 63.0643 100.342 63.1566 100.434C63.2488 100.526 63.3007 100.651 63.3007 100.782C63.3007 100.912 63.2488 101.037 63.1566 101.13C63.0643 101.222 62.9392 101.274 62.8087 101.274C60.9826 101.234 59.1925 101.786 57.7066 102.848C57.6215 102.912 57.5179 102.947 57.4114 102.947Z" fill="#407BFF"/>
<path d="M59.7386 119.871C59.6579 119.87 59.5784 119.85 59.5074 119.812C57.9996 119.006 56.6912 117.872 55.6782 116.495C54.6651 115.117 53.973 113.531 53.6526 111.851C53.34 110.398 53.3544 108.894 53.6948 107.448C54.0351 106.001 54.693 104.648 55.6206 103.487C55.7041 103.387 55.8241 103.324 55.9542 103.312C56.0843 103.3 56.2138 103.34 56.3143 103.423C56.4148 103.507 56.478 103.627 56.49 103.757C56.502 103.887 56.4618 104.017 56.3783 104.117C55.5403 105.168 54.947 106.392 54.6414 107.701C54.3359 109.01 54.3259 110.371 54.612 111.684C54.9067 113.219 55.5402 114.67 56.4662 115.929C57.3922 117.189 58.5874 118.226 59.9649 118.966C60.0611 119.018 60.1373 119.1 60.1814 119.2C60.2255 119.3 60.2351 119.412 60.2086 119.518C60.1821 119.624 60.121 119.718 60.035 119.786C59.949 119.853 59.843 119.89 59.7337 119.891L59.7386 119.871Z" fill="#407BFF"/>
<path d="M64.6635 121.155C63.5623 121.15 62.4685 120.974 61.4212 120.634C61.3595 120.614 61.3024 120.582 61.2531 120.539C61.2037 120.497 61.1631 120.446 61.1337 120.388C61.1042 120.33 61.0864 120.267 61.0813 120.203C61.0762 120.138 61.0839 120.073 61.1039 120.011C61.1239 119.949 61.1559 119.892 61.198 119.843C61.2402 119.794 61.2916 119.753 61.3494 119.724C61.4072 119.694 61.4702 119.676 61.5349 119.671C61.5995 119.666 61.6646 119.674 61.7263 119.694C64.7521 120.678 67.773 120.127 70.0116 118.218C71.1472 117.215 72.0055 115.937 72.5036 114.507C73.0017 113.076 73.1228 111.542 72.8553 110.051C72.8344 109.92 72.8663 109.787 72.9438 109.68C73.0213 109.573 73.1381 109.501 73.2686 109.48C73.3991 109.459 73.5325 109.491 73.6396 109.568C73.7466 109.646 73.8184 109.763 73.8393 109.893C74.1376 111.55 74.0021 113.256 73.446 114.845C72.89 116.434 71.9322 117.852 70.6659 118.961C68.9975 120.396 66.8642 121.176 64.6635 121.155Z" fill="#407BFF"/>
<path d="M72.939 108.791C72.8346 108.79 72.7331 108.757 72.6491 108.695C72.5651 108.633 72.5029 108.546 72.4716 108.446C72.0191 107.049 71.2781 105.763 70.2966 104.67C69.3152 103.578 68.1151 102.704 66.7743 102.104C66.6542 102.052 66.5598 101.954 66.5118 101.833C66.4638 101.711 66.4662 101.575 66.5184 101.455C66.5706 101.335 66.6684 101.241 66.7901 101.193C66.9119 101.145 67.0478 101.147 67.1679 101.199C68.6363 101.856 69.9504 102.813 71.0251 104.01C72.0998 105.207 72.9111 106.616 73.4064 108.146C73.4468 108.27 73.4363 108.405 73.3772 108.521C73.3182 108.638 73.2154 108.726 73.0915 108.766C73.042 108.781 72.9907 108.789 72.939 108.791Z" fill="#407BFF"/>
<path d="M65.185 101.548C65.1475 101.554 65.1094 101.554 65.0719 101.548C64.3315 101.376 63.5738 101.289 62.8136 101.288C62.6831 101.288 62.558 101.236 62.4657 101.144C62.3734 101.051 62.3216 100.926 62.3216 100.796C62.3216 100.665 62.3734 100.54 62.4657 100.448C62.558 100.356 62.6831 100.304 62.8136 100.304C63.642 100.306 64.4674 100.404 65.2736 100.594C65.4041 100.609 65.5233 100.675 65.6049 100.778C65.6866 100.881 65.724 101.012 65.709 101.143C65.694 101.273 65.6278 101.392 65.5249 101.474C65.422 101.556 65.2909 101.593 65.1604 101.578L65.185 101.548Z" fill="#407BFF"/>
<path d="M56.5062 113.303C56.4056 113.303 56.3074 113.273 56.2247 113.215C56.1421 113.158 56.0789 113.077 56.0437 112.983C55.5825 111.792 55.4203 110.507 55.5713 109.239C55.7222 107.971 56.1818 106.76 56.9096 105.711C57.5976 104.717 58.5191 103.908 59.5932 103.354C60.6672 102.8 61.8609 102.518 63.0694 102.533C63.1999 102.533 63.3251 102.585 63.4173 102.677C63.5096 102.769 63.5614 102.894 63.5614 103.025C63.5614 103.155 63.5096 103.28 63.4173 103.373C63.3251 103.465 63.1999 103.517 63.0694 103.517C62.0194 103.504 60.9823 103.749 60.0485 104.229C59.1146 104.709 58.3123 105.411 57.7116 106.272C57.0733 107.196 56.6717 108.262 56.5422 109.377C56.4127 110.493 56.5591 111.623 56.9686 112.668C57.0132 112.79 57.0077 112.925 56.9533 113.043C56.8989 113.161 56.8001 113.252 56.6784 113.298C56.6216 113.309 56.5634 113.311 56.5062 113.303Z" fill="#407BFF"/>
<path d="M64.3093 118.922C62.8346 118.872 61.3936 118.468 60.1087 117.742C58.8239 117.017 57.7332 115.992 56.9293 114.754C56.8696 114.646 56.8531 114.518 56.8832 114.398C56.9133 114.278 56.9878 114.173 57.0916 114.105C57.1955 114.038 57.3211 114.012 57.4434 114.032C57.5656 114.053 57.6755 114.12 57.751 114.218C58.4654 115.319 59.4344 116.231 60.5759 116.879C61.7174 117.526 62.9979 117.889 64.3093 117.938C64.4398 117.938 64.565 117.989 64.6572 118.082C64.7495 118.174 64.8013 118.299 64.8013 118.43C64.8013 118.56 64.7495 118.685 64.6572 118.777C64.565 118.87 64.4398 118.922 64.3093 118.922Z" fill="#407BFF"/>
<path d="M66.1494 118.71C66.037 118.713 65.9269 118.678 65.8373 118.61C65.7478 118.542 65.6843 118.445 65.6574 118.336C65.6261 118.21 65.6464 118.076 65.7138 117.964C65.7811 117.853 65.89 117.772 66.0165 117.741C70.0066 116.757 71.0398 113.259 70.7102 110.572C70.2822 107.069 67.5171 103.522 63.0547 103.517C62.9242 103.517 62.7991 103.465 62.7068 103.373C62.6145 103.281 62.5627 103.156 62.5627 103.025C62.5627 102.895 62.6145 102.77 62.7068 102.677C62.7991 102.585 62.9242 102.533 63.0547 102.533C68.0878 102.533 71.2071 106.518 71.6893 110.454C72.1813 114.513 70.0509 117.751 66.2527 118.695C66.2189 118.704 66.1842 118.709 66.1494 118.71Z" fill="#407BFF"/>
<path d="M61.0572 106.233C60.9639 106.232 60.8728 106.205 60.7944 106.154C60.716 106.104 60.6535 106.032 60.6144 105.948C60.5589 105.829 60.5527 105.694 60.597 105.571C60.6413 105.449 60.7325 105.349 60.8505 105.293C61.6048 104.96 62.4219 104.792 63.2466 104.801C63.3771 104.801 63.5022 104.853 63.5945 104.945C63.6867 105.038 63.7386 105.163 63.7386 105.293C63.7386 105.424 63.6867 105.549 63.5945 105.641C63.5022 105.733 63.3771 105.785 63.2466 105.785C62.5675 105.786 61.8965 105.932 61.2786 106.213C61.2072 106.237 61.1315 106.243 61.0572 106.233Z" fill="#407BFF"/>
<path d="M64.2207 116.628C62.9747 116.608 61.7604 116.232 60.7219 115.543C59.6834 114.854 58.8641 113.882 58.361 112.742C57.3426 110.523 57.6427 108.205 59.163 106.532C59.2512 106.437 59.3737 106.38 59.5037 106.374C59.6338 106.369 59.7607 106.415 59.8567 106.503C59.9524 106.591 60.0092 106.714 60.0147 106.844C60.0202 106.974 59.974 107.101 59.8862 107.197C59.2749 107.888 58.8875 108.749 58.775 109.665C58.6626 110.581 58.8305 111.509 59.2565 112.328C59.6913 113.322 60.4086 114.166 61.3191 114.756C62.2297 115.345 63.2935 115.654 64.3782 115.644C65.1988 115.638 66.0001 115.395 66.6855 114.944C67.3708 114.492 67.9108 113.852 68.2404 113.101C68.611 112.214 68.7226 111.241 68.5624 110.293C68.4021 109.346 67.9766 108.463 67.3351 107.748C67.2931 107.699 67.2612 107.642 67.2412 107.58C67.2212 107.519 67.2135 107.454 67.2185 107.39C67.2235 107.325 67.2412 107.262 67.2705 107.205C67.2998 107.147 67.3401 107.096 67.3892 107.054C67.4383 107.012 67.4952 106.98 67.5567 106.96C67.6181 106.94 67.6829 106.932 67.7473 106.937C67.8117 106.942 67.8745 106.96 67.9321 106.989C67.9897 107.019 68.041 107.059 68.0829 107.108C68.8467 107.965 69.3515 109.021 69.5388 110.153C69.726 111.285 69.588 112.447 69.1407 113.504C68.737 114.426 68.0756 115.212 67.236 115.767C66.3963 116.322 65.4142 116.623 64.4077 116.633L64.2207 116.628Z" fill="#407BFF"/>
<path d="M66.2921 106.666C66.1992 106.666 66.1083 106.639 66.0313 106.587C65.2005 106.052 64.2345 105.766 63.2466 105.76C63.1161 105.76 62.9909 105.709 62.8987 105.616C62.8064 105.524 62.7546 105.399 62.7546 105.268C62.7546 105.138 62.8064 105.013 62.8987 104.92C62.9909 104.828 63.1161 104.776 63.2466 104.776C64.4217 104.781 65.5709 105.122 66.5577 105.76C66.6469 105.818 66.715 105.903 66.7519 106.002C66.7889 106.102 66.7927 106.21 66.7629 106.312C66.733 106.414 66.671 106.503 66.5862 106.567C66.5013 106.631 66.3982 106.665 66.2921 106.666Z" fill="#407BFF"/>
<path d="M63.96 114.41C63.3851 114.406 62.8181 114.276 62.2987 114.03C61.7794 113.783 61.3203 113.426 60.9539 112.983C60.481 112.442 60.1739 111.776 60.0692 111.065C59.9645 110.354 60.0666 109.628 60.3635 108.973C60.6284 108.379 61.062 107.876 61.6104 107.526C62.1588 107.176 62.7979 106.995 63.4483 107.005C63.5788 107.005 63.7039 107.057 63.7962 107.149C63.8885 107.242 63.9403 107.367 63.9403 107.497C63.9403 107.628 63.8885 107.753 63.7962 107.845C63.7039 107.937 63.5788 107.989 63.4483 107.989C62.9882 107.981 62.5358 108.107 62.1467 108.353C61.7577 108.599 61.449 108.953 61.2589 109.372C61.0426 109.855 60.9698 110.39 61.0491 110.914C61.1285 111.437 61.3568 111.927 61.7066 112.324C62.0549 112.751 62.5173 113.07 63.0399 113.244C63.5625 113.418 64.1239 113.44 64.6586 113.308C65.0937 113.21 65.4914 112.989 65.8046 112.672C66.1177 112.354 66.333 111.953 66.4249 111.517C66.4531 111.39 66.5306 111.279 66.6404 111.209C66.7501 111.139 66.8832 111.115 67.0104 111.143C67.0738 111.156 67.1339 111.182 67.1873 111.219C67.2406 111.256 67.2862 111.303 67.3214 111.357C67.3566 111.411 67.3808 111.472 67.3924 111.536C67.404 111.6 67.4029 111.665 67.3892 111.728C67.2589 112.344 66.9554 112.91 66.5143 113.359C66.0732 113.808 65.513 114.121 64.8997 114.262C64.5935 114.349 64.278 114.398 63.96 114.41Z" fill="#407BFF"/>
<path d="M66.8234 110.513C66.7149 110.518 66.6078 110.487 66.5188 110.424C66.4298 110.362 66.3639 110.272 66.3314 110.168C66.135 109.552 65.7513 109.012 65.2336 108.624C64.7159 108.236 64.0901 108.019 63.4434 108.004C63.3129 108.004 63.1877 107.952 63.0955 107.859C63.0032 107.767 62.9514 107.642 62.9514 107.512C62.9514 107.381 63.0032 107.256 63.0955 107.164C63.1877 107.071 63.3129 107.02 63.4434 107.02C64.2988 107.039 65.127 107.324 65.813 107.835C66.499 108.346 67.0086 109.059 67.2711 109.873C67.291 109.935 67.2985 110 67.2932 110.064C67.2878 110.129 67.2698 110.192 67.2401 110.25C67.2103 110.307 67.1695 110.358 67.12 110.4C67.0704 110.442 67.0131 110.473 66.9513 110.493C66.9097 110.505 66.8667 110.512 66.8234 110.513Z" fill="#407BFF"/>
<path d="M64.0928 112.363C63.9623 112.363 63.8372 112.311 63.7449 112.219C63.6527 112.127 63.6008 112.002 63.6008 111.871C63.6008 111.741 63.6527 111.616 63.7449 111.523C63.8372 111.431 63.9623 111.379 64.0928 111.379C64.16 111.379 64.2265 111.366 64.2882 111.339C64.3499 111.313 64.4055 111.274 64.4516 111.225C64.4977 111.176 64.5333 111.118 64.5562 111.055C64.5791 110.992 64.5889 110.925 64.5848 110.858C64.5874 110.762 64.571 110.667 64.5364 110.577C64.5019 110.488 64.4499 110.406 64.3835 110.337C64.3171 110.268 64.2377 110.213 64.1498 110.175C64.0619 110.136 63.9673 110.116 63.8714 110.115C63.7993 110.117 63.7282 110.133 63.6623 110.163C63.5964 110.192 63.5371 110.234 63.4877 110.287C63.4372 110.347 63.3991 110.415 63.3755 110.49C63.3518 110.564 63.3431 110.642 63.3499 110.72C63.3538 110.785 63.3449 110.849 63.3238 110.911C63.3026 110.972 63.2696 111.028 63.2267 111.077C63.1837 111.125 63.1317 111.164 63.0735 111.193C63.0153 111.221 62.952 111.238 62.8874 111.242C62.8228 111.245 62.7581 111.237 62.6969 111.215C62.6357 111.194 62.5793 111.161 62.5309 111.118C62.4825 111.075 62.443 111.023 62.4147 110.965C62.3863 110.907 62.3698 110.844 62.3659 110.779C62.3484 110.573 62.3733 110.365 62.439 110.168C62.5048 109.972 62.61 109.791 62.7482 109.636C62.8864 109.482 63.0548 109.358 63.2428 109.271C63.4309 109.184 63.6348 109.136 63.8419 109.131C64.0671 109.131 64.29 109.177 64.4976 109.264C64.7052 109.352 64.8933 109.479 65.0512 109.64C65.2091 109.8 65.3335 109.991 65.4173 110.2C65.5011 110.409 65.5426 110.633 65.5393 110.858C65.5432 111.054 65.508 111.249 65.4355 111.432C65.3631 111.614 65.255 111.78 65.1176 111.921C64.9801 112.061 64.8161 112.172 64.6351 112.248C64.454 112.324 64.2596 112.363 64.0633 112.363H64.0928Z" fill="#407BFF"/>
<path d="M76.752 110.725C77.3522 117.578 72.2797 123.133 65.436 123.133H64.9046C71.4285 122.798 76.1665 117.376 75.5859 110.739C75.2507 107.491 73.7773 104.465 71.4264 102.198C69.0755 99.9307 65.9986 98.568 62.7398 98.3507C62.912 98.3507 63.0891 98.3507 63.2662 98.3507C70.1296 98.3212 76.1714 103.876 76.752 110.725Z" fill="#407BFF"/>
<g opacity="0.4">
<path d="M76.752 110.725C77.3522 117.578 72.2797 123.133 65.436 123.133H64.9046C71.4285 122.798 76.1665 117.376 75.5859 110.739C75.2507 107.491 73.7773 104.465 71.4264 102.198C69.0755 99.9307 65.9986 98.568 62.7398 98.3507C62.912 98.3507 63.0891 98.3507 63.2662 98.3507C70.1296 98.3212 76.1714 103.876 76.752 110.725Z" fill="white"/>
</g>
<path d="M86.7986 50.2521C86.8107 50.399 86.8304 50.5452 86.8576 50.69C87.0433 51.638 87.5299 52.5007 88.2451 53.15C89.0555 53.9088 90.1214 54.3355 91.2315 54.3456H132.801C133.286 54.3554 133.768 54.2686 134.22 54.0902C134.671 53.9119 135.082 53.6456 135.43 53.3068C135.777 52.968 136.054 52.5635 136.244 52.1168C136.433 51.6701 136.532 51.1901 136.535 50.7048C136.542 50.5589 136.542 50.4128 136.535 50.2669C136.419 49.1653 135.905 48.1438 135.09 47.3939C134.275 46.6439 133.214 46.217 132.107 46.1931H90.528C90.0067 46.1826 89.4892 46.2831 89.0098 46.4879C88.5304 46.6927 88.1 46.9972 87.7473 47.3811C87.3946 47.765 87.1276 48.2195 86.964 48.7145C86.8005 49.2095 86.7441 49.7337 86.7986 50.2521Z" fill="#407BFF"/>
<path opacity="0.8" d="M86.7986 50.2521C86.8107 50.399 86.8304 50.5452 86.8576 50.69C87.0433 51.638 87.5299 52.5007 88.2451 53.15C89.0555 53.9088 90.1214 54.3355 91.2315 54.3456H132.801C133.286 54.3554 133.768 54.2686 134.22 54.0902C134.671 53.9119 135.082 53.6456 135.43 53.3068C135.777 52.968 136.054 52.5635 136.244 52.1168C136.433 51.6701 136.532 51.1901 136.535 50.7048C136.542 50.5589 136.542 50.4128 136.535 50.2669C136.419 49.1653 135.905 48.1438 135.09 47.3939C134.275 46.6439 133.214 46.217 132.107 46.1931H90.528C90.0067 46.1826 89.4892 46.2831 89.0098 46.4879C88.5304 46.6927 88.1 46.9972 87.7473 47.3811C87.3946 47.765 87.1276 48.2195 86.964 48.7145C86.8005 49.2095 86.7441 49.7337 86.7986 50.2521Z" fill="white"/>
<path d="M136.535 50.676C136.535 50.8077 136.525 50.9393 136.505 51.0696C136.359 49.9929 135.832 49.0043 135.02 48.2824C134.207 47.5605 133.164 47.153 132.077 47.1336L87.881 47.232C88.2314 46.8912 88.6455 46.6228 89.0997 46.4421C89.5539 46.2614 90.0392 46.1721 90.5279 46.1791H132.097C133.204 46.203 134.265 46.6299 135.08 47.3798C135.895 48.1298 136.409 49.1513 136.525 50.2529C136.535 50.3937 136.538 50.5349 136.535 50.676Z" fill="#407BFF"/>
<path opacity="0.5" d="M136.535 50.676C136.535 50.8077 136.525 50.9393 136.505 51.0696C136.359 49.9929 135.832 49.0043 135.02 48.2824C134.207 47.5605 133.164 47.153 132.077 47.1336L87.881 47.232C88.2314 46.8912 88.6455 46.6228 89.0997 46.4421C89.5539 46.2614 90.0392 46.1721 90.5279 46.1791H132.097C133.204 46.203 134.265 46.6299 135.08 47.3798C135.895 48.1298 136.409 49.1513 136.525 50.2529C136.535 50.3937 136.538 50.5349 136.535 50.676Z" fill="white"/>
<path d="M129.396 48.1467L129.573 50.1147L131.423 49.4259L131.861 50.4099L129.972 51.0396L131.33 52.7075L130.478 53.3324L129.155 51.6005L128.171 53.3324L127.241 52.7075L128.289 51.0396L126.321 50.4099L126.587 49.4259L128.579 50.0901L128.402 48.1221L129.396 48.1467Z" fill="#407BFF"/>
<path d="M118.006 48.1466L118.183 50.1146L120.033 49.4258L120.476 50.4098L118.572 51.0543L119.93 52.7222L119.084 53.347L117.76 51.6152L116.776 53.347L115.841 52.7222L116.894 51.0543L114.926 50.4245L115.192 49.4405L117.185 50.1047L117.012 48.1367L118.006 48.1466Z" fill="#407BFF"/>
<path d="M106.641 48.1466L106.813 50.1146L108.663 49.4258L109.106 50.4098L107.212 51.0395L108.57 52.7074L107.748 53.347L106.424 51.6152L105.44 53.347L104.511 52.7222L105.559 51.0543L103.591 50.4245L103.861 49.4405L105.829 50.1047L105.657 48.1367L106.641 48.1466Z" fill="#407BFF"/>
<path d="M95.2709 48.1467L95.4431 50.1147L97.2979 49.4259L97.7358 50.4099L95.8416 51.0396L97.2044 52.7075L96.3533 53.3324L95.0298 51.6005L94.0458 53.3324L93.1159 52.7075L94.1639 51.0396L92.1959 50.4099L92.4615 49.4259L94.4295 50.0901L94.2573 48.1221L95.2709 48.1467Z" fill="#407BFF"/>
<path d="M122.828 44.25H120.889V44.742H122.828V44.25Z" fill="#407BFF"/>
<path d="M131.157 44.25H124.835V44.742H131.157V44.25Z" fill="#407BFF"/>
<path opacity="0.8" d="M195.713 62.6017L193.7 85.6076C193.623 86.3418 193.28 87.0226 192.737 87.5225C192.193 88.0224 191.487 88.3072 190.748 88.3234H174.773C174.427 88.3253 174.085 88.2543 173.769 88.115C173.452 87.9757 173.169 87.7712 172.937 87.5149C172.704 87.2587 172.529 86.9564 172.422 86.6277C172.314 86.2991 172.277 85.9515 172.313 85.6076L174.325 62.5967C174.4 61.8613 174.742 61.1787 175.286 60.6781C175.83 60.1776 176.538 59.894 177.277 59.8809H193.253C193.599 59.8789 193.942 59.9501 194.258 60.0897C194.575 60.2293 194.859 60.4342 195.091 60.691C195.323 60.9478 195.499 61.2508 195.606 61.58C195.713 61.9092 195.749 62.2574 195.713 62.6017Z" fill="#407BFF"/>
<path opacity="0.8" d="M195.713 62.6017L193.7 85.6076C193.623 86.3418 193.28 87.0226 192.737 87.5225C192.193 88.0224 191.487 88.3072 190.748 88.3234H174.773C174.427 88.3253 174.085 88.2543 173.769 88.115C173.452 87.9757 173.169 87.7712 172.937 87.5149C172.704 87.2587 172.529 86.9564 172.422 86.6277C172.314 86.2991 172.277 85.9515 172.313 85.6076L174.325 62.5967C174.4 61.8613 174.742 61.1787 175.286 60.6781C175.83 60.1776 176.538 59.894 177.277 59.8809H193.253C193.599 59.8789 193.942 59.9501 194.258 60.0897C194.575 60.2293 194.859 60.4342 195.091 60.691C195.323 60.9478 195.499 61.2508 195.606 61.58C195.713 61.9092 195.749 62.2574 195.713 62.6017Z" fill="white"/>
<path d="M175.782 66.3114H175.737C175.608 66.3001 175.488 66.2379 175.404 66.1383C175.32 66.0387 175.279 65.9098 175.29 65.78L175.477 63.6743C175.488 63.5516 175.544 63.4376 175.636 63.3547C175.727 63.2718 175.846 63.2261 175.969 63.2266H178.193C178.323 63.2266 178.448 63.2784 178.54 63.3707C178.633 63.4629 178.685 63.5881 178.685 63.7186C178.685 63.8491 178.633 63.9742 178.54 64.0665C178.448 64.1587 178.323 64.2106 178.193 64.2106H176.421L176.274 65.8637C176.263 65.9864 176.206 66.1004 176.115 66.1833C176.024 66.2662 175.905 66.3119 175.782 66.3114Z" fill="#407BFF"/>
<path d="M193.671 66.3114H193.627C193.497 66.3001 193.377 66.2379 193.293 66.1383C193.209 66.0387 193.168 65.9098 193.179 65.78L193.317 64.2106H191.634C191.503 64.2106 191.378 64.1587 191.286 64.0665C191.194 63.9742 191.142 63.8491 191.142 63.7186C191.142 63.5881 191.194 63.4629 191.286 63.3707C191.378 63.2784 191.503 63.2266 191.634 63.2266H193.848C193.916 63.2263 193.984 63.2403 194.047 63.2678C194.11 63.2952 194.166 63.3355 194.213 63.386C194.259 63.4364 194.294 63.496 194.316 63.5609C194.338 63.6258 194.346 63.6946 194.34 63.7629L194.153 65.8637C194.142 65.9847 194.087 66.0973 193.998 66.18C193.909 66.2627 193.792 66.3095 193.671 66.3114Z" fill="#407BFF"/>
<path d="M176.628 82.1877H174.404C174.337 82.1875 174.27 82.1734 174.208 82.1463C174.146 82.1192 174.091 82.0797 174.045 82.0303C173.999 81.9802 173.964 81.9211 173.942 81.8567C173.92 81.7924 173.911 81.7241 173.917 81.6564L174.099 79.5506C174.11 79.4201 174.173 79.2994 174.273 79.2149C174.373 79.1305 174.502 79.0893 174.633 79.1004C174.763 79.1115 174.884 79.174 174.969 79.2741C175.053 79.3742 175.094 79.5037 175.083 79.6342L174.945 81.2037H176.628C176.758 81.2037 176.884 81.2555 176.976 81.3478C177.068 81.4401 177.12 81.5652 177.12 81.6957C177.12 81.8262 177.068 81.9513 176.976 82.0436C176.884 82.1359 176.758 82.1877 176.628 82.1877Z" fill="#407BFF"/>
<path d="M192.278 82.1881H190.06C189.929 82.1881 189.804 82.1363 189.712 82.044C189.619 81.9518 189.568 81.8266 189.568 81.6961C189.568 81.5656 189.619 81.4405 189.712 81.3482C189.804 81.256 189.929 81.2041 190.06 81.2041H191.831L191.973 79.551C191.985 79.4212 192.047 79.3012 192.147 79.2173C192.246 79.1334 192.375 79.0924 192.505 79.1033C192.635 79.1146 192.755 79.1768 192.839 79.2764C192.922 79.376 192.963 79.5049 192.953 79.6347L192.77 81.7404C192.759 81.8631 192.703 81.9771 192.612 82.06C192.521 82.1429 192.402 82.1886 192.278 82.1881Z" fill="#407BFF"/>
<path d="M190.585 74.2559C191.696 69.9487 189.789 65.7331 186.327 64.8402C182.864 63.9473 179.157 66.7152 178.046 71.0224C176.935 75.3296 178.842 79.5451 182.304 80.4381C185.767 81.331 189.474 78.5631 190.585 74.2559Z" fill="white"/>
<path d="M186.247 84.8841H179.875L180.431 78.5127H186.803L186.247 84.8841Z" fill="white"/>
<path d="M193.7 85.6074C193.623 86.3417 193.28 87.0225 192.737 87.5224C192.193 88.0223 191.487 88.307 190.748 88.3232H174.773C174.427 88.3251 174.085 88.2541 173.769 88.1148C173.452 87.9755 173.169 87.771 172.937 87.5148C172.704 87.2585 172.529 86.9562 172.422 86.6275C172.314 86.2989 172.277 85.9513 172.313 85.6074C172.313 85.6074 179.654 83.2852 180.559 83.2852H186.232L193.7 85.6074Z" fill="white"/>
<path d="M196.641 69.3254L195.896 78.3623L196.386 78.4027L197.131 69.3658L196.641 69.3254Z" fill="#407BFF"/>
<path d="M197.158 65.1898L197.012 66.9648L197.502 67.0052L197.648 65.2302L197.158 65.1898Z" fill="#407BFF"/>
<path d="M180.013 120.083H178.074V120.575H180.013V120.083Z" fill="#407BFF"/>
<path d="M188.343 120.083H182.02V120.575H188.343V120.083Z" fill="#407BFF"/>
<path d="M199.914 111.684L198.689 125.706C198.626 126.326 198.337 126.901 197.879 127.322C197.42 127.744 196.823 127.983 196.2 127.994C195.907 127.999 195.616 127.942 195.347 127.826C195.077 127.71 194.836 127.538 194.638 127.322C194.44 127.106 194.291 126.85 194.199 126.571C194.108 126.292 194.077 125.998 194.109 125.706L195.324 111.684C195.437 110.638 195.327 109.58 195 108.581C194.673 107.581 194.137 106.662 193.428 105.885C192.719 105.108 191.853 104.491 190.887 104.074C189.921 103.657 188.878 103.451 187.826 103.468H182.827C180.592 103.51 178.449 104.369 176.803 105.883C175.157 107.396 174.122 109.46 173.892 111.684L173.4 117.411H168.825L169.317 111.684C169.932 104.629 176.175 98.8922 183.226 98.8922H188.244C189.881 98.8652 191.506 99.1868 193.009 99.8356C194.513 100.484 195.861 101.446 196.965 102.655C198.069 103.865 198.903 105.296 199.411 106.852C199.92 108.409 200.091 110.056 199.914 111.684Z" fill="#407BFF"/>
<g opacity="0.5">
<path d="M199.914 111.684L198.689 125.706C198.626 126.326 198.337 126.901 197.879 127.322C197.42 127.744 196.823 127.983 196.2 127.994C195.907 127.999 195.616 127.942 195.347 127.826C195.077 127.71 194.836 127.538 194.638 127.322C194.44 127.106 194.291 126.85 194.199 126.571C194.108 126.292 194.077 125.998 194.109 125.706L195.324 111.684C195.437 110.638 195.327 109.58 195 108.581C194.673 107.581 194.137 106.662 193.428 105.885C192.719 105.108 191.853 104.491 190.887 104.074C189.921 103.657 188.878 103.451 187.826 103.468H182.827C180.592 103.51 178.449 104.369 176.803 105.883C175.157 107.396 174.122 109.46 173.892 111.684L173.4 117.411H168.825L169.317 111.684C169.932 104.629 176.175 98.8922 183.226 98.8922H188.244C189.881 98.8652 191.506 99.1868 193.009 99.8356C194.513 100.484 195.861 101.446 196.965 102.655C198.069 103.865 198.903 105.296 199.411 106.852C199.92 108.409 200.091 110.056 199.914 111.684Z" fill="white"/>
</g>
<path d="M200.244 125.195L197.858 152.52C197.771 153.368 197.377 154.154 196.749 154.73C196.122 155.305 195.305 155.631 194.453 155.645H167.127C166.727 155.652 166.33 155.574 165.962 155.416C165.595 155.257 165.265 155.023 164.995 154.727C164.725 154.432 164.521 154.082 164.397 153.701C164.272 153.321 164.23 152.918 164.274 152.52L166.665 125.195C166.72 124.65 166.903 124.126 167.199 123.665C167.494 123.204 167.895 122.82 168.367 122.543C168.88 122.229 169.468 122.059 170.07 122.051H197.39C197.949 122.048 198.496 122.203 198.97 122.499C199.412 122.785 199.765 123.189 199.99 123.665C200.215 124.142 200.303 124.671 200.244 125.195Z" fill="#407BFF"/>
<path d="M171.831 137.13L178.931 148.058L202.345 124.643C202.381 124.6 202.4 124.545 202.4 124.488C202.399 124.432 202.378 124.378 202.34 124.335C202.303 124.293 202.251 124.266 202.195 124.258C202.139 124.25 202.082 124.263 202.035 124.294L179.723 141.785L175.506 134.99L171.831 137.13Z" fill="white"/>
<path d="M60.0241 84.2852H42.2235C41.3999 84.2702 40.6102 83.9542 40.0038 83.3967C39.3973 82.8392 39.0161 82.0789 38.932 81.2594L37.3921 63.4687C37.3493 63.0834 37.3892 62.6935 37.5091 62.3249C37.629 61.9563 37.8262 61.6175 38.0874 61.3312C38.3486 61.0448 38.6679 60.8174 39.0239 60.6643C39.38 60.5111 39.7646 60.4356 40.1522 60.4429H57.9331C58.7536 60.4615 59.539 60.7793 60.1416 61.3366C60.7441 61.8938 61.1223 62.6521 61.2049 63.4687L62.7596 81.2495C62.8035 81.6335 62.7654 82.0223 62.6476 82.3904C62.5298 82.7584 62.3351 83.0972 62.0764 83.3843C61.8177 83.6714 61.501 83.9001 61.1471 84.0555C60.7933 84.2108 60.4105 84.2891 60.0241 84.2852Z" fill="#407BFF"/>
<path opacity="0.8" d="M60.0241 84.2852H42.2235C41.3999 84.2702 40.6102 83.9542 40.0038 83.3967C39.3973 82.8392 39.0161 82.0789 38.932 81.2594L37.3921 63.4687C37.3493 63.0834 37.3892 62.6935 37.5091 62.3249C37.629 61.9563 37.8262 61.6175 38.0874 61.3312C38.3486 61.0448 38.6679 60.8174 39.0239 60.6643C39.38 60.5111 39.7646 60.4356 40.1522 60.4429H57.9331C58.7536 60.4615 59.539 60.7793 60.1416 61.3366C60.7441 61.8938 61.1223 62.6521 61.2049 63.4687L62.7596 81.2495C62.8035 81.6335 62.7654 82.0223 62.6476 82.3904C62.5298 82.7584 62.3351 83.0972 62.0764 83.3843C61.8177 83.6714 61.501 83.9001 61.1471 84.0555C60.7933 84.2108 60.4105 84.2891 60.0241 84.2852Z" fill="white"/>
<path d="M38.9418 74.1589C38.9418 74.1589 45.264 65.3571 49.9184 65.5834C54.5727 65.8097 62.3069 73.9474 62.3069 73.9474C62.3069 73.9474 50.9073 79.935 38.9418 74.1589Z" fill="white"/>
<path d="M39.1436 74.2924L38.7451 74.007C39.0009 73.6479 45.0279 65.3232 49.7413 65.3232H49.9331C54.6367 65.5496 62.1643 73.4314 62.4841 73.766L62.1298 74.1054C62.0511 74.0267 54.4153 66.0317 49.9085 65.8152H49.7413C45.2641 65.8251 39.2026 74.2186 39.1436 74.2924Z" fill="#263238"/>
<path d="M38.2875 74.4691C37.333 74.4691 36.0932 74.1148 35.6553 72.7667C35.6351 72.7048 35.6403 72.6373 35.6699 72.5792C35.6994 72.5211 35.7508 72.4771 35.8127 72.4568C35.8434 72.4461 35.8759 72.4417 35.9083 72.4439C35.9407 72.4461 35.9723 72.4548 36.0012 72.4695C36.0302 72.4842 36.0558 72.5046 36.0767 72.5295C36.0976 72.5543 36.1132 72.5832 36.1227 72.6142C36.6885 74.3559 38.8041 73.9377 38.8926 73.918C38.9564 73.9063 39.0223 73.9197 39.0764 73.9555C39.1306 73.9913 39.1687 74.0466 39.1829 74.1099C39.1894 74.1416 39.1895 74.1742 39.1834 74.2059C39.1773 74.2376 39.1649 74.2678 39.1471 74.2948C39.1293 74.3218 39.1063 74.3449 39.0796 74.363C39.0528 74.3811 39.0227 74.3937 38.991 74.4002C38.7593 74.446 38.5237 74.4691 38.2875 74.4691Z" fill="#263238"/>
<path d="M42.0414 70.6908C41.9865 70.6919 41.9329 70.6746 41.8889 70.6416C41.8151 70.5826 40.0685 69.2345 39.6257 67.8618C39.6056 67.7999 39.6108 67.7324 39.6403 67.6743C39.6698 67.6162 39.7212 67.5721 39.7832 67.5519C39.8452 67.533 39.9121 67.5389 39.9698 67.5682C40.0276 67.5976 40.0718 67.6481 40.0931 67.7093C40.4916 68.9344 42.1694 70.2382 42.1891 70.248C42.2405 70.2879 42.274 70.3465 42.2823 70.4111C42.2906 70.4756 42.273 70.5408 42.2333 70.5924C42.2109 70.6223 42.182 70.6467 42.1487 70.6638C42.1155 70.6808 42.0788 70.6901 42.0414 70.6908Z" fill="#263238"/>
<path d="M45.6527 67.3404C45.5883 67.3367 45.5277 67.3088 45.483 67.2623C45.4383 67.2157 45.4128 67.154 45.4117 67.0895C45.1243 66.0179 44.7677 64.9661 44.344 63.9407C44.221 63.616 44.1325 63.3798 44.1128 63.3208C44.103 63.2894 44.0995 63.2565 44.1027 63.2238C44.1058 63.1911 44.1155 63.1594 44.1311 63.1305C44.1467 63.1017 44.1679 63.0762 44.1935 63.0556C44.219 63.0351 44.2485 63.0198 44.2801 63.0108C44.3111 63.0018 44.3436 62.9989 44.3757 63.0024C44.4078 63.0059 44.4389 63.0157 44.4672 63.0313C44.4955 63.0468 44.5205 63.0678 44.5408 63.093C44.561 63.1182 44.576 63.1471 44.5851 63.1781C44.5851 63.2371 44.6884 63.4536 44.8016 63.7636C45.4904 65.5692 45.9135 66.7549 45.9037 67.0993C45.9037 67.1318 45.8971 67.164 45.8844 67.1939C45.8717 67.2238 45.853 67.2509 45.8296 67.2734C45.8062 67.2959 45.7784 67.3135 45.748 67.325C45.7176 67.3365 45.6852 67.3417 45.6527 67.3404Z" fill="#263238"/>
<path d="M49.9184 65.8299C49.857 65.8279 49.7984 65.804 49.7533 65.7625C49.7081 65.7209 49.6794 65.6645 49.6724 65.6036L49.328 61.6676C49.3221 61.6023 49.3424 61.5374 49.3844 61.4871C49.4263 61.4369 49.4866 61.4053 49.5518 61.3994C49.6171 61.3936 49.682 61.4138 49.7323 61.4558C49.7825 61.4978 49.8141 61.5581 49.82 61.6233L50.1644 65.5888C50.1686 65.653 50.1479 65.7164 50.1067 65.7659C50.0655 65.8153 50.0069 65.8471 49.943 65.8545L49.9184 65.8299Z" fill="#263238"/>
<path d="M63.0449 74.1992C62.8042 74.2004 62.5639 74.1806 62.3266 74.1402C62.295 74.1337 62.2649 74.1211 62.2381 74.103C62.2113 74.0849 62.1884 74.0617 62.1705 74.0348C62.1527 74.0078 62.1404 73.9776 62.1342 73.9459C62.1281 73.9142 62.1283 73.8815 62.1347 73.8499C62.14 73.8181 62.1517 73.7877 62.1691 73.7606C62.1865 73.7335 62.2093 73.7103 62.236 73.6923C62.2627 73.6743 62.2928 73.662 62.3245 73.6561C62.3562 73.6502 62.3887 73.6509 62.4201 73.658C62.4201 73.658 63.6255 73.8892 64.3635 73.3677C64.5214 73.2528 64.653 73.1057 64.7497 72.936C64.8464 72.7664 64.906 72.5781 64.9244 72.3837C64.9292 72.3514 64.9404 72.3204 64.9572 72.2924C64.9741 72.2644 64.9963 72.24 65.0225 72.2206C65.0488 72.2012 65.0786 72.1871 65.1103 72.1792C65.142 72.1713 65.175 72.1698 65.2073 72.1746C65.2396 72.1795 65.2706 72.1906 65.2986 72.2075C65.3266 72.2243 65.351 72.2465 65.3704 72.2728C65.3898 72.299 65.4039 72.3289 65.4118 72.3606C65.4197 72.3923 65.4212 72.4252 65.4164 72.4575C65.3867 72.7164 65.303 72.9662 65.1708 73.1908C65.0386 73.4153 64.8608 73.6097 64.6489 73.7613C64.1708 74.0661 63.6115 74.2187 63.0449 74.1992Z" fill="#263238"/>
<path d="M58.6268 70.4303C58.5921 70.4305 58.5579 70.4232 58.5264 70.4087C58.495 70.3943 58.4671 70.3731 58.4447 70.3466C58.4217 70.3238 58.4034 70.2966 58.3909 70.2666C58.3784 70.2366 58.3719 70.2045 58.3719 70.172C58.3719 70.1395 58.3784 70.1074 58.3909 70.0774C58.4034 70.0474 58.4217 70.0202 58.4447 69.9973C58.4447 69.9973 59.9207 68.6984 60.0782 67.4881C60.0891 67.4241 60.1244 67.3668 60.1767 67.3282C60.229 67.2897 60.2942 67.2729 60.3586 67.2815C60.3906 67.2863 60.4213 67.2974 60.449 67.3141C60.4768 67.3308 60.5009 67.3528 60.5201 67.3788C60.5393 67.4049 60.5532 67.4345 60.5609 67.4659C60.5687 67.4973 60.5701 67.5299 60.5652 67.5619C60.3586 68.9494 58.8334 70.3073 58.7694 70.3663C58.731 70.4039 58.6804 70.4266 58.6268 70.4303Z" fill="#263238"/>
<path d="M54.4693 67.5712H54.4251C54.3609 67.5592 54.304 67.5227 54.2664 67.4694C54.2287 67.4161 54.2133 67.3503 54.2233 67.2858C54.2233 67.2563 54.7645 64.0927 54.8629 63.4433C54.8678 63.411 54.879 63.38 54.8958 63.352C54.9126 63.324 54.9348 63.2996 54.9611 63.2802C54.9874 63.2607 55.0172 63.2467 55.0489 63.2388C55.0806 63.2309 55.1135 63.2294 55.1458 63.2342C55.1781 63.239 55.2092 63.2502 55.2372 63.267C55.2652 63.2839 55.2896 63.3061 55.309 63.3323C55.3284 63.3586 55.3425 63.3885 55.3503 63.4202C55.3582 63.4519 55.3598 63.4848 55.3549 63.5171C55.2565 64.1715 54.7203 67.3399 54.7153 67.3695C54.7049 67.4268 54.6744 67.4785 54.6293 67.5154C54.5843 67.5524 54.5276 67.5721 54.4693 67.5712Z" fill="#263238"/>
<path d="M54.6139 75.1903C56.6508 73.0626 56.418 69.5342 54.094 67.3095C51.77 65.0847 48.2348 65.006 46.198 67.1338C44.1611 69.2615 44.3939 72.7898 46.7179 75.0146C49.0419 77.2393 52.5771 77.318 54.6139 75.1903Z" fill="#407BFF"/>
<path opacity="0.3" d="M52.7129 71.1582C52.7203 71.0336 52.7203 70.9088 52.7129 70.7842C52.6469 70.1428 52.348 69.5478 51.873 69.1117C51.3979 68.6757 50.7796 68.4288 50.1348 68.4177C49.8318 68.4124 49.5311 68.4717 49.2528 68.5917C48.9744 68.7116 48.7248 68.8894 48.5205 69.1132C48.3162 69.3371 48.1619 69.6019 48.0678 69.89C47.9737 70.1781 47.9421 70.4829 47.975 70.7842C47.9831 70.9112 48.0062 71.0367 48.0438 71.1582H44.836C44.7576 70.4487 44.8313 69.7307 45.0521 69.052C45.273 68.3732 45.636 67.7493 46.1169 67.2219C46.5978 66.6944 47.1855 66.2755 47.841 65.9931C48.4965 65.7106 49.2047 65.5711 49.9184 65.5838C51.4358 65.6118 52.8906 66.1942 54.0081 67.2211C55.1257 68.2481 55.8288 69.6485 55.9847 71.1582H52.7129Z" fill="black"/>
<path opacity="0.7" d="M52.708 70.7838C52.7153 70.9084 52.7153 71.0332 52.708 71.1578C52.6726 71.7054 52.4273 72.2183 52.023 72.5895C51.6188 72.9607 51.087 73.1616 50.5383 73.1504C49.9599 73.1396 49.4012 72.9385 48.9485 72.5784C48.4959 72.2182 48.1745 71.7189 48.034 71.1578C47.9964 71.0363 47.9733 70.9108 47.9651 70.7838C47.9322 70.4825 47.9639 70.1777 48.0579 69.8896C48.152 69.6015 48.3063 69.3367 48.5106 69.1128C48.715 68.889 48.9646 68.7112 49.2429 68.5913C49.5213 68.4713 49.822 68.412 50.125 68.4173C50.7706 68.4272 51.3901 68.6735 51.8662 69.1097C52.3423 69.5459 52.6418 70.1416 52.708 70.7838Z" fill="black"/>
<path opacity="0.7" d="M53.9921 68.4622C54.0186 68.7078 53.9927 68.9562 53.9158 69.191C53.839 69.4258 53.7132 69.6415 53.5466 69.8239C53.38 70.0063 53.1765 70.1512 52.9496 70.249C52.7228 70.3467 52.4777 70.3951 52.2307 70.3908C51.7062 70.3804 51.2036 70.1786 50.8176 69.8234C50.4316 69.4681 50.1887 68.984 50.1348 68.4622C50.1074 68.2165 50.1329 67.9677 50.2094 67.7326C50.2859 67.4974 50.4117 67.2813 50.5785 67.0988C50.7452 66.9162 50.949 66.7713 51.1763 66.6738C51.4035 66.5764 51.649 66.5285 51.8962 66.5336C52.421 66.5429 52.9242 66.7444 53.3104 67.0998C53.6967 67.4553 53.9392 67.94 53.9921 68.4622Z" fill="white"/>
<path d="M46.376 58.2432H44.4375V58.7352H46.376V58.2432Z" fill="#407BFF"/>
<path d="M54.7055 58.2432H48.3833V58.7352H54.7055V58.2432Z" fill="#407BFF"/>
<path d="M135.792 94.2918L135.959 94.4935L136.186 94.7543C136.348 94.9265 136.505 95.1085 136.678 95.2758C137.017 95.6301 137.386 95.9745 137.76 96.3238C138.507 97.0129 139.291 97.6616 140.107 98.2672C140.938 98.8871 141.814 99.4529 142.69 100.014C143.182 100.279 143.585 100.56 144.048 100.816L145.115 101.406C145.271 101.475 145.445 101.485 145.607 101.436C145.952 101.332 147.93 99.3742 148.559 98.646C149.957 97.047 152.072 94.9413 153.214 93.1504L154.488 94.9068C153.683 97.101 152.614 99.1892 151.305 101.126C150.601 102.173 149.757 103.118 148.796 103.935C148.219 104.421 147.567 104.811 146.867 105.091C145.979 105.446 145.004 105.519 144.072 105.303C143.832 105.244 143.596 105.165 143.369 105.067L142.926 104.875L142.129 104.511C141.593 104.275 141.076 103.989 140.555 103.728C139.512 103.172 138.5 102.559 137.524 101.893C136.54 101.216 135.595 100.484 134.695 99.6989C134.227 99.2905 133.809 98.8773 133.381 98.4295C133.17 98.2081 132.953 97.9769 132.747 97.7358L132.441 97.3619C132.328 97.2241 132.245 97.1208 132.092 96.9093L135.792 94.2918Z" fill="#FFB573"/>
<path d="M153.012 93.4207L155.295 88.54L157.474 92.4465C157.474 92.4465 156.043 94.9065 154.488 94.9065L153.012 93.4207Z" fill="#FFB573"/>
<path d="M157.883 86.5137L160.185 89.4755L157.494 92.4423L155.315 88.5407L157.883 86.5137Z" fill="#FFB573"/>
<path d="M157.081 93.7897H160.707C160.809 93.789 160.907 93.7503 160.983 93.6812C161.058 93.6122 161.105 93.5176 161.115 93.4158L161.868 84.7221C161.873 84.6653 161.867 84.6079 161.849 84.5538C161.831 84.4996 161.802 84.4498 161.763 84.4076C161.725 84.3654 161.678 84.3317 161.626 84.3088C161.573 84.2859 161.517 84.2742 161.46 84.2744H157.838C157.735 84.2753 157.636 84.3146 157.561 84.3847C157.485 84.4548 157.439 84.5506 157.43 84.6533L156.668 93.342C156.663 93.3991 156.67 93.4565 156.689 93.5107C156.707 93.5649 156.737 93.6146 156.776 93.6567C156.815 93.6988 156.862 93.7324 156.914 93.7553C156.967 93.7782 157.023 93.7899 157.081 93.7897Z" fill="#407BFF"/>
<path opacity="0.3" d="M157.12 92.9191H160.751L161.43 85.1504H157.799L157.12 92.9191Z" fill="white"/>
<path d="M156.884 91.817L157.529 91.4873C157.857 91.3205 158.16 91.1085 158.429 90.8576L158.547 90.4295C158.478 90.3156 158.375 90.2267 158.251 90.1762C158.128 90.1257 157.992 90.1162 157.863 90.1491L157.327 90.2967L154.665 90.4984L154.601 91.6202L155.378 92.8206H155.644C155.937 92.831 156.224 92.7352 156.452 92.5507C156.68 92.3663 156.833 92.1057 156.884 91.817Z" fill="#FFB573"/>
<path d="M131.148 89.5444C132.993 89.2098 146.006 100.491 146.006 100.491L142.149 106.149C142.149 106.149 127.92 96.2405 128.373 93.8494C128.811 91.3353 128.461 90.0364 131.148 89.5444Z" fill="#263238"/>
<path opacity="0.2" d="M132.791 93.1504L132.648 99.0544C134.124 100.201 139.457 104.289 139.457 104.289L132.791 93.1504Z" fill="black"/>
<path d="M122.474 206.792L126.838 207.22L128.225 197.1L123.856 196.672L122.474 206.792Z" fill="#FFB573"/>
<path d="M79.5072 147.408L78.3903 151.659L87.8318 155.728L89.79 151.413L79.5072 147.408Z" fill="#FFB573"/>
<path d="M129.962 208.116C130.337 208.162 130.717 208.078 131.039 207.879C131.109 207.819 131.163 207.743 131.197 207.657C131.231 207.572 131.245 207.479 131.236 207.387C131.236 207.33 131.22 207.274 131.191 207.224C131.161 207.175 131.119 207.134 131.069 207.107C130.542 206.792 128.761 207.638 128.56 207.732C128.54 207.741 128.524 207.756 128.514 207.774C128.503 207.793 128.499 207.814 128.501 207.835C128.503 207.857 128.513 207.877 128.528 207.893C128.543 207.909 128.563 207.92 128.584 207.924C129.037 208.029 129.498 208.094 129.962 208.116ZM130.754 207.235C130.822 207.23 130.891 207.245 130.951 207.279C130.971 207.29 130.989 207.306 131.001 207.326C131.013 207.346 131.02 207.369 131.02 207.392C131.025 207.454 131.016 207.516 130.992 207.573C130.969 207.63 130.933 207.681 130.887 207.722C130.616 207.953 129.903 207.973 128.919 207.786C129.499 207.496 130.125 207.308 130.769 207.23L130.754 207.235Z" fill="#407BFF"/>
<path d="M128.604 207.905H128.643C129.175 207.683 130.242 206.768 130.173 206.266C130.154 206.179 130.105 206.101 130.036 206.046C129.966 205.99 129.879 205.96 129.79 205.961C129.687 205.942 129.582 205.946 129.481 205.971C129.38 205.997 129.285 206.044 129.204 206.109C128.638 206.547 128.505 207.733 128.496 207.777C128.491 207.795 128.491 207.814 128.495 207.832C128.499 207.85 128.508 207.866 128.52 207.88C128.532 207.89 128.545 207.897 128.559 207.901C128.574 207.906 128.589 207.907 128.604 207.905ZM129.691 206.148H129.75C129.942 206.178 129.952 206.252 129.952 206.276C129.996 206.576 129.268 207.305 128.722 207.595C128.774 207.096 128.985 206.627 129.322 206.257C129.432 206.178 129.567 206.144 129.701 206.163L129.691 206.148Z" fill="#407BFF"/>
<path d="M126.621 205.459L122.685 205.627C122.6 205.627 122.519 205.659 122.456 205.717C122.393 205.774 122.354 205.852 122.346 205.937L121.401 211.432C121.396 211.526 121.409 211.619 121.44 211.708C121.471 211.796 121.519 211.877 121.582 211.947C121.645 212.016 121.721 212.073 121.805 212.113C121.89 212.153 121.982 212.176 122.075 212.18H122.154C123.871 212.091 124.697 211.964 126.872 211.89C128.205 211.845 132.284 212.328 134.104 211.914C135.925 211.501 135.58 209.695 134.798 209.71C132.269 209.759 129.352 208.111 127.91 206.183C127.659 206.02 126.897 205.445 126.621 205.459Z" fill="#263238"/>
<path d="M80.3977 152.215L82.4051 148.805C82.4505 148.733 82.4672 148.646 82.4517 148.562C82.4362 148.479 82.3897 148.404 82.3214 148.352L78.228 144.579C78.0759 144.471 77.8878 144.428 77.7039 144.457C77.5201 144.487 77.355 144.587 77.244 144.736L77.1997 144.805C76.3436 146.281 76.0041 147.058 74.8873 148.923C74.1985 150.069 71.5712 153.253 70.9513 154.989C70.3314 156.726 72.014 157.449 72.4273 156.771C73.7606 154.616 76.7274 153.061 79.1382 152.874C79.3694 152.785 80.2599 152.456 80.3977 152.215Z" fill="#263238"/>
<path opacity="0.2" d="M128.225 197.1L127.512 202.32L123.143 201.892L123.851 196.677L128.225 197.1Z" fill="black"/>
<path opacity="0.2" d="M92.6928 152.466L90.6756 157.017L84.5945 154.331L86.1443 149.996L92.6928 152.466Z" fill="black"/>
<path d="M133.937 94.7344C136.432 98.9754 133.381 102.552 130.833 115.226L114.39 115.27C114.656 108.441 114.626 102.921 111.714 89.4847C111.638 89.1537 111.638 88.8098 111.714 88.4788C111.79 88.1478 111.94 87.8382 112.152 87.5733C112.365 87.3083 112.634 87.0948 112.941 86.9487C113.247 86.8026 113.583 86.7277 113.923 86.7295C115.281 86.7295 116.988 86.7738 118.725 86.9509C121.464 87.1749 124.185 87.5876 126.867 88.1858C128.322 88.5367 129.752 88.9838 131.148 89.5241C131.994 89.8094 133.012 92.112 133.937 94.7344Z" fill="#263238"/>
<path d="M131.443 116.083C131.443 116.083 140.678 142.784 140.456 155.625C140.328 162.98 139.772 176.687 137.553 186.326C135.743 194.198 128.363 199.216 128.363 199.216L122.459 198.867C122.459 198.867 119.261 186.862 119.817 182.085C120.924 172.574 124.205 165.43 123.807 156.697C123.177 142.4 118.946 115.861 118.946 115.861L131.443 116.083Z" fill="#407BFF"/>
<path d="M121.273 200.406L129.612 200.898L130.37 198.394L121.052 197.533L121.273 200.406Z" fill="#263238"/>
<path opacity="0.2" d="M122.326 170.025C122.326 170.025 122.326 169.976 122.375 169.981C127.615 170.473 131.231 162.93 130.37 152.603L127.59 126.281L122.326 170.025Z" fill="black"/>
<path d="M127.3 115.862C127.3 115.862 134.641 162.813 119.379 168.097C111.325 171.148 104.55 167.841 96.5255 164.289C91.8859 162.237 86.0901 156.683 86.0901 156.683L88.3189 150.616C92.3274 149.532 96.5218 149.321 100.619 149.996C108.442 151.207 108.771 153.44 111.551 151.753C117.396 137.308 107.34 125.888 114.174 115.837L127.3 115.862Z" fill="#407BFF"/>
<path d="M88.7568 149.465L85.7753 157.332L87.9696 159.01L91.512 149.647L88.7568 149.465Z" fill="#263238"/>
<path d="M87.5268 107.039C86.7839 108.137 83.0152 107.394 83.0152 107.394L82.2132 102.725L86.8429 104.579L87.5268 107.039Z" fill="#FFB573"/>
<path d="M83.148 102.483L83.8663 107.335L81.0865 107.748C80.9358 107.762 80.7854 107.719 80.6645 107.628C80.5436 107.537 80.4608 107.404 80.4321 107.256L79.3645 103.812C79.3463 103.732 79.3597 103.648 79.4018 103.577C79.444 103.507 79.5116 103.455 79.5908 103.433L83.148 102.483Z" fill="#FFB573"/>
<path d="M81.9032 104.683L83.4875 104.963L84.9881 103.837L84.4075 103.423C84.0141 103.143 83.7374 102.728 83.6301 102.257C83.5186 101.764 83.4511 101.262 83.4284 100.757V100.589C83.4095 100.441 83.3425 100.303 83.2377 100.196C83.1328 100.09 82.9959 100.02 82.8479 99.999L82.4543 100.289C82.2083 100.826 82.3854 101.45 82.3559 101.869L82.2919 102.68L81.6572 102.956L81.9032 104.683Z" fill="#FFB573"/>
<path d="M112.506 88.5596L103.197 101.352L86.1 104.727V107.531C86.1 107.531 102.169 108.722 105.78 106.621C109.391 104.52 115.448 91.7772 115.448 91.7772L112.506 88.5596Z" fill="#FFB573"/>
<path d="M112.397 63.96C108.491 62.6513 103.96 65.0769 102.174 68.7865C100.388 72.4962 101.012 77.0472 103.025 80.6388C103.63 81.7261 104.353 82.7495 104.85 83.886C105.402 85.0127 105.523 86.3025 105.19 87.5121C104.786 88.6879 104.373 89.4407 102.917 89.2537C102.917 89.2537 102.917 88.4469 103.473 88.5453C103.473 88.5453 102.292 89.1996 101.829 88.7716C102.366 89.5981 103.797 89.298 104.255 88.4223C104.939 87.1185 103.679 85.3522 102.203 85.3669C100.727 85.3817 99.5267 86.8774 99.5759 88.3485C99.6374 89.0842 99.8992 89.7891 100.333 90.3867C100.766 90.9842 101.355 91.4517 102.036 91.7383C101.637 91.8041 101.228 91.7359 100.872 91.5446C100.516 91.3532 100.233 91.0494 100.068 90.6805C100.737 92.4321 102.921 93.2045 104.766 92.8601C106.611 92.5157 108.171 91.3349 109.618 90.1394C111.586 88.5256 113.598 86.4838 113.554 83.9598C113.509 82.0755 112.299 80.4568 111.281 78.8676C110.262 77.2785 109.372 75.34 110.021 73.5737C110.567 72.0731 112.053 71.1678 113.362 70.2527C114.306 69.5983 116.225 68.1371 115.999 66.7546C115.768 65.436 113.504 64.329 112.397 63.96Z" fill="#263238"/>
<path d="M103.596 107.748L101.017 100.924L101.608 100.973C102.086 101.013 102.565 100.915 102.988 100.69C103.411 100.465 103.76 100.123 103.994 99.704C105.962 96.201 111.044 87.3106 112.476 86.8678C114.518 86.2626 116.619 87.896 117.396 90.3118C117.982 92.0879 111.984 99.704 109.219 104.034C106.764 107.866 103.596 107.748 103.596 107.748Z" fill="#263238"/>
<path d="M78.4494 154.458V154.512C78.4857 154.607 78.5453 154.691 78.6227 154.756C78.7001 154.822 78.7928 154.866 78.8922 154.886C78.9519 154.905 79.0154 154.908 79.0765 154.895C79.1377 154.882 79.1945 154.854 79.2415 154.813C79.6548 154.434 79.3891 152.845 79.3645 152.687C79.3618 152.667 79.3528 152.648 79.3386 152.633C79.3245 152.618 79.306 152.607 79.2858 152.603C79.2667 152.601 79.2473 152.603 79.2293 152.61C79.2113 152.617 79.1952 152.628 79.1825 152.643C78.8479 153.115 78.3166 153.956 78.4494 154.458ZM79.2071 152.982C79.2957 153.612 79.335 154.458 79.1038 154.665C79.0797 154.678 79.0526 154.685 79.0251 154.685C78.9975 154.685 78.9704 154.678 78.9463 154.665C78.8802 154.653 78.8184 154.623 78.7667 154.58C78.715 154.537 78.6752 154.482 78.6511 154.419C78.5626 154.153 78.7495 153.612 79.2071 152.972V152.982Z" fill="#407BFF"/>
<path d="M79.212 152.894C79.3399 153.425 79.8418 154.331 80.2846 154.439C80.3653 154.455 80.4491 154.444 80.5224 154.406C80.5956 154.368 80.654 154.307 80.688 154.232C80.7265 154.162 80.7491 154.084 80.7542 154.004C80.7593 153.924 80.7468 153.844 80.7175 153.77C80.5158 153.16 79.3547 152.658 79.3055 152.633C79.2896 152.625 79.2719 152.62 79.2538 152.62C79.2358 152.62 79.218 152.625 79.2022 152.633C79.1877 152.645 79.1765 152.66 79.1696 152.677C79.1627 152.695 79.1604 152.713 79.1628 152.732C79.1749 152.787 79.1914 152.841 79.212 152.894ZM80.5502 153.878C80.5603 153.921 80.5615 153.966 80.5539 154.01C80.5463 154.054 80.53 154.096 80.506 154.134C80.442 154.252 80.378 154.252 80.3288 154.242C80.0287 154.183 79.5712 153.44 79.4236 152.924C79.8024 153.115 80.4076 153.475 80.5355 153.848C80.5321 153.858 80.5321 153.868 80.5355 153.878H80.5502Z" fill="#407BFF"/>
<path d="M114.331 114.439L113.873 116.038C113.814 116.161 113.957 116.289 114.164 116.284H131.138C131.3 116.284 131.433 116.201 131.443 116.102L131.6 114.503C131.6 114.395 131.472 114.297 131.295 114.302H114.616C114.561 114.297 114.505 114.308 114.455 114.332C114.405 114.356 114.362 114.393 114.331 114.439Z" fill="#407BFF"/>
<path opacity="0.5" d="M114.331 114.439L113.873 116.038C113.814 116.161 113.957 116.289 114.164 116.284H131.138C131.3 116.284 131.433 116.201 131.443 116.102L131.6 114.503C131.6 114.395 131.472 114.297 131.295 114.302H114.616C114.561 114.297 114.505 114.308 114.455 114.332C114.405 114.356 114.362 114.393 114.331 114.439Z" fill="white"/>
<path d="M117.588 116.431H117.096C117.003 116.431 116.924 116.382 116.934 116.323L117.155 114.242C117.155 114.183 117.249 114.134 117.347 114.134H117.839C117.932 114.134 118.006 114.183 118.001 114.247L117.78 116.323C117.75 116.382 117.662 116.436 117.588 116.431Z" fill="#407BFF"/>
<path d="M129.824 116.431H129.332C129.243 116.431 129.165 116.382 129.175 116.323L129.396 114.247C129.396 114.183 129.485 114.134 129.578 114.134H130.07C130.164 114.134 130.242 114.183 130.232 114.242L130.011 116.318C130.001 116.382 129.922 116.431 129.824 116.431Z" fill="#407BFF"/>
<path d="M124.21 116.422H123.718C123.625 116.422 123.546 116.372 123.556 116.313L123.777 114.237C123.777 114.173 123.871 114.124 123.964 114.124H124.456C124.55 114.124 124.624 114.173 124.619 114.232L124.392 116.308C124.392 116.372 124.309 116.422 124.21 116.422Z" fill="#407BFF"/>
<path d="M119.492 77.9971C120.014 80.6785 120.525 85.5198 118.705 86.9761C118.705 86.9761 119.433 89.7264 124.299 90.4594C129.672 91.2663 126.852 88.2061 126.852 88.2061C123.925 87.0499 123.999 84.9343 124.501 82.9859L119.492 77.9971Z" fill="#FFB573"/>
<path d="M118.725 86.9508C121.321 87.1154 123.901 87.4739 126.444 88.0233L130.124 89.1205C130.779 90.4391 129.706 93.15 126.626 93.6666C126.626 93.6666 118.867 94.7342 116.579 86.7441L118.725 86.9508Z" fill="#FFB573"/>
<path opacity="0.2" d="M121.524 80.0391L124.476 82.9911C124.352 83.4481 124.271 83.916 124.235 84.3883C123.113 84.0587 121.312 82.8238 121.189 81.643C121.191 81.0912 121.305 80.5454 121.524 80.0391Z" fill="black"/>
<path d="M116.205 74.6117C117.524 78.774 117.987 80.5649 120.688 82.2033C124.712 84.6633 129.544 82.1442 129.494 77.6769C129.455 73.6523 127.315 67.522 122.744 66.8529C121.739 66.7023 120.713 66.8113 119.762 67.1696C118.812 67.5279 117.969 68.1235 117.313 68.8997C116.658 69.6759 116.212 70.6069 116.018 71.6042C115.824 72.6014 115.889 73.6317 116.205 74.5969V74.6117Z" fill="#FFB573"/>
<path d="M126.139 73.9619C126.604 74.6925 127.169 75.3548 127.817 75.9299C127.665 76.0939 127.48 76.2229 127.273 76.3079C127.067 76.3929 126.844 76.4318 126.621 76.4219L126.139 73.9619Z" fill="#ED893E"/>
<path d="M125.672 78.6457C125.838 78.6274 126.003 78.5945 126.164 78.5473C126.176 78.5444 126.188 78.5391 126.199 78.5316C126.209 78.5241 126.218 78.5146 126.225 78.5036C126.232 78.4926 126.236 78.4804 126.239 78.4677C126.241 78.4549 126.24 78.4419 126.237 78.4293C126.23 78.4034 126.214 78.3813 126.191 78.3675C126.168 78.3538 126.14 78.3494 126.114 78.3555C125.694 78.4712 125.253 78.487 124.826 78.4016C124.399 78.3162 123.998 78.1319 123.654 77.8635C123.634 77.8433 123.607 77.832 123.578 77.832C123.55 77.832 123.522 77.8433 123.502 77.8635C123.492 77.8731 123.484 77.8846 123.479 77.8972C123.474 77.9099 123.471 77.9235 123.471 77.9373C123.471 77.951 123.474 77.9646 123.479 77.9773C123.484 77.99 123.492 78.0014 123.502 78.0111C123.804 78.2542 124.151 78.4354 124.524 78.5443C124.896 78.6532 125.286 78.6877 125.672 78.6457Z" fill="#263238"/>
<path d="M114.774 66.3017C114.231 66.6524 113.781 67.1281 113.461 67.6889C113.141 68.2497 112.96 68.8791 112.934 69.5243C112.911 69.771 112.95 70.0194 113.047 70.2475C113.095 70.3604 113.173 70.4585 113.271 70.5319C113.37 70.6053 113.486 70.6515 113.608 70.6657C113.982 70.6657 114.257 70.3312 114.464 70.0163L115.418 68.5403C115.811 68.0608 116.142 67.5335 116.402 66.9708C116.722 66.0016 115.359 65.9278 114.774 66.3017Z" fill="#407BFF"/>
<path d="M115.241 67.2812C112.629 70.3021 111.458 78.6612 119.113 80.9933C120.392 79.9797 118.326 78.1348 117.45 75.8027C116.875 74.2775 119.792 71.4288 120.929 70.2578C122.065 69.0869 123.113 67.3993 124.717 67.6699C125.124 67.806 125.563 67.818 125.977 67.7043C127.251 67.1287 126.631 66.3661 125.977 65.8347C124.973 65.092 123.778 64.6515 122.533 64.5654C121.189 64.4071 119.827 64.5709 118.559 65.0431C117.291 65.5153 116.154 66.2825 115.241 67.2812Z" fill="#263238"/>
<path d="M123.738 66.2672C126.813 68.8305 122.754 68.8945 120.604 70.5181C118.542 72.0777 119.989 74.6312 116.501 75.8169C113.652 76.6484 112.993 76.1466 112.206 75.5955C113.181 75.4267 114.073 74.94 114.743 74.2111C115.414 73.4823 115.824 72.5523 115.91 71.5661C116.151 69.6965 120.225 63.2955 123.738 66.2672Z" fill="#263238"/>
<path d="M115.743 78.1104C116.225 78.8043 116.96 79.2814 117.79 79.4388C118.892 79.6307 119.315 78.6221 118.936 77.6381C118.577 76.7525 117.578 75.5864 116.511 75.8373C116.143 75.9323 115.829 76.169 115.636 76.4955C115.443 76.8221 115.388 77.2117 115.482 77.579C115.532 77.7719 115.621 77.9527 115.743 78.1104Z" fill="#FFB573"/>
<path d="M123.212 66.5279C123.807 68.0433 125.524 67.8416 126.793 69.4258C127.576 70.4098 129.111 67.3742 127.02 66.1786C124.929 64.9831 122.277 64.1565 123.212 66.5279Z" fill="#263238"/>
<path d="M121.401 72.9243C121.445 72.929 121.489 72.9196 121.527 72.8975C121.565 72.8754 121.595 72.8417 121.613 72.8013C122.016 71.9059 123.226 71.6796 123.236 71.6796C123.29 71.6677 123.338 71.6356 123.369 71.5898C123.4 71.5441 123.412 71.4882 123.403 71.4336C123.393 71.3802 123.361 71.3332 123.316 71.3028C123.271 71.2724 123.216 71.2611 123.162 71.2712C123.098 71.2712 121.721 71.5615 121.229 72.6439C121.207 72.6942 121.205 72.7511 121.225 72.8025C121.244 72.854 121.283 72.8959 121.332 72.9194H121.401V72.9243Z" fill="#263238"/>
<path d="M127.797 71.1138C127.833 71.1164 127.869 71.1091 127.901 71.0926C127.933 71.0761 127.96 71.0511 127.979 71.0204C127.995 70.9982 128.006 70.9732 128.012 70.9467C128.017 70.9202 128.018 70.8928 128.013 70.8662C128.008 70.8395 127.997 70.8142 127.982 70.7917C127.967 70.7691 127.948 70.7498 127.925 70.735C127.652 70.5462 127.339 70.4258 127.01 70.3838C126.681 70.3418 126.347 70.3796 126.036 70.4939C126.01 70.504 125.986 70.5194 125.967 70.539C125.947 70.5587 125.931 70.5822 125.921 70.608C125.911 70.6339 125.906 70.6616 125.907 70.6894C125.909 70.7171 125.915 70.7444 125.927 70.7694C125.949 70.8196 125.99 70.8591 126.04 70.8794C126.091 70.8997 126.148 70.899 126.198 70.8777C126.443 70.7922 126.704 70.7663 126.961 70.8022C127.218 70.8382 127.462 70.9349 127.674 71.0843C127.712 71.1029 127.754 71.113 127.797 71.1138Z" fill="#263238"/>
<path d="M148.023 98.0459L145.14 99.6843L142.144 106.129C142.144 106.129 145.037 107.97 147.32 106.479C149.602 104.988 148.023 98.0459 148.023 98.0459Z" fill="#407BFF"/>
<path opacity="0.5" d="M148.023 98.0459L145.14 99.6843L142.144 106.129C142.144 106.129 145.037 107.97 147.32 106.479C149.602 104.988 148.023 98.0459 148.023 98.0459Z" fill="white"/>
<path d="M97.6079 100.038L101.017 101.022L104.25 107.708C104.25 107.708 101.652 110.114 98.8379 107.817C96.7321 106.075 97.6079 100.038 97.6079 100.038Z" fill="#407BFF"/>
<g opacity="0.5">
<path d="M97.6079 100.038L101.017 101.022L104.25 107.708C104.25 107.708 101.652 110.114 98.8379 107.817C96.7321 106.075 97.6079 100.038 97.6079 100.038Z" fill="white"/>
</g>
<path d="M127.6 72.7812C127.836 72.7369 128.092 73.0026 128.146 73.3667C128.2 73.7308 128.068 74.0653 127.831 74.1047C127.595 74.144 127.339 73.8833 127.285 73.5192C127.231 73.1551 127.364 72.8156 127.6 72.7812Z" fill="#263238"/>
<path d="M128.328 72.4229L127.497 72.8312C127.999 73.1855 128.328 72.4229 128.328 72.4229Z" fill="#263238"/>
<path d="M123.492 73.6279C123.728 73.5836 123.984 73.8493 124.038 74.2134C124.092 74.5774 123.959 74.912 123.723 74.9514C123.487 74.9907 123.231 74.73 123.177 74.3659C123.123 74.0018 123.246 73.6722 123.492 73.6279Z" fill="#263238"/>
<path d="M124.21 73.2686L123.379 73.6769C123.881 74.0312 124.21 73.2686 124.21 73.2686Z" fill="#263238"/>
<path d="M102.661 92.4513C102.197 92.4539 101.738 92.367 101.308 92.1954C99.7825 91.5706 99.074 89.9863 99.3397 87.8412C99.3483 87.7767 99.3821 87.7182 99.4338 87.6785C99.4854 87.6388 99.5507 87.6213 99.6152 87.6297C99.6475 87.6333 99.6786 87.6433 99.7069 87.6593C99.7351 87.6752 99.7599 87.6967 99.7796 87.7224C99.7994 87.7481 99.8137 87.7776 99.8218 87.809C99.8299 87.8404 99.8316 87.8731 99.8268 87.9052C99.571 89.8092 100.171 91.2065 101.475 91.7379C102.232 91.9969 103.051 92.0098 103.815 91.7747C104.58 91.5396 105.25 91.0686 105.731 90.4291C106.966 88.7859 106.562 86.4538 104.639 84.0331C99.6005 77.7109 99.935 74.3506 100.648 71.6938C101.682 67.8365 104.707 63.4183 113.268 64.2695C113.333 64.276 113.393 64.3082 113.435 64.3589C113.477 64.4097 113.496 64.4749 113.49 64.5401C113.483 64.6053 113.451 64.6653 113.4 64.7068C113.349 64.7484 113.284 64.768 113.219 64.7615C105.008 63.9448 102.105 68.1563 101.121 71.8266C100.412 74.4834 100.137 77.5879 105.022 83.733C107.974 87.4378 106.779 89.8633 106.124 90.7293C105.715 91.2596 105.191 91.6902 104.591 91.9885C103.991 92.2868 103.331 92.445 102.661 92.4513Z" fill="#263238"/>
</svg>
