<svg width="10" height="10" viewBox="0 0 10 10" fill="none" xmlns="http://www.w3.org/2000/svg">
<g clip-path="url(#clip0_170_609)">
<g filter="url(#filter0_d_170_609)">
<path d="M10 2.8125V8.4375C10 8.95508 9.58008 9.375 9.0625 9.375H0.9375C0.419922 9.375 0 8.95508 0 8.4375V2.8125C0 2.29492 0.419922 1.875 0.9375 1.875H2.65625L2.89648 1.23242C3.0332 0.867187 3.38281 0.625 3.77344 0.625H6.22461C6.61523 0.625 6.96484 0.867187 7.10156 1.23242L7.34375 1.875H9.0625C9.58008 1.875 10 2.29492 10 2.8125ZM7.34375 5.625C7.34375 4.33203 6.29297 3.28125 5 3.28125C3.70703 3.28125 2.65625 4.33203 2.65625 5.625C2.65625 6.91797 3.70703 7.96875 5 7.96875C6.29297 7.96875 7.34375 6.91797 7.34375 5.625ZM6.71875 5.625C6.71875 6.57227 5.94727 7.34375 5 7.34375C4.05273 7.34375 3.28125 6.57227 3.28125 5.625C3.28125 4.67773 4.05273 3.90625 5 3.90625C5.94727 3.90625 6.71875 4.67773 6.71875 5.625Z" fill="#333333"/>
</g>
</g>
<defs>
<filter id="filter0_d_170_609" x="-4" y="0.625" width="18" height="16.75" filterUnits="userSpaceOnUse" color-interpolation-filters="sRGB">
<feFlood flood-opacity="0" result="BackgroundImageFix"/>
<feColorMatrix in="SourceAlpha" type="matrix" values="0 0 0 0 0 0 0 0 0 0 0 0 0 0 0 0 0 0 127 0" result="hardAlpha"/>
<feOffset dy="4"/>
<feGaussianBlur stdDeviation="2"/>
<feComposite in2="hardAlpha" operator="out"/>
<feColorMatrix type="matrix" values="0 0 0 0 0 0 0 0 0 0 0 0 0 0 0 0 0 0 0.25 0"/>
<feBlend mode="normal" in2="BackgroundImageFix" result="effect1_dropShadow_170_609"/>
<feBlend mode="normal" in="SourceGraphic" in2="effect1_dropShadow_170_609" result="shape"/>
</filter>
<clipPath id="clip0_170_609">
<rect width="10" height="10" fill="white"/>
</clipPath>
</defs>
</svg>
