<svg width="16" height="16" viewBox="0 0 16 16" fill="none" xmlns="http://www.w3.org/2000/svg">
<path d="M6 8H9.33333C9.51014 8 9.67971 8.07024 9.80474 8.19526C9.92976 8.32029 10 8.48986 10 8.66667V14.6667H6V8Z" fill="white"/>
<path d="M8 1.33331C6.68181 2.65147 5.36365 3.83181 5.36365 5.28786C5.36406 5.90187 5.57895 6.49644 5.97119 6.96883C6.36343 7.44122 6.90837 7.76175 7.51184 7.87502C7.28317 7.73853 7.09534 7.54314 6.96799 7.30926C6.84064 7.07537 6.77844 6.81157 6.78788 6.54543C6.78788 5.7421 7.39392 5.09089 8 4.36359C8.60608 5.09088 9.21212 5.74209 9.21212 6.54543C9.22157 6.81157 9.15936 7.07537 9.03201 7.30926C8.90466 7.54314 8.71684 7.73853 8.48816 7.87502C9.09163 7.76175 9.63657 7.44122 10.0288 6.96883C10.421 6.49644 10.6359 5.90187 10.6364 5.28786C10.6364 3.83181 9.31819 2.65147 8 1.33331Z" fill="white"/>
<path d="M8.66668 11.3333H5.85633C5.67034 11.3333 5.48768 11.284 5.32699 11.1903C5.16631 11.0966 5.03336 10.962 4.94172 10.8001C4.85008 10.6383 4.80303 10.455 4.80538 10.269C4.80773 10.0831 4.85939 9.90104 4.95508 9.74155L6.00001 8H8.66668V11.3333Z" fill="white"/>
<path d="M11.3333 13.3333H4.66667C4.29848 13.3333 4 13.6318 4 14C4 14.3682 4.29848 14.6666 4.66667 14.6666H11.3333C11.7015 14.6666 12 14.3682 12 14C12 13.6318 11.7015 13.3333 11.3333 13.3333Z" fill="white"/>
</svg>
