<svg width="24" height="21" viewBox="0 0 24 21" fill="none" xmlns="http://www.w3.org/2000/svg">
<path d="M20.7599 4.66656C20.7572 3.84879 20.553 3.04614 20.1677 2.339C19.7824 1.63187 19.2296 1.0451 18.5646 0.637458C17.8997 0.22982 17.1459 0.0156348 16.3788 0.0163593C15.6118 0.0170837 14.8584 0.232693 14.1941 0.641586C13.9652 0.781688 13.7915 1.00526 13.7051 1.2711C13.6186 1.53695 13.6251 1.82715 13.7235 2.08824C14.3514 3.74195 14.3514 5.59117 13.7235 7.24488C13.6251 7.50597 13.6186 7.79618 13.7051 8.06202C13.7915 8.32787 13.9652 8.55144 14.1941 8.69154C14.8584 9.10043 15.6118 9.31604 16.3788 9.31677C17.1459 9.31749 17.8997 9.1033 18.5646 8.69567C19.2296 8.28803 19.7824 7.70125 20.1677 6.99412C20.553 6.28699 20.7572 5.48433 20.7599 4.66656Z" fill="white"/>
<path d="M7.6282 9.33328C10.0457 9.33328 12.0054 7.24395 12.0054 4.66664C12.0054 2.08933 10.0457 0 7.6282 0C5.21073 0 3.25098 2.08933 3.25098 4.66664C3.25098 7.24395 5.21073 9.33328 7.6282 9.33328Z" fill="white"/>
<path d="M22.3467 13.2998C20.9572 12.4878 19.4338 11.9689 17.8601 11.7715C17.6506 11.7347 17.4357 11.7636 17.2414 11.8548C17.0471 11.9459 16.8818 12.0954 16.7658 12.2849C16.6697 12.4622 16.6192 12.6634 16.6192 12.8682C16.6192 13.073 16.6697 13.2742 16.7658 13.4515C17.2329 14.3302 17.478 15.3232 17.4771 16.3332C17.4758 17.3229 17.2346 18.2955 16.7767 19.1565C16.6702 19.3406 16.6138 19.5527 16.6138 19.769C16.6138 19.9853 16.6702 20.1974 16.7767 20.3815C16.8771 20.5398 17.0124 20.6694 17.1708 20.7589C17.3292 20.8484 17.5057 20.8951 17.685 20.8948H17.8163C19.3472 20.7076 20.8317 20.2169 22.1935 19.4481C22.2454 19.437 22.2941 19.413 22.3358 19.3781C22.841 19.0729 23.2613 18.6302 23.5536 18.0953C23.846 17.5603 24.0001 16.9523 24.0001 16.3332C24.0001 15.714 23.846 15.106 23.5536 14.5711C23.2613 14.0361 22.841 13.5934 22.3358 13.2882L22.3467 13.2998Z" fill="white"/>
<path d="M13.5922 13.2999C11.7573 12.2542 9.70885 11.707 7.62824 11.707C5.54763 11.707 3.49914 12.2542 1.66427 13.2999C1.15904 13.6052 0.738796 14.0479 0.44642 14.5828C0.154045 15.1177 0 15.7258 0 16.3449C0 16.964 0.154045 17.5721 0.44642 18.107C0.738796 18.6419 1.15904 19.0846 1.66427 19.3899C1.70325 19.4223 1.74789 19.4461 1.79559 19.4599C3.59143 20.4713 5.59174 21 7.62277 21C9.6538 21 11.6541 20.4713 13.45 19.4599C13.5019 19.4487 13.5506 19.4247 13.5922 19.3899C14.0975 19.0846 14.5177 18.6419 14.8101 18.107C15.1024 17.5721 15.2565 16.964 15.2565 16.3449C15.2565 15.7258 15.1024 15.1177 14.8101 14.5828C14.5177 14.0479 14.0975 13.6052 13.5922 13.2999Z" fill="white"/>
</svg>
