<svg width="24" height="24" viewBox="0 0 24 24" fill="none" xmlns="http://www.w3.org/2000/svg">
<path d="M3.35091 16.179L2.04165 20.626C1.82022 21.3802 2.51535 22.0833 3.27202 21.8705L7.73977 20.6069C11.517 22.5001 16.1032 21.8458 19.117 18.8308C22.9613 14.986 22.9613 8.72128 19.117 4.87651C15.2727 1.03174 8.70621 1.33525 5.28797 4.75343C1.86974 8.17162 1.50486 12.413 3.35091 16.179ZM17.7029 17.4169C15.1964 19.9244 11.3359 20.4478 8.25371 18.6957C8.02145 18.5634 7.74593 18.5296 7.48857 18.6018L4.47094 19.4539L5.35484 16.4542C5.43114 16.1969 5.40084 15.9197 5.27064 15.685C3.5567 12.6092 3.89352 8.97679 6.67849 6.19166C9.46346 3.40652 14.6229 3.21011 17.7029 6.29078C20.783 9.37141 20.783 14.3364 17.7029 17.4169Z" fill="black"/>
</svg>
