<svg width="24" height="24" viewBox="0 0 24 24" fill="none" xmlns="http://www.w3.org/2000/svg">
<path d="M12 20.8V22.4C13.8736 22.4 15.3616 21.7176 16.4984 20.8H12Z" fill="#333333"/>
<path d="M4 12.8V14.4C4 16.4 5.6 16.8 5.6 16.8C5.6 16.8 7.2 21.6 12 21.6" stroke="#333333" stroke-width="2" stroke-miterlimit="10" stroke-linecap="round"/>
<path d="M20.8 13.6001H18.4C18.4 8.6081 16 6.4001 16 6.4001C13.6 12.0001 5.60001 8.0001 5.60001 13.6001H3.20001C3.20001 13.6001 3.20001 13.5057 3.20001 10.4001C3.20001 4.8001 8.00001 1.6001 12 1.6001C15.2 1.6001 16 3.2001 16 3.2001C19.2 3.2001 20.8 7.2001 20.8 10.4001V13.6001Z" fill="#333333"/>
<path d="M12.4 16.8C12.2592 16.8 11.7408 16.8 11.6 16.8C10.9376 16.8 10.4 17.3376 10.4 18C10.4 18.6624 10.9376 19.2 11.6 19.2C11.7408 19.2 12.2592 19.2 12.4 19.2C13.0624 19.2 13.6 18.6624 13.6 18C13.6 17.3376 13.0624 16.8 12.4 16.8Z" fill="#333333"/>
<path d="M12.8 18.4H16.8C18.5672 18.4 20 16.9672 20 15.2V12.8" stroke="#333333" stroke-width="2" stroke-miterlimit="10" stroke-linecap="round"/>
<path d="M20 16H18.4V12H20C20.884 12 21.6 12.716 21.6 13.6V14.4C21.6 15.284 20.884 16 20 16Z" fill="#333333"/>
</svg>
