<svg width="20" height="20" viewBox="0 0 20 20" fill="none" xmlns="http://www.w3.org/2000/svg">
<path d="M15.75 6.66675H4.25001C3.75001 6.66675 3.33334 7.08342 3.41668 7.58342L4.75001 18.5001C4.83334 19.3334 5.58334 19.9167 6.41668 19.9167H13.5C14.3333 19.9167 15.0833 19.3334 15.1667 18.5001L16.5 7.58342C16.5833 7.08342 16.25 6.66675 15.75 6.66675Z" fill="#F12323"/>
<path d="M16.6667 1.66667H12.5C12.5 0.75 11.75 0 10.8334 0H9.16669C8.25002 0 7.50002 0.75 7.50002 1.66667H3.33335C2.41669 1.66667 1.66669 2.41667 1.66669 3.33333V4.16667C1.66669 4.66667 2.00002 5 2.50002 5H17.5C18 5 18.3334 4.66667 18.3334 4.16667V3.33333C18.3334 2.41667 17.5834 1.66667 16.6667 1.66667Z" fill="#F12323"/>
</svg>
