<svg width="20" height="20" viewBox="0 0 20 20" fill="none" xmlns="http://www.w3.org/2000/svg">
<path d="M7.99097 9.77747C8.0396 9.77669 8.08933 9.77626 8.14015 9.77626C8.37183 9.77626 8.63999 9.78505 8.93116 9.8045C8.94167 9.80525 8.95237 9.80603 8.96292 9.80677C8.98464 9.80829 9.00632 9.80974 9.02831 9.81138C9.75132 9.86474 10.6023 9.98353 11.3832 10.1967C12.6859 10.5522 13.3979 11.0553 13.4995 11.692C13.4995 11.6923 13.4996 11.6926 13.4997 11.6929C13.5001 11.6955 13.5003 11.6979 13.5007 11.7005C13.5033 11.7183 13.5059 11.736 13.5079 11.7535C14.2747 11.2077 15.3331 10.6504 16.2288 10.3925C16.234 10.3911 16.2391 10.3897 16.2442 10.3882C16.2695 10.381 16.2948 10.3739 16.3198 10.3672C16.34 10.3617 16.36 10.3567 16.3801 10.3516C16.3905 10.349 16.401 10.346 16.4114 10.3435C16.4424 10.3358 16.4732 10.3285 16.5036 10.3217C15.9992 9.34701 14.1401 8.63423 12.0212 8.63423C10.3453 8.63427 8.80382 9.08208 7.99097 9.77747Z" fill="#333333"/>
<path d="M5.14536 13.5676C4.94318 13.2247 4.72708 12.8768 4.52353 12.5711C4.26599 12.1843 4.02869 11.8652 3.86556 11.7095C3.62947 11.4838 3.48474 11.3832 3.39622 11.3832C3.37994 11.3832 3.35255 11.386 3.3038 11.4101C2.89767 11.6101 1.88427 12.3113 1.78931 12.5101C1.73665 12.6204 1.76994 12.716 1.85017 12.9218C1.89189 13.0288 1.93919 13.1502 1.97607 13.2971C2.14384 13.9645 2.11005 14.7471 2.07736 15.504C2.04372 16.2818 2.01201 17.0165 2.19599 17.5545C2.20337 17.5762 2.21255 17.6031 2.2954 17.6031C2.40767 17.6031 2.57447 17.5466 2.73079 17.4559C2.93544 17.3365 3.32837 17.1491 3.78337 16.9322C4.26001 16.705 4.80029 16.4474 5.23802 16.2134C5.91333 15.8525 6.00697 15.724 6.01884 15.7018C6.08357 15.5588 6.04548 15.3202 5.90494 14.994C5.76369 14.6653 5.47279 14.1229 5.14536 13.5676ZM4.06708 15.6213C3.84779 15.6459 3.64986 15.4891 3.62486 15.2708C3.60013 15.0525 3.7579 14.8552 3.97724 14.8306C4.19658 14.806 4.39447 14.9628 4.41951 15.1811C4.44423 15.3994 4.28646 15.5967 4.06708 15.6213Z" fill="#333333"/>
<path d="M18.2355 11.2596C18.2011 10.7887 17.5125 10.6178 17.058 10.6178C16.9808 10.6178 16.9086 10.6223 16.8436 10.6313C16.8156 10.6352 16.7871 10.6398 16.7584 10.6447C16.7482 10.6464 16.7379 10.6482 16.7276 10.6501C16.7052 10.6541 16.6827 10.6584 16.6599 10.6629C16.6479 10.6654 16.6359 10.6679 16.6238 10.6704C16.6031 10.6748 16.5823 10.6794 16.5612 10.6843C16.5457 10.6879 16.53 10.6916 16.5143 10.6954C16.4972 10.6996 16.48 10.7039 16.4627 10.7084C16.4418 10.7137 16.4208 10.7192 16.3997 10.725C16.388 10.7282 16.3763 10.7315 16.3646 10.7348C16.3368 10.7426 16.3088 10.7507 16.2806 10.7592C16.2761 10.7606 16.2716 10.7619 16.267 10.7632C15.329 11.0484 14.1845 11.6829 13.4762 12.2331C13.4592 12.2463 13.4429 12.2594 13.4264 12.2725C13.3784 12.3665 13.3172 12.4386 13.258 12.4918C13.0085 12.7162 12.6017 12.8007 12.1239 12.8007C11.3412 12.8008 10.368 12.5738 9.58446 12.3636C9.53356 12.3499 9.49004 12.3382 9.45508 12.3291C9.35723 12.3037 9.29856 12.2038 9.32403 12.1059C9.34946 12.0081 9.44934 11.9492 9.54723 11.9749C9.58297 11.9841 9.62739 11.9961 9.67938 12.01C10.0214 12.1018 10.7333 12.2929 11.4261 12.384C12.4388 12.5172 12.848 12.3682 13.0131 12.2197C13.0861 12.154 13.1295 12.0697 13.1439 11.9649C13.1442 11.963 13.1444 11.961 13.1446 11.9591C13.1468 11.9414 13.1482 11.923 13.1488 11.9041C13.1489 11.9007 13.1491 11.8975 13.1492 11.8941C13.1495 11.8747 13.1488 11.8544 13.1475 11.8337C13.1471 11.8281 13.1466 11.8223 13.1461 11.8165C13.1444 11.796 13.142 11.775 13.1387 11.7533C13.1385 11.7523 13.1384 11.7514 13.1383 11.7505C13.0002 10.8769 10.9177 10.3327 9.10574 10.1839C8.77031 10.1564 8.44414 10.1423 8.14137 10.1423C7.92285 10.1423 7.72625 10.1499 7.55696 10.1649C7.55606 10.165 7.5552 10.1648 7.55434 10.1649C7.44078 10.175 7.34082 10.1884 7.25707 10.2048C6.4291 10.3685 5.28317 11.0368 4.44641 11.5248C4.3902 11.5575 4.33528 11.5896 4.2818 11.6207C4.28559 11.6251 4.28949 11.63 4.29332 11.6346C4.30477 11.6482 4.31637 11.6622 4.32813 11.6765C4.3359 11.6861 4.34379 11.6959 4.35172 11.7057C4.36078 11.717 4.36992 11.7285 4.37918 11.7402C4.38852 11.752 4.39789 11.764 4.40739 11.7761C4.41856 11.7906 4.42985 11.8052 4.44121 11.8201C4.44813 11.8291 4.455 11.8382 4.46196 11.8474C4.47656 11.8667 4.49125 11.8864 4.50614 11.9065C4.51242 11.9151 4.51875 11.9237 4.52512 11.9324C4.53903 11.9513 4.55301 11.9706 4.56715 11.9902C4.57301 11.9983 4.57895 12.0065 4.58485 12.0148C4.59946 12.0352 4.61418 12.056 4.62899 12.077C4.63434 12.0846 4.63965 12.0921 4.64508 12.0998C4.66219 12.1242 4.67946 12.1491 4.6968 12.1742C4.70184 12.1815 4.70688 12.1889 4.71196 12.1963C4.73008 12.2227 4.74828 12.2493 4.7666 12.2764C4.76949 12.2807 4.77242 12.2851 4.77532 12.2894C4.79313 12.3157 4.81098 12.3424 4.82891 12.3694C4.83199 12.374 4.83508 12.3786 4.83817 12.3832C4.85754 12.4124 4.87696 12.442 4.89645 12.4718C4.9002 12.4775 4.90391 12.4832 4.90766 12.4889C4.92739 12.5191 4.94715 12.5496 4.96699 12.5804C4.96942 12.5841 4.9718 12.5878 4.97422 12.5916C4.99422 12.6227 5.01418 12.654 5.03426 12.6854C5.03543 12.6873 5.0366 12.6891 5.03778 12.691C5.05817 12.7232 5.0786 12.7556 5.09903 12.7881C5.10231 12.7934 5.10559 12.7986 5.10891 12.8039C5.12891 12.8358 5.14887 12.8679 5.16879 12.9001C5.17156 12.9045 5.1743 12.909 5.17707 12.9135C5.21821 12.98 5.25918 13.0471 5.29981 13.1143C5.30313 13.1198 5.30649 13.1253 5.30981 13.1309C5.32895 13.1626 5.34805 13.1943 5.36699 13.2261C5.37094 13.2327 5.37489 13.2393 5.37883 13.2459C5.39785 13.2778 5.4168 13.3097 5.43563 13.3415C5.43801 13.3456 5.44035 13.3496 5.44274 13.3536C5.45961 13.3822 5.47633 13.4107 5.49301 13.4392C5.49739 13.4467 5.50184 13.4543 5.50621 13.4618C5.52324 13.4909 5.54004 13.52 5.55676 13.5489C5.56246 13.5588 5.56817 13.5686 5.57387 13.5786C5.58989 13.6063 5.60578 13.634 5.62157 13.6616C5.62746 13.672 5.63328 13.6822 5.63918 13.6925C5.65074 13.7129 5.66219 13.7331 5.6736 13.7532C5.6811 13.7665 5.68856 13.7797 5.69602 13.7929C5.70879 13.8156 5.72145 13.8381 5.73399 13.8606C5.74141 13.8739 5.74879 13.8871 5.7561 13.9003C5.76891 13.9233 5.78156 13.9462 5.7941 13.9688C5.80223 13.9835 5.81016 13.998 5.81813 14.0125C5.82504 14.0251 5.83188 14.0376 5.83864 14.0501C5.85215 14.0748 5.86539 14.0992 5.87844 14.1234C5.88379 14.1333 5.88914 14.1432 5.89442 14.153C5.9225 14.2051 5.94953 14.2559 5.97543 14.3053C5.97864 14.3113 5.9818 14.3174 5.98496 14.3234C6.00004 14.3522 6.01465 14.3804 6.02891 14.408C6.03121 14.4124 6.03356 14.4169 6.03582 14.4214C6.06102 14.4704 6.08481 14.5175 6.10711 14.5625C6.10793 14.5642 6.10879 14.5659 6.10965 14.5676C6.12348 14.5955 6.13664 14.6225 6.14926 14.6486C6.1509 14.6521 6.15258 14.6555 6.15422 14.659C6.1591 14.6691 6.1643 14.6797 6.16899 14.6897C6.89141 14.4247 7.52973 14.2956 8.1159 14.2956C8.80188 14.2956 9.34914 14.4709 9.87844 14.6405C10.4333 14.8182 11.0072 15.0021 11.7763 15.0021C11.901 15.0021 12.0298 14.9972 12.1592 14.9875C12.8228 14.9383 14.3459 14.2801 15.7807 13.4225C17.5103 12.3884 18.26 11.5911 18.2355 11.2596Z" fill="#333333"/>
<path d="M8.39205 6.09274C8.67307 6.30571 9.0231 6.41368 9.43248 6.41368C9.43252 6.41368 9.43252 6.41368 9.43256 6.41368C9.7174 6.41368 10.0297 6.3602 10.3619 6.25571L11.8385 7.57563V8.45126C11.8385 8.55235 11.9204 8.63426 12.0215 8.63426C12.1226 8.63426 12.2046 8.55235 12.2046 8.45126V6.15825L13.5497 5.03731C13.5611 5.04219 13.5729 5.04633 13.5854 5.04879C13.8325 5.09778 14.0684 5.12262 14.2867 5.12262C14.8525 5.12262 15.3016 4.96118 15.6216 4.64278C16.0656 4.20118 16.2068 3.49981 16.03 2.61438C16.0154 2.5418 15.9587 2.48508 15.886 2.47071C15.6389 2.42172 15.4029 2.39688 15.1846 2.39688C14.6187 2.39688 14.1696 2.55837 13.8499 2.8768C13.4437 3.28079 13.2917 3.90227 13.4039 4.68239L12.2046 5.6818V3.27731C12.2046 3.17622 12.1226 3.09426 12.0215 3.09426C11.9204 3.09426 11.8385 3.17618 11.8385 3.27731V7.08469L10.5919 5.97044C10.6266 5.1152 10.392 4.47114 9.90932 4.10536C9.62818 3.89247 9.27818 3.7845 8.86904 3.7845C8.55471 3.7845 8.20736 3.84899 7.83666 3.97614C7.76658 4.00016 7.71791 4.06407 7.71338 4.13801C7.65783 5.03879 7.89256 5.71477 8.39205 6.09274ZM14.0266 4.74391C14.0389 4.74505 14.051 4.7459 14.0632 4.74692C14.051 4.74594 14.0389 4.74508 14.0266 4.74391ZM15.6932 2.80762C15.7788 3.32204 15.7759 3.97294 15.3634 4.38329C15.1144 4.63094 14.7522 4.75657 14.2867 4.75657C14.2867 4.75657 14.2866 4.75657 14.2865 4.75657C14.752 4.75653 15.1142 4.6309 15.3631 4.38329C15.7756 3.97294 15.7786 3.32208 15.6929 2.80762C15.5138 2.7779 15.3432 2.76294 15.1843 2.76294C15.1844 2.76294 15.1845 2.76294 15.1846 2.76294C15.3434 2.76294 15.514 2.77794 15.6932 2.80762ZM14.0972 3.14762C14.0842 3.1609 14.0716 3.1745 14.0594 3.18825C14.0716 3.17446 14.0842 3.1609 14.0972 3.14762ZM14.0406 3.20993C14.0267 3.22633 14.0135 3.24301 14.0008 3.26008C14.0135 3.24301 14.0268 3.22633 14.0406 3.20993ZM13.8976 3.42665C13.8906 3.4404 13.8839 3.45426 13.8774 3.46821C13.8839 3.45422 13.8906 3.44036 13.8976 3.42665ZM13.8035 3.66665C13.8002 3.67782 13.7971 3.68899 13.7942 3.70016C13.7971 3.68895 13.8002 3.67778 13.8035 3.66665ZM13.7806 3.75493C13.7781 3.76633 13.7755 3.77774 13.7731 3.78922C13.7755 3.77778 13.7781 3.76637 13.7806 3.75493ZM13.751 3.92247C13.7498 3.93165 13.7486 3.94083 13.7476 3.95008C13.7487 3.94083 13.7498 3.93165 13.751 3.92247ZM13.7406 4.02274C13.74 4.02989 13.7394 4.037 13.7388 4.04415C13.7394 4.03704 13.74 4.02993 13.7406 4.02274ZM13.7363 4.0886C13.7359 4.0959 13.7356 4.10321 13.7354 4.11051C13.7357 4.10321 13.736 4.0959 13.7363 4.0886ZM13.7376 4.3538C13.7378 4.35723 13.738 4.36071 13.7383 4.36415C13.738 4.36067 13.7378 4.35719 13.7376 4.3538ZM13.7407 4.40141L14.3033 3.93254C14.3422 3.90012 14.3904 3.88657 14.4371 3.89083C14.3906 3.88669 14.3424 3.90024 14.3037 3.93254L13.7407 4.40169C13.7407 4.40157 13.7407 4.40149 13.7407 4.40141ZM9.43252 6.04762C9.43248 6.04762 9.43248 6.04762 9.43248 6.04762C9.43287 6.04762 9.4333 6.04758 9.43373 6.04758C9.43338 6.04758 9.43299 6.04762 9.4326 6.04762H9.43252ZM9.96572 5.98387C9.98978 5.97852 10.014 5.9729 10.0384 5.96684L9.47803 5.46594C9.40264 5.3986 9.39619 5.28286 9.46353 5.20751C9.49725 5.16977 9.54314 5.1493 9.58998 5.14672C9.54322 5.14938 9.49748 5.16981 9.46385 5.20751C9.39646 5.28286 9.40295 5.3986 9.47834 5.46594L10.0387 5.96684C10.0142 5.97294 9.9899 5.97844 9.96572 5.98387ZM9.51443 6.04575C9.52463 6.04532 9.53494 6.04469 9.54521 6.04411C9.53494 6.04469 9.52459 6.04536 9.51443 6.04575ZM9.59744 6.04063C9.61033 6.03965 9.62322 6.03856 9.63623 6.03731C9.62322 6.03856 9.61029 6.03962 9.59744 6.04063ZM9.68006 6.03255C9.74096 6.02551 9.80314 6.01614 9.86666 6.00419C9.80318 6.0161 9.74096 6.02555 9.68006 6.03255ZM9.88365 6.00102C9.90642 5.99657 9.92935 5.99188 9.95244 5.9868C9.92935 5.99184 9.90642 5.99661 9.88365 6.00102ZM10.2257 5.64309L10.2253 5.64278C10.205 5.24255 10.1047 4.81419 9.82205 4.51719C10.105 4.81426 10.2054 5.24266 10.2257 5.64309ZM9.82025 4.51524C9.80064 4.49473 9.78014 4.47485 9.75869 4.45567C9.78014 4.47485 9.8006 4.49473 9.82025 4.51524ZM9.68826 4.39715C9.71162 4.41485 9.73381 4.43352 9.75533 4.45262C9.73377 4.43348 9.71139 4.41489 9.68795 4.39715C9.47193 4.23356 9.19635 4.15055 8.86885 4.15055C8.86889 4.15055 8.86896 4.15055 8.869 4.15055C9.19658 4.15055 9.47221 4.23352 9.68826 4.39715Z" fill="#333333"/>
</svg>
