<svg width="16" height="16" viewBox="0 0 16 16" fill="none" xmlns="http://www.w3.org/2000/svg">
<path d="M8.32704 11.91L10.9036 9.33343H4.1685C3.34048 9.33343 2.66925 10.0046 2.66925 10.8327V11.446C2.66925 11.8274 2.78818 12.1992 3.00949 12.5098C3.93466 13.8083 5.38932 14.5171 7.33324 14.646C7.33051 14.5242 7.34398 14.3988 7.37571 14.2718L7.68084 13.0514C7.78884 12.6194 8.01218 12.2248 8.32704 11.91ZM8.00024 1.33655C9.84118 1.33655 11.3336 2.82893 11.3336 4.66988C11.3336 6.51083 9.84118 8.00323 8.00024 8.00323C6.15927 8.00323 4.66688 6.51083 4.66688 4.66988C4.66688 2.82893 6.15927 1.33655 8.00024 1.33655ZM12.7332 8.44629L8.79824 12.3812C8.56884 12.6106 8.40611 12.8981 8.32738 13.2129L8.02224 14.4334C7.88958 14.9641 8.37038 15.4449 8.90111 15.3122L10.1216 15.007C10.4363 14.9284 10.7238 14.7656 10.9532 14.5362L14.8882 10.6012C15.4832 10.0062 15.4832 9.04136 14.8882 8.44629C14.2931 7.85116 13.3283 7.85116 12.7332 8.44629Z" fill="#3396F9"/>
</svg>
