<svg width="20" height="20" viewBox="0 0 20 20" fill="none" xmlns="http://www.w3.org/2000/svg">
<g clip-path="url(#clip0_325_2052)">
<path d="M10.2083 14.1667C6.64167 14.1667 3.75 12.5642 3.75 9.99999V5.83333H16.6667V9.99999C16.6667 12.1546 13.775 14.1667 10.2083 14.1667Z" fill="#203442"/>
<path d="M19.2378 4.16299L11.3749 0.318411C10.9467 0.109232 10.4765 0.00050354 9.99992 0.00050354C9.52337 0.00050354 9.05311 0.109232 8.62492 0.318411L0.762003 4.16299C0.528175 4.27722 0.33208 4.45621 0.197048 4.67867C0.0620151 4.90113 -0.00627107 5.1577 0.000312856 5.41785C0.00689678 5.67801 0.0880737 5.93079 0.234186 6.14614C0.380299 6.36149 0.585196 6.53033 0.824503 6.63258L1.87492 7.08341L8.76784 10.033C9.15723 10.1996 9.57638 10.2855 9.99992 10.2855C10.4235 10.2855 10.8426 10.1996 11.232 10.033L18.1249 7.08341L19.1753 6.63424C19.4151 6.53221 19.6205 6.36336 19.7669 6.14784C19.9134 5.93232 19.9948 5.67921 20.0013 5.41872C20.0079 5.15823 19.9395 4.90133 19.8041 4.67868C19.6687 4.45603 19.4721 4.27702 19.2378 4.16299Z" fill="#4C5665"/>
<path d="M16.6666 15.8333C16.5561 15.8333 16.4501 15.7894 16.372 15.7113C16.2939 15.6332 16.25 15.5272 16.25 15.4167V8.06708L10.3825 5.05833C10.2841 5.00783 10.2098 4.92032 10.176 4.81507C10.1422 4.70981 10.1515 4.59543 10.202 4.49708C10.2525 4.39873 10.34 4.32447 10.4453 4.29063C10.5506 4.2568 10.6649 4.26616 10.7633 4.31666L17.0833 7.55791V15.4167C17.0833 15.5272 17.0394 15.6332 16.9612 15.7113C16.8831 15.7894 16.7771 15.8333 16.6666 15.8333Z" fill="#ECF0F1"/>
<path d="M10.2083 5.83333C11.2438 5.83333 12.0833 5.27368 12.0833 4.58333C12.0833 3.89297 11.2438 3.33333 10.2083 3.33333C9.17278 3.33333 8.33331 3.89297 8.33331 4.58333C8.33331 5.27368 9.17278 5.83333 10.2083 5.83333Z" fill="#203442"/>
<path d="M16.6667 17.9167C17.5871 17.9167 18.3333 17.1705 18.3333 16.25C18.3333 15.3295 17.5871 14.5833 16.6667 14.5833C15.7462 14.5833 15 15.3295 15 16.25C15 17.1705 15.7462 17.9167 16.6667 17.9167Z" fill="#FACE53"/>
</g>
<defs>
<clipPath id="clip0_325_2052">
<rect width="20" height="20" fill="white"/>
</clipPath>
</defs>
</svg>
