<svg width="16" height="16" viewBox="0 0 16 16" fill="none" xmlns="http://www.w3.org/2000/svg">
<path d="M8 0C5.87826 0 3.84343 0.836898 2.34314 2.32659C0.842854 3.81627 0 5.83673 0 7.94346C0 10.0502 0.842854 12.0707 2.34314 13.5603C3.84343 15.05 5.87826 15.8869 8 15.8869C8.26521 15.8869 8.51957 15.7823 8.7071 15.5961C8.89464 15.4099 9 15.1573 9 14.894C9 14.6307 8.89464 14.3781 8.7071 14.1919C8.51957 14.0057 8.26521 13.9011 8 13.9011C6.81331 13.9011 5.65327 13.5517 4.66658 12.897C3.67988 12.2424 2.91085 11.3119 2.45672 10.2233C2.0026 9.13473 1.88378 7.93685 2.11529 6.78119C2.3468 5.62553 2.91824 4.56399 3.75736 3.73081C4.59647 2.89762 5.66557 2.33021 6.82945 2.10034C7.99334 1.87046 9.19974 1.98844 10.2961 2.43936C11.3925 2.89028 12.3295 3.65388 12.9888 4.6336C13.6481 5.61332 14 6.76516 14 7.94346V10.9223C14 11.1856 13.8946 11.4382 13.7071 11.6244C13.5196 11.8106 13.2652 11.9152 13 11.9152C12.7348 11.9152 12.4804 11.8106 12.2929 11.6244C12.1054 11.4382 12 11.1856 12 10.9223V7.94346C12 7.15793 11.7654 6.39003 11.3259 5.73689C10.8863 5.08374 10.2616 4.57467 9.53073 4.27406C8.79982 3.97345 7.99556 3.8948 7.21964 4.04805C6.44371 4.2013 5.73098 4.57957 5.17157 5.13502C4.61216 5.69048 4.2312 6.39818 4.07686 7.16862C3.92252 7.93906 4.00173 8.73764 4.30448 9.46338C4.60723 10.1891 5.11992 10.8094 5.77772 11.2458C6.43551 11.6823 7.20887 11.9152 8 11.9152C8.72093 11.9117 9.42719 11.7127 10.0425 11.3396C10.1472 12.0856 10.5333 12.7642 11.1227 13.2384C11.7121 13.7125 12.4609 13.9468 13.2175 13.8938C13.9742 13.8408 14.6824 13.5044 15.1989 12.9528C15.7154 12.4012 16.0018 11.6755 16 10.9223V7.94346C15.9979 5.83736 15.1544 3.81812 13.6545 2.32888C12.1547 0.839642 10.1211 0.0020767 8 0V0ZM8 9.92933C7.60443 9.92933 7.21775 9.81286 6.88886 9.59465C6.55996 9.37644 6.30361 9.06629 6.15224 8.70342C6.00086 8.34055 5.96126 7.94126 6.03843 7.55604C6.1156 7.17082 6.30608 6.81697 6.58578 6.53924C6.86549 6.26152 7.22185 6.07238 7.60982 5.99575C7.99778 5.91913 8.39991 5.95846 8.76536 6.10876C9.13081 6.25907 9.44317 6.5136 9.66293 6.84017C9.8827 7.16675 10 7.5507 10 7.94346C9.99964 8.47004 9.78881 8.97494 9.41381 9.34729C9.03882 9.71964 8.53032 9.92897 8 9.92933Z" fill="black"/>
</svg>
