<svg width="250" height="250" viewBox="0 0 250 250" fill="none" xmlns="http://www.w3.org/2000/svg">
<path d="M126.87 238.805C191.844 238.805 244.515 208.394 244.515 170.88C244.515 133.366 191.844 102.955 126.87 102.955C61.8964 102.955 9.22498 133.366 9.22498 170.88C9.22498 208.394 61.8964 238.805 126.87 238.805Z" fill="#F5F5F5"/>
<path d="M204.44 204.19C222.873 204.19 237.815 195.562 237.815 184.92C237.815 174.277 222.873 165.65 204.44 165.65C186.007 165.65 171.065 174.277 171.065 184.92C171.065 195.562 186.007 204.19 204.44 204.19Z" fill="#E0E0E0"/>
<path d="M119.975 195.315L82.325 173.57L125.36 148.725L163.015 170.465L119.975 195.315Z" fill="#E0E0E0"/>
<path d="M17.455 188.59L66.015 216.625L106.745 193.115L58.185 165.08L17.455 188.59Z" fill="#E0E0E0"/>
<path d="M89.26 56.8152V54.0552C89.2393 53.8957 89.1777 53.7443 89.0814 53.6155C88.985 53.4868 88.8571 53.385 88.71 53.3202L72.045 43.7602C71.6478 43.5605 71.2095 43.4565 70.765 43.4565C70.3205 43.4565 69.8821 43.5605 69.485 43.7602L21.59 71.2602C21.4428 71.325 21.3149 71.4268 21.2186 71.5555C21.1222 71.6843 21.0607 71.8357 21.04 71.9952V74.7551C21.0602 74.9148 21.1216 75.0664 21.218 75.1952C21.3144 75.3241 21.4426 75.4257 21.59 75.4902L38.25 85.0352C38.6471 85.2348 39.0855 85.3388 39.53 85.3388C39.9745 85.3388 40.4128 85.2348 40.81 85.0352L88.705 57.5352C88.8524 57.4707 88.9806 57.3691 89.077 57.2402C89.1734 57.1114 89.2347 56.9598 89.255 56.8002L89.26 56.8152Z" fill="#F0F0F0"/>
<path d="M21.59 72.7151L38.25 82.2752C38.6464 82.4771 39.085 82.5824 39.53 82.5824C39.9749 82.5824 40.4135 82.4771 40.81 82.2752L88.705 54.7752C89.41 54.3702 89.41 53.7152 88.705 53.3052L72.045 43.7602C71.6478 43.5605 71.2095 43.4565 70.765 43.4565C70.3205 43.4565 69.8821 43.5605 69.485 43.7602L21.59 71.2602C20.885 71.6552 20.885 72.3101 21.59 72.7151Z" fill="#FAFAFA"/>
<path d="M39.53 82.5851V85.3401C39.0846 85.3466 38.6446 85.2417 38.25 85.0351L21.59 75.5001C21.4426 75.4356 21.3144 75.334 21.218 75.2052C21.1216 75.0763 21.0602 74.9247 21.04 74.7651V72.0001C21.0498 71.8883 21.0857 71.7804 21.145 71.6851C20.95 72.0401 21.095 72.4501 21.59 72.7351L38.25 82.2801C38.6435 82.4896 39.0842 82.5946 39.53 82.5851Z" fill="#E0E0E0"/>
<path d="M48.48 59.2654L62.595 67.3104L85.91 53.9304L71.8 45.8804L48.48 59.2654Z" fill="#E0E0E0"/>
<path d="M62.755 66.7005L49.14 58.8855C49.4938 57.7311 49.4675 56.4937 49.065 55.3555L62.595 63.0855C62.595 63.0855 62.855 63.9405 62.755 66.7005Z" fill="white"/>
<path d="M61.9 62.0003C62.28 62.2458 62.5966 62.5775 62.8243 62.9685C63.0519 63.3594 63.184 63.7986 63.21 64.2503V66.8803C63.21 67.7103 62.62 68.0453 61.9 67.6353L48.5 59.9153V59.2653L61.74 66.8153C62.175 67.0653 62.525 66.8603 62.525 66.3653V63.9253C62.5099 63.6543 62.4309 63.3907 62.2945 63.156C62.1581 62.9214 61.9681 62.7224 61.74 62.5753L48.5 55.0003V54.2603L61.9 62.0003Z" fill="#EBEBEB"/>
<path d="M48.5 54.2854L71.8 40.9004L85.215 48.6004C85.5959 48.8461 85.9132 49.1785 86.1409 49.5705C86.3686 49.9625 86.5002 50.4028 86.525 50.8554V53.5004C86.5427 53.6621 86.5163 53.8257 86.4485 53.9736C86.3807 54.1215 86.2741 54.2483 86.14 54.3404L62.825 67.7254C62.9566 67.6312 63.0611 67.5039 63.1278 67.3564C63.1945 67.2089 63.2211 67.0465 63.205 66.8854V64.2504C63.1806 63.7984 63.0492 63.3586 62.8214 62.9674C62.5936 62.5762 62.2761 62.2447 61.895 62.0004L48.5 54.2854Z" fill="#FAFAFA"/>
<path d="M62.825 62.9552C63.0627 63.341 63.1954 63.7823 63.21 64.2352V66.8702C63.2261 67.0313 63.1995 67.1937 63.1328 67.3412C63.0661 67.4887 62.9616 67.616 62.83 67.7102L86.145 54.3252C86.2791 54.2331 86.3857 54.1063 86.4535 53.9584C86.5213 53.8105 86.5477 53.6469 86.53 53.4852V50.8552C86.5154 50.4023 86.3827 49.961 86.145 49.5752L62.825 62.9552Z" fill="#F0F0F0"/>
<path d="M34.13 39.2402L33.995 41.0202L49.755 49.4752L50.11 48.4352L34.13 39.2402Z" fill="#EBEBEB"/>
<path d="M49.9 48.85L34.635 40.04L31.98 41.57L47.545 50.675L49.9 48.85Z" fill="white"/>
<path d="M44.68 49.73L43.18 67.42C43.1874 67.6197 43.2425 67.8147 43.3408 67.9887C43.4391 68.1627 43.5777 68.3106 43.745 68.42L52.6 73.545C52.7413 73.6231 52.8987 73.6676 53.06 73.675L47.56 51.27C47.3996 51.2612 47.2428 51.2186 47.1 51.145L46.465 50.775L44.68 49.73Z" fill="#E0E0E0"/>
<path d="M48.22 51.125L49.8 49.77L50.955 48.77C51.075 48.58 51.215 48.44 51.14 48.27L56.57 70.51C56.645 70.665 56.665 71.01 56.45 71.14L53.715 73.48C53.508 73.5897 53.2729 73.6349 53.04 73.61L47.54 51.205C47.7696 51.2447 48.0058 51.2169 48.22 51.125Z" fill="#F0F0F0"/>
<path d="M50.96 48.1252C51.27 48.3052 51.195 48.5052 50.96 48.7752L48.22 51.1202C48.0456 51.2113 47.8517 51.2589 47.655 51.2589C47.4582 51.2589 47.2644 51.2113 47.09 51.1202L44.68 49.7302C44.365 49.5502 44.31 49.2902 44.555 49.1502C44.716 49.0849 44.8898 49.0572 45.0631 49.0694C45.2364 49.0815 45.4046 49.1331 45.555 49.2202L47.455 50.3202C47.5131 50.3496 47.5773 50.3649 47.6425 50.3649C47.7076 50.3649 47.7719 50.3496 47.83 50.3202L49.83 48.5802C49.935 48.5202 49.935 48.4252 49.83 48.3652L34.13 39.2402L34.88 38.8052L50.96 48.1252Z" fill="#FAFAFA"/>
<path d="M29.58 40.0952L44.595 48.7652V77.3352L29.58 68.6602V40.0952Z" fill="#EBEBEB"/>
<path d="M44.1099 49.2399L29.5799 40.8999C28.6913 41.8421 27.5275 42.4791 26.2549 42.7199L40.6649 51.0249C40.6649 51.0249 41.5949 50.8049 44.1099 49.2399Z" fill="white"/>
<path d="M39.2699 51.0001C39.703 51.217 40.1806 51.3299 40.6649 51.3299C41.1493 51.3299 41.6269 51.217 42.0599 51.0001L44.4999 49.5701C45.2699 49.1251 45.2699 48.4101 44.4999 47.9651L30.1849 39.7451L29.5799 40.0951L43.6649 48.2301C43.7688 48.2604 43.86 48.3236 43.9249 48.4101C43.9899 48.4967 44.0249 48.6019 44.0249 48.7101C44.0249 48.8183 43.9899 48.9236 43.9249 49.0101C43.86 49.0967 43.7688 49.1598 43.6649 49.1901L41.3899 50.5001C41.1301 50.6307 40.8433 50.6987 40.5524 50.6987C40.2616 50.6987 39.9748 50.6307 39.7149 50.5001L25.6349 42.3601L24.9449 42.7551L39.2699 51.0001Z" fill="#FAFAFA"/>
<path d="M24.95 42.7549V71.3199L39.27 79.5399C39.703 79.7568 40.1806 79.8697 40.665 79.8697C41.1493 79.8697 41.6269 79.7568 42.06 79.5399L44.5099 78.1349C44.6692 78.0646 44.8066 77.9528 44.9078 77.8112C45.009 77.6696 45.0701 77.5033 45.0849 77.3299V48.7649C45.0694 48.9388 45.0068 49.1052 44.9037 49.2462C44.8006 49.3872 44.661 49.4974 44.5 49.5649L42.06 50.9999C41.6269 51.2168 41.1493 51.3297 40.665 51.3297C40.1806 51.3297 39.703 51.2168 39.27 50.9999L24.95 42.7549Z" fill="#EBEBEB"/>
<path d="M40.6649 51.3051C41.1503 51.3147 41.6303 51.2012 42.0599 50.9751L44.4999 49.5651C44.6591 49.4962 44.7966 49.3854 44.8979 49.2445C44.9991 49.1037 45.0603 48.938 45.0749 48.7651V77.3301C45.0601 77.5036 44.9989 77.6698 44.8978 77.8114C44.7966 77.9531 44.6592 78.0649 44.4999 78.1351L42.0499 79.5401C41.6203 79.7662 41.1403 79.8797 40.6549 79.8701L40.6649 51.3051Z" fill="#F0F0F0"/>
<path d="M161.285 155C161.21 153.735 161.04 152.22 160.835 150.46C160.07 143.78 159.025 134.63 161.795 125.865C163.48 120.53 167.54 114.205 173.88 112.45C175.29 112.06 178.7 111.485 180.01 114.51C180.194 114.947 180.304 115.412 180.335 115.885C180.47 117.805 179.605 119.5 178.645 121.045C177.54 122.84 176.26 124.545 175.02 126.205C173.85 127.775 172.635 129.395 171.575 131.075C170.43 132.9 169.427 134.811 168.575 136.79L168.17 136.615C169.021 134.616 170.024 132.685 171.17 130.84C172.235 129.145 173.455 127.515 174.635 125.94C175.865 124.29 177.135 122.59 178.235 120.815C179.155 119.315 179.985 117.71 179.86 115.915C179.833 115.492 179.735 115.076 179.57 114.685C178.4 111.98 175.26 112.52 173.965 112.875C167.795 114.585 163.83 120.775 162.18 125.995C159.44 134.675 160.48 143.77 161.24 150.41C161.44 152.175 161.615 153.7 161.69 154.975L161.285 155Z" fill="#BA68C8"/>
<path d="M161.735 162.27C161.702 162.275 161.668 162.275 161.635 162.27C161.539 162.251 161.449 162.21 161.371 162.151C161.294 162.091 161.232 162.013 161.19 161.925C161.103 161.678 161.103 161.408 161.19 161.16C161.26 160.681 161.26 160.194 161.19 159.715C161.19 159.445 161.145 159.16 161.145 158.905V155.8C161.544 150.222 163.179 144.803 165.93 139.935C168.37 135.69 171.07 132.865 174.43 131.035C176.241 130.04 178.228 129.403 180.28 129.16C182.092 128.96 183.913 129.441 185.39 130.51C186.915 131.715 187.6 133.78 187.025 135.415C186.62 136.56 185.695 137.415 184.75 138.19C183.065 139.565 181.225 140.795 179.45 141.985C177.975 142.985 176.45 143.985 175.025 145.085C170.665 148.45 167.008 152.637 164.26 157.41C163.81 158.185 163.385 158.985 162.995 159.785L162.835 160.1C162.679 160.386 162.542 160.681 162.425 160.985C162.4 161.05 162.375 161.185 162.34 161.34C162.315 161.625 162.224 161.901 162.075 162.145C161.981 162.228 161.86 162.272 161.735 162.27ZM181 129.575C180.775 129.575 180.55 129.575 180.32 129.605C178.328 129.837 176.401 130.456 174.645 131.425C171.365 133.21 168.72 135.985 166.32 140.155C163.606 144.963 161.992 150.313 161.595 155.82V158.895C161.595 159.135 161.595 159.395 161.64 159.67C161.72 160.194 161.72 160.727 161.64 161.25C161.586 161.412 161.586 161.588 161.64 161.75C161.653 161.775 161.671 161.798 161.694 161.815C161.716 161.832 161.742 161.844 161.77 161.85C161.859 161.665 161.92 161.468 161.95 161.265C161.974 161.126 162.007 160.989 162.05 160.855C162.172 160.534 162.316 160.222 162.48 159.92L162.635 159.61C163.035 158.8 163.465 157.995 163.915 157.21C164.85 155.592 165.887 154.036 167.02 152.55C169.26 149.623 171.874 147.003 174.795 144.755C176.235 143.655 177.765 142.63 179.245 141.64C181.015 140.455 182.84 139.23 184.515 137.87C185.405 137.145 186.28 136.33 186.65 135.29C187.15 133.825 186.535 131.97 185.15 130.875C183.954 129.984 182.491 129.525 181 129.575Z" fill="#BA68C8"/>
<path d="M161.36 158H161.305C161.277 157.994 161.25 157.981 161.227 157.965C161.203 157.948 161.184 157.926 161.169 157.901C161.154 157.877 161.144 157.849 161.14 157.821C161.136 157.792 161.138 157.763 161.145 157.735C165.27 141.285 176.675 133.945 182.765 132.2C182.821 132.184 182.88 132.192 182.931 132.22C182.981 132.248 183.019 132.294 183.035 132.35C183.051 132.406 183.044 132.466 183.016 132.518C182.988 132.569 182.941 132.608 182.885 132.625C176.885 134.34 165.65 141.585 161.575 157.84C161.561 157.886 161.533 157.927 161.494 157.955C161.455 157.984 161.408 158 161.36 158Z" fill="#BA68C8"/>
<path d="M161.335 144.5C161.276 144.495 161.222 144.467 161.183 144.422C161.145 144.377 161.126 144.319 161.13 144.26C162.445 126.495 174.065 116.76 175.385 115.715C175.407 115.696 175.433 115.682 175.461 115.674C175.489 115.665 175.519 115.663 175.548 115.666C175.577 115.669 175.605 115.678 175.63 115.693C175.655 115.707 175.677 115.727 175.695 115.75C175.713 115.773 175.727 115.799 175.735 115.826C175.743 115.854 175.745 115.883 175.742 115.912C175.739 115.941 175.73 115.969 175.716 115.994C175.702 116.02 175.683 116.042 175.66 116.06C174.355 117.095 162.87 126.715 161.575 144.295C161.569 144.353 161.54 144.407 161.496 144.445C161.451 144.483 161.394 144.503 161.335 144.5Z" fill="#BA68C8"/>
<path d="M159.95 82.5448L132.145 66.4998C131.93 66.3454 131.678 66.2507 131.415 66.2252C131.151 66.1998 130.886 66.2445 130.645 66.3548L128.645 67.5098C128.425 67.6629 128.25 67.8721 128.139 68.1156C128.027 68.3592 127.982 68.6282 128.01 68.8948V145C128.051 145.741 128.266 146.463 128.638 147.106C129.01 147.748 129.528 148.295 130.15 148.7L157.95 164.725C158.165 164.88 158.416 164.976 158.68 165.002C158.943 165.028 159.209 164.984 159.45 164.875L161.45 163.715C161.667 163.561 161.84 163.352 161.95 163.109C162.059 162.867 162.103 162.6 162.075 162.335V86.2448C162.036 85.5045 161.824 84.7838 161.454 84.1409C161.085 83.4981 160.57 82.9513 159.95 82.5448Z" fill="#263238"/>
<path d="M134 146.305L132 147.46V153.79C132.01 153.976 132.064 154.156 132.157 154.317C132.25 154.477 132.379 154.614 132.535 154.715L133.47 155.255C133.636 155.339 133.819 155.383 134.005 155.383C134.191 155.383 134.374 155.339 134.54 155.255L135.475 154.715C135.807 154.501 136.064 154.188 136.21 153.82L138.015 148.62L134 146.305Z" fill="#263238"/>
<path d="M132 153.79C132.01 153.975 132.064 154.156 132.157 154.316C132.25 154.477 132.379 154.614 132.535 154.715L133.47 155.255C133.535 155.294 133.607 155.318 133.682 155.325C133.758 155.332 133.833 155.322 133.904 155.296C133.975 155.269 134.039 155.227 134.091 155.172C134.143 155.118 134.182 155.052 134.205 154.98L136 149.775L132 147.46V153.79Z" fill="#37474F"/>
<path d="M154.06 157.85L152.06 159.01V165.335C152.069 165.521 152.122 165.702 152.214 165.863C152.306 166.025 152.435 166.163 152.59 166.265L153.53 166.805C153.695 166.889 153.877 166.933 154.062 166.933C154.248 166.933 154.43 166.889 154.595 166.805L155.535 166.265C155.867 166.051 156.124 165.738 156.27 165.37L158.07 160.165L154.06 157.85Z" fill="#263238"/>
<path d="M152.06 165.335C152.069 165.521 152.122 165.701 152.214 165.863C152.306 166.025 152.435 166.162 152.59 166.265L153.53 166.805C153.595 166.844 153.667 166.868 153.742 166.875C153.818 166.882 153.893 166.872 153.964 166.845C154.035 166.819 154.099 166.777 154.151 166.722C154.203 166.667 154.242 166.602 154.265 166.53L156.07 161.325L152.07 159.01L152.06 165.335Z" fill="#37474F"/>
<path d="M130.28 67.7151L158.08 83.7151C158.702 84.1213 159.221 84.6684 159.592 85.3121C159.964 85.9557 160.179 86.6779 160.22 87.4201V163.525C160.273 163.792 160.241 164.07 160.128 164.318C160.016 164.566 159.828 164.772 159.592 164.909C159.356 165.045 159.083 165.104 158.812 165.077C158.541 165.05 158.285 164.94 158.08 164.76L130.28 148.73C129.658 148.325 129.141 147.778 128.77 147.135C128.399 146.493 128.185 145.771 128.145 145.03V68.9451C128.092 68.6782 128.123 68.4013 128.235 68.1534C128.348 67.9055 128.535 67.6991 128.771 67.5632C129.007 67.4274 129.279 67.3689 129.55 67.3962C129.821 67.4234 130.076 67.535 130.28 67.7151Z" fill="#37474F"/>
<path d="M89.91 171.74L119.98 189.1L162.08 164.795L160.075 163.635L130.005 146.275L89.91 169.425V171.74Z" fill="#455A64"/>
<path d="M119.98 189.1V186.785L162.08 162.48V164.795L119.98 189.1Z" fill="#263238"/>
<path d="M120.17 185.73L119.865 185.525C125.2 177.45 125.165 163.5 124.73 160C124.695 159.765 124.67 159.62 124.665 159.565L125.03 159.505C125.03 159.615 125.07 159.745 125.09 159.9C125.48 162.375 127.685 175.82 130.295 179.9L129.985 180.1C127.92 176.895 126.155 168.245 125.27 163.255C125.325 168.92 124.5 179.215 120.17 185.73Z" fill="#FAFAFA"/>
<path d="M137.73 173.4C137.275 173.265 126.645 170.045 125.665 165.355L126.03 165.28C126.96 169.755 137.725 173.015 137.835 173.05L137.73 173.4Z" fill="#FAFAFA"/>
<path d="M127 171.5L126.73 170.355C126.693 170.144 126.586 169.953 126.426 169.811C126.266 169.67 126.063 169.586 125.85 169.575C125.674 169.549 125.494 169.578 125.335 169.657C125.176 169.737 125.045 169.863 124.96 170.02L124.615 169.875C124.731 169.646 124.915 169.459 125.141 169.339C125.368 169.219 125.626 169.172 125.88 169.205C126.064 169.216 126.243 169.267 126.406 169.353C126.569 169.439 126.712 169.559 126.825 169.705C126.885 169.231 127.127 168.799 127.5 168.5C127.641 168.426 127.799 168.39 127.959 168.395C128.118 168.4 128.274 168.447 128.41 168.53L128.245 168.86C128.162 168.806 128.066 168.775 127.967 168.769C127.868 168.763 127.769 168.782 127.68 168.825C127.255 169.065 127.09 169.99 127.065 170.325L127 171.5Z" fill="#FAFAFA"/>
<path d="M128.045 175.315L127.715 174.275C127.34 173.1 126.715 172.425 125.975 172.38C125.666 172.374 125.362 172.458 125.1 172.623C124.838 172.787 124.629 173.024 124.5 173.305L124.165 173.145C124.323 172.794 124.582 172.498 124.909 172.294C125.235 172.09 125.615 171.988 126 172C126.445 172.025 127.21 172.265 127.78 173.425C127.905 172.51 128.28 171.04 129.245 170.425C129.591 170.235 129.981 170.138 130.376 170.142C130.771 170.147 131.158 170.253 131.5 170.45L131.345 170.785C131.059 170.616 130.733 170.523 130.401 170.515C130.068 170.507 129.739 170.584 129.445 170.74C128.16 171.54 128.075 174.185 128.075 174.215L128.045 175.315Z" fill="#FAFAFA"/>
<path d="M123.53 177.855L123.2 177.685C123.94 176.26 125.565 175.235 126.975 175.305C127.274 175.308 127.569 175.379 127.837 175.511C128.105 175.644 128.34 175.835 128.525 176.07C128.661 175.35 128.941 174.666 129.348 174.058C129.755 173.449 130.282 172.93 130.895 172.53C131.553 172.093 132.313 171.832 133.101 171.773C133.889 171.715 134.679 171.86 135.395 172.195L135.25 172.53C134.591 172.225 133.864 172.093 133.14 172.147C132.415 172.201 131.717 172.44 131.11 172.84C130.461 173.26 129.92 173.826 129.53 174.493C129.139 175.16 128.91 175.909 128.86 176.68V177.625L128.51 176.745C128.394 176.432 128.185 176.162 127.912 175.971C127.639 175.78 127.314 175.676 126.98 175.675C125.685 175.61 124.21 176.55 123.53 177.855Z" fill="#FAFAFA"/>
<path d="M121.5 183.375L121.175 183.195C121.625 182.375 124.02 178.255 126.855 177.51C127.255 177.395 127.675 177.367 128.087 177.426C128.499 177.486 128.894 177.632 129.245 177.855L129.055 178.17C128.745 177.974 128.398 177.846 128.035 177.793C127.672 177.741 127.303 177.765 126.95 177.865C124.87 178.415 122.72 181.175 121.5 183.375Z" fill="#FAFAFA"/>
<path d="M158.07 139.33V141.645L119.98 163.635L89.91 146.275V143.96L128 121.97L158.07 139.33Z" fill="#263238"/>
<path d="M158.07 139.33L119.98 161.32L89.91 143.96L128 121.97L158.07 139.33Z" fill="#455A64"/>
<path d="M158.07 113.87V116.18L119.98 138.175L89.91 120.81V118.5L128 96.5049L158.07 113.87Z" fill="#263238"/>
<path d="M158.07 113.87L119.98 135.86L89.91 118.5L128 96.5049L158.07 113.87Z" fill="#455A64"/>
<path d="M119.85 105.665L92.05 89.64C91.8354 89.4849 91.5836 89.3893 91.3202 89.3629C91.0567 89.3366 90.791 89.3804 90.55 89.49C90.19 89.695 88.91 90.44 88.55 90.645C88.331 90.7987 88.1571 91.0082 88.0463 91.2517C87.9356 91.4953 87.8919 91.764 87.92 92.03V168.115C87.9608 168.857 88.1759 169.578 88.5477 170.221C88.9195 170.864 89.4376 171.41 90.06 171.815L117.86 187.845C118.075 188 118.326 188.096 118.59 188.122C118.853 188.148 119.119 188.105 119.36 187.995C119.72 187.785 121.01 187.045 121.36 186.83C121.58 186.678 121.755 186.47 121.868 186.227C121.98 185.985 122.026 185.716 122 185.45V109.37C121.959 108.627 121.743 107.904 121.369 107.26C120.995 106.616 120.475 106.07 119.85 105.665Z" fill="#263238"/>
<path opacity="0.2" d="M119.98 117.345L121.99 116.185V109.235L119.975 110.395L119.98 117.345Z" fill="black"/>
<path opacity="0.2" d="M160.08 94.1948L162.09 93.0398V86.0898L160.075 87.2498L160.08 94.1948Z" fill="black"/>
<path d="M93.92 169.425L91.92 170.58V176.91C91.9301 177.095 91.9838 177.276 92.0768 177.436C92.1697 177.597 92.2993 177.734 92.455 177.835L93.39 178.375C93.5558 178.459 93.7391 178.502 93.925 178.502C94.1109 178.502 94.2941 178.459 94.46 178.375L95.395 177.835C95.7259 177.621 95.9826 177.31 96.13 176.945L97.935 171.74L93.92 169.425Z" fill="#263238"/>
<path d="M91.915 176.91C91.9251 177.095 91.9788 177.276 92.0718 177.437C92.1647 177.597 92.2943 177.734 92.45 177.835L93.385 178.375C93.4496 178.414 93.5222 178.438 93.5974 178.445C93.6726 178.452 93.7484 178.442 93.8191 178.416C93.8898 178.389 93.9536 178.347 94.0057 178.292C94.0579 178.238 94.0969 178.172 94.12 178.1L95.925 172.895L91.925 170.58L91.915 176.91Z" fill="#37474F"/>
<path d="M113.965 181L111.965 182.155V188.485C111.974 188.67 112.027 188.85 112.119 189.011C112.211 189.172 112.34 189.309 112.495 189.41L113.435 189.95C113.6 190.034 113.782 190.078 113.967 190.078C114.153 190.078 114.335 190.034 114.5 189.95L115.44 189.41C115.77 189.195 116.026 188.884 116.175 188.52L117.975 183.315L113.965 181Z" fill="#263238"/>
<path d="M111.965 188.46C111.974 188.645 112.027 188.825 112.119 188.986C112.211 189.147 112.34 189.283 112.495 189.385L113.435 189.925C113.5 189.964 113.572 189.988 113.647 189.995C113.723 190.002 113.798 189.992 113.869 189.965C113.94 189.939 114.004 189.897 114.056 189.842C114.108 189.788 114.147 189.722 114.17 189.65L115.97 184.445L111.97 182.13L111.965 188.46Z" fill="#37474F"/>
<path d="M90.04 90.8L117.845 106.825C118.467 107.232 118.984 107.779 119.355 108.422C119.726 109.066 119.94 109.788 119.98 110.53V189.1C119.98 189.1 118.435 188.185 117.845 187.845L90.045 171.815C89.4226 171.41 88.9045 170.864 88.5327 170.221C88.1609 169.578 87.9458 168.857 87.905 168.115V92.03C87.8515 91.7632 87.8831 91.4863 87.9954 91.2384C88.1076 90.9905 88.2949 90.784 88.5307 90.6482C88.7665 90.5123 89.039 90.4539 89.3098 90.4811C89.5806 90.5084 89.836 90.6199 90.04 90.8Z" fill="#37474F"/>
<path opacity="0.2" d="M117.845 106.825L90.04 90.8C89.836 90.6199 89.5806 90.5084 89.3098 90.4811C89.039 90.4539 88.7665 90.5123 88.5307 90.6482C88.2949 90.784 88.1076 90.9905 87.9954 91.2384C87.8831 91.4863 87.8515 91.7632 87.905 92.03V98.825L119.98 117.325V110.53C119.94 109.788 119.726 109.066 119.355 108.422C118.984 107.779 118.467 107.232 117.845 106.825Z" fill="black"/>
<path d="M156.065 114.055C156.016 114.054 155.97 114.034 155.936 114C155.901 113.965 155.881 113.919 155.88 113.87V91.0401L134.105 103.61C134.085 103.623 134.062 103.632 134.038 103.636C134.014 103.64 133.989 103.639 133.966 103.633C133.942 103.627 133.92 103.616 133.901 103.601C133.882 103.586 133.866 103.567 133.855 103.545C133.842 103.524 133.834 103.501 133.83 103.477C133.827 103.452 133.828 103.428 133.834 103.404C133.84 103.38 133.851 103.358 133.866 103.339C133.88 103.319 133.899 103.303 133.92 103.29L156 90.5601C156.028 90.5429 156.06 90.5337 156.093 90.5337C156.125 90.5337 156.157 90.5429 156.185 90.5601C156.213 90.5767 156.235 90.6001 156.251 90.6282C156.267 90.6563 156.275 90.6879 156.275 90.7201V113.87C156.275 113.897 156.27 113.923 156.259 113.947C156.248 113.971 156.232 113.993 156.212 114.011C156.192 114.028 156.169 114.041 156.143 114.049C156.118 114.057 156.091 114.059 156.065 114.055Z" fill="#FAFAFA"/>
<path d="M152.055 108.265H152C151.952 108.254 151.911 108.225 151.885 108.184C151.858 108.142 151.85 108.093 151.86 108.045L155.59 91.8898L148.19 104.705C148.179 104.726 148.163 104.745 148.144 104.76C148.125 104.775 148.103 104.787 148.08 104.793C148.057 104.8 148.032 104.801 148.008 104.798C147.984 104.795 147.961 104.787 147.94 104.775C147.918 104.763 147.9 104.747 147.884 104.727C147.869 104.708 147.858 104.686 147.851 104.662C147.845 104.638 147.843 104.613 147.846 104.589C147.85 104.565 147.858 104.541 147.87 104.52L155.87 90.6298C155.893 90.5917 155.928 90.5628 155.97 90.5481C156.013 90.5335 156.058 90.5341 156.1 90.5498C156.141 90.5666 156.175 90.5975 156.195 90.6369C156.215 90.6764 156.22 90.7218 156.21 90.7648L152.21 108.13C152.201 108.165 152.181 108.198 152.154 108.222C152.126 108.246 152.091 108.261 152.055 108.265Z" fill="#FAFAFA"/>
<path d="M144.04 102.5C144.015 102.5 143.989 102.495 143.966 102.485C143.943 102.474 143.922 102.459 143.905 102.44C143.871 102.406 143.852 102.359 143.852 102.31C143.852 102.261 143.871 102.215 143.905 102.18L155.935 90.6051C155.97 90.5709 156.016 90.5518 156.065 90.5518C156.114 90.5518 156.16 90.5709 156.195 90.6051C156.23 90.6406 156.249 90.6881 156.249 90.7376C156.249 90.7871 156.23 90.8347 156.195 90.8701L144.165 102.44C144.149 102.458 144.13 102.472 144.109 102.483C144.087 102.493 144.064 102.499 144.04 102.5Z" fill="#FAFAFA"/>
<path d="M156.065 110.36C156.016 110.359 155.97 110.339 155.936 110.305C155.901 110.27 155.881 110.224 155.88 110.175C155.88 107.145 152.5 106.94 152.355 106.935C152.328 106.933 152.301 106.926 152.277 106.913C152.253 106.9 152.232 106.882 152.215 106.86C152.199 106.839 152.188 106.814 152.183 106.789C152.178 106.763 152.179 106.736 152.185 106.71C152.308 106.091 152.266 105.451 152.064 104.853C151.861 104.255 151.504 103.721 151.03 103.305C150.857 103.132 150.648 102.998 150.419 102.912C150.19 102.826 149.944 102.789 149.7 102.805C149.57 102.827 149.445 102.877 149.336 102.951C149.226 103.025 149.134 103.122 149.065 103.235C149.044 103.272 149.011 103.3 148.972 103.315C148.933 103.331 148.89 103.333 148.85 103.32C148.81 103.308 148.775 103.282 148.752 103.248C148.728 103.213 148.717 103.172 148.72 103.13C148.72 103.015 148.925 100.32 146.555 100.055C146.525 100.051 146.495 100.04 146.47 100.023C146.445 100.006 146.424 99.9823 146.41 99.9552C146.396 99.9289 146.389 99.8998 146.389 99.8702C146.389 99.8406 146.396 99.8115 146.41 99.7852C146.41 99.7852 147.46 97.8202 147.055 96.8552C147.008 96.7419 146.935 96.6412 146.842 96.5612C146.75 96.4813 146.639 96.4244 146.52 96.3952C146.496 96.3889 146.474 96.3779 146.455 96.3627C146.436 96.3476 146.42 96.3287 146.408 96.3071C146.396 96.2856 146.389 96.2619 146.387 96.2375C146.385 96.2131 146.387 96.1885 146.395 96.1652C146.41 96.1188 146.442 96.08 146.485 96.0568C146.528 96.0335 146.578 96.0276 146.625 96.0402C146.797 96.0845 146.957 96.1687 147.09 96.2859C147.224 96.4032 147.329 96.5502 147.395 96.7152C147.78 97.6302 147.13 99.1452 146.85 99.7152C148.69 100.07 149.03 101.805 149.08 102.665C149.244 102.548 149.432 102.468 149.63 102.43C149.931 102.401 150.234 102.44 150.517 102.545C150.8 102.65 151.056 102.817 151.265 103.035C151.762 103.473 152.142 104.028 152.372 104.649C152.601 105.271 152.673 105.939 152.58 106.595C153.39 106.7 156.25 107.265 156.245 110.185C156.242 110.232 156.223 110.275 156.189 110.308C156.156 110.34 156.111 110.359 156.065 110.36Z" fill="#FAFAFA"/>
<path d="M156.065 105.37C156.018 105.37 155.974 105.353 155.939 105.321C155.905 105.29 155.884 105.247 155.88 105.2C155.8 104.14 155.185 102.77 154.41 102.43C154.256 102.361 154.086 102.339 153.92 102.366C153.754 102.392 153.599 102.467 153.475 102.58C153.444 102.6 153.409 102.61 153.372 102.61C153.336 102.61 153.301 102.6 153.27 102.58C153.238 102.563 153.212 102.536 153.196 102.504C153.179 102.472 153.172 102.436 153.175 102.4C153.175 102.4 153.34 100.525 152.495 99.7501C152.312 99.597 152.094 99.4899 151.861 99.4377C151.628 99.3856 151.386 99.3898 151.155 99.4501C151.123 99.4569 151.09 99.4549 151.059 99.4443C151.028 99.4337 151.001 99.415 150.98 99.3901C150.959 99.3649 150.944 99.3347 150.938 99.3022C150.932 99.2698 150.934 99.2363 150.945 99.2051C151.115 98.7401 151.445 97.4351 151 96.9701C150.79 96.7551 150.405 96.7351 149.85 96.9151C149.812 96.9276 149.771 96.9276 149.733 96.915C149.696 96.9023 149.663 96.8778 149.64 96.8451C149.617 96.8129 149.605 96.7745 149.605 96.7351C149.605 96.6957 149.617 96.6572 149.64 96.6251C149.95 96.2351 150.715 95.0951 150.525 94.5501C150.494 94.4748 150.443 94.4092 150.378 94.36C150.313 94.3108 150.236 94.2798 150.155 94.2701C150.131 94.2642 150.109 94.2538 150.089 94.2393C150.07 94.2248 150.053 94.2066 150.041 94.1857C150.028 94.1647 150.02 94.1416 150.016 94.1174C150.013 94.0933 150.014 94.0687 150.02 94.0451C150.025 94.0212 150.034 93.9986 150.048 93.9787C150.062 93.9587 150.08 93.9419 150.1 93.9292C150.121 93.9165 150.144 93.9082 150.168 93.9049C150.192 93.9016 150.217 93.9034 150.24 93.9101C150.38 93.9305 150.513 93.9875 150.624 94.0752C150.736 94.163 150.822 94.2784 150.875 94.4101C151.08 95.0051 150.58 95.9101 150.23 96.4101C150.41 96.3672 150.598 96.3689 150.778 96.4151C150.957 96.4613 151.123 96.5505 151.26 96.6751C151.81 97.2451 151.545 98.4501 151.38 99.0151C151.624 98.9859 151.871 99.0087 152.105 99.082C152.34 99.1552 152.556 99.2773 152.74 99.4401C153.485 100.12 153.565 101.44 153.555 102.045C153.711 101.972 153.882 101.933 154.055 101.933C154.228 101.933 154.399 101.972 154.555 102.045C155.5 102.46 156.155 103.935 156.25 105.13C156.252 105.154 156.249 105.178 156.242 105.201C156.234 105.224 156.222 105.245 156.206 105.264C156.19 105.282 156.171 105.297 156.149 105.307C156.128 105.318 156.104 105.324 156.08 105.325L156.065 105.37Z" fill="#FAFAFA"/>
<path d="M166.835 82.62C166.811 82.3545 166.717 82.1001 166.563 81.8831C166.408 81.666 166.198 81.4941 165.955 81.385L136.15 64.175C135.487 63.8397 134.755 63.665 134.012 63.665C133.27 63.665 132.538 63.8397 131.875 64.175L86.035 90.645C85.7918 90.7541 85.5821 90.926 85.4274 91.1431C85.2728 91.3601 85.1787 91.6145 85.155 91.88V94.195C85.1787 94.4604 85.2728 94.7148 85.4274 94.9319C85.5821 95.1489 85.7918 95.3209 86.035 95.43L115.84 112.635C116.502 112.973 117.234 113.149 117.978 113.149C118.721 113.149 119.453 112.973 120.115 112.635L165.955 86.17C166.198 86.0608 166.408 85.8889 166.563 85.6719C166.717 85.4548 166.811 85.2004 166.835 84.935V82.62Z" fill="#37474F"/>
<path d="M115.84 110.32L86.035 93.115C84.855 92.43 84.855 91.325 86.035 90.645L131.875 64.175C132.538 63.8397 133.27 63.665 134.012 63.665C134.755 63.665 135.487 63.8397 136.15 64.175L165.955 81.385C167.14 82.07 167.14 83.17 165.955 83.855L120.115 110.32C119.453 110.658 118.721 110.834 117.977 110.834C117.234 110.834 116.502 110.658 115.84 110.32Z" fill="#455A64"/>
<path opacity="0.1" d="M160.075 89.5601L146.045 106.925L121.99 120.815L121.985 111.555L160.075 89.5601Z" fill="black"/>
<path opacity="0.1" d="M158.07 116.18L146.045 132.385L121.99 146.28V137.015L158.07 116.18Z" fill="black"/>
<path opacity="0.1" d="M158.07 141.645L146.045 157.85L121.99 171.745V162.48L158.07 141.645Z" fill="black"/>
<path d="M102.89 192.22L66.01 213.515L24.48 189.48L61.36 168.19L102.89 192.22Z" fill="#FFCA3D"/>
<path opacity="0.5" d="M102.89 192.22L66.01 213.515L24.48 189.48L61.36 168.19L102.89 192.22Z" fill="black"/>
<path d="M61.36 139.325V168.19L24.48 189.48V160.62L61.36 139.325Z" fill="#FFCA3D"/>
<path opacity="0.23" d="M61.36 139.325V168.19L24.48 189.48V160.62L61.36 139.325Z" fill="black"/>
<path d="M66.01 184.65V213.515L24.48 189.48V160.62L66.01 184.65Z" fill="#FFCA3D"/>
<path opacity="0.38" d="M66.01 184.65V213.515L24.48 189.48V160.62L66.01 184.65Z" fill="black"/>
<path d="M102.89 163.355V192.22L61.36 168.19V139.325L102.89 163.355Z" fill="#FFCA3D"/>
<path opacity="0.4" d="M102.89 163.355V192.22L61.36 168.19V139.325L102.89 163.355Z" fill="black"/>
<path d="M102.89 192.22V163.355L66.01 184.65V213.515L102.89 192.22Z" fill="#FFCA3D"/>
<path opacity="0.23" d="M102.89 192.22V163.355L66.01 184.65V213.515L102.89 192.22Z" fill="black"/>
<path d="M61.36 139.325L61.41 123.345L102.84 147.405L102.89 163.355L61.36 139.325Z" fill="#FFCA3D"/>
<path opacity="0.2" d="M61.36 139.325L61.41 123.345L102.84 147.405L102.89 163.355L61.36 139.325Z" fill="black"/>
<path d="M66.01 184.65L69.47 170.67L106.015 149.57L102.89 163.355L66.01 184.65Z" fill="#FFCA3D"/>
<path opacity="0.3" d="M66.01 184.65L69.47 170.67L106.015 149.57L102.89 163.355L66.01 184.65Z" fill="black"/>
<path d="M24.48 160.62L20.08 146.12L56.96 124.83L61.36 139.325L24.48 160.62Z" fill="#FFCA3D"/>
<path opacity="0.1" d="M24.48 160.62L20.08 146.12L56.96 124.83L61.36 139.325L24.48 160.62Z" fill="black"/>
<path d="M24.48 160.62L15.8 148.635L57.335 172.665L66.01 184.65L24.48 160.62Z" fill="#FFCA3D"/>
<path opacity="0.45" d="M24.48 160.62L15.8 148.635L57.335 172.665L66.01 184.65L24.48 160.62Z" fill="black"/>
<g opacity="0.7">
<path opacity="0.7" d="M76.87 204.93C76.8099 204.93 76.7521 204.906 76.7091 204.864C76.6661 204.822 76.6413 204.765 76.64 204.705V199.625C76.6413 199.564 76.6659 199.507 76.7088 199.464C76.7517 199.421 76.8094 199.396 76.87 199.395C76.9301 199.396 76.9874 199.421 77.0294 199.464C77.0715 199.507 77.095 199.565 77.095 199.625V204.705C77.095 204.765 77.0713 204.822 77.0291 204.864C76.9869 204.906 76.9297 204.93 76.87 204.93Z" fill="white"/>
<path opacity="0.7" d="M76.205 201.385C76.1752 201.39 76.1448 201.39 76.115 201.385C76.0604 201.36 76.0176 201.315 75.9953 201.259C75.9729 201.203 75.9729 201.141 75.995 201.085L76.805 199.22L77.705 200.26C77.7372 200.307 77.7511 200.364 77.7441 200.42C77.737 200.476 77.7095 200.527 77.6668 200.565C77.6241 200.602 77.5691 200.622 77.5125 200.621C77.4559 200.62 77.4016 200.599 77.36 200.56L76.935 200.06L76.435 201.26C76.4134 201.302 76.38 201.335 76.339 201.358C76.2981 201.38 76.2514 201.39 76.205 201.385Z" fill="white"/>
<path opacity="0.7" d="M78.965 203.735C78.9049 203.734 78.8476 203.709 78.8056 203.666C78.7635 203.623 78.74 203.565 78.74 203.505V198.43C78.74 198.37 78.7637 198.313 78.8059 198.271C78.8481 198.229 78.9053 198.205 78.965 198.205C79.0247 198.205 79.0819 198.229 79.1241 198.271C79.1663 198.313 79.19 198.37 79.19 198.43V203.5C79.1907 203.53 79.1854 203.56 79.1744 203.588C79.1635 203.617 79.1471 203.642 79.1262 203.664C79.1053 203.686 79.0803 203.704 79.0526 203.716C79.025 203.728 78.9952 203.734 78.965 203.735Z" fill="white"/>
<path opacity="0.7" d="M78.3 200.19C78.2702 200.195 78.2398 200.195 78.21 200.19C78.1825 200.178 78.1577 200.161 78.1371 200.139C78.1164 200.118 78.1002 200.092 78.0895 200.064C78.0788 200.036 78.0738 200.006 78.0747 199.977C78.0756 199.947 78.0825 199.917 78.095 199.89L78.9 198L79.8 199.035C79.8415 199.078 79.8648 199.135 79.8648 199.195C79.8648 199.255 79.8415 199.312 79.8 199.355C79.7791 199.376 79.7541 199.393 79.7267 199.404C79.6992 199.416 79.6697 199.422 79.64 199.422C79.6102 199.422 79.5808 199.416 79.5533 199.404C79.5258 199.393 79.5009 199.376 79.48 199.355L79.055 198.855L78.555 200.055C78.5343 200.103 78.4977 200.143 78.4513 200.167C78.4049 200.192 78.3515 200.2 78.3 200.19Z" fill="white"/>
</g>
<g opacity="0.7">
<path opacity="0.7" d="M70.825 208.375C70.7395 208.377 70.6552 208.356 70.58 208.315C70.4896 208.257 70.4164 208.176 70.368 208.08C70.3196 207.985 70.2979 207.877 70.305 207.77V207.145C70.3063 207.085 70.3311 207.028 70.3741 206.986C70.4171 206.944 70.4749 206.92 70.535 206.92C70.5947 206.92 70.6519 206.944 70.6941 206.986C70.7363 207.028 70.76 207.086 70.76 207.145V207.77C70.76 207.86 70.76 207.91 70.805 207.92C70.85 207.93 70.875 207.92 70.95 207.88C71.0907 207.75 71.2016 207.591 71.275 207.414C71.3483 207.237 71.3825 207.047 71.375 206.855V204.255C71.375 204.196 71.3987 204.138 71.4409 204.096C71.4831 204.054 71.5403 204.03 71.6 204.03C71.6597 204.03 71.7169 204.054 71.7591 204.096C71.8013 204.138 71.825 204.196 71.825 204.255V206.855C71.8362 207.125 71.7836 207.394 71.6715 207.64C71.5595 207.886 71.3911 208.102 71.18 208.27C71.0731 208.336 70.9506 208.373 70.825 208.375Z" fill="white"/>
<path opacity="0.7" d="M68.44 206.28V205.89C68.4994 204.889 68.7922 203.915 69.2948 203.047C69.7975 202.179 70.4961 201.44 71.335 200.89C72.155 200.42 72.935 200.35 73.535 200.7C73.855 200.92 74.1102 201.221 74.2738 201.573C74.4374 201.925 74.5034 202.314 74.465 202.7V202.83L68.44 206.28ZM72.695 200.91C72.2947 200.929 71.9057 201.049 71.565 201.26C70.8462 201.733 70.2375 202.355 69.7802 203.084C69.323 203.813 69.0279 204.632 68.915 205.485L74 202.545C74.0217 202.256 73.9682 201.965 73.8447 201.703C73.7212 201.44 73.5318 201.213 73.295 201.045C73.1103 200.948 72.9034 200.902 72.695 200.91Z" fill="white"/>
</g>
<path opacity="0.7" d="M15.8 148.635L57.335 172.665L66.01 184.65L56.875 173.09L15.8 148.635Z" fill="white"/>
<path opacity="0.7" d="M102.89 163.355L66.01 184.65V213.515L66.7 185.23L102.89 163.355Z" fill="white"/>
<path d="M48.77 151.81C52.575 151.26 56.05 148.81 58.27 145.73C59.3053 144.291 60.0679 142.674 60.52 140.96C61.0001 139.357 61.0791 137.661 60.75 136.02C60.065 133.275 57.525 131.65 54.84 131.31C53.4775 131.131 52.0921 131.266 50.79 131.705C49.4398 132.169 48.2684 133.043 47.44 134.205C46.9206 134.825 46.5938 135.582 46.5 136.385C46.492 136.7 46.6029 137.006 46.8105 137.242C47.0181 137.478 47.3071 137.628 47.62 137.66C48.4251 137.728 49.2297 137.524 49.905 137.08C50.7284 136.618 51.4537 136 52.04 135.26C53.2976 133.708 54.2387 131.924 54.81 130.01C55.2108 128.368 55.2108 126.653 54.81 125.01C54.5055 123.292 53.7201 121.695 52.545 120.405C51.1978 119.18 49.4883 118.427 47.675 118.26C45.8703 118.012 44.0328 118.183 42.305 118.76C41.546 118.99 40.8429 119.375 40.24 119.89C39.81 120.29 39.32 120.95 39.495 121.6C39.67 122.25 40.62 122.54 41.265 122.455C42.2196 122.276 43.094 121.802 43.765 121.1C44.5128 120.364 45.1479 119.522 45.65 118.6C46.023 117.938 46.2177 117.19 46.215 116.43C46.15 113.26 42.645 111.21 39.9 110.63C39.159 110.475 38.4 110.425 37.645 110.48C37.39 110.48 37.545 110.9 37.75 110.885C39.2271 110.818 40.6951 111.15 42 111.845C43.2874 112.437 44.3686 113.4 45.105 114.61C45.4332 115.207 45.5951 115.881 45.574 116.562C45.5529 117.242 45.3495 117.905 44.985 118.48C44.4954 119.333 43.8858 120.111 43.175 120.79C42.58 121.33 41.675 121.955 40.84 121.895C40.7021 121.895 40.5671 121.856 40.4504 121.782C40.3337 121.709 40.24 121.604 40.18 121.48C40.1548 121.316 40.1683 121.148 40.2196 120.99C40.2708 120.832 40.3583 120.688 40.475 120.57C40.9165 120.095 41.4626 119.728 42.07 119.5C43.57 118.877 45.1943 118.61 46.815 118.72C48.4852 118.75 50.1095 119.272 51.485 120.22C52.6832 121.215 53.5342 122.565 53.915 124.075C54.3974 125.609 54.5474 127.229 54.355 128.825C54.058 130.432 53.4408 131.962 52.54 133.325C51.615 134.855 50.455 136.325 48.715 136.925C48.285 137.08 47.385 137.305 47.215 136.68C47.045 136.055 47.535 135.285 47.85 134.8C48.5465 133.704 49.5621 132.847 50.76 132.345C51.9159 131.882 53.1638 131.694 54.405 131.795C56.76 131.97 59.15 133.2 59.97 135.54C60.3813 136.939 60.4261 138.419 60.1 139.84C59.8058 141.398 59.246 142.893 58.445 144.26C56.722 147.166 54.1125 149.442 51 150.755C50.26 151.075 49.5 151.345 48.725 151.595C48.645 151.625 48.68 151.825 48.77 151.81Z" fill="#E0E0E0"/>
<path d="M32.875 108.4C30.875 108.255 28.12 109.83 29.1 110.98C30.08 112.13 32.68 110.27 32.68 110.27C32.68 110.27 32.435 112.595 33.285 112.86C34.135 113.125 35.285 110.905 34.435 109.485C34.8449 109.647 35.289 109.702 35.7261 109.646C36.1631 109.59 36.579 109.425 36.935 109.165C38.145 108.275 36.865 107.435 35.16 107.585C35.16 107.585 36.38 103.585 33.915 104.35C32.68 104.725 32.245 106.17 32.875 108.4Z" fill="#BA68C8"/>
<path opacity="0.65" d="M32.875 108.4C30.875 108.255 28.12 109.83 29.1 110.98C30.08 112.13 32.68 110.27 32.68 110.27C32.68 110.27 32.435 112.595 33.285 112.86C34.135 113.125 35.285 110.905 34.435 109.485C34.8449 109.647 35.289 109.702 35.7261 109.646C36.1631 109.59 36.579 109.425 36.935 109.165C38.145 108.275 36.865 107.435 35.16 107.585C35.16 107.585 36.38 103.585 33.915 104.35C32.68 104.725 32.245 106.17 32.875 108.4Z" fill="white"/>
<path d="M34.735 109.25C34.6243 109.142 34.5075 109.04 34.385 108.945C34.21 108.81 34.025 108.68 33.85 108.55C33.6796 108.426 33.5008 108.314 33.315 108.215C33.208 108.156 33.0978 108.102 32.985 108.055C32.8292 107.982 32.6559 107.954 32.485 107.975C32.4402 107.976 32.3966 107.99 32.3587 108.013C32.3208 108.037 32.29 108.071 32.2696 108.111C32.2491 108.151 32.2398 108.195 32.2425 108.24C32.2452 108.285 32.2599 108.328 32.285 108.365C32.4224 108.514 32.594 108.627 32.785 108.695L33.055 108.84C33.24 108.95 33.405 109.075 33.555 109.2C33.705 109.325 33.905 109.445 34.055 109.57C34.3129 109.779 34.6012 109.948 34.91 110.07C34.9238 110.077 34.9393 110.081 34.955 110.081C34.9707 110.081 34.9861 110.077 35 110.07C35.255 109.87 34.88 109.395 34.735 109.25Z" fill="#455A64"/>
<path d="M194.14 53.3948C191.955 56.3348 189.03 72.4998 187.925 77.6848C182.61 77.5298 175.5 77.2798 172.81 76.9998C169.81 76.6848 163.405 76.0698 160.26 76.4998C152.455 77.4998 152.76 82.6298 152.95 83.9698C153.155 85.4998 154.25 86.1998 158.45 85.2448C159.39 85.0383 160.348 84.9261 161.31 84.9098C161.715 84.9098 162.57 84.7048 162.89 85.0498C163.39 85.5498 161.945 86.3898 161.585 86.6198C161.03 86.9798 160.45 87.4348 160.335 88.0848C160.302 88.2037 160.304 88.3295 160.34 88.4474C160.376 88.5652 160.446 88.6702 160.54 88.7498C160.743 88.8329 160.971 88.8329 161.175 88.7498C163.092 88.2949 164.941 87.5906 166.675 86.6548C167.329 86.2607 168.016 85.926 168.73 85.6548C169.815 85.3048 170.935 85.5098 172.025 85.5098C174.37 85.5098 186.765 86.7398 192.275 87.2998C196.09 87.6848 196.495 83.9198 197.81 80.1048C199.425 75.3748 203.25 50.4998 203.25 50.4998C199.39 49.9398 196.74 49.9048 194.14 53.3948Z" fill="#FFA8A7"/>
<path d="M203.31 50.1098C201.465 49.7698 197.31 49.2548 195.05 51.7798C192.79 54.3048 192.255 56.9548 191.26 60.7798C190.265 64.6048 188.5 71.4548 188.5 71.4548C188.5 71.4548 191.415 75.6398 200.54 74.4548L203.31 50.1098Z" fill="#37474F"/>
<path d="M226.225 182.32L219.81 182.325L217.965 168.4L226.06 168.08L226.225 182.32Z" fill="#FFA8A7"/>
<path d="M204.925 175.365C203.835 177.26 200.33 177.105 197.425 176.435L197.09 162.745L205.665 162.405L204.925 175.365Z" fill="#FFA8A7"/>
<path d="M225.79 94.33C226.02 100.255 225.235 135.29 225.235 135.29C225.45 136.99 227.21 139.955 227.575 146.09C228.11 155 226.295 174 226.295 174C226.295 174 222.62 175.92 218.66 174.45C218.66 174.45 214.63 146.95 213.16 138.16C211.89 130.51 210.26 109.99 210.26 109.99L207.095 136.29C207.675 139.403 207.915 142.57 207.81 145.735C207.68 149.825 205.35 169.685 205.35 169.685C202.692 170.555 199.836 170.622 197.14 169.88C197.14 169.88 195.23 139.06 195.01 135.325C194.76 131.065 194.93 93.46 194.93 93.46L225.79 94.33Z" fill="#FFCA3D"/>
<path opacity="0.2" d="M210.27 110C210.27 110 204.665 108.41 200.845 105C200.845 105 202.635 108.055 207.705 110.765L207.415 133.72L210.27 110Z" fill="black"/>
<path d="M212.5 193.935C212.295 194.145 212.415 195.53 212.665 195.89C212.915 196.25 214.445 197.47 217.1 197.56C219.635 197.64 221.875 197.21 223.32 196.21C224.765 195.21 225.445 194.145 225.53 192.71C225.615 191.275 225.4 189.88 226.03 188.745C226.625 187.7 227.59 186.505 227.785 185.94C228.22 184.715 227.69 183.01 227.69 183.01L212.5 193.935Z" fill="#263238"/>
<path d="M218.9 181.1C218.903 181.646 218.826 182.191 218.67 182.715C218.127 184.42 217.312 186.026 216.255 187.47C215.525 188.405 214.605 189.19 213.83 190.095C213.001 190.953 212.492 192.071 212.39 193.26C212.36 195.26 214.54 195.835 216.205 196.065C218.01 196.303 219.845 196.132 221.575 195.565C222.486 195.29 223.298 194.758 223.914 194.032C224.53 193.307 224.923 192.418 225.045 191.475C225.115 190.92 225.045 190.36 225.105 189.805C225.274 188.53 225.757 187.317 226.51 186.275C226.946 185.671 227.318 185.025 227.62 184.345C228.085 183.095 227.62 181.73 227.24 180.525C226.915 179.48 226.545 178.295 226.18 178.41C226.18 178.965 226.18 179.015 225.825 179.41C225.325 179.91 225.35 180.605 224.825 181.04C224.977 180.578 225.081 180.102 225.135 179.62C225.16 179.423 225.112 179.224 225 179.06C224.819 178.913 224.607 178.81 224.38 178.76C223.589 178.526 222.777 178.373 221.955 178.305C221.173 178.202 220.379 178.227 219.605 178.38C219.376 178.433 219.172 178.561 219.025 178.745C218.896 178.949 218.832 179.188 218.84 179.43C218.84 179.755 218.895 180.57 218.9 181.1Z" fill="#455A64"/>
<path d="M217 186.365C217.72 185.785 219.37 185.71 220.28 185.775C221.202 185.817 222.098 186.092 222.885 186.575C223.001 186.652 223.141 186.686 223.279 186.669C223.418 186.653 223.546 186.587 223.64 186.485C223.695 186.426 223.737 186.357 223.763 186.281C223.789 186.205 223.797 186.124 223.789 186.044C223.78 185.964 223.755 185.887 223.713 185.818C223.672 185.749 223.616 185.69 223.55 185.645C222.681 185.056 221.664 184.723 220.615 184.685C218.385 184.62 217.75 185.025 217.75 185.025C217.75 185.025 216.755 185.715 217 186.365Z" fill="#F5F5F5"/>
<path d="M215.38 188.465C216.285 187.88 218.11 187.885 219.015 187.965C219.922 188.022 220.798 188.317 221.555 188.82C221.67 188.897 221.809 188.93 221.947 188.914C222.084 188.897 222.211 188.832 222.305 188.73C222.361 188.672 222.404 188.603 222.431 188.527C222.457 188.451 222.467 188.37 222.459 188.29C222.451 188.21 222.425 188.132 222.384 188.063C222.343 187.994 222.287 187.935 222.22 187.89C221.337 187.27 220.297 186.91 219.22 186.85C216.985 186.78 216.425 187.255 216.425 187.255C216.171 187.365 215.945 187.531 215.764 187.74C215.583 187.95 215.452 188.198 215.38 188.465Z" fill="#F5F5F5"/>
<path d="M221.415 182.525C220.471 182.396 219.51 182.513 218.625 182.865C218.245 183.1 218.01 183.73 218.265 183.865C219.039 183.517 219.888 183.366 220.735 183.425C221.572 183.474 222.394 183.667 223.165 183.995C223.36 184.07 223.59 184.18 223.79 184.28C223.854 184.313 223.924 184.332 223.996 184.337C224.067 184.342 224.139 184.332 224.207 184.308C224.275 184.284 224.337 184.247 224.39 184.198C224.443 184.149 224.486 184.091 224.515 184.025C224.562 183.911 224.566 183.784 224.525 183.668C224.485 183.552 224.403 183.454 224.295 183.395C223.409 182.901 222.426 182.605 221.415 182.525Z" fill="#F5F5F5"/>
<path d="M182.765 183.905C182.538 184.477 182.538 185.113 182.765 185.685C182.985 186.22 185.635 187.88 189.315 187.81C192.052 187.743 194.721 186.946 197.045 185.5C198.49 184.64 199.955 184.535 201.775 184.5C203.595 184.465 206.025 183.69 206.465 182.86C206.905 182.03 206.515 180.545 206.515 180.545L182.765 183.905Z" fill="#263238"/>
<path d="M198.115 173.155L197.83 173.08C197.668 173.031 197.498 173.016 197.33 173.035C197.15 173.078 196.987 173.176 196.865 173.315C196.487 173.758 196.152 174.237 195.865 174.745C195.04 175.96 193.365 176.925 191.565 177.79C190.335 178.375 189.14 178.82 187.875 179.315C186.61 179.81 184.875 180.09 183.875 180.71C182.375 181.615 182.09 184.04 183.68 185.08C185.06 185.98 188.74 187.055 192.68 186.135C194.835 185.635 197.305 183.475 200.105 183.39C201.89 183.335 205.27 182.995 206.475 181.7C206.93 181.125 206.475 179.2 206.07 177.54C205.65 175.73 205.84 173.04 205.03 173.04L204.98 173.945C204.905 174.215 204.27 174.48 204.07 174.69L203.35 175.45C203.055 175.802 202.695 176.094 202.29 176.31C201.575 176.63 200.74 176.44 199.975 176.24C199.945 176.24 200.36 174.85 200.405 174.715C200.45 174.609 200.464 174.493 200.445 174.38C200.407 174.269 200.331 174.175 200.23 174.115C199.599 173.652 198.879 173.326 198.115 173.155Z" fill="#455A64"/>
<path d="M193.275 176.9C193.415 176.662 193.612 176.462 193.849 176.32C194.086 176.178 194.354 176.097 194.63 176.085C195.445 175.975 196.84 176.635 197.695 177.41C197.776 177.482 197.837 177.574 197.874 177.676C197.912 177.778 197.923 177.887 197.909 177.995C197.894 178.102 197.853 178.204 197.79 178.292C197.726 178.38 197.642 178.452 197.545 178.5C197.423 178.56 197.285 178.581 197.151 178.56C197.016 178.538 196.892 178.475 196.795 178.38C195.859 177.447 194.596 176.917 193.275 176.9Z" fill="#F5F5F5"/>
<path d="M190.705 178.185C190.892 177.945 191.135 177.754 191.411 177.628C191.688 177.502 191.991 177.444 192.295 177.46C192.295 177.46 194.405 177.62 195.65 178.9C195.727 178.97 195.786 179.057 195.821 179.155C195.857 179.253 195.868 179.358 195.854 179.461C195.841 179.564 195.802 179.663 195.742 179.748C195.682 179.833 195.603 179.902 195.51 179.95C195.392 180.007 195.259 180.027 195.129 180.006C195 179.986 194.879 179.926 194.785 179.835C194.273 179.271 193.64 178.829 192.933 178.544C192.227 178.258 191.465 178.135 190.705 178.185Z" fill="#F5F5F5"/>
<path d="M187.88 179.315C188.092 179.095 188.35 178.924 188.635 178.812C188.919 178.701 189.225 178.652 189.53 178.67C190.725 178.802 191.849 179.308 192.74 180.115C192.817 180.186 192.876 180.274 192.911 180.372C192.947 180.47 192.958 180.575 192.944 180.679C192.931 180.782 192.892 180.881 192.832 180.967C192.772 181.052 192.693 181.122 192.6 181.17C192.482 181.228 192.348 181.248 192.218 181.227C192.088 181.205 191.968 181.143 191.875 181.05C191.39 180.47 190.776 180.012 190.083 179.71C189.389 179.409 188.635 179.274 187.88 179.315Z" fill="#F5F5F5"/>
<path d="M214 50.2198C216.36 50.4898 219.15 50.6348 221.405 50.9298C224.31 51.3098 226.575 54.3148 227.285 58.9648C228.065 64.0848 224.785 78.7648 224.785 78.7648L225.83 96.0748C221.575 99.2098 203.455 100.855 194.425 94.3348C194.425 94.3348 194.635 64.8748 195.34 60.3348C196.31 54.1098 197.84 50.2448 204.84 49.7998L214 50.2198Z" fill="#455A64"/>
<path d="M230.135 87.7198C229.37 88.9998 228.6 90.2798 227.81 91.5448C227.52 92.0148 227.225 92.4798 226.92 92.9398C226.755 93.165 226.561 93.3683 226.345 93.5448C225.965 93.8048 225.175 93.6398 224.715 93.6548C222.455 93.7315 220.202 93.8982 217.955 94.1548C217.767 94.1489 217.58 94.1844 217.407 94.2587C217.234 94.333 217.08 94.4443 216.955 94.5848C216.863 94.7784 216.844 94.9991 216.903 95.2053C216.962 95.4116 217.094 95.5892 217.275 95.7048C217.643 95.9258 218.061 96.0496 218.49 96.0648L220.44 96.2948C220.718 96.3042 220.988 96.3907 221.22 96.5448C221.93 97.1198 220.575 97.8098 220.17 98.0898C219.355 98.6557 218.486 99.1381 217.575 99.5298C213.51 101.24 213.015 102.48 213.765 103.89C214.415 105.115 217.225 109.57 224.365 105.735C227.24 104.19 231.615 99.3098 233.61 96.9498C236.48 93.5448 241.335 85.9498 241.335 85.9498C244.095 82.1598 244.45 80.6048 244.515 79.0298C244.58 77.4548 236.015 65.3398 233.105 61.0848C230.195 56.8298 228.81 51.6548 221.405 50.9448C221.405 50.9448 218.585 59.8848 223.255 65.6698L234.04 80.7148C234.04 80.7148 231.185 85.9648 230.135 87.7198Z" fill="#FFA8A7"/>
<path d="M237.96 66.8547C236.575 64.8547 235.13 62.7947 233.735 60.7547C227.86 52.1797 228.355 50.6097 219.885 50.4897C219.135 51.6397 218.69 56.5897 219.82 61.5597C220.765 65.7347 224.32 68.6797 224.32 68.6797L228.56 74.4247C228.56 74.4247 231.155 74.3447 234.265 72.0647C236.061 70.8066 237.367 68.9658 237.96 66.8547Z" fill="#37474F"/>
<path d="M219.585 27.6846C219.159 27.0501 218.569 26.543 217.878 26.2172C217.187 25.8914 216.42 25.7592 215.66 25.8346L215.22 36.5696L214.5 40.5346L214.625 44.9496C215.043 44.8905 215.439 44.7265 215.777 44.473C216.114 44.2194 216.382 43.8845 216.555 43.4996C217.215 42.2296 219.055 36.0896 219.055 36.0896C220.705 31.0446 220.355 28.7646 219.585 27.6846Z" fill="#263238"/>
<path d="M214.72 36.6196C214.906 35.9672 215.263 35.3766 215.755 34.9096C216.37 34.2496 218.82 33.5346 219.935 35.6146C221.05 37.6946 219.17 40.4396 217.72 41.2796C215.865 42.3596 214.775 40.8896 214.775 40.8896L214.82 50.7746C213.955 52.7746 210.05 54.5546 207.725 54.2746C205.875 54.0396 204.17 52.5846 205.825 50.4646L205.69 47.6446C205.69 47.6446 203.215 48.1446 201.99 48.0196C199.955 47.8096 198.6 46.2746 197.88 44.1146C196.72 40.6446 196.205 37.8246 196.695 30.8646C197.235 23.2396 206.05 22.7246 210.965 25.4846C215.88 28.2446 214.72 36.6196 214.72 36.6196Z" fill="#FFA8A7"/>
<path d="M193.89 22.9448C193.665 21.2798 194.24 19.4948 195.985 18.9048C196.625 18.6369 197.328 18.5553 198.013 18.6694C198.698 18.7835 199.336 19.0887 199.855 19.5498C200.074 18.9624 200.452 18.4476 200.947 18.0634C201.442 17.6792 202.035 17.4406 202.658 17.3747C203.282 17.3087 203.911 17.4179 204.476 17.69C205.04 17.962 205.518 18.3862 205.855 18.9148C206.318 18.2108 207.034 17.7114 207.855 17.5198C208.361 17.4068 208.885 17.3963 209.395 17.4891C209.905 17.5818 210.391 17.7759 210.825 18.0598C211.535 18.5848 212.37 19.5598 212.16 20.8248C213.565 20.2598 215.03 20.7298 216.075 21.9698C216.697 22.7291 217.049 23.6736 217.075 24.6548C217.111 25.1644 217.038 25.6758 216.86 26.1548C216.66 26.6098 216.25 26.9098 216.13 27.4248C215.955 27.8779 215.866 28.3592 215.865 28.8448C215.98 29.6848 216.165 30.5248 216.275 31.3448C216.393 32.1615 216.462 32.9847 216.48 33.8098C216.454 34.0038 216.386 34.19 216.282 34.3556C216.178 34.5213 216.039 34.6625 215.875 34.7698C215.408 35.178 215.046 35.6925 214.82 36.2698C214.645 36.6298 214.475 37.5198 214.13 37.7698C213.065 38.5148 212.945 36.1048 212.895 35.6398C212.826 34.5725 212.826 33.502 212.895 32.4348C212.358 32.4278 211.828 32.3086 211.34 32.0847C210.852 31.8608 210.416 31.5372 210.06 31.1348C209.691 30.6825 209.448 30.141 209.355 29.5648C209.297 29.2346 209.271 28.8999 209.275 28.5648C208.58 29.7148 206.965 30.1848 205.815 30.0648C203.885 29.8898 203.22 29.0648 202.91 28.4598C202.788 29.0561 202.526 29.6148 202.145 30.0898C201.652 30.5531 201.058 30.8954 200.41 31.0898C199.851 31.2389 199.262 31.233 198.706 31.0727C198.15 30.9124 197.649 30.6037 197.255 30.1798C196.47 31.3048 194.48 30.8048 194.04 30.4898C193.04 29.7648 192.715 28.8998 192.605 27.6648C192.495 26.4298 192.995 25.0198 194.365 24.5348C194.118 24.0354 193.957 23.4978 193.89 22.9448Z" fill="#263238"/>
<path d="M205.69 47.6296C205.69 47.6296 210.16 46.4996 211.69 45.5796C212.595 45.0497 213.318 44.2583 213.765 43.3096C213.572 44.2455 213.193 45.133 212.65 45.9196C211.57 47.4546 205.74 48.8346 205.74 48.8346L205.69 47.6296Z" fill="#F28F8F"/>
<path d="M205.94 36.29C205.957 36.4794 206.029 36.6596 206.148 36.8083C206.266 36.9571 206.426 37.0677 206.606 37.1264C206.787 37.1852 206.981 37.1895 207.165 37.1388C207.348 37.0881 207.512 36.9847 207.637 36.8414C207.762 36.6981 207.842 36.5212 207.868 36.3328C207.893 36.1443 207.862 35.9526 207.779 35.7814C207.697 35.6103 207.565 35.4672 207.402 35.3701C207.238 35.2729 207.05 35.2259 206.86 35.235C206.599 35.2555 206.357 35.3774 206.185 35.5747C206.013 35.7719 205.925 36.0287 205.94 36.29Z" fill="#263238"/>
<path d="M204.445 43.5249C204.468 43.7688 204.562 44.0006 204.715 44.1916C204.869 44.3825 205.075 44.5241 205.309 44.5987C205.542 44.6734 205.792 44.6779 206.028 44.6115C206.264 44.5452 206.475 44.411 206.635 44.2257C206.795 44.0403 206.898 43.812 206.929 43.569C206.961 43.3261 206.92 43.0792 206.812 42.8591C206.705 42.639 206.535 42.4554 206.324 42.3311C206.113 42.2067 205.87 42.1472 205.625 42.1599C205.288 42.1867 204.976 42.345 204.755 42.6004C204.534 42.8559 204.423 43.1879 204.445 43.5249Z" fill="#F28F8F"/>
<path d="M206.745 32.9599L208.805 33.9599C208.933 33.6776 208.948 33.3567 208.847 33.0637C208.745 32.7706 208.535 32.5276 208.26 32.3849C208.123 32.3196 207.975 32.2827 207.823 32.2764C207.672 32.2701 207.521 32.2945 207.379 32.3483C207.238 32.402 207.109 32.4839 207 32.5891C206.89 32.6942 206.804 32.8204 206.745 32.9599Z" fill="#263238"/>
<path d="M197.785 33.8248L199.54 32.3248C199.448 32.2052 199.333 32.1055 199.202 32.0319C199.071 31.9583 198.925 31.9124 198.776 31.8969C198.626 31.8815 198.474 31.8968 198.331 31.942C198.187 31.9873 198.054 32.0614 197.94 32.1598C197.706 32.3648 197.559 32.6517 197.531 32.9614C197.502 33.2712 197.593 33.5802 197.785 33.8248Z" fill="#263238"/>
<path d="M198.31 36.095C198.322 36.2799 198.389 36.4572 198.501 36.6045C198.614 36.7517 198.767 36.8625 198.942 36.9227C199.118 36.983 199.307 36.99 199.486 36.9431C199.666 36.8961 199.827 36.7971 199.95 36.6587C200.073 36.5202 200.153 36.3484 200.179 36.1649C200.205 35.9814 200.176 35.7943 200.096 35.6272C200.015 35.46 199.888 35.3204 199.728 35.2257C199.569 35.131 199.385 35.0855 199.2 35.095C198.95 35.1117 198.717 35.2259 198.55 35.4129C198.384 35.6 198.298 35.8449 198.31 36.095Z" fill="#263238"/>
<path d="M202.95 34.9849L202.92 40.8999L199.79 39.9999L202.95 34.9849Z" fill="#F28F8F"/>
<path d="M195.095 43.26C195.124 43.2535 195.151 43.2414 195.175 43.2242C195.199 43.207 195.22 43.1852 195.235 43.16C195.253 43.1352 195.265 43.1072 195.272 43.0775C195.279 43.0478 195.279 43.017 195.273 42.9871C195.268 42.9572 195.256 42.9287 195.239 42.9034C195.222 42.8781 195.201 42.8565 195.175 42.84L192.455 41.03C192.43 41.0131 192.401 41.0014 192.372 40.9955C192.342 40.9897 192.311 40.9898 192.281 40.9958C192.252 41.0019 192.223 41.0137 192.198 41.0307C192.173 41.0478 192.152 41.0696 192.135 41.095C192.117 41.12 192.105 41.1483 192.099 41.1782C192.093 41.2081 192.093 41.239 192.099 41.2689C192.105 41.2989 192.117 41.3273 192.134 41.3524C192.152 41.3775 192.174 41.3988 192.2 41.415L194.915 43.225C194.941 43.2437 194.97 43.2566 195.001 43.2626C195.032 43.2687 195.064 43.2677 195.095 43.26Z" fill="#E0E0E0"/>
<path d="M194.805 44.4299C194.847 44.4194 194.886 44.3975 194.917 44.3667C194.948 44.3358 194.969 44.2972 194.98 44.2549C194.993 44.1946 194.983 44.1314 194.95 44.079C194.917 44.0266 194.865 43.9892 194.805 43.9749L191.625 43.2399C191.595 43.2324 191.565 43.2309 191.535 43.2355C191.504 43.24 191.475 43.2505 191.449 43.2663C191.423 43.2821 191.401 43.303 191.383 43.3276C191.365 43.3523 191.352 43.3802 191.345 43.4099C191.331 43.4702 191.342 43.5334 191.375 43.5858C191.408 43.6382 191.46 43.6756 191.52 43.6899L194.7 44.4299C194.735 44.4349 194.77 44.4349 194.805 44.4299Z" fill="#E0E0E0"/>
<path d="M191.85 46.5448H191.88L194.945 45.4248C195.003 45.4036 195.05 45.3603 195.075 45.3046C195.101 45.2488 195.104 45.185 195.082 45.1273C195.061 45.0696 195.018 45.0228 194.962 44.997C194.906 44.9712 194.843 44.9686 194.785 44.9898L191.72 46.1098C191.691 46.1204 191.665 46.1366 191.642 46.1574C191.62 46.1783 191.602 46.2035 191.589 46.2314C191.577 46.2594 191.57 46.2895 191.569 46.3202C191.568 46.3508 191.574 46.3813 191.585 46.4098C191.606 46.4601 191.644 46.5012 191.693 46.5259C191.741 46.5506 191.797 46.5573 191.85 46.5448Z" fill="#E0E0E0"/>
<path d="M165.92 70.5299C165.983 70.6567 166.082 70.7623 166.205 70.8334C166.327 70.9046 166.468 70.9383 166.61 70.9303C166.751 70.9223 166.887 70.873 167.001 70.7885C167.115 70.704 167.201 70.588 167.25 70.4549L169.53 64.8299C169.567 64.7397 169.585 64.643 169.584 64.5455C169.583 64.448 169.562 64.3518 169.523 64.2626C169.484 64.1734 169.427 64.093 169.356 64.0262C169.285 63.9595 169.201 63.9078 169.109 63.8741C169.018 63.8405 168.921 63.8256 168.823 63.8305C168.726 63.8353 168.631 63.8597 168.543 63.9023C168.455 63.9448 168.377 64.0046 168.313 64.0781C168.249 64.1516 168.2 64.2372 168.17 64.3299L165.885 69.9549C165.851 70.048 165.837 70.1471 165.843 70.246C165.849 70.3449 165.875 70.4415 165.92 70.5299Z" fill="#E0E0E0"/>
<path d="M162.165 70.4997C162.238 70.6471 162.359 70.7654 162.507 70.8352C162.656 70.9049 162.824 70.9221 162.984 70.8837C163.144 70.8453 163.286 70.7538 163.387 70.624C163.488 70.4943 163.542 70.3341 163.54 70.1697L163.465 63.1697C163.45 62.9885 163.367 62.8195 163.233 62.6964C163.1 62.5732 162.924 62.5049 162.742 62.5049C162.561 62.5049 162.385 62.5732 162.252 62.6964C162.118 62.8195 162.035 62.9885 162.02 63.1697L162.09 70.1697C162.089 70.2841 162.114 70.3972 162.165 70.4997Z" fill="#E0E0E0"/>
<path d="M155.8 66.6049L155.845 66.6899L159.29 71.6899C159.397 71.8482 159.562 71.958 159.749 71.9954C159.936 72.0329 160.131 71.995 160.29 71.8899C160.445 71.7807 160.553 71.6156 160.589 71.4292C160.625 71.2427 160.588 71.0495 160.485 70.8899L157.04 65.8899C156.94 65.7348 156.783 65.6242 156.604 65.581C156.424 65.5378 156.235 65.5653 156.075 65.6578C155.915 65.7502 155.797 65.9006 155.745 66.0779C155.693 66.2551 155.711 66.4456 155.795 66.6099L155.8 66.6049Z" fill="#E0E0E0"/>
</svg>
