<svg width="20" height="20" viewBox="0 0 20 20" fill="none" xmlns="http://www.w3.org/2000/svg">
<path d="M9.99158 10.3716H9.9872C9.90508 10.3704 9.82672 10.337 9.76905 10.2785C9.71139 10.22 9.67907 10.1412 9.67908 10.0591L9.68751 8.4375H9.9797C10.2131 7.96854 10.5725 7.57391 11.0177 7.29791C11.4629 7.0219 11.9762 6.87545 12.5 6.875V7.5C11.9201 7.50074 11.3641 7.73145 10.954 8.14153C10.544 8.5516 10.3133 9.10757 10.3125 9.6875L10.3041 10.0666C10.3021 10.1481 10.2683 10.2257 10.2099 10.2827C10.1515 10.3397 10.0732 10.3716 9.99158 10.3716Z" fill="#333333"/>
<path d="M9.64812 11.1059C9.627 11.1518 9.59507 11.1919 9.55507 11.2227C9.51508 11.2535 9.46821 11.2742 9.41848 11.2829C9.36874 11.2917 9.31763 11.2883 9.26952 11.273C9.2214 11.2576 9.17771 11.2309 9.14219 11.195C8.72841 10.7766 8.1996 10.4905 7.62293 10.3733C7.04626 10.256 6.44774 10.3127 5.90339 10.5363C5.35903 10.7599 4.8934 11.1402 4.56563 11.6289C4.23786 12.1176 4.06274 12.6928 4.0625 13.2813V14.375C4.0625 14.4579 4.02958 14.5374 3.97097 14.596C3.91237 14.6546 3.83288 14.6875 3.75 14.6875H2.8125C2.3981 14.6875 2.00067 14.8521 1.70765 15.1451C1.41462 15.4382 1.25 15.8356 1.25 16.25C1.25 16.6644 1.41462 17.0618 1.70765 17.3549C2.00067 17.6479 2.3981 17.8125 2.8125 17.8125H15.625C16.4538 17.8125 17.2487 17.4833 17.8347 16.8972C18.4208 16.3112 18.75 15.5163 18.75 14.6875C18.75 13.8587 18.4208 13.0638 17.8347 12.4778C17.2487 11.8917 16.4538 11.5625 15.625 11.5625H15.4344C15.3698 11.5625 15.3067 11.5425 15.254 11.5053C15.2012 11.468 15.1613 11.4153 15.1397 11.3544C14.9436 10.7971 14.5854 10.3112 14.1112 9.95888C13.637 9.60658 13.0684 9.404 12.4782 9.37714C11.8881 9.35027 11.3034 9.50034 10.7991 9.8081C10.2949 10.1158 9.89406 10.5672 9.64812 11.1044V11.1059ZM17.5 15.625H16.875V15H17.5V15.625ZM15.625 12.5C16.1221 12.5005 16.5988 12.6982 16.9503 13.0497C17.3018 13.4012 17.4995 13.8779 17.5 14.375H16.875C16.875 14.0435 16.7433 13.7255 16.5089 13.4911C16.2745 13.2567 15.9565 13.125 15.625 13.125V12.5Z" fill="#333333"/>
<path d="M7.18749 8.125H8.99623L1.28967 2.81C1.44408 4.26737 2.13171 5.61624 3.22039 6.59734C4.30907 7.57844 5.72196 8.12252 7.18749 8.125Z" fill="#333333"/>
<path d="M3.74998 2.5H1.94092L9.64779 7.815C9.49339 6.35763 8.80576 5.00876 7.71708 4.02766C6.6284 3.04656 5.21551 2.50248 3.74998 2.5Z" fill="#333333"/>
<path d="M17.5 2.5C16.3739 2.50184 15.2859 2.90862 14.4348 3.64607C13.5837 4.38352 13.0262 5.40246 12.8641 6.51688L18.1363 2.5H17.5Z" fill="#333333"/>
<path d="M14.0625 6.875C15.1887 6.87316 16.2766 6.46638 17.1277 5.72893C17.9788 4.99148 18.5363 3.97254 18.6985 2.85812L13.4263 6.875H14.0625Z" fill="#333333"/>
</svg>
