<svg width="20" height="20" viewBox="0 0 20 20" fill="none" xmlns="http://www.w3.org/2000/svg">
<path d="M12.4337 15.5494C12.4381 15.5494 12.4381 15.5494 12.4422 15.5494C12.4506 15.5359 12.4637 15.5275 12.4734 15.5141C12.4593 15.5275 12.4465 15.5403 12.4337 15.5494Z" fill="#241F20"/>
<path d="M12.3725 18.6484C12.0409 17.4747 10.619 16.6741 9.79028 16.6741C7.66466 16.6347 7.54653 15.2478 7.53966 15.0938H8.11435C8.11435 15.0938 8.67372 15.085 8.44872 14.5934C8.44841 14.5925 8.44841 14.5925 8.44841 14.5916L7.72341 13.01C8.45966 12.8797 9.12841 12.545 9.66622 12.065C9.68091 12.0556 9.69028 12.0453 9.70497 12.0316C10.0053 11.6925 10.2815 11.3438 10.524 10.9994C10.5284 10.9941 10.5284 10.99 10.5284 10.9847C11.7887 9.17313 12.2147 7.35157 12.365 6.37282V6.34813C12.3843 6.25126 12.389 6.16907 12.404 6.09594C12.4093 6.00938 12.4187 5.94094 12.4231 5.87813C12.4378 5.72313 12.4378 5.64094 12.4378 5.64094C12.4431 5.57782 12.4431 5.51501 12.4431 5.45188C12.4431 2.45751 10.0153 0.0303192 7.01653 0.0303192C4.02247 0.0303192 1.59497 2.45751 1.59497 5.45188C1.59497 5.51501 1.59497 5.57782 1.60028 5.64094C1.60028 5.66969 1.60028 5.70407 1.60466 5.72813C1.61497 5.91719 1.63403 6.09626 1.6581 6.27563C1.6581 6.28969 1.66341 6.29969 1.66341 6.30907C1.97341 8.67376 3.02435 10.3984 3.68372 11.2797C3.71716 11.3238 3.75185 11.3675 3.78028 11.4066C3.87247 11.5275 3.95466 11.6238 4.02278 11.7069C4.09028 11.7888 4.14372 11.8466 4.18247 11.8853C4.22653 11.9294 4.2456 11.9491 4.2456 11.9491C4.2456 11.9491 4.2456 11.9491 4.25091 11.9491C4.8031 12.4909 5.52028 12.8691 6.31435 13.01L5.69622 14.4319C5.42653 15.0519 6.01903 15.0934 6.01903 15.0934H6.65997C7.03841 17.4716 8.77122 17.5019 9.55685 17.5234C11.5453 17.7519 11.6968 19.3934 11.6968 19.6422C11.7525 19.8216 11.8487 20.0147 12.2356 19.9597C12.6225 19.9047 12.5525 19.4488 12.5525 19.4488C12.5525 19.4488 12.5793 19.2834 12.3725 18.6484Z" fill="#241F20"/>
<path d="M14.2512 2.2872C13.7031 2.2872 13.1847 2.40126 12.7066 2.5947C12.4831 2.71501 12.5566 3.00158 12.5566 3.00158L12.5947 3.08908C12.5947 3.08908 12.5962 3.0922 12.5962 3.09314L12.6006 3.10251C12.6025 3.10595 12.61 3.11345 12.6128 3.11814C12.695 3.28939 12.845 3.61095 12.915 3.8172C13.2569 4.92658 13.4844 7.16095 11.6591 10.4681L11.6203 10.5369C11.6194 10.5381 11.5428 10.6853 11.6537 10.8375C11.6684 10.8581 11.685 10.8825 11.6987 10.9016C11.7256 10.935 11.7516 10.9688 11.7737 10.9981C11.8437 11.0916 11.9066 11.1647 11.9584 11.2285C12.0112 11.2916 12.0519 11.3356 12.0812 11.365C12.1147 11.3985 12.1294 11.4141 12.1294 11.4141C12.1294 11.4141 12.1294 11.4141 12.1331 11.4141C12.5559 11.8294 13.1056 12.1185 13.7141 12.2263L13.2403 13.3144C13.0747 13.696 13.3309 13.79 13.4406 13.8135H15.1625C15.2753 13.7928 15.4766 13.7166 15.3487 13.4391C15.3487 13.4381 15.3487 13.4381 15.3487 13.4372L14.7931 12.2263C15.3578 12.1263 15.8694 11.8697 16.2812 11.5035C16.2922 11.4956 16.3003 11.4878 16.3106 11.4775C16.5409 11.2178 16.7525 10.95 16.9381 10.6869C16.9416 10.6825 16.9416 10.6794 16.9416 10.676C17.9066 9.28876 18.2328 7.89345 18.3475 7.14439V7.12533C18.3631 7.05126 18.3666 6.98814 18.3778 6.93251C18.3812 6.86626 18.3887 6.81376 18.3925 6.76564C18.4034 6.64751 18.4034 6.58376 18.4034 6.58376C18.4072 6.53595 18.4072 6.48751 18.4072 6.43939C18.4056 4.14533 16.5475 2.2872 14.2512 2.2872Z" fill="#241F20"/>
</svg>
