<svg width="16" height="16" viewBox="0 0 16 16" fill="none" xmlns="http://www.w3.org/2000/svg">
<g clip-path="url(#clip0_66_311)">
<path d="M16 8.04858C16 3.6303 12.4183 0.048584 8 0.048584C3.58172 0.048584 0 3.6303 0 8.04858C0 12.0416 2.9255 15.3512 6.75 15.9514V10.3611H4.71875V8.04858H6.75V6.28608C6.75 4.28108 7.94434 3.17358 9.77172 3.17358C10.647 3.17358 11.5625 3.32983 11.5625 3.32983V5.29858H10.5537C9.55994 5.29858 9.25 5.91524 9.25 6.5479V8.04858H11.4688L11.1141 10.3611H9.25V15.9514C13.0745 15.3512 16 12.0416 16 8.04858Z" fill="white" fill-opacity="0.5"/>
</g>
<defs>
<clipPath id="clip0_66_311">
<rect width="16" height="16" fill="white"/>
</clipPath>
</defs>
</svg>
