<svg width="20" height="20" viewBox="0 0 20 20" fill="none" xmlns="http://www.w3.org/2000/svg">
<g clip-path="url(#clip0_158_712)">
<path d="M10 0C4.47656 0 0 4.47656 0 10C0 15.5234 4.47656 20 10 20C15.5234 20 20 15.5234 20 10C20 4.47656 15.5234 0 10 0ZM6.83984 6.875C7.53516 6.875 8.09336 7.43164 8.09336 8.125C8.09336 8.81836 7.53516 9.375 6.83984 9.375C6.14922 9.375 5.59102 8.81836 5.59102 8.125C5.59102 7.43164 6.18359 6.875 6.83984 6.875ZM14.4844 13.5273C13.3711 14.8594 11.7344 15.625 10 15.625C8.26562 15.625 6.62734 14.8586 5.51562 13.5254C4.98594 12.8855 5.95078 12.0898 6.47578 12.7246C7.35156 13.7812 8.63281 14.375 10 14.375C11.3672 14.375 12.6488 13.7742 13.5238 12.7246C14.0547 12.0938 15.0156 12.8906 14.4844 13.5273ZM14.6953 9.10156L14.3164 8.76953C13.7348 8.25195 12.5094 8.25195 11.9324 8.76953L11.5588 9.10156C11.2371 9.38965 10.717 9.11621 10.7877 8.68164C10.9438 7.69531 12.1228 7.03594 13.1255 7.03594C14.133 7.03594 15.3084 7.69531 15.4646 8.68164C15.5313 9.10938 15.0234 9.39453 14.6953 9.10156Z" fill="white"/>
</g>
<defs>
<clipPath id="clip0_158_712">
<rect width="20" height="20" fill="white"/>
</clipPath>
</defs>
</svg>
