<svg width="24" height="24" viewBox="0 0 24 24" fill="none" xmlns="http://www.w3.org/2000/svg">
<g clip-path="url(#clip0_210_1040)">
<path d="M24 12.0732C24 5.44582 18.6274 0.0732422 12 0.0732422C5.37258 0.0732422 0 5.44582 0 12.0732C0 18.0628 4.38825 23.0272 10.125 23.9275V15.542H7.07812V12.0732H10.125V9.42949C10.125 6.42199 11.9165 4.76074 14.6576 4.76074C15.9705 4.76074 17.3438 4.99512 17.3438 4.99512V7.94824H15.8306C14.3399 7.94824 13.875 8.87323 13.875 9.82221V12.0732H17.2031L16.6711 15.542H13.875V23.9275C19.6118 23.0272 24 18.0628 24 12.0732Z" fill="#333333"/>
</g>
<defs>
<clipPath id="clip0_210_1040">
<rect width="24" height="24" fill="white"/>
</clipPath>
</defs>
</svg>
