<svg width="20" height="20" viewBox="0 0 20 20" fill="none" xmlns="http://www.w3.org/2000/svg">
<path d="M18.6344 3.855C18.4275 3.405 17.9894 3.125 17.4912 3.125H2.50873C2.0106 3.125 1.57248 3.405 1.36498 3.855C1.15935 4.30125 1.2306 4.81125 1.5506 5.185L1.55123 5.18563L7.49998 12.1069V17.5C7.49998 17.7306 7.62685 17.9425 7.82998 18.0513C7.92248 18.1006 8.02373 18.125 8.12498 18.125C8.24623 18.125 8.36685 18.0894 8.47185 18.02L12.2219 15.52C12.3956 15.4038 12.5 15.2087 12.5 15V12.1069L18.4494 5.18563C18.7694 4.81125 18.8406 4.30125 18.6344 3.855Z" fill="#333333"/>
</svg>
