<svg width="20" height="20" viewBox="0 0 20 20" fill="none" xmlns="http://www.w3.org/2000/svg">
<path d="M15.8333 1.6665H4.16666C3.50362 1.6665 2.86773 1.9299 2.39889 2.39874C1.93005 2.86758 1.66666 3.50346 1.66666 4.1665V15.8332C1.66666 16.4962 1.93005 17.1321 2.39889 17.6009C2.86773 18.0698 3.50362 18.3332 4.16666 18.3332H15.8333C16.4964 18.3332 17.1322 18.0698 17.6011 17.6009C18.0699 17.1321 18.3333 16.4962 18.3333 15.8332V4.1665C18.3333 3.50346 18.0699 2.86758 17.6011 2.39874C17.1322 1.9299 16.4964 1.6665 15.8333 1.6665ZM8.33332 5.83317C8.66296 5.83317 8.98519 5.93092 9.25927 6.11405C9.53336 6.29719 9.74698 6.55749 9.87312 6.86203C9.99927 7.16657 10.0323 7.50169 9.96797 7.82499C9.90366 8.14829 9.74492 8.44526 9.51183 8.67835C9.27875 8.91144 8.98178 9.07017 8.65847 9.13448C8.33517 9.19879 8.00006 9.16578 7.69552 9.03964C7.39097 8.91349 7.13068 8.69987 6.94754 8.42579C6.7644 8.15171 6.66666 7.82947 6.66666 7.49984C6.66666 7.05781 6.84225 6.63389 7.15481 6.32133C7.46737 6.00877 7.8913 5.83317 8.33332 5.83317ZM6.24166 16.6665H4.16666C3.99027 16.6635 3.81939 16.6046 3.67862 16.4983C3.53785 16.3919 3.43446 16.2437 3.38332 16.0748L5.95832 12.9832C6.04133 12.8903 6.1427 12.8157 6.25602 12.7641C6.36934 12.7125 6.49214 12.6849 6.61666 12.6832C6.7432 12.6857 6.8675 12.7171 6.98013 12.7748C7.09275 12.8326 7.19074 12.9152 7.26666 13.0165L8.09999 14.1248L6.24166 16.6665ZM16.6667 15.8332C16.6667 16.0542 16.5789 16.2661 16.4226 16.4224C16.2663 16.5787 16.0543 16.6665 15.8333 16.6665H8.33332L12.8917 10.3998C12.9623 10.3023 13.0533 10.2213 13.1583 10.1623C13.2634 10.1033 13.3799 10.0678 13.5 10.0582C13.6207 10.0482 13.7421 10.0646 13.8558 10.1064C13.9695 10.1481 14.0727 10.2141 14.1583 10.2998L16.6667 12.8415V15.8332Z" fill="white"/>
</svg>
