<svg width="20" height="20" viewBox="0 0 20 20" fill="none" xmlns="http://www.w3.org/2000/svg">
<path d="M10 2C6.66667 2 4 4.66112 4 7.98753C4 12.1123 6.26667 15.7713 9.66667 17.9002C9.86667 18.0333 10.1333 18.0333 10.4 17.9002C13.7333 15.7048 16 12.1123 16 7.98753C16 4.66112 13.3333 2 10 2ZM10 10.6486C8.53333 10.6486 7.33333 9.45114 7.33333 7.98753C7.33333 6.52391 8.53333 5.3264 10 5.3264C11.4667 5.3264 12.6667 6.52391 12.6667 7.98753C12.6667 9.45114 11.4667 10.6486 10 10.6486Z" fill="#333333"/>
</svg>
