<svg width="16" height="16" viewBox="0 0 16 16" fill="none" xmlns="http://www.w3.org/2000/svg">
<path d="M5.95001 9.64062H2.57501C3.18439 10.5219 4.19376 11.5062 5.84064 12.5719C6.51251 13.0062 7.27814 13.2219 8.04689 13.2219C8.11876 13.2219 8.19376 13.2188 8.26564 13.2156L6.56876 8.39062L5.95001 9.64062Z" fill="#1B3954"/>
<path d="M10.025 9.4375L8.33752 13.2125C9.00315 13.1656 9.66252 12.95 10.2469 12.5719C11.6313 11.675 12.5563 10.8375 13.1719 10.0656H10.3406L10.025 9.4375Z" fill="#1B3954"/>
<path d="M11.3594 8.42187L9.94064 5.59062L8.47501 8.86875L6.81564 4.14687L4.92501 7.99687H0.762512V9.20312H5.67814L6.63126 7.2625L8.34376 12.1281L10.0031 8.4125L10.6125 9.62812H15.2375V8.42187H11.3594Z" fill="#16ADE1"/>
<path d="M4.65314 7.55937L6.88126 3.01875L8.52501 7.69063L9.91876 4.56875L11.6281 7.9875H14.2375C14.3313 7.5875 14.3563 7.22813 14.3563 6.90938C14.3563 6.79688 14.35 6.68437 14.3406 6.57187C14.3344 6.57187 14.325 6.57187 14.3188 6.57187L12.7781 6.58437C12.7781 6.58437 12.7781 6.58437 12.775 6.58437C12.6563 6.58437 12.5563 6.4875 12.5563 6.36875C12.5563 6.24687 12.6531 6.15 12.7719 6.14687L14.2781 6.13437C13.9156 4.2625 12.2688 2.84687 10.2906 2.84687C9.46251 2.84687 8.69376 3.09375 8.05314 3.51875C7.39376 3.05312 6.58751 2.77812 5.71564 2.77812C3.47189 2.77812 1.65314 4.59687 1.65314 6.84062C1.65314 7.05937 1.66564 7.3 1.70314 7.55937H4.65314ZM11.7656 6.31562C11.7688 6.30312 11.7719 6.2875 11.7781 6.275C11.7844 6.2625 11.7906 6.25 11.7969 6.2375C11.8063 6.225 11.8125 6.21562 11.825 6.20312C11.8344 6.19375 11.8469 6.18438 11.8594 6.175C11.8719 6.16562 11.8844 6.15937 11.8969 6.15625C11.9094 6.15 11.925 6.14687 11.9375 6.14375C11.9656 6.1375 11.9938 6.1375 12.0219 6.14375C12.0344 6.14687 12.05 6.15 12.0625 6.15625C12.075 6.1625 12.0875 6.16875 12.1 6.175C12.1125 6.18438 12.1219 6.19375 12.1344 6.20312C12.175 6.24375 12.1969 6.3 12.1969 6.35625C12.1969 6.37187 12.1969 6.38437 12.1938 6.4C12.1906 6.4125 12.1875 6.42812 12.1813 6.44062C12.175 6.45312 12.1688 6.46562 12.1625 6.47812C12.1531 6.49062 12.1469 6.5 12.1344 6.5125C12.125 6.52187 12.1125 6.53125 12.1 6.54062C12.0875 6.55 12.075 6.55625 12.0625 6.55937C12.05 6.56562 12.0344 6.56875 12.0219 6.57187C12.0063 6.575 11.9938 6.575 11.9781 6.575C11.9625 6.575 11.95 6.575 11.9344 6.57187C11.9219 6.56875 11.9063 6.56562 11.8938 6.55937C11.8813 6.55312 11.8688 6.54687 11.8563 6.54062C11.8438 6.53125 11.8344 6.525 11.8219 6.5125C11.8125 6.50312 11.8031 6.49062 11.7938 6.47812C11.7844 6.46562 11.7781 6.45312 11.775 6.44062C11.7688 6.42812 11.7656 6.4125 11.7625 6.4C11.7594 6.38437 11.7594 6.37187 11.7594 6.35625C11.7594 6.34375 11.7625 6.32812 11.7656 6.31562Z" fill="#1B3954"/>
</svg>
