<svg width="20" height="20" viewBox="0 0 20 20" fill="none" xmlns="http://www.w3.org/2000/svg">
<path d="M7.4375 12.0508H3.21875C3.98047 13.1523 5.24219 14.3828 7.30078 15.7148C8.14062 16.2578 9.09766 16.5273 10.0586 16.5273C10.1484 16.5273 10.2422 16.5234 10.332 16.5195L8.21094 10.4883L7.4375 12.0508Z" fill="#1B3954"/>
<path d="M12.5312 11.7969L10.4219 16.5156C11.2539 16.457 12.0781 16.1875 12.8086 15.7148C14.5391 14.5937 15.6953 13.5469 16.4648 12.582H12.9258L12.5312 11.7969Z" fill="#1B3954"/>
<path d="M14.1992 10.5273L12.4258 6.98828L10.5938 11.0859L8.51953 5.18359L6.15625 9.99609H0.953125V11.5039H7.09766L8.28906 9.07812L10.4297 15.1602L12.5039 10.5156L13.2656 12.0352H19.0469V10.5273H14.1992Z" fill="#F02849"/>
<path d="M5.81641 9.44922L8.60156 3.77344L10.6562 9.61328L12.3984 5.71094L14.5352 9.98438H17.7969C17.9141 9.48438 17.9453 9.03516 17.9453 8.63672C17.9453 8.49609 17.9375 8.35547 17.9258 8.21484C17.918 8.21484 17.9063 8.21484 17.8984 8.21484L15.9727 8.23047C15.9727 8.23047 15.9727 8.23047 15.9688 8.23047C15.8203 8.23047 15.6953 8.10938 15.6953 7.96094C15.6953 7.80859 15.8164 7.6875 15.9648 7.68359L17.8477 7.66797C17.3945 5.32812 15.3359 3.55859 12.8633 3.55859C11.8281 3.55859 10.8672 3.86719 10.0664 4.39844C9.24219 3.81641 8.23438 3.47266 7.14453 3.47266C4.33984 3.47266 2.06641 5.74609 2.06641 8.55078C2.06641 8.82422 2.08203 9.125 2.12891 9.44922H5.81641ZM14.707 7.89453C14.7109 7.87891 14.7148 7.85938 14.7227 7.84375C14.7305 7.82812 14.7383 7.8125 14.7461 7.79688C14.7578 7.78125 14.7656 7.76953 14.7812 7.75391C14.793 7.74219 14.8086 7.73047 14.8242 7.71875C14.8398 7.70703 14.8555 7.69922 14.8711 7.69531C14.8867 7.6875 14.9062 7.68359 14.9219 7.67969C14.957 7.67188 14.9922 7.67188 15.0273 7.67969C15.043 7.68359 15.0625 7.6875 15.0781 7.69531C15.0938 7.70312 15.1094 7.71094 15.125 7.71875C15.1406 7.73047 15.1523 7.74219 15.168 7.75391C15.2188 7.80469 15.2461 7.875 15.2461 7.94531C15.2461 7.96484 15.2461 7.98047 15.2422 8C15.2383 8.01562 15.2344 8.03516 15.2266 8.05078C15.2188 8.06641 15.2109 8.08203 15.2031 8.09766C15.1914 8.11328 15.1836 8.125 15.168 8.14062C15.1562 8.15234 15.1406 8.16406 15.125 8.17578C15.1094 8.1875 15.0938 8.19531 15.0781 8.19922C15.0625 8.20703 15.043 8.21094 15.0273 8.21484C15.0078 8.21875 14.9922 8.21875 14.9727 8.21875C14.9531 8.21875 14.9375 8.21875 14.918 8.21484C14.9023 8.21094 14.8828 8.20703 14.8672 8.19922C14.8516 8.19141 14.8359 8.18359 14.8203 8.17578C14.8047 8.16406 14.793 8.15625 14.7773 8.14062C14.7656 8.12891 14.7539 8.11328 14.7422 8.09766C14.7305 8.08203 14.7227 8.06641 14.7188 8.05078C14.7109 8.03516 14.707 8.01562 14.7031 8C14.6992 7.98047 14.6992 7.96484 14.6992 7.94531C14.6992 7.92969 14.7031 7.91016 14.707 7.89453Z" fill="#1B3954"/>
</svg>
