<svg width="24" height="24" viewBox="0 0 24 24" fill="none" xmlns="http://www.w3.org/2000/svg">
<path d="M23.6432 9.94243L13.2355 0.450563C12.5349 -0.150188 11.5342 -0.150188 10.7336 0.450563L0.425896 9.94243C-0.374702 10.6633 0.0255973 11.985 1.02635 11.985H2.02709V19.3141C2.02709 21.8373 3.82844 24 6.03008 24H8.03158C8.63203 24 9.03233 23.5194 9.03233 22.7985V16.9111C9.03233 15.5895 9.933 14.388 11.0338 14.388H13.0353C14.1361 14.388 15.0368 15.5895 15.0368 16.9111V22.7985C15.0368 23.3992 15.4371 24 16.0376 24H18.0391C20.2407 24 22.0421 21.8373 22.0421 19.3141V11.985H23.0428C23.9435 11.985 24.3438 10.6633 23.6432 9.94243Z" fill="#6699CC"/>
</svg>
