<svg width="16" height="16" viewBox="0 0 16 16" fill="none" xmlns="http://www.w3.org/2000/svg">
<path d="M12.6667 1.3335H3.33334C2.8029 1.3335 2.2942 1.54421 1.91912 1.91928C1.54405 2.29436 1.33334 2.80306 1.33334 3.3335V12.6668C1.33334 13.1973 1.54405 13.706 1.91912 14.081C2.2942 14.4561 2.8029 14.6668 3.33334 14.6668H12.6667C13.1971 14.6668 13.7058 14.4561 14.0809 14.081C14.456 13.706 14.6667 13.1973 14.6667 12.6668V3.3335C14.6667 2.80306 14.456 2.29436 14.0809 1.91928C13.7058 1.54421 13.1971 1.3335 12.6667 1.3335ZM6.66667 4.66683C6.93038 4.66683 7.18816 4.74503 7.40743 4.89154C7.62669 5.03804 7.79759 5.24628 7.89851 5.48992C7.99942 5.73355 8.02583 6.00164 7.97438 6.26028C7.92294 6.51892 7.79595 6.7565 7.60948 6.94297C7.42301 7.12944 7.18543 7.25643 6.92679 7.30788C6.66815 7.35932 6.40006 7.33292 6.15642 7.232C5.91279 7.13108 5.70455 6.96019 5.55804 6.74092C5.41153 6.52166 5.33334 6.26387 5.33334 6.00016C5.33334 5.64654 5.47381 5.3074 5.72386 5.05735C5.97391 4.8073 6.31305 4.66683 6.66667 4.66683ZM4.99334 13.3335H3.33334C3.19223 13.3311 3.05552 13.284 2.94291 13.1989C2.83029 13.1138 2.74758 12.9952 2.70667 12.8602L4.76667 10.3868C4.83308 10.3126 4.91417 10.2529 5.00483 10.2116C5.09548 10.1703 5.19372 10.1482 5.29334 10.1468C5.39457 10.1489 5.49401 10.1739 5.58411 10.2201C5.67421 10.2664 5.7526 10.3325 5.81334 10.4135L6.48 11.3002L4.99334 13.3335ZM13.3333 12.6668C13.3333 12.8436 13.2631 13.0132 13.1381 13.1382C13.013 13.2633 12.8435 13.3335 12.6667 13.3335H6.66667L10.3133 8.32016C10.3699 8.24214 10.4427 8.1773 10.5267 8.13011C10.6107 8.08292 10.7039 8.05451 10.8 8.04683C10.8966 8.03885 10.9937 8.05201 11.0847 8.0854C11.1756 8.11879 11.2582 8.1716 11.3267 8.24016L13.3333 10.2735V12.6668Z" fill="#333333"/>
</svg>
