<svg width="8" height="14" viewBox="0 0 8 14" fill="none" xmlns="http://www.w3.org/2000/svg">
<path d="M2 7H5.33333C5.51014 7 5.67971 7.07024 5.80474 7.19526C5.92976 7.32029 6 7.48986 6 7.66667V13.6667H2V7Z" fill="white"/>
<path d="M4 0.333313C2.68181 1.65147 1.36365 2.83181 1.36365 4.28786C1.36406 4.90187 1.57895 5.49644 1.97119 5.96883C2.36343 6.44122 2.90837 6.76175 3.51184 6.87502C3.28317 6.73853 3.09534 6.54314 2.96799 6.30926C2.84064 6.07537 2.77844 5.81157 2.78788 5.54543C2.78788 4.7421 3.39392 4.09089 4 3.36359C4.60608 4.09088 5.21212 4.74209 5.21212 5.54543C5.22157 5.81157 5.15936 6.07537 5.03201 6.30926C4.90466 6.54314 4.71684 6.73853 4.48816 6.87502C5.09163 6.76175 5.63657 6.44122 6.02881 5.96883C6.42105 5.49644 6.63594 4.90187 6.63635 4.28786C6.63635 2.83181 5.31819 1.65147 4 0.333313Z" fill="white"/>
<path d="M4.66668 10.3333H1.85633C1.67034 10.3333 1.48768 10.284 1.32699 10.1903C1.16631 10.0966 1.03336 9.962 0.941722 9.80015C0.850083 9.6383 0.803035 9.45502 0.805382 9.26905C0.807728 9.08307 0.859386 8.90104 0.955079 8.74155L2.00001 7H4.66668V10.3333Z" fill="white"/>
<path d="M7.33333 12.3333H0.666667C0.298477 12.3333 0 12.6318 0 13C0 13.3682 0.298477 13.6666 0.666667 13.6666H7.33333C7.70152 13.6666 8 13.3682 8 13C8 12.6318 7.70152 12.3333 7.33333 12.3333Z" fill="white"/>
</svg>
