<svg width="75" height="75" viewBox="0 0 75 75" fill="none" xmlns="http://www.w3.org/2000/svg">
<path d="M37.5 68.75C62.5 56.25 71.875 40.625 71.875 25C71.8732 20.9728 70.5749 17.0531 68.1721 13.8212C65.7693 10.5893 62.3898 8.21695 58.5337 7.05524C54.6777 5.89352 50.5501 6.00421 46.7619 7.37091C42.9737 8.73762 39.7261 11.2877 37.5 14.6437C35.2739 11.2877 32.0263 8.73762 28.2381 7.37091C24.4499 6.00421 20.3223 5.89352 16.4663 7.05524C12.6102 8.21695 9.23072 10.5893 6.82792 13.8212C4.42513 17.0531 3.12676 20.9728 3.125 25C3.125 40.625 12.5 56.25 37.5 68.75Z" fill="#FF0000"/>
</svg>
