<svg width="20" height="20" viewBox="0 0 20 20" fill="none" xmlns="http://www.w3.org/2000/svg">
<path d="M5.5 15.625C5.5 15.8313 5.33008 16 5.125 16H4.375C4.16992 16 4 15.8313 4 15.625V4.75C4 4.33398 4.33398 4 4.75 4C5.16602 4 5.5 4.33398 5.5 4.75V15.625ZM15.1633 4C15.0141 4 14.8584 4.03164 14.71 4.09921C13.6391 4.58812 12.8453 4.75405 12.1834 4.75405C10.7781 4.75405 9.96133 4.00734 8.34203 4.0071C7.77109 4.00716 7.08437 4.11407 6.25 4.36914V12.584C7 12.35 7.6532 12.2535 8.23867 12.2535C9.96438 12.2535 11.166 12.9984 12.8934 12.9984C13.6413 12.9984 14.4876 12.8584 15.4973 12.4572C15.8148 12.3414 16 12.0719 16 11.7836V4.72023C16 4.26016 15.6086 4 15.1633 4Z" fill="#333333"/>
</svg>
