<svg width="221" height="229" viewBox="0 0 221 229" fill="none" xmlns="http://www.w3.org/2000/svg">
<path d="M32.8931 211.133C75.7551 233.924 145.245 233.93 188.107 211.133C230.969 188.335 230.963 151.386 188.107 128.595C145.251 105.804 75.7551 105.804 32.8931 128.595C-9.96894 151.386 -9.96272 188.342 32.8931 211.133Z" fill="#F5F5F5"/>
<path d="M29.64 187.78L34.6969 184.525C37.5203 181.954 39.6692 178.58 40.9169 174.76C42.4781 169.958 42.2604 166.307 41.1408 164.475C39.7662 162.22 36.2021 162.615 36.0591 167.362C35.7605 176.717 33.316 183.206 29.64 187.78Z" fill="#407BFF"/>
<path opacity="0.2" d="M29.64 187.78L34.6969 184.525C37.5203 181.954 39.6692 178.58 40.9169 174.76C42.4781 169.958 42.2604 166.307 41.1408 164.475C39.7662 162.22 36.2021 162.615 36.0591 167.362C35.7605 176.717 33.316 183.206 29.64 187.78Z" fill="black"/>
<path d="M29.64 188.126C29.5741 188.125 29.5102 188.101 29.4575 188.057C29.4047 188.013 29.3659 187.951 29.3465 187.881C29.3271 187.811 29.3283 187.736 29.3497 187.666C29.3711 187.597 29.4118 187.537 29.4658 187.494C41.1594 178.472 38.8953 165.89 38.8704 165.765C38.8619 165.72 38.8614 165.673 38.8691 165.627C38.8768 165.581 38.8925 165.538 38.9153 165.499C38.9382 165.46 38.9676 165.426 39.0021 165.4C39.0365 165.373 39.0753 165.355 39.1161 165.345C39.157 165.336 39.1991 165.335 39.2401 165.344C39.2811 165.353 39.3202 165.37 39.3552 165.396C39.3901 165.421 39.4202 165.454 39.4438 165.492C39.4673 165.531 39.4839 165.574 39.4924 165.62C39.4924 165.751 41.8809 178.764 29.839 188.064C29.7806 188.108 29.7106 188.13 29.64 188.126Z" fill="white"/>
<path d="M19.5076 194.309C19.5076 194.309 17.7473 192.713 18.1703 190.548C18.5933 188.383 19.7315 186.828 17.7847 184.038C15.8378 181.248 15.2967 177.528 17.6229 175.516C19.3956 173.954 22.1635 176.161 23.1587 172.046C23.8927 169.034 23.6439 162.365 27.0836 160.144C30.5232 157.923 32.6816 161.268 32.1404 165.793C31.6677 169.839 30.9959 173.732 31.5184 174.815C32.5261 176.897 34.249 176.612 34.1681 180.416C34.0997 183.955 31.0955 186.884 31.0955 186.884L19.5076 194.309Z" fill="#407BFF"/>
<path d="M25.286 190.916C25.2099 190.915 25.1367 190.884 25.0796 190.828C25.0225 190.772 24.9854 190.695 24.975 190.611C24.0855 182.387 26.219 168.187 27.9606 163.968C27.9752 163.921 27.9987 163.878 28.0294 163.842C28.0602 163.807 28.0974 163.779 28.1386 163.76C28.1799 163.742 28.2242 163.733 28.2686 163.736C28.313 163.738 28.3564 163.751 28.396 163.774C28.4331 163.792 28.4665 163.819 28.4942 163.852C28.5219 163.886 28.5433 163.925 28.5573 163.967C28.5712 164.01 28.5773 164.055 28.5752 164.101C28.5732 164.146 28.563 164.191 28.5452 164.232C26.8223 168.396 24.7635 182.636 25.6156 190.499C25.6244 190.591 25.6005 190.682 25.5492 190.753C25.498 190.825 25.4235 190.871 25.3419 190.881L25.286 190.916Z" fill="white"/>
<path d="M25.118 184.51C25.0704 184.513 25.0231 184.501 24.9812 184.475C22.8229 183.303 21.4545 179.118 21.3985 178.923C21.3832 178.88 21.3759 178.834 21.3769 178.788C21.3779 178.741 21.3873 178.696 21.4044 178.653C21.4215 178.611 21.4461 178.573 21.4766 178.542C21.5071 178.51 21.5429 178.486 21.582 178.47C21.6211 178.454 21.6627 178.447 21.7042 178.45C21.7457 178.452 21.7864 178.464 21.8238 178.484C21.8612 178.504 21.8946 178.533 21.9219 178.568C21.9493 178.603 21.9701 178.643 21.9832 178.687C21.9832 178.729 23.3205 182.782 25.2549 183.83C25.3183 183.864 25.3695 183.922 25.3999 183.993C25.4303 184.064 25.4382 184.144 25.4223 184.221C25.4064 184.297 25.3676 184.366 25.3123 184.414C25.2571 184.463 25.1885 184.49 25.118 184.489V184.51Z" fill="white"/>
<path d="M25.0807 187.286C25.0184 187.286 24.9576 187.265 24.9064 187.225C24.8553 187.185 24.8162 187.129 24.7946 187.064C24.7637 186.979 24.7639 186.884 24.7954 186.8C24.8269 186.715 24.8869 186.648 24.9626 186.613C28.595 184.989 30.8591 180.165 30.884 180.11C30.9219 180.028 30.9875 179.966 31.0662 179.938C31.145 179.91 31.2304 179.918 31.3038 179.961C31.3773 180.003 31.4326 180.076 31.4577 180.164C31.4827 180.252 31.4755 180.347 31.4376 180.429C31.3381 180.637 29.0429 185.537 25.2176 187.258C25.175 187.281 25.1277 187.29 25.0807 187.286Z" fill="white"/>
<path d="M152.05 149.949C152.05 149.949 149.331 145.035 149.064 139.699C148.797 134.362 149.848 132.141 151.291 131.502C152.734 130.864 152.846 132.828 153.586 133.987C154.326 135.146 155.838 134.487 156.397 130.871C156.957 127.255 158.997 121.155 163.239 119.968C167.904 118.677 165.404 124.785 164.228 127.165C163.053 129.545 162.145 132.793 162.916 133.675C163.687 134.556 164.888 132.925 166.026 134.438C167.413 136.263 163.103 142.835 160.627 144.425L152.05 149.949Z" fill="#407BFF"/>
<path d="M155.775 147.888C155.735 147.886 155.694 147.875 155.657 147.856C155.62 147.837 155.587 147.81 155.559 147.776C155.531 147.743 155.51 147.704 155.496 147.661C155.482 147.618 155.475 147.572 155.477 147.527C155.898 138.942 158.298 130.623 162.443 123.376C162.467 123.338 162.497 123.306 162.532 123.281C162.567 123.257 162.606 123.241 162.646 123.234C162.687 123.226 162.729 123.229 162.768 123.24C162.808 123.251 162.846 123.271 162.879 123.299C162.944 123.353 162.987 123.434 163 123.523C163.013 123.613 162.994 123.704 162.947 123.778C158.875 130.92 156.519 139.11 156.105 147.562C156.103 147.607 156.092 147.652 156.074 147.693C156.057 147.734 156.032 147.771 156.001 147.801C155.97 147.831 155.935 147.855 155.896 147.869C155.857 147.884 155.816 147.891 155.775 147.888Z" fill="white"/>
<path d="M156.13 143.787C156.078 143.786 156.027 143.772 155.981 143.745C154.239 142.669 153.275 139.477 153.238 139.345C153.224 139.302 153.218 139.256 153.22 139.21C153.223 139.164 153.233 139.119 153.251 139.078C153.269 139.037 153.294 139 153.325 138.969C153.356 138.939 153.391 138.916 153.43 138.901C153.509 138.872 153.594 138.88 153.668 138.921C153.741 138.963 153.797 139.036 153.822 139.123C153.822 139.123 154.755 142.197 156.31 143.134C156.381 143.181 156.432 143.256 156.454 143.344C156.476 143.432 156.467 143.526 156.428 143.606C156.4 143.666 156.357 143.715 156.304 143.747C156.251 143.779 156.19 143.793 156.13 143.787Z" fill="white"/>
<path d="M156.435 141.683C156.366 141.682 156.299 141.656 156.245 141.608C156.191 141.561 156.153 141.494 156.136 141.419C156.126 141.376 156.124 141.33 156.129 141.285C156.135 141.241 156.149 141.198 156.17 141.159C156.191 141.12 156.218 141.086 156.251 141.06C156.284 141.033 156.321 141.014 156.36 141.003C160.851 139.733 162.406 137.11 162.418 137.082C162.44 137.043 162.469 137.01 162.503 136.983C162.536 136.957 162.574 136.938 162.615 136.928C162.655 136.918 162.696 136.917 162.737 136.925C162.777 136.933 162.816 136.95 162.851 136.974C162.885 136.999 162.915 137.031 162.939 137.069C162.963 137.106 162.979 137.149 162.988 137.193C162.997 137.238 162.998 137.284 162.991 137.33C162.984 137.375 162.969 137.418 162.947 137.457C162.879 137.575 161.261 140.33 156.516 141.676L156.435 141.683Z" fill="white"/>
<path d="M84.376 139.164C84.376 139.164 78.411 137.54 78.1 125.076C77.7704 111.626 79.5617 95.9282 72.502 94.6582C65.4423 93.3881 61.5237 102.986 61.6108 114.194C61.6917 124.007 65.2371 145.313 84.3511 149.491L84.376 139.164Z" fill="#407BFF"/>
<path opacity="0.2" d="M84.376 139.164C84.376 139.164 78.411 137.54 78.1 125.076C77.7704 111.626 79.5617 95.9282 72.502 94.6582C65.4423 93.3881 61.5237 102.986 61.6108 114.194C61.6917 124.007 65.2371 145.313 84.3511 149.491L84.376 139.164Z" fill="black"/>
<path d="M84.376 148.214H84.32C80.022 147.34 76.5201 144.695 73.9139 140.365C66.1887 127.505 68.6207 103.493 69.4231 99.3009C69.441 99.2116 69.4893 99.1336 69.5577 99.0831C69.6261 99.0326 69.7094 99.0137 69.7901 99.0303C69.8706 99.0518 69.9406 99.107 69.9858 99.1845C70.0309 99.262 70.0477 99.3558 70.0327 99.4467C69.2427 103.611 66.8231 127.318 74.4302 139.976C75.5375 141.939 76.9984 143.624 78.7201 144.924C80.4419 146.224 82.3869 147.11 84.432 147.527C84.4725 147.535 84.5112 147.553 84.5458 147.578C84.5804 147.603 84.6101 147.635 84.6332 147.674C84.6564 147.712 84.6725 147.755 84.6807 147.8C84.6888 147.845 84.6889 147.891 84.6808 147.936C84.6675 148.015 84.6297 148.087 84.5739 148.137C84.5181 148.188 84.448 148.215 84.376 148.214Z" fill="white"/>
<path d="M84.376 180.2C78.212 181.13 68.204 181.116 62.4256 176.036C56.6472 170.956 57.8539 166.584 60.0744 164.759C62.295 162.934 64.2232 160.852 60.4041 156.799C56.585 152.746 50.4521 146.236 48.4617 136.471C46.4713 126.707 47.454 120.6 51.3602 118.566C55.1482 116.595 56.1496 119.732 58.4697 126.2C60.7897 132.668 66.0083 127.123 70.4743 129.143C74.9402 131.162 74.7599 135.16 75.0398 138.595C75.3197 142.03 76.7938 142.981 79.3253 142.981C81.8569 142.981 84.376 144.605 84.376 147.839V180.2Z" fill="#407BFF"/>
<path d="M84.376 168.861C84.3494 168.867 84.3218 168.867 84.2951 168.861C84.0277 168.777 77.6522 166.709 68.3657 157.194C58.4759 147.062 53.8109 131.863 53.7612 131.711C53.7373 131.623 53.7447 131.529 53.7818 131.448C53.8189 131.366 53.8829 131.304 53.9602 131.274C54.0378 131.245 54.1223 131.251 54.1957 131.292C54.269 131.332 54.3252 131.403 54.3521 131.489C54.3956 131.641 59.0171 146.673 68.7887 156.681C77.9445 166.071 84.3947 168.174 84.4631 168.194C84.5023 168.207 84.5389 168.228 84.5707 168.257C84.6026 168.285 84.6291 168.321 84.6487 168.361C84.6683 168.401 84.6807 168.444 84.6852 168.49C84.6896 168.535 84.686 168.581 84.6746 168.625C84.6544 168.695 84.6144 168.756 84.5605 168.798C84.5067 168.841 84.442 168.863 84.376 168.861Z" fill="white"/>
<path d="M70.9594 159.61C70.8969 159.611 70.8356 159.59 70.7843 159.55C70.733 159.511 70.6942 159.454 70.6733 159.388C68.6767 153.669 68.2226 141.434 68.1853 140.914C68.1836 140.822 68.2137 140.733 68.2694 140.666C68.325 140.599 68.4019 140.558 68.4839 140.553C68.5651 140.554 68.643 140.589 68.7027 140.65C68.7624 140.712 68.7997 140.796 68.8073 140.886C68.8073 141.011 69.2738 153.524 71.2331 159.138C71.2481 159.181 71.2553 159.227 71.2543 159.272C71.2534 159.318 71.2442 159.364 71.2274 159.406C71.2107 159.448 71.1866 159.485 71.1566 159.517C71.1266 159.548 71.0913 159.573 71.0527 159.589C71.0227 159.601 70.9913 159.608 70.9594 159.61Z" fill="white"/>
<path d="M70.9097 167.833C70.3362 167.838 69.763 167.806 69.193 167.736C69.1521 167.731 69.1127 167.716 69.0768 167.694C69.0409 167.671 69.0094 167.641 68.984 167.605C68.9586 167.569 68.9398 167.528 68.9287 167.483C68.9176 167.439 68.9144 167.393 68.9193 167.347C68.9242 167.302 68.9371 167.258 68.9572 167.218C68.9774 167.178 69.0044 167.143 69.0368 167.114C69.0691 167.086 69.1061 167.065 69.1457 167.053C69.1854 167.04 69.2268 167.037 69.2676 167.042C69.3236 167.042 75.1144 167.778 77.7704 164.759C77.798 164.722 77.8321 164.693 77.8706 164.671C77.909 164.65 77.951 164.638 77.9938 164.636C78.0366 164.634 78.0793 164.642 78.1193 164.659C78.1594 164.676 78.1958 164.702 78.2263 164.736C78.2568 164.769 78.2808 164.809 78.2967 164.854C78.3126 164.898 78.3201 164.946 78.3188 164.994C78.3174 165.041 78.3073 165.088 78.2889 165.132C78.2705 165.175 78.2443 165.213 78.212 165.245C76.29 167.458 72.9374 167.833 70.9097 167.833Z" fill="white"/>
<path d="M66.4313 36.4183L65.7595 32.0947L62.3012 34.6347C61.9852 33.9407 61.5373 33.3321 60.9888 32.8511L62.6433 27.8543L59.5333 27.084L57.2568 31.942C56.4332 32.097 55.6346 32.387 54.887 32.8025L53.898 29.1382L50.2033 32.3792L50.4459 36.682C49.6935 37.6224 49.0112 38.6297 48.4057 39.694L45.3579 39.5205L43.2183 44.8712L45.8369 46.1204C45.5635 47.2272 45.3906 48.3618 45.3206 49.5071L41.9929 52.9216L42.6585 57.2522L46.123 54.7121C46.4372 55.4055 46.8854 56.0123 47.4354 56.4888L45.812 61.4925L48.922 62.2559L52.1813 58.7165C52.9339 58.5846 52.7473 57.0023 53.5683 56.5512L54.5573 60.2017L58.2458 56.9676L58.1525 55.2743C58.8989 54.3443 61.7228 52.297 62.3323 51.2282L63.0974 49.8402L65.2371 44.4895L64.2419 42.4769L63.1347 39.8536L66.4313 36.4183ZM55.142 50.6522C52.3057 53.1367 51.41 53.685 50.9311 50.3607C50.4521 47.0365 52.0755 41.9842 54.9119 39.4927C57.7482 37.0012 58.8305 36.8277 59.3405 40.1451C59.8505 43.4624 57.9845 48.1955 55.142 50.6522Z" fill="#E0E0E0"/>
<path d="M59.5582 27.084L63.595 29.6795L61.3185 34.5237L57.2817 31.9281L59.5582 27.084Z" fill="#F5F5F5"/>
<path d="M69.7963 34.6903L66.338 37.2303L62.3012 34.6348L65.7595 32.0947L69.7963 34.6903Z" fill="#F5F5F5"/>
<path d="M69.2427 47.0644L66.6241 45.8221L62.5873 43.2266L65.206 44.4688L69.2427 47.0644Z" fill="#E0E0E0"/>
<path d="M45.8058 61.492L49.8426 64.0806L51.4971 59.0838L47.4603 56.4883L45.8058 61.492Z" fill="#E0E0E0"/>
<path d="M58.5568 62.7968L54.5262 60.2012L53.5372 56.5508L57.574 59.1463L58.5568 62.7968Z" fill="#E0E0E0"/>
<path d="M70.4619 39.014L69.7963 34.6904L66.338 37.2304C66.0197 36.5361 65.5697 35.9275 65.0194 35.4468L66.6739 30.45L63.595 29.6797L61.3122 34.5377C60.4886 34.6927 59.69 34.9827 58.9424 35.3983L57.9596 31.7478L54.265 34.9888L54.5075 39.2916C53.7543 40.2386 53.072 41.2529 52.4674 42.3244L49.4134 42.1509L47.2737 47.5016L49.8923 48.7508C49.6214 49.8605 49.4485 50.9972 49.376 52.1445L46.0546 55.5104L46.7201 59.8409L50.1784 57.3009C50.4968 57.9932 50.9468 58.5995 51.4971 59.0775L49.8425 64.0743L52.9525 64.8447L55.2291 59.9867C56.0559 59.8334 56.857 59.5409 57.6051 59.1192L58.5879 62.7696L62.2825 59.5356L62.04 55.2328C62.7924 54.2924 63.4747 53.2851 64.0801 52.2208L67.1341 52.3874L69.2738 47.0366L66.6179 45.7944C66.8932 44.6855 67.0683 43.5486 67.1404 42.4007L70.4619 39.014ZM59.185 53.2757C56.3549 55.7602 53.643 55.087 53.1267 51.7697C52.6104 48.4524 54.4951 43.7401 57.3314 41.2556C60.1677 38.7711 62.8734 39.4512 63.3897 42.7685C63.906 46.0858 62.0213 50.7912 59.185 53.2757Z" fill="#EBEBEB"/>
<path d="M57.9597 31.7342L53.9229 29.1387L50.2282 32.3797L54.265 34.9752L57.9597 31.7342Z" fill="#F5F5F5"/>
<path d="M50.2282 32.3789L50.4708 36.6817L54.5076 39.2773L54.265 34.9745L50.2282 32.3789Z" fill="#E0E0E0"/>
<path d="M52.4674 42.2895L48.4306 39.6939L45.3828 39.5273L49.4134 42.1229L52.4674 42.2895Z" fill="#F5F5F5"/>
<path d="M45.3828 39.5273L43.2432 44.8711L47.2737 47.4667L49.4134 42.1229L45.3828 39.5273Z" fill="#E0E0E0"/>
<path d="M49.3761 52.1024L45.3455 49.5068L42.0178 52.9213L46.0484 55.5169L49.3761 52.1024Z" fill="#F5F5F5"/>
<path d="M46.7201 59.848L42.6834 57.2524L42.0178 52.9219L46.0484 55.5174L46.7201 59.848Z" fill="#E0E0E0"/>
<path d="M63.595 29.6795L59.5582 27.084L62.6433 27.8543L66.6739 30.4499L63.595 29.6795Z" fill="#F5F5F5"/>
<path d="M48.356 16.7919V10.3308L43.747 12.6488C43.5028 11.5525 43.0812 10.5153 42.503 9.58822L45.4077 3.05767L41.8623 0.774414L38.2423 6.84691C37.2334 6.74858 36.217 6.85916 35.2442 7.17309L34.7342 1.55864L29.7209 4.79267L29.217 11.0387C28.126 12.1174 27.1227 13.3018 26.219 14.5781L22.599 13.1901L19.0536 20.0468L21.9521 22.8228C21.4165 24.334 21.0003 25.8945 20.7081 27.4865L16.0991 31.1022V37.5703L20.7081 35.2523C20.9522 36.3485 21.3738 37.3858 21.9521 38.3129L19.066 44.8504L22.6114 47.1336L26.2314 41.0611C27.2403 41.1591 28.2566 41.0486 29.2295 40.7349L29.7333 46.3494L34.7466 43.1154L35.2567 36.8694C36.8214 36.2324 38.2075 35.1454 39.2748 33.7186L41.8747 34.7388L45.4201 27.889L43.2431 25.807C43.7157 24.0708 43.8909 22.2509 43.7594 20.4424L48.356 16.7919ZM32.2275 32.9344C28.3836 35.412 26.0075 33.6284 26.0075 28.694C26.0075 23.7597 29.1859 17.6594 33.0361 15.1819C36.8863 12.7043 39.2126 14.4879 39.2126 19.4638C39.2126 24.4398 36.0777 30.4499 32.2275 32.9344Z" fill="#E0E0E0"/>
<path d="M45.8929 3.36304L41.8623 0.774414L38.2422 6.84691L42.2728 9.44248L45.8929 3.36304Z" fill="#F5F5F5"/>
<path d="M52.3928 12.9266L48.356 10.3311L43.7469 12.649L47.7837 15.2446L52.3928 12.9266Z" fill="#F5F5F5"/>
<path d="M33.7514 48.9454L29.7209 46.3498L29.217 40.7354L33.2476 43.3309L33.7514 48.9454Z" fill="#E0E0E0"/>
<path d="M19.0474 44.8499L23.0841 47.4454L25.9889 40.9149L21.9521 38.3193L19.0474 44.8499Z" fill="#E0E0E0"/>
<path d="M52.3928 19.4222V12.9611L47.7838 15.2582C47.5422 14.161 47.1204 13.1233 46.5398 12.1977L49.4445 5.66716L45.8991 3.37695L42.2791 9.45639C41.2702 9.35464 40.2532 9.46529 39.281 9.78258L38.771 4.15423L33.7577 7.38828L33.2476 13.6343C32.1581 14.7148 31.155 15.899 30.2496 17.1737L26.6295 15.7857L23.0841 22.6424L25.9889 25.4184C25.4505 26.9285 25.0342 28.4893 24.7449 30.0821L20.1359 33.6978V40.1659L24.7449 37.8479C24.9863 38.9452 25.4081 39.9829 25.9889 40.9085L23.0841 47.439L26.6295 49.7223L30.2496 43.6498C31.2584 43.7481 32.2748 43.6375 33.2476 43.3236L33.7577 48.938L38.771 45.704L39.2748 39.458C40.3659 38.3793 41.3691 37.1949 42.2728 35.9186L45.8929 37.3066L49.4383 30.4568L46.5335 27.6808C47.0718 26.1707 47.4881 24.6099 47.7775 23.0172L52.3928 19.4222ZM36.2643 35.5647C32.4141 38.0422 29.2917 36.0296 29.2917 31.0745C29.2917 26.1193 32.4017 20.0885 36.2643 17.604C40.1269 15.1194 43.2307 17.139 43.2307 22.0941C43.2307 27.0493 40.1083 33.0455 36.2643 35.53V35.5647Z" fill="#EBEBEB"/>
<path d="M26.219 14.5915L30.2495 17.1871L26.6295 15.7783L22.5989 13.1758L26.219 14.5915Z" fill="#F0F0F0"/>
<path d="M22.5985 13.183L19.0522 20.042L23.0876 22.6394L26.634 15.7804L22.5985 13.183Z" fill="#F5F5F5"/>
<path d="M19.0474 20.0332L23.0841 22.6288L25.9889 25.4186L21.9521 22.83L19.0474 20.0332Z" fill="#E0E0E0"/>
<path d="M20.7081 27.4932L24.7449 30.0887L20.1358 33.7045L16.0991 31.1089L20.7081 27.4932Z" fill="#F5F5F5"/>
<path d="M16.0991 31.1094L20.1358 33.7049V40.173L16.0991 37.5775V31.1094Z" fill="#E0E0E0"/>
<path d="M38.7709 4.15415L34.7341 1.55859L29.7208 4.79263L33.7514 7.38819L38.7709 4.15415Z" fill="#F5F5F5"/>
<path d="M90.5214 189.486L148.989 151.816C149.118 151.765 149.23 151.671 149.309 151.547C149.388 151.423 149.43 151.274 149.43 151.122C149.43 150.969 149.388 150.821 149.309 150.696C149.23 150.572 149.118 150.478 148.989 150.428L143.584 146.958C143.249 146.77 142.88 146.672 142.505 146.672C142.13 146.672 141.761 146.77 141.426 146.958L82.9392 184.593C82.8104 184.644 82.6988 184.738 82.6199 184.862C82.5409 184.986 82.4985 185.135 82.4985 185.287C82.4985 185.44 82.5409 185.588 82.6199 185.713C82.6988 185.837 82.8104 185.931 82.9392 185.981L88.363 189.451C88.6954 189.645 89.0637 189.749 89.4385 189.755C89.8133 189.761 90.1841 189.669 90.5214 189.486Z" fill="#E0E0E0"/>
<path d="M147.385 6.37488L94.6639 40.3392C93.8802 40.9099 93.228 41.6785 92.76 42.5828C92.2921 43.4871 92.0217 44.5016 91.9706 45.5442V185.087C91.9706 187.002 93.1773 187.78 94.6639 186.822L147.385 152.857C148.169 152.288 148.822 151.52 149.29 150.615C149.758 149.711 150.028 148.695 150.078 147.652V8.10988C150.078 6.19444 148.877 5.41716 147.385 6.37488Z" fill="#455A64"/>
<path d="M94.6639 40.3389L147.385 6.37456C148.716 5.514 149.817 6.04838 150.041 7.54048C149.916 6.60236 149.615 5.70425 149.157 4.90522C148.7 4.1062 148.096 3.42435 147.385 2.90456L145.195 1.51656C144.361 1.04408 143.438 0.797852 142.502 0.797852C141.566 0.797852 140.643 1.04408 139.809 1.51656L87.0817 35.4532C86.2876 36.0088 85.6327 36.78 85.1784 37.6948L92.7606 42.5528C93.2148 41.6452 93.8701 40.883 94.6639 40.3389Z" fill="#37474F"/>
<path d="M84.376 180.201C84.4271 181.243 84.6975 182.258 85.1654 183.162C85.6334 184.067 86.2856 184.835 87.0693 185.406L89.265 186.794C90.0249 187.218 90.8566 187.458 91.7055 187.499C92.5544 187.54 93.4015 187.38 94.1912 187.03C92.9472 187.571 91.9582 186.773 91.9582 185.059V45.544C91.9894 44.497 92.2614 43.4765 92.7482 42.5807L85.166 37.7227C84.686 38.6117 84.4144 39.6213 84.376 40.6583V180.201Z" fill="#263238"/>
<path d="M96.1131 58.9312L145.954 26.8337C146.85 26.2646 147.571 26.7296 147.571 27.8747V131.156C147.541 131.782 147.379 132.391 147.098 132.934C146.817 133.476 146.425 133.937 145.954 134.279L96.1318 166.376C95.2361 166.952 94.5146 166.487 94.5146 165.335V62.0542C94.5429 61.4302 94.7023 60.8224 94.98 60.2799C95.2577 59.7374 95.6459 59.2754 96.1131 58.9312Z" fill="white"/>
<path d="M121.024 28.6453C120.749 28.8468 120.52 29.1176 120.356 29.4358C120.192 29.754 120.097 30.1108 120.079 30.4775C120.079 31.1715 120.502 31.4283 121.024 31.0882C121.3 30.8879 121.53 30.6174 121.694 30.299C121.859 29.9805 121.953 29.6231 121.97 29.256C121.97 28.5829 121.547 28.3122 121.024 28.6453Z" fill="#37474F"/>
<path d="M121.024 155.266C119.937 156.059 119.032 157.128 118.384 158.384C117.736 159.64 117.362 161.05 117.292 162.497C117.292 165.155 118.965 166.238 121.024 164.905C122.111 164.111 123.015 163.043 123.664 161.787C124.312 160.53 124.686 159.121 124.756 157.674C124.769 155.016 123.089 153.933 121.024 155.266Z" fill="#37474F"/>
<path d="M112.074 39.3884C111.527 39.7933 111.073 40.3359 110.749 40.9724C110.425 41.6089 110.24 42.3215 110.208 43.0527C110.208 44.3991 111.054 44.9473 112.074 44.2742C112.626 43.8731 113.086 43.3322 113.415 42.6955C113.745 42.0587 113.935 41.3441 113.971 40.6098C113.971 39.2635 113.125 38.7152 112.074 39.3884Z" fill="#37474F"/>
<path d="M116.72 38.9305C116.72 39.8327 117.342 40.1728 118.07 39.6939L130.51 31.6644C130.895 31.3958 131.218 31.0296 131.453 30.5955C131.687 30.1613 131.827 29.6715 131.86 29.166C131.86 28.2707 131.238 27.9306 130.51 28.4095L118.07 36.4391C117.685 36.7069 117.363 37.072 117.128 37.5049C116.894 37.9378 116.754 38.4262 116.72 38.9305Z" fill="#37474F"/>
<path d="M88.5807 63.4008C89.0221 63.7216 89.3896 64.1539 89.6533 64.6627C89.9169 65.1716 90.0694 65.7426 90.0984 66.3294C90.0984 67.4121 89.4204 67.8493 88.5807 67.308C88.1408 66.986 87.7749 66.5532 87.5123 66.0445C87.2498 65.5358 87.098 64.9654 87.0693 64.3793C87.0693 63.3036 87.7473 62.8664 88.5807 63.4008Z" fill="#37474F"/>
<path d="M88.5807 76.4343C89.0221 76.7551 89.3896 77.1875 89.6533 77.6963C89.9169 78.2051 90.0694 78.7761 90.0984 79.363C90.0984 80.4387 89.4204 80.8759 88.5807 80.3416C88.1408 80.0196 87.7749 79.5868 87.5123 79.0781C87.2498 78.5694 87.098 77.999 87.0693 77.4129C87.0693 76.3302 87.7473 75.893 88.5807 76.4343Z" fill="#37474F"/>
<path d="M88.108 63.6645C88.5494 63.9853 88.9169 64.4176 89.1805 64.9264C89.4442 65.4353 89.5967 66.0063 89.6257 66.5931C89.6257 67.6688 88.9477 68.1061 88.108 67.5717C87.6666 67.2509 87.2992 66.8185 87.0355 66.3097C86.7718 65.8009 86.6193 65.2299 86.5903 64.643C86.5966 63.5604 87.2745 63.144 88.108 63.6645Z" fill="#455A64"/>
<path d="M88.108 76.6908C88.5502 77.0123 88.9182 77.4457 89.1819 77.9558C89.4456 78.4659 89.5977 79.0383 89.6257 79.6264C89.6257 80.7021 88.9477 81.1393 88.108 80.598C87.6656 80.2784 87.2973 79.8464 87.0335 79.3373C86.7697 78.8282 86.6178 78.2566 86.5903 77.6693C86.5966 76.5936 87.2745 76.1564 88.108 76.6908Z" fill="#455A64"/>
<path d="M157.66 31.1436C157.66 29.9916 156.939 29.5266 156.043 30.1026L150.078 33.9404L106.221 62.2001C105.75 62.5416 105.358 63.0025 105.076 63.5453C104.795 64.088 104.633 64.6972 104.603 65.3231V168.576C104.603 169.728 105.325 170.193 106.221 169.617L150.097 141.351L156.043 137.52C156.514 137.178 156.906 136.717 157.187 136.175C157.468 135.632 157.63 135.023 157.66 134.397V31.1436Z" fill="white"/>
<path d="M158.282 31.1434C158.321 30.7953 158.267 30.4422 158.128 30.128C157.988 29.8138 157.768 29.5527 157.496 29.3771C157.224 29.2016 156.911 29.1195 156.597 29.1411C156.284 29.1627 155.983 29.287 155.732 29.4986L150.041 33.1699L105.91 61.6239C105.341 62.024 104.869 62.5723 104.533 63.2216C104.197 63.8709 104.008 64.6015 103.981 65.3506V168.576C103.956 168.923 104.016 169.27 104.154 169.582C104.292 169.893 104.503 170.158 104.765 170.346C104.988 170.49 105.242 170.565 105.499 170.561C105.864 170.548 106.219 170.431 106.532 170.221L150.694 141.767L156.372 138.11C156.937 137.706 157.407 137.156 157.743 136.508C158.078 135.859 158.27 135.131 158.301 134.383L158.282 31.1434ZM150.053 140.58L149.543 140.913L105.935 169.006C105.861 169.069 105.776 169.113 105.686 169.135C105.596 169.156 105.502 169.155 105.412 169.131C105.331 169.076 105.25 168.882 105.25 168.562V65.3229C105.283 64.819 105.417 64.3298 105.643 63.8922C105.869 63.4546 106.182 63.0801 106.557 62.7967L150.121 34.6897L156.341 30.6715C156.415 30.6086 156.5 30.5648 156.59 30.5432C156.68 30.5216 156.774 30.5227 156.864 30.5465C156.945 30.6021 157.026 30.7964 157.026 31.1156V134.397C156.993 134.901 156.859 135.39 156.633 135.827C156.407 136.265 156.094 136.64 155.719 136.923L150.041 140.58H150.053Z" fill="#407BFF"/>
<path d="M131.132 55.1348C136.73 51.5399 141.239 54.4408 141.239 61.6514C141.239 68.8621 136.711 77.6134 131.132 81.1806C125.552 84.7478 121.024 81.8746 121.024 74.6709C121.024 67.4672 125.552 58.7366 131.132 55.1348Z" fill="#407BFF"/>
<path d="M131.132 60.7982C132.942 59.6323 134.41 60.5761 134.41 62.8802C134.348 64.1495 134.019 65.3847 133.45 66.4857C132.88 67.5866 132.086 68.5221 131.132 69.2164C129.322 70.3823 127.854 69.4385 127.854 67.1344C127.915 65.8651 128.244 64.6299 128.814 63.529C129.383 62.4281 130.177 61.4925 131.132 60.7982Z" fill="#407BFF"/>
<path d="M137.52 73.2344C137.52 69.4035 135.113 67.849 132.133 69.7644L130.267 70.965C127.294 72.8805 124.881 77.5441 124.881 81.375V82.4091C126.604 83.0406 128.768 82.7006 131.101 81.1807C133.684 79.4024 135.87 76.9882 137.489 74.1227L137.52 73.2344Z" fill="#407BFF"/>
<path opacity="0.7" d="M131.132 60.7982C132.942 59.6323 134.41 60.5761 134.41 62.8802C134.348 64.1495 134.019 65.3847 133.45 66.4857C132.88 67.5866 132.086 68.5221 131.132 69.2164C129.322 70.3823 127.854 69.4385 127.854 67.1344C127.915 65.8651 128.244 64.6299 128.814 63.529C129.383 62.4281 130.177 61.4925 131.132 60.7982Z" fill="white"/>
<path opacity="0.7" d="M137.52 73.2344C137.52 69.4035 135.113 67.849 132.133 69.7644L130.267 70.965C127.294 72.8805 124.881 77.5441 124.881 81.375V82.4091C126.604 83.0406 128.768 82.7006 131.101 81.1807C133.684 79.4024 135.87 76.9882 137.489 74.1227L137.52 73.2344Z" fill="white"/>
<path d="M111.576 97.0388L124.582 88.6622C125.204 88.2805 125.658 88.5859 125.658 89.3562V89.8351C125.638 90.2521 125.531 90.6581 125.344 91.0199C125.157 91.3817 124.896 91.6891 124.582 91.9171L111.576 100.294C110.985 100.675 110.5 100.363 110.5 99.5996V99.1208C110.52 98.7038 110.628 98.2981 110.815 97.9363C111.002 97.5746 111.263 97.2671 111.576 97.0388Z" fill="#407BFF"/>
<path opacity="0.1" d="M111.576 97.0388L124.582 88.6622C125.204 88.2805 125.658 88.5859 125.658 89.3562V89.8351C125.638 90.2521 125.531 90.6581 125.344 91.0199C125.157 91.3817 124.896 91.6891 124.582 91.9171L111.576 100.294C110.985 100.675 110.5 100.363 110.5 99.5996V99.1208C110.52 98.7038 110.628 98.2981 110.815 97.9363C111.002 97.5746 111.263 97.2671 111.576 97.0388Z" fill="black"/>
<path d="M111.041 107.151L150.389 81.8059C150.681 81.6116 150.924 81.7643 150.924 82.1529V87.2746C150.913 87.4825 150.859 87.6847 150.766 87.8653C150.673 88.0459 150.544 88.2001 150.389 88.3156L111.041 113.661C110.743 113.855 110.5 113.695 110.5 113.314V108.192C110.511 107.983 110.565 107.78 110.659 107.599C110.753 107.418 110.884 107.265 111.041 107.151Z" fill="#407BFF"/>
<path opacity="0.2" d="M111.041 107.151L150.389 81.8059C150.681 81.6116 150.924 81.7643 150.924 82.1529V87.2746C150.913 87.4825 150.859 87.6847 150.766 87.8653C150.673 88.0459 150.544 88.2001 150.389 88.3156L111.041 113.661C110.743 113.855 110.5 113.695 110.5 113.314V108.192C110.511 107.983 110.565 107.78 110.659 107.599C110.753 107.418 110.884 107.265 111.041 107.151Z" fill="white"/>
<path d="M111.576 119.823L124.582 111.446C125.204 111.064 125.658 111.377 125.658 112.14V112.619C125.639 113.036 125.531 113.442 125.344 113.804C125.157 114.166 124.896 114.473 124.582 114.701L111.576 123.078C110.985 123.466 110.5 123.154 110.5 122.384V121.905C110.521 121.488 110.63 121.083 110.816 120.721C111.003 120.36 111.263 120.052 111.576 119.823Z" fill="#407BFF"/>
<path opacity="0.1" d="M111.576 119.823L124.582 111.446C125.204 111.064 125.658 111.377 125.658 112.14V112.619C125.639 113.036 125.531 113.442 125.344 113.804C125.157 114.166 124.896 114.473 124.582 114.701L111.576 123.078C110.985 123.466 110.5 123.154 110.5 122.384V121.905C110.521 121.488 110.63 121.083 110.816 120.721C111.003 120.36 111.263 120.052 111.576 119.823Z" fill="black"/>
<path d="M111.041 129.935L150.389 104.59C150.681 104.395 150.924 104.555 150.924 104.937V110.059C150.913 110.266 150.859 110.469 150.766 110.649C150.673 110.83 150.544 110.984 150.389 111.1L111.041 136.444C110.743 136.639 110.5 136.486 110.5 136.097V130.976C110.511 130.767 110.565 130.564 110.659 130.383C110.753 130.202 110.884 130.049 111.041 129.935Z" fill="#407BFF"/>
<path opacity="0.2" d="M111.041 129.935L150.389 104.59C150.681 104.395 150.924 104.555 150.924 104.937V110.059C150.913 110.266 150.859 110.469 150.766 110.649C150.673 110.83 150.544 110.984 150.389 111.1L111.041 136.444C110.743 136.639 110.5 136.486 110.5 136.097V130.976C110.511 130.767 110.565 130.564 110.659 130.383C110.753 130.202 110.884 130.049 111.041 129.935Z" fill="white"/>
<path d="M126.734 132.843L142.284 122.842C142.906 122.453 143.366 122.766 143.366 123.536V128.894C143.346 129.311 143.237 129.718 143.049 130.08C142.861 130.441 142.599 130.749 142.284 130.976L126.734 140.983C126.112 141.365 125.658 141.053 125.658 140.289V134.925C125.68 134.508 125.788 134.103 125.975 133.741C126.162 133.38 126.422 133.072 126.734 132.843Z" fill="#407BFF"/>
<path opacity="0.1" d="M126.734 132.843L142.284 122.842C142.906 122.453 143.366 122.766 143.366 123.536V128.894C143.346 129.311 143.237 129.718 143.049 130.08C142.861 130.441 142.599 130.749 142.284 130.976L126.734 140.983C126.112 141.365 125.658 141.053 125.658 140.289V134.925C125.68 134.508 125.788 134.103 125.975 133.741C126.162 133.38 126.422 133.072 126.734 132.843Z" fill="black"/>
<path d="M198.762 17.2222L197.736 17.9162C197.822 17.5088 197.87 17.0925 197.879 16.674C197.879 14.3491 196.417 13.4122 194.613 14.592C194.064 14.9614 193.574 15.4305 193.164 15.98C193.164 12.857 191.198 11.5869 188.773 13.1484C187.494 14.0786 186.43 15.3318 185.667 16.8065C184.904 18.2812 184.464 19.9358 184.381 21.6361C184.381 21.7957 184.381 21.9484 184.381 22.101C183.756 22.0133 183.124 22.1756 182.596 22.5591C181.646 23.2501 180.855 24.1815 180.287 25.2776C179.72 26.3737 179.392 27.6036 179.331 28.8675C179.33 29.1614 179.357 29.4544 179.411 29.742L178.864 30.0959C177.377 31.0537 176.171 32.9205 176.171 34.2599C176.171 35.5994 177.377 35.9186 178.864 34.9539L198.768 22.1496C200.255 21.1919 201.461 19.325 201.461 17.9856C201.461 16.6462 200.248 16.2576 198.762 17.2222Z" fill="#EBEBEB"/>
<path d="M163.557 110.231C163.557 110.231 155.918 98.4749 155.471 97.0452C155.116 95.9904 155.471 94.4219 155.583 93.6932C155.695 92.9645 155.794 91.3406 155.906 90.9172C156.093 90.1261 155.178 90.2857 154.662 91.0074C154.146 91.7292 153.972 93.1727 153.704 93.4087C153.437 93.6446 151.403 90.3343 150.339 88.8075C149.275 87.2807 148.61 86.3507 147.957 86.9198C147.49 87.3292 147.839 88.2176 148.61 89.5223C149.06 90.2248 149.476 90.9547 149.854 91.7084C149.972 91.9929 149.338 92.0137 148.996 92.6036C148.728 93.0617 148.996 93.8043 148.622 94.1582C148.393 94.3532 148.235 94.6357 148.18 94.9518C148.125 95.2679 148.176 95.5956 148.324 95.8724C149.016 97.0855 149.909 98.1407 150.955 98.9815C152.099 99.8629 152.56 100.175 153.238 101.376C153.916 102.576 159.999 114.839 160.409 115.575C160.82 116.311 161.61 117.81 162.81 117.851C164.011 117.893 173.838 108.455 174.342 107.983C175.959 106.477 176.476 106.262 176.749 107.615C176.844 108.096 176.914 108.582 176.961 109.072C177.154 110.793 178.205 116.942 178.205 116.942C178.205 116.942 183.181 119.628 187.267 118.33C191.354 117.032 192.735 115.096 192.735 115.096L190.688 111.376C191.242 109.843 193.798 103.624 194.625 99.273L181.812 96.962C181.551 96.8995 181.128 96.7815 180.568 96.6219C179.865 96.4137 178.08 95.7266 176.731 97.0452C172.327 101.327 163.569 110.231 163.569 110.231" fill="#FFA8A7"/>
<path d="M188.959 182.366L186.664 185.926C187.707 186.47 188.847 186.742 189.998 186.724C192.057 186.808 192.623 186.03 192.697 185.878C193.046 185.045 192.504 183.546 192.355 182.255L188.959 182.366Z" fill="#37474F"/>
<path d="M186.795 184.219C186.795 184.219 184.008 184.018 182.086 183.755C180.164 183.491 178.64 184.532 179.088 185.413C179.536 186.295 180.599 187.03 182.254 187.648C183.666 188.182 185.364 188.564 186.832 189.036C188.3 189.508 189.32 190.125 190.172 189.792C191.124 189.424 191.534 189.001 191.453 188.224C191.246 187.118 190.988 186.025 190.682 184.948L186.795 184.219Z" fill="#37474F"/>
<path d="M192.697 178.792C192.697 178.792 192.349 182.026 192.324 182.72C192.299 183.414 189.494 183.636 188.959 182.366L188.872 178.41L192.697 178.792Z" fill="#F28F8F"/>
<path d="M189.873 180.776L190.875 185.69C190.875 185.69 190.968 186.287 188.679 186.668C186.39 187.05 182.795 185.329 182.179 184.982C181.563 184.635 181.495 183.934 183.747 184.073C185.998 184.212 186.794 184.219 186.794 184.219L186.061 182.046L189.873 180.776Z" fill="#FFA8A7"/>
<path d="M194.588 99.232L196.174 98.7393C196.174 98.7393 199.49 110.447 199.856 111.578C200.223 112.709 200.64 113.903 199.925 115.298C199.073 116.957 194.588 123.626 194.588 123.626L191.739 120.517L194.974 113.91L192.113 107.456L194.588 99.232Z" fill="#F28F8F"/>
<path d="M178.298 84.0262C177.926 83.2474 177.737 82.3761 177.749 81.4937C177.761 80.6114 177.974 79.7468 178.366 78.9809C179.946 75.7121 183.467 74.1229 187.659 74.7266C189.6 75.0112 191.889 76.8086 193.139 79.4944C194.52 82.4717 194.65 88.4678 195.005 90.7372L178.298 84.0262Z" fill="#37474F"/>
<path d="M178.186 85.3105C178.186 85.3105 177.191 87.4272 177.365 87.6216C177.623 87.7897 177.905 87.9071 178.198 87.9686L178.186 85.3105Z" fill="#FFA8A7"/>
<path d="M181.209 78.6201C180.127 79.4043 178.261 80.8478 178.18 85.6017C178.093 90.4597 178.715 92.0628 179.362 92.625C179.797 93.0067 182.353 92.8124 183.448 92.5278C184.543 92.2433 187.696 90.5013 188.835 87.8572C190.172 84.7481 189.898 80.2232 187.914 78.8352C186.904 78.1689 185.759 77.7996 184.586 77.762C183.414 77.7244 182.252 78.0196 181.209 78.6201Z" fill="#FFA8A7"/>
<path d="M192.697 115.069C194.613 118.401 196.429 121.315 196.827 125.077C197.648 132.981 194.961 142.017 194.383 147.868C195.471 149.532 196.098 151.515 196.187 153.572C196.187 155.995 192.697 178.792 192.697 178.792C192.697 178.792 190.16 179.653 188.872 178.411L186.477 136.472L187.721 131.364L192.697 115.069Z" fill="#407BFF"/>
<path opacity="0.2" d="M192.697 115.069C194.613 118.401 196.429 121.315 196.827 125.077C197.648 132.981 194.961 142.017 194.383 147.868C195.471 149.532 196.098 151.515 196.187 153.572C196.187 155.995 192.697 178.792 192.697 178.792C192.697 178.792 190.16 179.653 188.872 178.411L186.477 136.472L187.721 131.364L192.697 115.069Z" fill="black"/>
<path d="M186.477 136.472L187.721 131.364C190.103 130.664 192.401 129.646 194.563 128.331C194.563 128.331 193.27 130.961 189.55 132.405L187.628 138.963L187.466 153.988L186.477 136.472Z" fill="#407BFF"/>
<path opacity="0.3" d="M186.477 136.472L187.721 131.364C190.103 130.664 192.401 129.646 194.563 128.331C194.563 128.331 193.27 130.961 189.55 132.405L187.628 138.963L187.466 153.988L186.477 136.472Z" fill="black"/>
<path d="M192.697 115.069C193.724 116.943 196.174 120.136 195.652 123.21C195.03 126.93 193.226 129.546 187.74 131.364L182.59 152.184C182.59 152.184 185.271 154.96 186.092 157.646C186.913 160.332 189.873 180.791 189.873 180.791C189.873 180.791 188.953 182.464 186.061 182.061C186.061 182.061 175.978 156.383 175.269 154.711C174.408 153.017 174.107 151.04 174.417 149.124C174.734 146.431 178.149 116.957 178.149 116.957L192.697 115.069Z" fill="#407BFF"/>
<path opacity="0.2" d="M192.697 115.069C193.724 116.943 196.174 120.136 195.652 123.21C195.03 126.93 193.226 129.546 187.74 131.364L182.59 152.184C182.59 152.184 185.271 154.96 186.092 157.646C186.913 160.332 189.873 180.791 189.873 180.791C189.873 180.791 188.953 182.464 186.061 182.061C186.061 182.061 175.978 156.383 175.269 154.711C174.408 153.017 174.107 151.04 174.417 149.124C174.734 146.431 178.149 116.957 178.149 116.957L192.697 115.069Z" fill="black"/>
<path d="M194.588 99.2321L181.775 96.9211C181.514 96.8587 181.091 96.7407 180.531 96.5811C180.531 96.5811 179.984 105.548 176.693 107.602C176.774 108.032 176.843 108.511 176.905 109.059C177.098 110.78 178.149 116.929 178.149 116.929C178.149 116.929 183.125 119.615 187.211 118.317C191.298 117.019 192.679 115.083 192.679 115.083L190.632 111.363C191.204 109.816 193.78 103.597 194.588 99.2321Z" fill="#407BFF"/>
<path opacity="0.7" d="M194.588 99.2321L181.775 96.9211C181.514 96.8587 181.091 96.7407 180.531 96.5811C180.531 96.5811 179.984 105.548 176.693 107.602C176.774 108.032 176.843 108.511 176.905 109.059C177.098 110.78 178.149 116.929 178.149 116.929C178.149 116.929 183.125 119.615 187.211 118.317C191.298 117.019 192.679 115.083 192.679 115.083L190.632 111.363C191.204 109.816 193.78 103.597 194.588 99.2321Z" fill="white"/>
<path d="M191.211 109.885C189.509 111.025 187.726 112.007 185.88 112.82C187.556 112.783 189.196 112.277 190.651 111.349L191.211 109.885Z" fill="#407BFF"/>
<path d="M180.892 78.8562C180.892 78.8562 180.27 83.3672 181.738 86.0182C181.738 86.0182 182.285 84.2208 183.647 84.5608C185.009 84.9009 185.084 86.9066 184.126 88.0308C183.883 88.3462 183.564 88.5786 183.208 88.7013C182.852 88.8241 182.471 88.8322 182.111 88.7248C182.111 88.7248 181.893 91.9866 181.775 94.721C181.657 97.4554 181.01 103.417 183.765 105.825C186.521 108.233 193.437 109.08 196.678 104.028C198.482 101.217 196.087 96.2478 194.974 90.675C193.948 85.5533 193.369 77.9609 188.499 76.7395C183.629 75.518 180.892 78.8562 180.892 78.8562Z" fill="#37474F"/>
<path d="M187.958 194.289C195.852 194.289 202.251 190.887 202.251 186.69C202.251 182.493 195.852 179.091 187.958 179.091C180.064 179.091 173.664 182.493 173.664 186.69C173.664 190.887 180.064 194.289 187.958 194.289Z" fill="#EBEBEB"/>
</svg>
