<svg width="25" height="25" viewBox="0 0 25 25" fill="none" xmlns="http://www.w3.org/2000/svg">
<path d="M16.6371 8.9211C16.3685 9.41423 16.2472 9.96334 16.2853 10.513C16.3234 11.0626 16.5197 11.5934 16.8543 12.0516V12.1142C17.6702 12.9941 18.4332 13.9137 19.14 14.8691C19.2625 15.2662 19.2119 15.6911 18.9989 16.0549C18.7858 16.4187 18.4268 16.693 17.9971 16.8205C17.7825 16.8754 17.558 16.8905 17.3368 16.8649C17.1157 16.8393 16.9024 16.7734 16.7096 16.6713C16.5167 16.5692 16.3483 16.4328 16.2141 16.2702C16.08 16.1076 15.9829 15.9222 15.9286 15.7248C15.6429 14.7752 16.2943 14.6813 15.2771 13.6378C14.7514 13.0847 13.6657 14.1282 13.3229 15.2135C13.0515 15.9141 12.8786 16.6435 12.8086 17.3839C12.9587 17.5921 13.0605 17.826 13.1079 18.0714C13.1552 18.3169 13.1471 18.5685 13.0839 18.8109C13.0208 19.0534 12.9039 19.2814 12.7406 19.4811C12.5773 19.6807 12.3709 19.8477 12.1343 19.9718C11.914 20.0812 11.6718 20.1489 11.4221 20.1707C11.1725 20.1925 10.9206 20.1681 10.6816 20.099C10.4425 20.0298 10.2212 19.9172 10.031 19.7681C9.84069 19.6189 9.68536 19.4362 9.57428 19.231C9.45156 19.0152 9.37755 18.7791 9.35663 18.5367C9.33572 18.2944 9.36833 18.0506 9.45254 17.82C9.53674 17.5893 9.67082 17.3764 9.84683 17.194C10.0228 17.0115 10.2372 16.8632 10.4771 16.7578C11.0085 15.5786 11.429 14.3603 11.7343 13.116C11.7515 13.0589 11.7469 12.9983 11.7213 12.9439C11.6958 12.8895 11.6507 12.8447 11.5936 12.8168C11.5364 12.7889 11.4706 12.7795 11.4068 12.7903C11.3431 12.801 11.2853 12.8313 11.2429 12.876C10.3057 13.836 9.57429 13.4291 8.69429 15.0361C8.59056 15.2236 8.44679 15.3904 8.27143 15.5265C8.10501 15.6488 7.91377 15.7399 7.70869 15.7946C7.50361 15.8493 7.28872 15.8665 7.07636 15.8451C6.86399 15.8238 6.65833 15.7644 6.47117 15.6703C6.28401 15.5763 6.11904 15.4494 5.98571 15.2969C5.70848 14.97 5.57887 14.5586 5.6235 14.1472C5.66814 13.7358 5.88363 13.3556 6.22571 13.0847C6.42716 12.9307 6.6663 12.8233 6.92286 12.7716C7.98963 12.36 8.98036 11.8003 9.86 11.1125C9.91353 11.0758 9.95127 11.0232 9.96664 10.9637C9.98201 10.9042 9.97404 10.8417 9.94412 10.7871C9.9142 10.7325 9.86422 10.6891 9.8029 10.6647C9.74158 10.6402 9.67281 10.6362 9.60857 10.6533C8.58 10.9246 8.23714 10.7055 8.23714 10.7055C8.152 10.8078 8.05204 10.8991 7.94 10.9768C7.78216 11.0852 7.60174 11.1631 7.40979 11.2057C7.21783 11.2482 7.01839 11.2545 6.82367 11.2243C6.62894 11.194 6.44304 11.1277 6.27734 11.0295C6.11164 10.9314 5.96963 10.8034 5.86 10.6533C5.62907 10.3499 5.53469 9.9771 5.59638 9.61195C5.65807 9.24681 5.87111 8.91728 6.19143 8.69153C6.45508 8.5126 6.7774 8.42063 7.10571 8.43065C8.24857 8.43065 11.9629 9.3385 13.6771 6.34363L14.9114 4.25662C15.5857 3.12963 15.54 1.89829 14.7971 1.50176L13.4257 0.771301C13.0454 0.593628 12.6243 0.500977 12.1971 0.500977C11.77 0.500977 11.3489 0.593628 10.9686 0.771301L1.73429 5.69666C1.3724 5.91781 1.07227 6.21327 0.857933 6.55938C0.643597 6.90549 0.521012 7.29262 0.5 7.68976V17.3109C0.521012 17.708 0.643597 18.0952 0.857933 18.4413C1.07227 18.7874 1.3724 19.0828 1.73429 19.304L10.9686 24.2294C11.3486 24.4079 11.7698 24.501 12.1971 24.501C12.6245 24.501 13.0457 24.4079 13.4257 24.2294L23.1629 19.2936C23.5372 19.0762 23.8522 18.7836 24.0839 18.4382C24.3157 18.0928 24.458 17.7037 24.5 17.3005V7.67932C24.458 7.27609 24.3157 6.88695 24.0839 6.54155C23.8522 6.19615 23.5372 5.90361 23.1629 5.68622L21.6429 4.86185C19.7914 3.87052 17.46 7.57497 16.6371 8.9211Z" fill="white"/>
</svg>
