<svg width="21" height="21" viewBox="0 0 21 21" fill="none" xmlns="http://www.w3.org/2000/svg">
<path d="M12.243 20.7238H12.0584C11.5384 20.6955 11.0422 20.4954 10.6474 20.1545C10.2526 19.8136 9.98126 19.3513 9.87574 18.8395L8.60784 13.1301C8.57479 12.9804 8.49984 12.8433 8.39181 12.7349C8.28377 12.6265 8.14714 12.5512 7.99797 12.5181L2.27641 11.2296C1.76043 11.1235 1.29337 10.8505 0.946836 10.4524C0.600303 10.0544 0.393419 9.5533 0.357899 9.02595C0.32238 8.4986 0.460184 7.97412 0.750188 7.5329C1.04019 7.09168 1.46639 6.75808 1.96345 6.58323L17.0899 0.881915C17.5236 0.716509 17.9958 0.680426 18.4495 0.778008C18.9032 0.87559 19.3192 1.10268 19.6473 1.43194C19.9754 1.7612 20.2017 2.17861 20.299 2.63392C20.3962 3.08922 20.3602 3.56303 20.1954 3.99831L14.514 19.1616C14.3461 19.6278 14.0366 20.0293 13.6291 20.3096C13.2217 20.5899 12.7369 20.7348 12.243 20.7238Z" fill="#333333"/>
</svg>
