<svg width="20" height="20" viewBox="0 0 20 20" fill="none" xmlns="http://www.w3.org/2000/svg">
<path d="M9.99999 13.3332C11.8383 13.3332 13.3333 11.8373 13.3333 9.99984V4.99984C13.3333 3.1615 11.8383 1.6665 9.99999 1.6665C8.16166 1.6665 6.66666 3.1615 6.66666 4.99984V9.99984C6.66666 11.8373 8.16166 13.3332 9.99999 13.3332Z" fill="white"/>
<path d="M15.8333 10V8.33333C15.8333 7.87333 15.4608 7.5 15 7.5C14.5392 7.5 14.1667 7.87333 14.1667 8.33333V10C14.1667 12.2975 12.2975 14.1667 9.99999 14.1667C7.70249 14.1667 5.83332 12.2975 5.83332 10V8.33333C5.83332 7.87333 5.46082 7.5 4.99999 7.5C4.53916 7.5 4.16666 7.87333 4.16666 8.33333V10C4.16666 12.9333 6.34416 15.36 9.16666 15.7667V16.6667H6.66666C6.20582 16.6667 5.83332 17.0392 5.83332 17.5C5.83332 17.9608 6.20582 18.3333 6.66666 18.3333H13.3333C13.7942 18.3333 14.1667 17.9608 14.1667 17.5C14.1667 17.0392 13.7942 16.6667 13.3333 16.6667H10.8333V15.7667C13.6558 15.36 15.8333 12.9333 15.8333 10Z" fill="white"/>
</svg>
