<svg width="18" height="14" viewBox="0 0 18 14" fill="none" xmlns="http://www.w3.org/2000/svg">
<path d="M2.33337 8.66675L15.6667 8.66675C16.5834 8.66675 17.3334 7.91675 17.3334 7.00008C17.3334 6.08341 16.5834 5.33341 15.6667 5.33341L2.33337 5.33341C1.41671 5.33341 0.666708 6.08341 0.666708 7.00008C0.666708 7.91675 1.41671 8.66675 2.33337 8.66675Z" fill="#8C9EA0"/>
<path d="M15.6667 10.3334L5.66671 10.3334C4.75004 10.3334 4.00004 11.0834 4.00004 12.0001C4.00004 12.9167 4.75004 13.6667 5.66671 13.6667L15.6667 13.6667C16.5834 13.6667 17.3334 12.9167 17.3334 12.0001C17.3334 11.0834 16.5834 10.3334 15.6667 10.3334Z" fill="#8C9EA0"/>
<path d="M5.66671 3.66675L15.6667 3.66675C16.5834 3.66675 17.3334 2.91675 17.3334 2.00008C17.3334 1.08341 16.5834 0.333415 15.6667 0.333415L5.66671 0.333415C4.75004 0.333415 4.00004 1.08341 4.00004 2.00008C4.00004 2.91675 4.75004 3.66675 5.66671 3.66675Z" fill="#8C9EA0"/>
</svg>
