<svg width="18" height="20" viewBox="0 0 18 20" fill="none" xmlns="http://www.w3.org/2000/svg">
<g clip-path="url(#clip0_66_547)">
<path d="M3.05104 15H14.793C15.1544 15 15.5105 14.9033 15.8311 14.7181C16.1517 14.5328 16.4275 14.2645 16.635 13.9358C16.8426 13.6071 16.9758 13.2277 17.0235 12.8297C17.0711 12.4316 17.0318 12.0267 16.9088 11.6492L14.7698 5.07833C14.4045 3.61809 13.6187 2.33099 12.5328 1.41389C11.4468 0.496791 10.1203 0.000176732 8.75629 8.47759e-10V8.47759e-10C7.33633 -2.46602e-05 5.95882 0.53799 4.85119 1.52521C3.74357 2.51244 2.97205 3.88984 2.66404 5.43L0.901536 11.7633C0.797766 12.1372 0.774437 12.533 0.833427 12.9188C0.892417 13.3045 1.03208 13.6695 1.24117 13.9844C1.45027 14.2992 1.72296 14.5551 2.03731 14.7315C2.35165 14.9079 2.69887 14.9999 3.05104 15Z" fill="#333333"/>
<path d="M5.32495 16.6667C5.49709 17.6087 5.957 18.4555 6.62676 19.0637C7.29652 19.672 8.13493 20.0043 8.99995 20.0043C9.86497 20.0043 10.7034 19.672 11.3731 19.0637C12.0429 18.4555 12.5028 17.6087 12.675 16.6667H5.32495Z" fill="#333333"/>
</g>
<defs>
<clipPath id="clip0_66_547">
<rect width="18" height="20" fill="white"/>
</clipPath>
</defs>
</svg>
