<svg width="250" height="250" viewBox="0 0 250 250" fill="none" xmlns="http://www.w3.org/2000/svg">
<path d="M123.66 240.94C185.328 240.94 235.32 212.076 235.32 176.47C235.32 140.864 185.328 112 123.66 112C61.9919 112 12 140.864 12 176.47C12 212.076 61.9919 240.94 123.66 240.94Z" fill="#F5F5F5"/>
<path d="M168.945 155.92L206.555 177.63C207.029 177.905 207.567 178.05 208.115 178.05C208.663 178.05 209.201 177.905 209.675 177.63L230.6 165.54C230.741 165.458 230.858 165.341 230.94 165.199C231.021 165.058 231.064 164.898 231.064 164.735C231.064 164.572 231.021 164.411 230.94 164.27C230.858 164.129 230.741 164.011 230.6 163.93L193 142.275C192.527 142.002 191.991 141.859 191.445 141.859C190.899 141.859 190.363 142.002 189.89 142.275L168.95 154.305C168.809 154.387 168.691 154.504 168.609 154.646C168.528 154.787 168.484 154.947 168.484 155.111C168.483 155.274 168.526 155.435 168.607 155.577C168.687 155.719 168.804 155.837 168.945 155.92Z" fill="#E0E0E0"/>
<path d="M139.35 147.845L48.885 200.2C48.1483 200.627 47.3126 200.855 46.4608 200.859C45.6091 200.863 44.7711 200.645 44.03 200.225L20.53 186.925C20.2859 186.785 20.0831 186.583 19.9421 186.339C19.801 186.095 19.7268 185.819 19.7268 185.537C19.7268 185.256 19.801 184.979 19.9421 184.736C20.0831 184.492 20.2859 184.29 20.53 184.15L110.825 132C111.56 131.578 112.391 131.353 113.239 131.348C114.086 131.342 114.92 131.557 115.66 131.97L139.33 145.235C139.562 145.364 139.755 145.552 139.891 145.78C140.026 146.009 140.098 146.269 140.1 146.534C140.103 146.799 140.034 147.061 139.902 147.291C139.77 147.521 139.58 147.712 139.35 147.845Z" fill="#E0E0E0"/>
<path d="M153.83 200.39C167.54 200.39 178.655 193.972 178.655 186.055C178.655 178.138 167.54 171.72 153.83 171.72C140.12 171.72 129.005 178.138 129.005 186.055C129.005 193.972 140.12 200.39 153.83 200.39Z" fill="#E0E0E0"/>
<path d="M207.525 194.3C212.305 194.3 216.18 192.061 216.18 189.3C216.18 186.538 212.305 184.3 207.525 184.3C202.745 184.3 198.87 186.538 198.87 189.3C198.87 192.061 202.745 194.3 207.525 194.3Z" fill="#E0E0E0"/>
<path d="M207.805 110.52L207.815 176.505L229.185 164.155V98.2349L207.805 110.52Z" fill="#E6E6E6"/>
<path d="M171.51 155.545L207.815 176.505V110.58L171.52 89.6851L171.51 155.545Z" fill="#EBEBEB"/>
<path d="M171.51 89.62L207.815 110.58L229.185 98.235L192.895 77.335L171.51 89.62Z" fill="#F5F5F5"/>
<path d="M175.765 113.75L203.35 129.68C203.471 129.749 203.607 129.785 203.746 129.785C203.885 129.785 204.021 129.748 204.142 129.679C204.262 129.61 204.362 129.51 204.432 129.39C204.502 129.27 204.539 129.134 204.54 128.995V115C204.538 114.654 204.445 114.315 204.269 114.017C204.093 113.72 203.842 113.474 203.54 113.305L176 97.4349C175.879 97.3657 175.742 97.3295 175.603 97.3298C175.464 97.3302 175.327 97.3672 175.206 97.4371C175.086 97.507 174.986 97.6073 174.916 97.728C174.847 97.8487 174.81 97.9856 174.81 98.1249V112.055C174.807 112.396 174.893 112.733 175.061 113.03C175.229 113.327 175.471 113.576 175.765 113.75Z" fill="#FAFAFA"/>
<path d="M192.095 110.245C192 110.244 191.907 110.218 191.825 110.17L186.955 107.37C186.843 107.291 186.765 107.173 186.735 107.039C186.705 106.906 186.727 106.766 186.795 106.647C186.863 106.528 186.973 106.439 187.104 106.397C187.234 106.355 187.375 106.363 187.5 106.42L192.37 109.225C192.466 109.288 192.54 109.38 192.581 109.488C192.621 109.596 192.627 109.714 192.596 109.825C192.566 109.936 192.501 110.035 192.411 110.106C192.321 110.178 192.21 110.22 192.095 110.225V110.245Z" fill="#E0E0E0"/>
<path d="M175.765 133.29L203.35 149.215C203.471 149.284 203.607 149.32 203.746 149.32C203.885 149.32 204.021 149.283 204.142 149.214C204.262 149.145 204.362 149.045 204.432 148.925C204.502 148.805 204.539 148.669 204.54 148.53V134.53C204.538 134.184 204.444 133.845 204.268 133.548C204.093 133.25 203.841 133.004 203.54 132.835L176 117C175.879 116.931 175.743 116.895 175.604 116.895C175.465 116.895 175.329 116.931 175.208 117.001C175.088 117.07 174.988 117.17 174.918 117.29C174.848 117.41 174.811 117.546 174.81 117.685V131.615C174.811 131.953 174.899 132.285 175.067 132.578C175.234 132.872 175.475 133.117 175.765 133.29Z" fill="#FAFAFA"/>
<path d="M192.095 129.78C192.001 129.779 191.908 129.755 191.825 129.71L186.955 126.905C186.843 126.826 186.765 126.708 186.735 126.574C186.705 126.441 186.727 126.301 186.795 126.182C186.863 126.063 186.973 125.974 187.104 125.932C187.234 125.89 187.375 125.898 187.5 125.955L192.37 128.76C192.466 128.823 192.54 128.915 192.581 129.023C192.621 129.131 192.627 129.249 192.596 129.36C192.566 129.471 192.501 129.57 192.411 129.642C192.321 129.713 192.21 129.755 192.095 129.76V129.78Z" fill="#E0E0E0"/>
<path d="M175.765 152.825L203.35 168.75C203.471 168.819 203.607 168.855 203.746 168.855C203.885 168.855 204.021 168.818 204.142 168.749C204.262 168.68 204.362 168.58 204.432 168.46C204.502 168.34 204.539 168.204 204.54 168.065V154.065C204.538 153.719 204.444 153.38 204.268 153.083C204.093 152.785 203.841 152.539 203.54 152.37L176 136.5C175.88 136.431 175.743 136.395 175.604 136.395C175.465 136.395 175.329 136.431 175.208 136.501C175.088 136.57 174.988 136.67 174.918 136.79C174.848 136.91 174.811 137.046 174.81 137.185V151.12C174.806 151.463 174.892 151.801 175.059 152.1C175.227 152.4 175.47 152.649 175.765 152.825Z" fill="#FAFAFA"/>
<path d="M192.095 149.315C192 149.316 191.907 149.292 191.825 149.245L186.955 146.44C186.893 146.404 186.838 146.357 186.795 146.3C186.751 146.243 186.719 146.178 186.701 146.109C186.682 146.04 186.677 145.968 186.687 145.897C186.696 145.826 186.719 145.757 186.755 145.695C186.791 145.633 186.838 145.578 186.895 145.535C186.952 145.491 187.017 145.46 187.087 145.441C187.156 145.423 187.228 145.419 187.299 145.429C187.37 145.439 187.438 145.463 187.5 145.5L192.37 148.3C192.432 148.336 192.487 148.383 192.53 148.44C192.574 148.497 192.606 148.562 192.625 148.631C192.643 148.7 192.648 148.772 192.638 148.844C192.629 148.915 192.606 148.983 192.57 149.045C192.522 149.129 192.453 149.198 192.37 149.245C192.286 149.293 192.191 149.317 192.095 149.315Z" fill="#E0E0E0"/>
<path d="M194.205 44.075V61.7099L209.48 70.525V52.8899L194.205 44.075Z" fill="#FAFAFA"/>
<path d="M195.86 45.025L209.5 52.89V68.615L195.88 60.755V45.025H195.86ZM195.05 43.595L194.225 44.095V61.73L209.5 70.525L210.325 70.025V52.415L195.03 43.595H195.05Z" fill="#E0E0E0"/>
<path d="M195.03 45.5001L208.65 53.3651V69.0901L195.03 61.2251V45.5001ZM194.205 44.0701V61.7051L209.5 70.5251V52.8901L194.205 44.0751V44.0701Z" fill="#EBEBEB"/>
<path d="M196.445 57.6751L208 64.3451L204.585 55.4651L202.225 58.2701L199.805 54.8301L196.445 57.6751Z" fill="#E0E0E0"/>
<path d="M200.455 52.135C200.475 52.5008 200.58 52.8568 200.764 53.174C200.947 53.4911 201.203 53.7605 201.51 53.96C202.09 54.295 202.565 54.02 202.565 53.35C202.545 52.9844 202.438 52.6287 202.255 52.3117C202.072 51.9947 201.817 51.7252 201.51 51.525C200.925 51.19 200.455 51.46 200.455 52.135Z" fill="#E0E0E0"/>
<path d="M214.055 65.4199V79.4699L226.22 86.4949V72.4449L214.055 65.4199Z" fill="#FAFAFA"/>
<path d="M215.37 66.1851L226.22 72.4451V85.0001L215.37 78.7351V66.2351V66.1851ZM214.71 65.0901L214.055 65.4701V79.5201L226.22 86.5001L226.88 86.1201V72.0701L214.71 65.0701V65.0901Z" fill="#E0E0E0"/>
<path d="M214.71 66.5649L225.56 72.8249V85.3549L214.71 79.0899V66.5649ZM214.055 65.4199V79.4699L226.22 86.4999V72.4499L214.055 65.4499V65.4199Z" fill="#EBEBEB"/>
<path d="M215.84 76.255L225.04 81.57L222.325 74.495L220.44 76.735L218.515 73.99L215.84 76.255Z" fill="#E0E0E0"/>
<path d="M219.03 71.845C219.046 72.1364 219.13 72.42 219.276 72.6728C219.422 72.9255 219.626 73.1404 219.87 73.3C220.335 73.565 220.71 73.35 220.71 72.8C220.695 72.5084 220.611 72.2245 220.465 71.9717C220.319 71.7188 220.115 71.504 219.87 71.345C219.405 71.09 219.03 71.31 219.03 71.845Z" fill="#E0E0E0"/>
<path d="M208.035 176.56C208.035 176.56 202.715 171.365 205.745 162.665C207.44 157.79 213.06 154.21 216.245 153.87C215.185 155.13 214.34 156.555 213.745 158.09L209.715 160.77L213.42 159.61L212.63 162.78C212.63 162.78 209.185 164.865 208.675 165.32L212.39 164.35C212.39 164.35 212.12 173.33 208.035 176.56Z" fill="#2A2927"/>
<path d="M208.035 176.56C208.035 176.56 205.28 165.69 209.355 159.35C209.355 159.35 204.58 164.945 208.035 176.56Z" fill="white"/>
<path d="M214.12 178.03L207.62 177.95H207.555L201.055 178.03C201.055 178.03 200.98 186.03 203.45 189.31C204.135 190.18 205.73 190.81 207.595 190.81C209.46 190.81 211.065 190.195 211.745 189.31C214.195 186.04 214.12 178.03 214.12 178.03Z" fill="#37474F"/>
<path d="M214.12 178.03C214.12 179.97 211.195 181.53 207.58 181.53C203.965 181.53 201.04 179.955 201.04 178.03C201.04 176.105 203.97 174.53 207.58 174.53C211.19 174.53 214.12 176.09 214.12 178.03Z" fill="#455A64"/>
<path d="M207.58 177.1C209.83 177.1 211.735 177.82 212.41 178.82C212.574 178.589 212.665 178.314 212.67 178.03C212.67 176.645 210.39 175.53 207.58 175.53C204.77 175.53 202.49 176.655 202.49 178.03C202.494 178.314 202.587 178.59 202.755 178.82C203.425 177.82 205.33 177.1 207.58 177.1Z" fill="#263238"/>
<path d="M207.58 177.1C205.33 177.1 203.425 177.82 202.755 178.82C203.425 179.82 205.33 180.545 207.58 180.545C209.83 180.545 211.735 179.82 212.41 178.82C211.735 177.82 209.83 177.1 207.58 177.1Z" fill="#E0E0E0"/>
<path d="M207.66 179.255C207.66 179.255 205.16 179.16 202.98 175.81C202.085 174.43 201.655 173.705 201.655 173.705L205.155 173.44L201.22 172.44L199.36 169.595L202.625 169.35C201.279 168.881 199.877 168.59 198.455 168.485C198.455 168.485 195.455 163.165 194.56 162.405C196.846 162.544 199.081 163.141 201.132 164.161C203.183 165.18 205.009 166.602 206.5 168.34C211.435 174.195 208.395 179.405 207.66 179.255Z" fill="#FFCA3D"/>
<path d="M207.66 179.255C207.66 179.255 209.24 169.755 199.16 164.045C199.175 164.045 209.62 169.065 207.66 179.255Z" fill="white"/>
<path d="M207.66 179.255C207.66 179.255 209.945 179.405 212.21 176.59C213.145 175.425 213.6 174.81 213.6 174.81L210.455 174.245L214.1 173.745L216.045 171.35L213.12 170.825C214.379 170.528 215.672 170.398 216.965 170.44C216.965 170.44 220.185 165.94 221.05 165.32C218.984 165.228 216.92 165.55 214.98 166.268C213.04 166.986 211.264 168.085 209.755 169.5C204.735 174.335 207 179.32 207.66 179.255Z" fill="#ED4B00"/>
<path d="M207.66 179.255C207.66 179.255 207.13 170.54 216.75 166.33C216.75 166.33 206.855 169.875 207.66 179.255Z" fill="white"/>
<path d="M108.395 57.9251L106.12 57.0001L105.89 56.9051H105.865C105.457 56.7578 105.022 56.7016 104.59 56.7405C104.158 56.7793 103.74 56.9123 103.365 57.1301L25.295 102.19C23.6543 103.136 22.2918 104.497 21.3447 106.136C20.3975 107.776 19.8992 109.636 19.9 111.53V179.5C19.9004 180.222 20.0909 180.932 20.4525 181.557C20.8141 182.183 21.3339 182.702 21.9597 183.063C22.5856 183.424 23.2953 183.613 24.0177 183.613C24.7401 183.612 25.4496 183.422 26.075 183.06L104.22 137.945C105.335 137.301 106.261 136.374 106.904 135.259C107.547 134.143 107.886 132.878 107.885 131.59V59.7501C107.886 59.2356 107.756 58.7294 107.505 58.2801L108.395 57.9251Z" fill="#FFCA3D"/>
<path opacity="0.3" d="M108.395 57.9251L106.12 57.0001L105.89 56.9051H105.865C105.457 56.7578 105.022 56.7016 104.59 56.7405C104.158 56.7793 103.74 56.9123 103.365 57.1301L25.295 102.19C23.6543 103.136 22.2918 104.497 21.3447 106.136C20.3975 107.776 19.8992 109.636 19.9 111.53V179.5C19.9004 180.222 20.0909 180.932 20.4525 181.557C20.8141 182.183 21.3339 182.702 21.9597 183.063C22.5856 183.424 23.2953 183.613 24.0177 183.613C24.7401 183.612 25.4496 183.422 26.075 183.06L104.22 137.945C105.335 137.301 106.261 136.374 106.904 135.259C107.547 134.143 107.886 132.878 107.885 131.59V59.7501C107.886 59.2356 107.756 58.7294 107.505 58.2801L108.395 57.9251Z" fill="black"/>
<path d="M109.955 60.5702V132.435C109.956 133.723 109.617 134.988 108.973 136.103C108.328 137.218 107.401 138.143 106.285 138.785L28.14 183.905C27.514 184.265 26.8044 184.455 26.0821 184.454C25.3599 184.454 24.6505 184.263 24.0251 183.902C23.3996 183.541 22.88 183.022 22.5185 182.397C22.1569 181.772 21.966 181.062 21.965 180.34V112.34C21.9654 110.477 22.4495 108.645 23.37 107.025C24.0672 105.823 25.0738 104.831 26.285 104.15L107 57.5452C107.783 57.5696 108.526 57.8952 109.075 58.4541C109.623 59.013 109.935 59.762 109.945 60.5452L109.955 60.5702Z" fill="#FFCA3D"/>
<path opacity="0.1" d="M109.955 60.5702V132.435C109.956 133.723 109.617 134.988 108.973 136.103C108.328 137.218 107.401 138.143 106.285 138.785L28.14 183.905C27.514 184.265 26.8044 184.455 26.0821 184.454C25.3599 184.454 24.6505 184.263 24.0251 183.902C23.3996 183.541 22.88 183.022 22.5185 182.397C22.1569 181.772 21.966 181.062 21.965 180.34V112.34C21.9654 110.477 22.4495 108.645 23.37 107.025C24.0672 105.823 25.0738 104.831 26.285 104.15L107 57.5452C107.783 57.5696 108.526 57.8952 109.075 58.4541C109.623 59.013 109.935 59.762 109.945 60.5452L109.955 60.5702Z" fill="black"/>
<path d="M106.285 138.785L28.14 183.905C27.5351 184.259 26.8492 184.451 26.1485 184.462C25.4478 184.474 24.756 184.304 24.14 183.97L70.8 113.745L109.955 132.43C109.955 133.718 109.616 134.984 108.972 136.1C108.328 137.215 107.401 138.141 106.285 138.785Z" fill="#FFCA3D"/>
<path opacity="0.2" d="M106.285 138.785L28.14 183.905C27.5351 184.259 26.8492 184.451 26.1485 184.462C25.4478 184.474 24.756 184.304 24.14 183.97L70.8 113.745L109.955 132.43C109.955 133.718 109.616 134.984 108.972 136.1C108.328 137.215 107.401 138.141 106.285 138.785Z" fill="black"/>
<path d="M108.64 58.0802L76.775 124.735C76.1474 126.045 75.2561 127.211 74.1571 128.16C73.0581 129.109 71.7749 129.821 70.388 130.252C69.001 130.682 67.5401 130.821 66.0968 130.661C64.6534 130.501 63.2587 130.044 62 129.32L23.37 107.04C24.0294 105.869 24.9912 104.897 26.155 104.225L107 57.5452C107.587 57.5591 108.157 57.7451 108.64 58.0802Z" fill="#FFCA3D"/>
<path d="M31.39 85.6399L54.28 72.4199V56.0349L37.645 65.2049C35.7503 66.2478 34.1704 67.7802 33.0701 69.6421C31.9699 71.504 31.3896 73.6272 31.39 75.7899V85.6399Z" fill="#ED4B00"/>
<path opacity="0.5" d="M30.9994 86.605L53.8894 73.385V57L37.2544 66.17C35.3597 67.2129 33.7798 68.7453 32.6795 70.6072C31.5792 72.4691 30.999 74.5923 30.9994 76.755V86.605Z" fill="white"/>
<path d="M126 22.1849L123.905 20.9999C121.244 19.4614 118.224 18.6543 115.15 18.6604C112.077 18.6666 109.06 19.4858 106.405 21.0349L40.94 59.1749C38.0341 60.8673 35.6229 63.2922 33.9472 66.2077C32.2714 69.1231 31.3897 72.4272 31.39 75.7899C31.3898 74.0624 31.8458 72.3655 32.7118 70.8707C33.5778 69.376 34.8232 68.1364 36.322 67.2774C37.8208 66.4184 39.5199 65.9704 41.2474 65.9788C42.9749 65.9871 44.6696 66.4515 46.16 67.3249L48.9 68.9299C51.7528 70.5997 54.1191 72.9869 55.7637 75.8542C57.4083 78.7216 58.2741 81.9694 58.275 85.2749V182.545L53.81 193.88L62.195 188.775L129.6 149.665C131.994 148.277 133.981 146.284 135.362 143.885C136.742 141.487 137.467 138.767 137.465 136V42.0799C137.464 38.05 136.405 34.091 134.393 30.5993C132.381 27.1077 129.486 24.206 126 22.1849Z" fill="#ED4B00"/>
<path opacity="0.7" d="M125.609 22.5245L123.514 21.3395C120.854 19.801 117.833 18.9939 114.76 19C111.686 19.0062 108.669 19.8254 106.014 21.3745L40.5494 59.5145C37.6435 61.2069 35.2323 63.6318 33.5565 66.5473C31.8808 69.4627 30.9991 72.7668 30.9994 76.1295C30.9992 74.402 31.4551 72.7051 32.3212 71.2103C33.1872 69.7156 34.4326 68.476 35.9314 67.617C37.4302 66.758 39.1293 66.31 40.8568 66.3184C42.5843 66.3267 44.2789 66.7911 45.7694 67.6645L48.5094 69.2695C51.3622 70.9393 53.7284 73.3265 55.3731 76.1938C57.0177 79.0612 57.8835 82.309 57.8844 85.6145V182.885L53.4194 194.22L61.8044 189.115L129.209 150.005C131.603 148.616 133.59 146.623 134.971 144.225C136.351 141.826 137.077 139.107 137.074 136.34V42.4195C137.074 38.3896 136.014 34.4306 134.002 30.9389C131.99 27.4473 129.096 24.5456 125.609 22.5245Z" fill="white"/>
<path d="M34.105 185.04C34.105 185.04 38.8 191.905 46.345 194.18C54.46 196.625 58.275 191.245 58.275 184.11V171.205L34.105 185.04Z" fill="#ED4B00"/>
<path opacity="0.5" d="M33.9994 184.835C33.9994 184.835 38.6944 191.7 46.2394 193.975C54.3544 196.42 58.1694 191.04 58.1694 183.905V171L33.9994 184.835Z" fill="white"/>
<path d="M72.86 116C72.6979 115.997 72.5409 115.942 72.413 115.842C72.2852 115.743 72.1933 115.604 72.1515 115.447C72.1096 115.291 72.12 115.125 72.1811 114.974C72.2422 114.824 72.3507 114.698 72.49 114.615L122.49 85.7349C122.66 85.6368 122.863 85.6104 123.053 85.6615C123.243 85.7126 123.404 85.837 123.503 86.0074C123.601 86.1778 123.627 86.3802 123.576 86.5701C123.525 86.76 123.4 86.9218 123.23 87.0199L73.23 115.9C73.1173 115.964 72.9899 115.999 72.86 116Z" fill="white"/>
<path d="M72.86 127.075C72.6974 127.075 72.5394 127.021 72.4105 126.922C72.2815 126.822 72.1889 126.684 72.1467 126.527C72.1046 126.369 72.1154 126.203 72.1775 126.053C72.2395 125.902 72.3494 125.776 72.49 125.695L122.49 96.8099C122.66 96.7117 122.863 96.6853 123.053 96.7364C123.243 96.7875 123.404 96.912 123.503 97.0824C123.601 97.2528 123.627 97.4552 123.576 97.645C123.525 97.8349 123.4 97.9967 123.23 98.0949L73.23 127C73.1149 127.056 72.9877 127.081 72.86 127.075Z" fill="white"/>
<path d="M72.86 138.145C72.6974 138.145 72.5394 138.091 72.4105 137.992C72.2815 137.892 72.1889 137.754 72.1467 137.597C72.1046 137.439 72.1154 137.273 72.1775 137.123C72.2395 136.972 72.3494 136.847 72.49 136.765L122.49 107.885C122.659 107.797 122.855 107.778 123.038 107.831C123.221 107.884 123.377 108.006 123.472 108.171C123.567 108.336 123.595 108.531 123.55 108.717C123.505 108.902 123.391 109.062 123.23 109.165L73.23 138.045C73.1172 138.109 72.9899 138.144 72.86 138.145Z" fill="white"/>
<path d="M72.86 149.215C72.6974 149.215 72.5394 149.161 72.4105 149.062C72.2815 148.963 72.1889 148.824 72.1467 148.667C72.1046 148.51 72.1154 148.343 72.1775 148.193C72.2395 148.042 72.3494 147.917 72.49 147.835L122.49 118.955C122.659 118.867 122.855 118.848 123.038 118.901C123.221 118.954 123.377 119.076 123.472 119.241C123.567 119.406 123.595 119.602 123.55 119.787C123.505 119.972 123.391 120.132 123.23 120.235L73.23 149.115C73.1182 149.182 72.9902 149.216 72.86 149.215Z" fill="white"/>
<path d="M72.86 160.285C72.6974 160.284 72.5394 160.231 72.4105 160.131C72.2815 160.032 72.1889 159.894 72.1467 159.736C72.1046 159.579 72.1154 159.413 72.1775 159.262C72.2395 159.112 72.3494 158.986 72.49 158.905L122.49 130.025C122.659 129.937 122.855 129.918 123.038 129.971C123.221 130.024 123.377 130.146 123.472 130.311C123.567 130.476 123.595 130.671 123.55 130.856C123.505 131.042 123.391 131.202 123.23 131.305L73.23 160.185C73.1182 160.251 72.9902 160.286 72.86 160.285Z" fill="white"/>
<path d="M105.695 152.395C105.565 152.396 105.437 152.362 105.325 152.297C105.212 152.232 105.119 152.138 105.055 152.025C104.96 151.856 104.935 151.657 104.986 151.47C105.036 151.283 105.158 151.123 105.325 151.025L122.5 141.095C122.669 141.007 122.865 140.988 123.048 141.041C123.231 141.094 123.387 141.216 123.482 141.381C123.577 141.546 123.605 141.741 123.56 141.927C123.515 142.112 123.401 142.272 123.24 142.375L106.065 152.3C105.952 152.363 105.824 152.395 105.695 152.395Z" fill="white"/>
<path d="M107.68 74.3199L93.27 82.6399V75.5399C93.27 70.6049 96.27 64.8699 99.975 62.7299L100.975 62.1549C104.675 60.0149 107.68 62.2849 107.68 67.2199V74.3199Z" fill="#ED4B00"/>
<path d="M111.035 76.675L89.915 88.87L93.27 81.1L107.68 72.78L111.035 76.675Z" fill="#ED4B00"/>
<path d="M100.5 64.7848C99.875 65.1448 99.37 64.8548 99.37 64.1348V61.3698C99.3918 60.9782 99.5054 60.5971 99.7017 60.2575C99.898 59.9179 100.171 59.6292 100.5 59.4148C101.12 59.0548 101.625 59.3448 101.625 60.0648V62.8348C101.603 63.2252 101.49 63.605 101.294 63.9436C101.099 64.2823 100.827 64.5704 100.5 64.7848Z" fill="#ED4B00"/>
<path d="M98.075 85.1998C98.135 86.6348 99.185 87.1998 100.475 86.4548C101.151 86.0129 101.718 85.4232 102.133 84.7303C102.547 84.0374 102.8 83.2594 102.87 82.4548L98.075 85.1998Z" fill="#ED4B00"/>
<path d="M171.51 63.5801C177.317 63.5801 182.025 58.8723 182.025 53.065C182.025 47.2578 177.317 42.55 171.51 42.55C165.703 42.55 160.995 47.2578 160.995 53.065C160.995 58.8723 165.703 63.5801 171.51 63.5801Z" fill="#FFCA3D"/>
<path d="M169.635 61.24C169.635 61.24 170.575 64.58 166.77 67.68C166.77 67.68 172.63 67.09 172.95 61.52L169.635 61.24Z" fill="#FFCA3D"/>
<path d="M172.545 54.0351H170.285L169.72 48.6101H173.11L172.545 54.0351ZM171.415 57.5351C171.207 57.5493 170.998 57.5214 170.801 57.453C170.604 57.3847 170.423 57.2772 170.268 57.1372C170.114 56.9971 169.989 56.8273 169.902 56.638C169.814 56.4486 169.766 56.2436 169.76 56.0351C169.805 55.6275 169.999 55.2508 170.304 54.9772C170.609 54.7036 171.005 54.5523 171.415 54.5523C171.825 54.5523 172.221 54.7036 172.526 54.9772C172.831 55.2508 173.025 55.6275 173.07 56.0351C173.062 56.2427 173.013 56.4467 172.925 56.6349C172.837 56.8231 172.712 56.9917 172.558 57.1307C172.404 57.2697 172.223 57.3762 172.027 57.444C171.83 57.5117 171.622 57.5393 171.415 57.5251V57.5351Z" fill="white"/>
<path d="M150.75 93.7101C149.668 93.6263 148.581 93.8106 147.587 94.2466C146.593 94.6827 145.721 95.3571 145.05 96.2101C142.825 99.1401 138.115 106.07 138.115 106.07C138.115 106.07 136.145 103.885 134.855 102.35C133.565 100.815 132.355 99.5151 132.355 99.5151C132.185 98.6889 132.058 97.8545 131.975 97.0151C131.865 95.8251 131.705 95.0151 130.835 94.2001C129.965 93.3851 129.3 92.6201 129.23 92.0001C129.16 91.3801 128.73 90.7601 128.18 91.3951C127.63 92.0301 127.68 93.9801 128.83 95.2801C128.83 95.2801 126.775 94.3251 125.83 93.2051C124.885 92.0851 123.665 90.1351 123.125 90.6751C122.585 91.2151 121.55 97.0301 123.125 98.3251C124.7 99.6201 128.595 101.825 128.595 101.825C128.595 101.825 133.685 114.285 137.265 114.285C140.845 114.285 146.765 105.075 146.765 105.075L150.75 93.7101Z" fill="#FFA8A7"/>
<path d="M144.395 158.76L145.5 175.665C145.5 175.665 146.5 177.455 148.425 177.455L150.175 175.545C150.151 173.284 150.34 171.026 150.74 168.8C151.39 165.385 152.65 160.39 153.015 157.505L144.395 158.76Z" fill="#FFA8A7"/>
<path d="M145.39 120.57C145.39 120.57 144.51 126.255 144.075 131.785C143.73 136.195 143.505 142.31 143.425 144.605C143.406 145.205 143.419 145.806 143.465 146.405L144.395 158.76C144.395 158.76 149.86 161.16 153.025 157.505C153.025 157.505 153.41 153.965 152.86 151.505C152.538 149.952 152.577 148.345 152.975 146.81L156.4 133.05V120.45L145.39 120.57Z" fill="#37474F"/>
<path d="M148.045 125.285C148.276 126.296 148.78 127.223 149.501 127.968C150.222 128.713 151.133 129.246 152.135 129.51L154.18 141.96L157.18 131.05V125.285H148.045Z" fill="#263238"/>
<path d="M158.675 161.28L162.13 180.335H165.865C165.865 180.335 167.28 164.28 167.205 159.9L158.675 161.28Z" fill="#FFA8A7"/>
<path d="M147.135 120.445C147.135 120.445 146.405 127.8 152.985 128.445L156.4 150.35L158.675 161.275C158.675 161.275 164.005 164.75 167.205 159.895C167.205 159.895 167.53 154.395 166.205 150.605C165.859 149.62 165.716 148.576 165.785 147.535C166.155 142.165 167.175 126.41 166.675 122.92L163.385 118.615L147.135 120.445Z" fill="#37474F"/>
<path d="M159.115 94.5001H162.455L164.69 105.655L163.22 110.43C162.909 111.42 162.981 112.49 163.42 113.43C164.42 115.61 166.275 119.87 166.68 122.93C165.745 122.999 164.809 122.812 163.971 122.39C163.134 121.968 162.427 121.327 161.925 120.535C161.925 120.535 159.12 124.23 152.295 124.23C148.985 124.23 146.295 121.795 145.39 120.575L146.615 115.045C146.716 114.596 146.753 114.135 146.725 113.675C146.66 112.53 146.535 110.175 146.565 108.385C146.565 108.385 143.395 107.125 144.21 103.225C145.025 99.3251 150.75 93.7251 150.75 93.7251L153.205 93.8201L159.115 94.5001Z" fill="#ED4B00"/>
<path d="M151.06 73.0001C151.06 73.0001 147.01 71.5951 146.02 75.7401C145.03 79.8851 148.08 83.9101 143.52 85.2901C143.52 85.2901 146.21 87.5301 148.58 83.3451L150.58 91.8451C150.58 91.8451 150.58 92.3101 149.87 92.6651C149.87 92.6651 161.37 95.2251 163.585 89.4851C163.89 89.8155 164.098 90.2237 164.187 90.6648C164.275 91.1059 164.24 91.5627 164.085 91.9851C164.085 91.9851 167.48 90.6101 166.525 86.2151C166.525 86.2151 169.21 86.1401 169.85 83.9551C169.85 83.9551 165.555 84.1601 165.58 79.4201C165.61 73.9451 162.73 74.7401 162.73 74.7401C162.73 74.7401 159.205 69.5001 151.06 73.0001Z" fill="#455A64"/>
<path d="M153.205 90.15V93.805C153.205 93.805 149.42 98.015 153.11 98.35C156.8 98.685 159.11 94.5 159.11 94.5V86.77L153.205 90.15Z" fill="#FFA8A7"/>
<path d="M159.05 85.55V85.76C157.735 90.96 154.31 92.09 153.205 92.355L153.165 84.31L158.885 84.28L159.05 85.55Z" fill="#F28F8F"/>
<path d="M153.58 74C151.395 74.18 146.855 75.775 146.79 81.53C146.725 87.285 147.6 91.675 150.585 91.855C153.57 92.035 160.235 89.355 160.545 81.855C160.855 74.355 155.705 73.8 153.58 74Z" fill="#FFA8A7"/>
<path d="M150.815 83.8149L150.87 87.1949L148.88 86.6199L150.815 83.8149Z" fill="#F28F8F"/>
<path d="M153.785 83.725C153.788 83.8618 153.75 83.9965 153.676 84.1118C153.603 84.2271 153.496 84.3179 153.371 84.3725C153.245 84.4272 153.106 84.4433 152.972 84.4188C152.837 84.3943 152.713 84.3303 152.614 84.2349C152.516 84.1396 152.449 84.0171 152.42 83.8832C152.392 83.7493 152.404 83.61 152.455 83.483C152.506 83.3559 152.593 83.2469 152.707 83.1698C152.82 83.0927 152.953 83.051 153.09 83.05C153.18 83.048 153.27 83.0639 153.354 83.0969C153.438 83.1299 153.514 83.1792 153.579 83.242C153.643 83.3048 153.695 83.3799 153.73 83.4628C153.766 83.5457 153.784 83.6348 153.785 83.725Z" fill="#263238"/>
<path d="M149.25 83.31C149.252 83.4003 149.236 83.4902 149.203 83.5744C149.17 83.6586 149.121 83.7354 149.058 83.8005C148.995 83.8656 148.92 83.9176 148.838 83.9535C148.755 83.9895 148.665 84.0087 148.575 84.01C148.438 84.0129 148.304 83.9752 148.189 83.9017C148.074 83.8281 147.983 83.722 147.928 83.5968C147.873 83.4716 147.857 83.333 147.881 83.1984C147.905 83.0639 147.969 82.9396 148.063 82.8412C148.158 82.7428 148.28 82.6748 148.414 82.6458C148.547 82.6168 148.686 82.6282 148.814 82.6784C148.941 82.7286 149.05 82.8154 149.128 82.9279C149.205 83.0403 149.248 83.1733 149.25 83.31Z" fill="#263238"/>
<path d="M152.675 88.29C151.926 88.4812 151.188 88.7149 150.465 88.99C150.465 88.99 150.26 87.815 151.235 87.545C151.524 87.4839 151.826 87.5247 152.088 87.6605C152.35 87.7963 152.558 88.0187 152.675 88.29Z" fill="#F28F8F"/>
<path d="M149 80.7651L147.665 81.5801C147.665 81.5801 148.165 82.1101 148.695 81.7801C148.842 81.6613 148.95 81.5008 149.004 81.3197C149.059 81.1386 149.057 80.9454 149 80.7651Z" fill="#263238"/>
<path d="M157.09 83.705C157.09 83.705 157.04 85.835 158.435 85.835H161.17V81.22C161.17 76.04 157.24 70.63 148.88 74.91C148.88 74.91 148.39 82.115 157.09 83.705Z" fill="#455A64"/>
<path d="M147.875 85.72C146.575 85.72 145.515 84.82 145.515 83.72C145.515 82.62 146.575 81.72 147.875 81.72C149.175 81.72 150.235 82.62 150.235 83.72C150.235 84.82 149.175 85.72 147.875 85.72ZM147.875 82.105C146.8 82.105 145.925 82.825 145.925 83.705C145.925 84.585 146.8 85.31 147.875 85.31C148.95 85.31 149.825 84.59 149.825 83.705C149.825 82.82 148.95 82.105 147.875 82.105Z" fill="#BA68C8"/>
<path d="M153.68 85.7351C152.225 85.7351 151.035 84.8251 151.035 83.7051C151.035 82.5851 152.225 81.7051 153.68 81.7051C155.135 81.7051 156.325 82.6151 156.325 83.7051C156.325 84.7951 155.14 85.7351 153.68 85.7351ZM153.68 82.1151C152.465 82.1151 151.47 82.8301 151.47 83.7051C151.47 84.5801 152.47 85.3001 153.68 85.3001C154.89 85.3001 155.89 84.5851 155.89 83.7051C155.89 82.8251 154.9 82.1151 153.68 82.1151Z" fill="#BA68C8"/>
<path d="M151.255 83.49H150.03V83.925H151.255V83.49Z" fill="#BA68C8"/>
<path d="M159.27 83.49H156.11V83.925H159.27V83.49Z" fill="#BA68C8"/>
<path d="M158.425 85.555C158.408 85.0272 158.51 84.5025 158.725 84.02C158.83 83.7196 159.02 83.4563 159.272 83.2626C159.524 83.0689 159.828 82.9533 160.145 82.93C161.775 82.905 161.975 84.475 161.95 85.03C161.875 86.495 160.675 88.065 158.45 88.1L158.425 85.555Z" fill="#FFA8A7"/>
<path d="M162.455 94.5C162.455 94.5 158.645 103.61 164.69 105.655L166.015 102.825C166.015 102.825 177.075 92.695 179.78 90.475C182.485 88.255 179.015 84.975 175.66 81.9C172.305 78.825 168.94 75.85 168.94 75.85L167.26 72.875C167.075 72.5502 166.824 72.2681 166.522 72.0475C166.221 71.8269 165.876 71.6727 165.51 71.595C163.75 71.23 160.435 70.595 158.645 70.7C156.145 70.835 159.92 73.95 160.555 73.95C161.127 73.9671 161.685 74.1305 162.176 74.4246C162.667 74.7187 163.075 75.1337 163.36 75.63C164.12 76.985 164.255 79.425 166.68 79.315L172.3 87.71L162.455 94.5Z" fill="#FFA8A7"/>
<path d="M172.3 87.71L174.25 90.205L171.21 88.465L172.3 87.71Z" fill="#F28F8F"/>
<path d="M138.115 106.075L139.85 108.08L138.845 105.01L138.115 106.075Z" fill="#F28F8F"/>
<path opacity="0.2" d="M153.1 108.565C153.1 108.565 158.1 108.97 159.65 104.22C159.65 104.22 159.71 110.275 153.1 108.565Z" fill="black"/>
<path d="M145.025 176.395C145.025 176.395 144.33 174.215 145.405 174.1C146.48 173.985 148.38 174.555 148.57 175.125C148.686 175.502 148.734 175.897 148.71 176.29C149.234 176.113 149.731 175.862 150.185 175.545V174.74C150.185 174.74 151.305 174.85 151.39 175.69C151.475 176.53 151.49 177.555 151.525 178.51C151.59 180.44 151.875 181.73 149.68 182.3C148.115 182.693 146.702 183.543 145.62 184.74C144.87 185.532 143.935 186.127 142.9 186.472C141.865 186.816 140.76 186.9 139.685 186.715C136.38 186.255 136.57 183.465 137.735 182.57C138.855 181.746 140.052 181.032 141.31 180.44L145.025 176.395Z" fill="#ED4B00"/>
<path d="M143.845 182.56C143.795 182.561 143.746 182.548 143.704 182.523C143.661 182.497 143.627 182.46 143.605 182.415C143.075 181.561 142.231 180.949 141.255 180.71C141.219 180.702 141.186 180.688 141.156 180.667C141.126 180.646 141.101 180.62 141.081 180.589C141.062 180.558 141.048 180.524 141.042 180.488C141.036 180.452 141.037 180.415 141.045 180.38C141.053 180.345 141.067 180.312 141.088 180.283C141.108 180.254 141.134 180.229 141.165 180.21C141.195 180.191 141.229 180.178 141.264 180.172C141.299 180.166 141.335 180.167 141.37 180.175C141.933 180.311 142.463 180.558 142.929 180.901C143.395 181.245 143.788 181.678 144.085 182.175C144.108 182.216 144.119 182.263 144.118 182.31C144.117 182.357 144.104 182.403 144.08 182.444C144.056 182.484 144.021 182.518 143.98 182.541C143.939 182.564 143.892 182.576 143.845 182.575V182.56Z" fill="#FAFAFA"/>
<path d="M145.11 181.21C145.06 181.211 145.011 181.198 144.969 181.173C144.926 181.147 144.892 181.11 144.87 181.065C144.34 180.211 143.496 179.599 142.52 179.36C142.449 179.344 142.387 179.301 142.348 179.241C142.309 179.18 142.295 179.106 142.31 179.035C142.317 179 142.331 178.966 142.352 178.936C142.372 178.906 142.398 178.881 142.428 178.861C142.458 178.842 142.492 178.828 142.528 178.822C142.563 178.816 142.6 178.817 142.635 178.825C143.198 178.96 143.729 179.207 144.195 179.55C144.661 179.894 145.054 180.327 145.35 180.825C145.384 180.889 145.391 180.963 145.371 181.032C145.35 181.102 145.303 181.16 145.24 181.195C145.198 181.209 145.154 181.214 145.11 181.21Z" fill="#FAFAFA"/>
<path d="M146.375 179.86C146.326 179.86 146.277 179.847 146.235 179.821C146.192 179.796 146.158 179.759 146.135 179.715C145.602 178.864 144.759 178.253 143.785 178.01C143.715 177.993 143.655 177.95 143.616 177.889C143.578 177.829 143.565 177.755 143.58 177.685C143.587 177.65 143.6 177.616 143.62 177.587C143.64 177.557 143.665 177.531 143.695 177.512C143.725 177.492 143.759 177.479 143.794 177.472C143.829 177.466 143.865 177.467 143.9 177.475C144.464 177.611 144.995 177.857 145.462 178.201C145.929 178.544 146.323 178.977 146.62 179.475C146.654 179.539 146.66 179.614 146.639 179.684C146.617 179.753 146.569 179.811 146.505 179.845C146.463 179.86 146.419 179.865 146.375 179.86Z" fill="#FAFAFA"/>
<path d="M162.13 180.335C162.089 180.122 162.098 179.902 162.157 179.692C162.215 179.483 162.321 179.29 162.466 179.128C162.611 178.967 162.792 178.841 162.994 178.76C163.196 178.68 163.413 178.647 163.63 178.665C165.38 178.665 166.63 178.715 166.475 180.015V180.945C166.475 180.945 166.475 185.58 166.825 187.08C167.175 188.58 168.035 193.33 164.465 194.025C160.895 194.72 159.595 191.675 160.245 188.79C160.648 187.164 160.893 185.503 160.975 183.83C161.055 182.775 160.65 178.915 161.81 178.665L162.13 180.335Z" fill="#ED4B00"/>
<path d="M165.4 186.075C165.354 186.074 165.309 186.06 165.27 186.035C164.363 185.6 163.322 185.537 162.37 185.86C162.337 185.873 162.301 185.879 162.265 185.878C162.229 185.876 162.194 185.868 162.162 185.853C162.129 185.838 162.1 185.817 162.075 185.791C162.051 185.765 162.032 185.734 162.02 185.7C162.007 185.666 162.001 185.63 162.002 185.594C162.003 185.558 162.012 185.522 162.026 185.489C162.041 185.456 162.062 185.427 162.089 185.402C162.115 185.377 162.146 185.358 162.18 185.345C162.727 185.157 163.305 185.079 163.882 185.116C164.458 185.153 165.022 185.304 165.54 185.56C165.603 185.597 165.649 185.657 165.667 185.727C165.686 185.797 165.676 185.872 165.64 185.935C165.616 185.978 165.582 186.014 165.539 186.038C165.497 186.063 165.449 186.076 165.4 186.075Z" fill="#FAFAFA"/>
<path d="M165.59 184C165.543 183.998 165.497 183.986 165.455 183.965C164.551 183.527 163.511 183.463 162.56 183.785C162.526 183.804 162.489 183.815 162.45 183.817C162.412 183.82 162.373 183.815 162.337 183.801C162.301 183.788 162.268 183.767 162.24 183.74C162.213 183.713 162.192 183.68 162.178 183.644C162.164 183.608 162.158 183.569 162.161 183.531C162.163 183.492 162.174 183.455 162.192 183.421C162.21 183.387 162.236 183.357 162.266 183.334C162.297 183.31 162.332 183.294 162.37 183.285C162.915 183.094 163.493 183.015 164.069 183.052C164.646 183.089 165.209 183.241 165.725 183.5C165.756 183.517 165.784 183.54 165.806 183.568C165.829 183.596 165.845 183.629 165.855 183.663C165.865 183.697 165.868 183.733 165.863 183.769C165.859 183.805 165.848 183.839 165.83 183.87C165.805 183.911 165.769 183.944 165.727 183.967C165.685 183.99 165.638 184.001 165.59 184Z" fill="#FAFAFA"/>
<path d="M165.78 181.955C165.733 181.953 165.687 181.941 165.645 181.92C164.738 181.486 163.698 181.421 162.745 181.74C162.711 181.759 162.673 181.771 162.634 181.774C162.595 181.777 162.556 181.772 162.519 181.758C162.483 181.745 162.449 181.724 162.422 181.696C162.394 181.668 162.373 181.635 162.359 181.599C162.345 181.562 162.34 181.523 162.343 181.484C162.346 181.445 162.358 181.407 162.377 181.373C162.396 181.339 162.422 181.309 162.454 181.286C162.485 181.263 162.522 181.248 162.56 181.24C163.105 181.049 163.683 180.97 164.259 181.007C164.836 181.044 165.399 181.196 165.915 181.455C165.946 181.472 165.974 181.495 165.996 181.523C166.019 181.551 166.035 181.584 166.045 181.618C166.055 181.652 166.058 181.688 166.053 181.724C166.049 181.76 166.038 181.794 166.02 181.825C165.995 181.866 165.959 181.899 165.917 181.922C165.875 181.945 165.828 181.956 165.78 181.955Z" fill="#FAFAFA"/>
<path d="M140.06 181.08C139.249 181.523 138.472 182.024 137.735 182.58C136.57 183.475 136.38 186.265 139.685 186.725C141.076 186.954 142.505 186.743 143.77 186.12C143.615 185.039 143.195 184.014 142.548 183.134C141.9 182.255 141.046 181.549 140.06 181.08Z" fill="white"/>
<path d="M149.68 181.875C148.115 182.268 146.702 183.118 145.62 184.315C144.87 185.107 143.935 185.702 142.9 186.047C141.865 186.391 140.76 186.475 139.685 186.29C137.835 186.035 137.08 185.045 136.98 184.065C136.885 185.165 137.565 186.42 139.685 186.715C140.76 186.9 141.865 186.816 142.9 186.472C143.935 186.127 144.87 185.532 145.62 184.74C146.702 183.543 148.115 182.693 149.68 182.3C151.41 181.855 151.6 180.955 151.57 179.65C151.535 180.725 151.215 181.5 149.68 181.875Z" fill="#37474F"/>
<path d="M167.145 188.905C166.243 187.985 165.014 187.458 163.726 187.436C162.438 187.415 161.193 187.901 160.26 188.79C159.61 191.675 160.91 194.72 164.48 194.025C167.07 193.5 167.335 190.89 167.145 188.905Z" fill="#F5F5F5"/>
<path d="M164.5 193.46C161.63 194.02 160.23 192.16 160.125 189.91C160.005 192.41 161.39 194.63 164.5 194.025C166.805 193.575 167.265 191.445 167.21 189.585C167.135 191.29 166.55 193.055 164.5 193.46Z" fill="#455A64"/>
</svg>
