<svg width="20" height="20" viewBox="0 0 20 20" fill="none" xmlns="http://www.w3.org/2000/svg">
<path d="M9.79327 1.66602C11.0598 1.66602 12.0864 2.69273 12.0864 3.95924V16.0413C12.0864 17.3078 11.0598 18.3346 9.79327 18.3346C8.52677 18.3346 7.50002 17.3078 7.50002 16.0413V3.95924C7.50002 2.69273 8.52677 1.66602 9.79327 1.66602ZM15.6266 5.83268C16.8931 5.83268 17.9198 6.8594 17.9198 8.12591V16.0413C17.9198 17.3078 16.8931 18.3346 15.6266 18.3346C14.3601 18.3346 13.3334 17.3078 13.3334 16.0413V8.12591C13.3334 6.8594 14.3601 5.83268 15.6266 5.83268ZM3.95991 9.99934C5.22643 9.99934 6.25314 11.0261 6.25314 12.2926V16.0413C6.25314 17.3078 5.22643 18.3346 3.95991 18.3346C2.6934 18.3346 1.66669 17.3078 1.66669 16.0413V12.2926C1.66669 11.0261 2.6934 9.99934 3.95991 9.99934Z" fill="#333333"/>
</svg>
