<svg width="34" height="34" viewBox="0 0 34 34" fill="none" xmlns="http://www.w3.org/2000/svg">
<g clip-path="url(#clip0_66_455)">
<path d="M22.6377 12.0311C21.2603 10.6537 19.7987 10.0661 17.7516 10.0668C17.1994 10.0675 16.7525 10.5144 16.7518 11.0667C16.7518 11.6196 17.1994 12.0672 17.7523 12.0672C19.2776 12.0665 20.218 12.4399 21.2235 13.4454C22.2623 14.4841 22.8343 15.8651 22.8336 17.3337C22.8329 18.7529 22.4263 19.8652 21.5361 20.8841L21.5354 19.1213C21.5354 18.5683 21.0885 18.1215 20.5355 18.1215C19.9826 18.1215 19.5357 18.5683 19.5357 19.1213V24.3638L24.7782 24.3638C25.0539 24.3638 25.3042 24.2521 25.4853 24.0711C25.6663 23.89 25.778 23.6397 25.778 23.3639C25.778 22.811 25.3311 22.3641 24.7782 22.3641L22.8881 22.3648C24.1898 20.9471 24.8326 19.3002 24.834 17.3344C24.8347 15.3312 24.0548 13.4482 22.6377 12.0311Z" fill="black"/>
<path d="M13.4645 21.2426C12.4258 20.2039 11.8537 18.8229 11.8537 17.3536C11.8537 15.9266 12.2667 14.808 13.1711 13.782V15.5851C13.1711 16.138 13.6179 16.5849 14.1709 16.5849C14.4474 16.5856 14.6977 16.4739 14.8787 16.2929C15.0597 16.1119 15.1715 15.8616 15.1715 15.5858V10.3433L9.92897 10.3433C9.37601 10.3433 8.92912 10.7902 8.92912 11.3431C8.92912 11.8961 9.37601 12.343 9.92897 12.343L11.783 12.343C10.4904 13.7572 9.85331 15.3984 9.85401 17.3536C9.85331 19.3568 10.6332 21.2398 12.0503 22.6569C13.4277 24.0343 14.8893 24.6219 16.9364 24.6212C17.2122 24.6212 17.4618 24.5088 17.6428 24.3277C17.8238 24.1467 17.9355 23.8964 17.9355 23.6206C17.9355 23.0677 17.4879 22.6201 16.935 22.6201C15.4105 22.6215 14.47 22.2481 13.4645 21.2426Z" fill="black"/>
</g>
<defs>
<clipPath id="clip0_66_455">
<rect width="24" height="24" fill="white" transform="translate(0.0294189 17) rotate(-45)"/>
</clipPath>
</defs>
</svg>
