<svg width="21" height="24" viewBox="0 0 21 24" fill="none" xmlns="http://www.w3.org/2000/svg">
<path d="M15.9569 0C16.4172 0 16.7976 0.338502 16.8579 0.777697L16.8661 0.899793L16.8654 1.79839L17.7737 1.79942C19.2799 1.79993 20.501 3.00812 20.5015 4.49885L20.5024 16.7961H15.9512L15.7645 16.8024C14.4096 16.8931 13.326 17.9627 13.2303 19.3024L13.2234 19.4955V24H3.23182C1.72553 23.9998 0.504418 22.7914 0.50403 21.3007L0.502441 4.4992C0.502054 3.00832 1.72322 1.79942 3.22979 1.79942L4.13584 1.79839L4.13653 0.899793C4.13653 0.402855 4.54361 0 5.04579 0C5.5061 0 5.88654 0.338502 5.94674 0.777697L5.95505 0.899793L5.95436 1.79839H9.59377L9.59437 0.899793C9.59437 0.402855 10.0015 0 10.5036 0C10.964 0 11.3444 0.338502 11.4046 0.777697L11.4129 0.899793L11.4123 1.79839H15.0469L15.0476 0.899793C15.0476 0.402855 15.4547 0 15.9569 0ZM19.969 18.5957L15.0408 23.4726L15.0419 19.4955L15.0503 19.3734C15.105 18.9741 15.4244 18.6581 15.8278 18.6039L15.9512 18.5957H19.969ZM9.89321 16.7961H5.04601L4.92263 16.8043C4.47881 16.8639 4.13675 17.2404 4.13675 17.6959C4.13675 18.1515 4.47881 18.5279 4.92263 18.5876L5.04601 18.5957H9.89321L10.0166 18.5876C10.4605 18.5279 10.8025 18.1515 10.8025 17.6959C10.8025 17.2404 10.4605 16.8639 10.0166 16.8043L9.89321 16.7961ZM15.9549 11.9972H5.04601L4.92263 12.0054C4.47881 12.065 4.13675 12.4415 4.13675 12.897C4.13675 13.3526 4.47881 13.729 4.92263 13.7887L5.04601 13.7968H15.9549L16.0784 13.7887C16.5222 13.729 16.8642 13.3526 16.8642 12.897C16.8642 12.4415 16.5222 12.065 16.0784 12.0054L15.9549 11.9972ZM15.9549 7.19834H5.04601L4.92263 7.20656C4.47881 7.26614 4.13675 7.6426 4.13675 8.09814C4.13675 8.55367 4.47881 8.93013 4.92263 8.98971L5.04601 8.99793H15.9549L16.0784 8.98971C16.5222 8.93013 16.8642 8.55367 16.8642 8.09814C16.8642 7.6426 16.5222 7.26614 16.0784 7.20656L15.9549 7.19834Z" fill="#6699CC"/>
</svg>
