<svg width="17" height="19" viewBox="0 0 17 19" fill="none" xmlns="http://www.w3.org/2000/svg">
<path d="M13 0H3.00002C2.18927 0.0183799 1.41872 0.356802 0.856641 0.941368C0.294558 1.52593 -0.0133978 2.30915 1.83131e-05 3.12V15.94C-0.0201781 16.3812 0.106209 16.8166 0.359462 17.1784C0.612715 17.5402 0.978593 17.808 1.40002 17.94C1.77437 18.066 2.17837 18.0741 2.55748 17.9633C2.93659 17.8524 3.27256 17.6279 3.52002 17.32L8.00002 13.32L12.48 17.32C12.667 17.5391 12.9004 17.7138 13.1634 17.8314C13.4263 17.949 13.7121 18.0066 14 18C14.2075 18.0009 14.4137 17.9671 14.61 17.9C15.0314 17.768 15.3973 17.5002 15.6506 17.1384C15.9038 16.7766 16.0302 16.3412 16.01 15.9V3.12C16.0234 2.30746 15.7141 1.52275 15.1499 0.937901C14.5856 0.353051 13.8125 0.0157722 13 0Z" fill="#8C9EA0"/>
</svg>
