<svg width="20" height="20" viewBox="0 0 20 20" fill="none" xmlns="http://www.w3.org/2000/svg">
<g clip-path="url(#clip0_66_473)">
<path d="M18.6667 16.3333L14.6667 12.3333C15.4167 11.1666 15.8334 9.83325 15.8334 8.33325C15.8334 4.16659 12.5 0.833252 8.33337 0.833252C4.16671 0.833252 0.833374 4.16659 0.833374 8.33325C0.833374 12.4999 4.16671 15.8333 8.33337 15.8333C9.83337 15.8333 11.1667 15.4166 12.3334 14.6666L16.3334 18.6666C16.6667 18.9999 17.0834 19.1666 17.5 19.1666C18.4167 19.1666 19.1667 18.4166 19.1667 17.4999C19.1667 16.9999 19 16.5833 18.6667 16.3333ZM4.16671 8.33325C4.16671 5.99992 6.00004 4.16659 8.33337 4.16659C10.6667 4.16659 12.5 5.99992 12.5 8.33325C12.5 10.6666 10.6667 12.4999 8.33337 12.4999C6.00004 12.4999 4.16671 10.6666 4.16671 8.33325Z" fill="#333333"/>
</g>
<defs>
<clipPath id="clip0_66_473">
<rect width="20" height="20" fill="white"/>
</clipPath>
</defs>
</svg>
