<svg width="25" height="24" viewBox="0 0 25 24" fill="none" xmlns="http://www.w3.org/2000/svg">
<path d="M23.5811 14.4L22.2963 13.7C20.9044 12.9 20.9044 11 22.2963 10.2L23.5811 9.5C24.6517 8.9 24.9729 7.7 24.3305 6.8L23.2599 5.1C22.6175 4.1 21.3326 3.8 20.369 4.4L19.0842 5.1C17.6923 5.9 15.8722 4.9 15.8722 3.4V2C15.8722 0.9 14.9086 0 13.7308 0H11.5895C10.4117 0 9.44812 0.9 9.44812 2V3.3C9.44812 4.8 7.62797 5.8 6.23609 5L4.95128 4.4C3.8806 3.8 2.59578 4.2 2.06044 5.1L0.989767 6.8C0.454428 7.8 0.775631 9 1.73924 9.6L3.02406 10.3C4.41594 11 4.41594 13 3.02406 13.7L1.73924 14.4C0.668564 15 0.34736 16.2 0.989767 17.1L2.06044 18.8C2.70285 19.8 3.98767 20.1 4.95128 19.5L6.23609 18.9C7.62797 18.1 9.44812 19.1 9.44812 20.6V22C9.44812 23.1 10.4117 24 11.5895 24H13.7308C14.9086 24 15.8722 23.1 15.8722 22V20.7C15.8722 19.2 17.6923 18.2 19.0842 19L20.369 19.7C21.4397 20.3 22.7245 19.9 23.2599 19L24.3305 17.3C24.8659 16.2 24.5447 15 23.5811 14.4ZM12.6602 16C10.3047 16 8.37744 14.2 8.37744 12C8.37744 9.8 10.3047 8 12.6602 8C15.0156 8 16.9429 9.8 16.9429 12C16.9429 14.2 15.0156 16 12.6602 16Z" fill="white"/>
</svg>
