<svg width="16" height="16" viewBox="0 0 16 16" fill="none" xmlns="http://www.w3.org/2000/svg">
<g clip-path="url(#clip0_159_819)">
<path d="M12.7333 15.6669C11.1333 15.6669 9.86667 14.4002 9.8 12.8002L4.93334 10.3335C4.4 10.7335 3.86667 10.8669 3.2 10.8669C1.6 10.8669 0.26667 9.53353 0.26667 7.93353C0.26667 6.33353 1.6 5.0002 3.2 5.0002C3.8 5.0002 4.4 5.2002 4.93334 5.53353L9.8 3.06686C9.8 1.46686 11.1333 0.200195 12.7333 0.200195C14.3333 0.200195 15.6667 1.53353 15.6667 3.13353C15.6667 4.73353 14.3333 6.06686 12.7333 6.06686C12.1333 6.06686 11.5333 5.86686 11 5.53353L6.26667 8.0002L11.0667 10.4002C11.5333 10.0669 12.1333 9.86686 12.8 9.86686C14.4 9.86686 15.7333 11.2002 15.7333 12.8002C15.6667 14.3335 14.3333 15.6669 12.7333 15.6669Z" fill="#333333"/>
</g>
<defs>
<clipPath id="clip0_159_819">
<rect width="16" height="16" fill="white"/>
</clipPath>
</defs>
</svg>
