<svg width="17" height="17" viewBox="0 0 17 17" fill="none" xmlns="http://www.w3.org/2000/svg">
<path d="M9 8C9.1035 8 9.2052 8.0079 9.3045 8.023C7.90933 9.0206 7 10.6541 7 12.5C7 13.3244 7.1814 14.1065 7.50646 14.8085C6.90367 14.9334 6.23233 15 5.5 15C2.08805 15 0 13.5544 0 11.5V10C0 8.8954 0.89543 8 2 8H9Z" fill="#333333"/>
<path d="M5.5 0C7.433 0 9 1.567 9 3.5C9 5.433 7.433 7 5.5 7C3.567 7 2 5.433 2 3.5C2 1.567 3.567 0 5.5 0Z" fill="#333333"/>
<path d="M17 12.5C17 14.9853 14.9853 17 12.5 17C10.0147 17 8 14.9853 8 12.5C8 10.0147 10.0147 8 12.5 8C14.9853 8 17 10.0147 17 12.5ZM13 10.5C13 10.2239 12.7761 10 12.5 10C12.2239 10 12 10.2239 12 10.5V12H10.5C10.2239 12 10 12.2239 10 12.5C10 12.7761 10.2239 13 10.5 13H12V14.5C12 14.7761 12.2239 15 12.5 15C12.7761 15 13 14.7761 13 14.5V13H14.5C14.7761 13 15 12.7761 15 12.5C15 12.2239 14.7761 12 14.5 12H13V10.5Z" fill="#333333"/>
</svg>
