<svg width="24" height="24" viewBox="0 0 24 24" fill="none" xmlns="http://www.w3.org/2000/svg">
<path d="M22.3676 6.37727C21.601 6.71805 20.7759 6.94792 19.9102 7.05079C20.7941 6.52162 21.4719 5.68342 21.7915 4.68351C20.9647 5.17416 20.0495 5.53018 19.0745 5.72237C18.2943 4.89095 17.1822 4.37109 15.9516 4.37109C13.589 4.37109 11.6734 6.28667 11.6734 8.64972C11.6734 8.98457 11.7111 9.31096 11.7843 9.62465C8.22832 9.44601 5.07534 7.74294 2.96502 5.15426C2.59672 5.78587 2.3859 6.52078 2.3859 7.30564C2.3859 8.78984 3.14113 10.0996 4.28921 10.8667C3.58817 10.8443 2.92819 10.6517 2.35119 10.3312C2.35077 10.349 2.35077 10.3672 2.35077 10.3854C2.35077 12.458 3.82566 14.1869 5.78315 14.5806C5.42416 14.678 5.04613 14.7305 4.65581 14.7305C4.3798 14.7305 4.11183 14.7038 3.85063 14.6534C4.39546 16.3531 5.97534 17.5905 7.84732 17.6248C6.38301 18.7724 4.53855 19.4566 2.53365 19.4566C2.18863 19.4566 1.84785 19.4362 1.51299 19.3964C3.40698 20.611 5.65572 21.3188 8.07168 21.3188C15.9419 21.3188 20.245 14.7995 20.245 9.14544C20.245 8.96002 20.2412 8.77502 20.2332 8.5913C21.0688 7.98932 21.7944 7.23536 22.3676 6.37727Z" fill="#333333"/>
</svg>
