<svg width="24" height="24" viewBox="0 0 24 24" fill="none" xmlns="http://www.w3.org/2000/svg">
<path d="M20.8 7.3C20 6.8 19 6.6 18.1 6.9L15.8 7.7C15.2 6.1 13.7 5 12 5H5.99999C3.79999 5 1.99999 6.8 1.99999 9V15C1.99999 17.2 3.79999 19 5.99999 19H12C13.7 19 15.2 17.9 15.8 16.3L18.1 17.1C18.4 17.2 18.7 17.3 19.1 17.3C19.7 17.3 20.3 17.1 20.8 16.7C21.6 16.1 22 15.2 22 14.3V9.8C22 8.8 21.5 7.9 20.8 7.3ZM12.927 16H4.927C3.827 16 4.99999 17 4.99999 16C4.99999 14.9 3.827 16 4.927 16H12.927C14.027 16 12.927 14.9 12.927 16C14.027 16 12.927 17.1 12.927 16ZM20 14.2C20 14.5 19.8 14.8 19.6 15C19.3 15.2 19 15.2 18.7 15.1L16 14.3V9.7L18.7 8.8C19 8.7 19.3 8.8 19.6 9C19.8 9.2 20 9.4 20 9.8V14.2Z" fill="#333333"/>
</svg>
