<svg width="16" height="16" viewBox="0 0 16 16" fill="none" xmlns="http://www.w3.org/2000/svg">
<path d="M8 0C6.41775 0 4.87103 0.465876 3.55544 1.33871C2.23985 2.21155 1.21447 3.45215 0.608967 4.90363C0.00346628 6.35511 -0.15496 7.95227 0.153721 9.49315C0.462403 11.034 1.22433 12.4494 2.34315 13.5603C3.46197 14.6712 4.88743 15.4278 6.43928 15.7343C7.99113 16.0408 9.59966 15.8835 11.0615 15.2823C12.5233 14.681 13.7727 13.6629 14.6518 12.3566C15.5308 11.0503 16 9.51453 16 7.94346C16 5.83672 15.1571 3.81627 13.6569 2.32659C12.1566 0.836898 10.1217 0 8 0ZM12.1169 10.3326C12.245 9.5426 12.3088 8.74364 12.3077 7.94346C12.3086 7.14305 12.2427 6.34393 12.1108 5.55431C13.7662 6.15924 14.7692 7.07579 14.7692 7.94346C14.7692 8.81113 13.7292 9.77657 12.1169 10.3326ZM1.23077 7.94346C1.23077 7.04524 2.27077 6.14091 3.88308 5.55431C3.755 6.34432 3.6912 7.14328 3.69231 7.94346C3.6914 8.74388 3.75726 9.54299 3.88923 10.3326C2.23385 9.72768 1.23077 8.81113 1.23077 7.94346ZM5.23077 1.83311C4.77227 2.55636 4.42389 3.3429 4.19693 4.16726C3.36701 4.39063 2.57487 4.73448 1.84616 5.18769C2.52574 3.69786 3.7291 2.50518 5.23077 1.83311ZM1.84616 10.6931C2.66713 11.199 3.56477 11.5704 4.50462 11.793H4.56C5.68514 12.0726 6.84017 12.2162 8 12.2207C8.36923 12.2207 8.73231 12.2207 9.08308 12.184C9.24629 12.1727 9.39828 12.0974 9.5056 11.9748C9.61293 11.8522 9.66681 11.6923 9.65539 11.5302C9.64396 11.3682 9.56817 11.2173 9.44468 11.1107C9.3212 11.0041 9.16014 10.9506 8.99692 10.962C8.67282 10.9864 8.34051 10.9986 8 10.9986C7.06507 11.0035 6.13239 10.9072 5.21846 10.7115C5.02077 9.8019 4.92175 8.87395 4.92308 7.94346C4.92308 3.98395 6.54769 1.22207 8 1.22207C8.61539 1.22207 9.23077 1.68646 9.77846 2.52969C9.83334 2.61687 9.90948 2.6889 9.99984 2.7391C10.0902 2.7893 10.1918 2.81605 10.2954 2.81687C10.4127 2.8184 10.528 2.7866 10.6277 2.72522C10.696 2.6823 10.7551 2.62643 10.8016 2.56083C10.8482 2.49522 10.8813 2.42114 10.899 2.34284C10.9167 2.26454 10.9187 2.18354 10.9049 2.10446C10.8911 2.02539 10.8617 1.94979 10.8185 1.88199C10.8056 1.86063 10.7912 1.84021 10.7754 1.82089C12.278 2.49867 13.4794 3.69816 14.1538 5.1938C13.3026 4.67264 12.3714 4.29289 11.3969 4.0695C10.285 3.80042 9.14449 3.66502 8 3.66621C7.63077 3.66621 7.26769 3.66621 6.91692 3.70288C6.83611 3.70849 6.7572 3.72986 6.68471 3.76576C6.61221 3.80165 6.54754 3.85138 6.4944 3.91209C6.44126 3.9728 6.40068 4.04331 6.37498 4.11959C6.34928 4.19588 6.33896 4.27644 6.34462 4.35668C6.35027 4.43693 6.37179 4.51528 6.40795 4.58726C6.4441 4.65924 6.49418 4.72345 6.55532 4.77622C6.61646 4.82899 6.68748 4.86928 6.7643 4.8948C6.84113 4.92032 6.92227 4.93056 7.00308 4.92495C7.33128 4.9005 7.66359 4.88828 8 4.88828C8.93493 4.88344 9.86761 4.97974 10.7815 5.17547C10.9792 6.08502 11.0783 7.01297 11.0769 7.94346C11.0769 11.903 9.45231 14.6649 8 14.6649C7.38462 14.6649 6.76923 14.2005 6.22154 13.3572C6.18185 13.2832 6.12722 13.218 6.06106 13.1658C5.99489 13.1136 5.91861 13.0755 5.83696 13.0538C5.75531 13.0322 5.67005 13.0275 5.58649 13.04C5.50292 13.0525 5.42285 13.082 5.35126 13.1266C5.27967 13.1712 5.2181 13.2299 5.17038 13.2992C5.12265 13.3684 5.08981 13.4467 5.07388 13.5291C5.05796 13.6115 5.0593 13.6963 5.07783 13.7781C5.09635 13.86 5.13165 13.9372 5.18154 14.0049C5.19442 14.0263 5.20882 14.0467 5.22462 14.066C3.72202 13.3883 2.52056 12.1888 1.84616 10.6931ZM10.7692 14.0538C11.2294 13.3249 11.5778 12.532 11.8031 11.7013C12.632 11.4837 13.4241 11.146 14.1538 10.6992C13.4743 12.1891 12.2709 13.3817 10.7692 14.0538Z" fill="black"/>
</svg>
